<svg width="379" height="379" viewBox="0 0 379 379" fill="none" xmlns="http://www.w3.org/2000/svg">
<rect width="379" height="379" fill="#717171" fill-opacity="0.1"/>
<path d="M34.864 141.728V136.64H43.728V160H38.032V141.728H34.864ZM53.3593 153.152C53.6793 154.837 54.6606 155.68 56.3033 155.68C57.4339 155.68 58.2339 155.179 58.7033 154.176C59.1726 153.173 59.4073 151.541 59.4073 149.28C58.9379 149.941 58.2979 150.453 57.4873 150.816C56.6766 151.179 55.7699 151.36 54.7673 151.36C53.4019 151.36 52.1859 151.083 51.1193 150.528C50.0526 149.952 49.2099 149.109 48.5913 148C47.9939 146.869 47.6953 145.504 47.6953 143.904C47.6953 142.325 48.0153 140.949 48.6553 139.776C49.3166 138.603 50.2446 137.696 51.4393 137.056C52.6553 136.416 54.0846 136.096 55.7273 136.096C58.8846 136.096 61.0926 137.077 62.3513 139.04C63.6099 141.003 64.2393 143.893 64.2393 147.712C64.2393 150.485 63.9833 152.779 63.4713 154.592C62.9806 156.384 62.1379 157.749 60.9433 158.688C59.7699 159.627 58.1593 160.096 56.1113 160.096C54.4899 160.096 53.1033 159.776 51.9513 159.136C50.8206 158.496 49.9459 157.653 49.3273 156.608C48.7299 155.563 48.3886 154.411 48.3033 153.152H53.3593ZM56.0153 147.04C56.9113 147.04 57.6259 146.773 58.1593 146.24C58.6926 145.685 58.9593 144.939 58.9593 144C58.9593 142.976 58.6819 142.187 58.1273 141.632C57.5726 141.077 56.8259 140.8 55.8873 140.8C54.9486 140.8 54.2019 141.088 53.6473 141.664C53.1139 142.219 52.8473 142.987 52.8473 143.968C52.8473 144.885 53.1139 145.632 53.6473 146.208C54.2019 146.763 54.9913 147.04 56.0153 147.04ZM73.0468 153.152C73.3668 154.837 74.3481 155.68 75.9908 155.68C77.1214 155.68 77.9214 155.179 78.3908 154.176C78.8601 153.173 79.0948 151.541 79.0948 149.28C78.6254 149.941 77.9854 150.453 77.1748 150.816C76.3641 151.179 75.4574 151.36 74.4548 151.36C73.0894 151.36 71.8734 151.083 70.8068 150.528C69.7401 149.952 68.8974 149.109 68.2788 148C67.6814 146.869 67.3828 145.504 67.3828 143.904C67.3828 142.325 67.7028 140.949 68.3428 139.776C69.0041 138.603 69.9321 137.696 71.1268 137.056C72.3428 136.416 73.7721 136.096 75.4148 136.096C78.5721 136.096 80.7801 137.077 82.0388 139.04C83.2974 141.003 83.9268 143.893 83.9268 147.712C83.9268 150.485 83.6708 152.779 83.1588 154.592C82.6681 156.384 81.8254 157.749 80.6308 158.688C79.4574 159.627 77.8468 160.096 75.7988 160.096C74.1774 160.096 72.7908 159.776 71.6388 159.136C70.5081 158.496 69.6334 157.653 69.0148 156.608C68.4174 155.563 68.0761 154.411 67.9908 153.152H73.0468ZM75.7028 147.04C76.5988 147.04 77.3134 146.773 77.8468 146.24C78.3801 145.685 78.6468 144.939 78.6468 144C78.6468 142.976 78.3694 142.187 77.8148 141.632C77.2601 141.077 76.5134 140.8 75.5748 140.8C74.6361 140.8 73.8894 141.088 73.3348 141.664C72.8014 142.219 72.5348 142.987 72.5348 143.968C72.5348 144.885 72.8014 145.632 73.3348 146.208C73.8894 146.763 74.6788 147.04 75.7028 147.04ZM86.8463 148C86.8463 144.331 87.5503 141.44 88.9583 139.328C90.3876 137.216 92.6809 136.16 95.8383 136.16C98.9956 136.16 101.278 137.216 102.686 139.328C104.116 141.44 104.83 144.331 104.83 148C104.83 151.712 104.116 154.624 102.686 156.736C101.278 158.848 98.9956 159.904 95.8383 159.904C92.6809 159.904 90.3876 158.848 88.9583 156.736C87.5503 154.624 86.8463 151.712 86.8463 148ZM99.4543 148C99.4543 145.845 99.2196 144.192 98.7503 143.04C98.2809 141.867 97.3103 141.28 95.8383 141.28C94.3663 141.28 93.3956 141.867 92.9263 143.04C92.4569 144.192 92.2223 145.845 92.2223 148C92.2223 149.451 92.3076 150.656 92.4783 151.616C92.6489 152.555 92.9903 153.323 93.5023 153.92C94.0356 154.496 94.8143 154.784 95.8383 154.784C96.8623 154.784 97.6303 154.496 98.1423 153.92C98.6756 153.323 99.0276 152.555 99.1983 151.616C99.3689 150.656 99.4543 149.451 99.4543 148Z" fill="#323232"/>
<path d="M44.682 192.34V202H43.702V194.286L40.258 202H39.544L36.1 194.314V202H35.12V192.34H36.156L39.894 200.712L43.632 192.34H44.682ZM47.3952 192.914C47.1992 192.914 47.0312 192.844 46.8912 192.704C46.7512 192.564 46.6812 192.391 46.6812 192.186C46.6812 191.981 46.7512 191.813 46.8912 191.682C47.0312 191.542 47.1992 191.472 47.3952 191.472C47.5912 191.472 47.7592 191.542 47.8992 191.682C48.0392 191.813 48.1092 191.981 48.1092 192.186C48.1092 192.391 48.0392 192.564 47.8992 192.704C47.7592 192.844 47.5912 192.914 47.3952 192.914ZM47.8852 194.356V202H46.9052V194.356H47.8852ZM51.3784 195.182V199.928C51.3784 200.395 51.467 200.717 51.6444 200.894C51.8217 201.071 52.1344 201.16 52.5824 201.16H53.4784V202H52.4284C51.7377 202 51.2244 201.841 50.8884 201.524C50.5524 201.197 50.3844 200.665 50.3844 199.928V195.182H49.3204V194.356H50.3844V192.438H51.3784V194.356H53.4784V195.182H51.3784ZM58.4884 198.164C58.4884 197.38 58.6471 196.694 58.9644 196.106C59.2817 195.509 59.7157 195.051 60.2664 194.734C60.8264 194.407 61.4564 194.244 62.1564 194.244C62.8284 194.244 63.4351 194.407 63.9764 194.734C64.5177 195.061 64.9144 195.485 65.1664 196.008V191.64H66.1464V202H65.1664V200.292C64.9331 200.824 64.5504 201.263 64.0184 201.608C63.4864 201.944 62.8611 202.112 62.1424 202.112C61.4424 202.112 60.8124 201.949 60.2524 201.622C59.7017 201.295 59.2677 200.833 58.9504 200.236C58.6424 199.639 58.4884 198.948 58.4884 198.164ZM65.1664 198.178C65.1664 197.562 65.0404 197.021 64.7884 196.554C64.5364 196.087 64.1911 195.728 63.7524 195.476C63.3231 195.224 62.8471 195.098 62.3244 195.098C61.7831 195.098 61.2977 195.219 60.8684 195.462C60.4391 195.705 60.0984 196.059 59.8464 196.526C59.6037 196.983 59.4824 197.529 59.4824 198.164C59.4824 198.789 59.6037 199.34 59.8464 199.816C60.0984 200.283 60.4391 200.642 60.8684 200.894C61.2977 201.137 61.7831 201.258 62.3244 201.258C62.8471 201.258 63.3231 201.132 63.7524 200.88C64.1911 200.628 64.5364 200.269 64.7884 199.802C65.0404 199.335 65.1664 198.794 65.1664 198.178ZM75.2997 197.786C75.2997 198.122 75.2903 198.379 75.2717 198.556H68.9297C68.9577 199.135 69.0977 199.629 69.3497 200.04C69.6017 200.451 69.933 200.763 70.3437 200.978C70.7543 201.183 71.2023 201.286 71.6877 201.286C72.3223 201.286 72.8543 201.132 73.2837 200.824C73.7223 200.516 74.0117 200.101 74.1517 199.578H75.1877C75.001 200.325 74.5997 200.936 73.9837 201.412C73.377 201.879 72.6117 202.112 71.6877 202.112C70.969 202.112 70.325 201.953 69.7557 201.636C69.1863 201.309 68.7383 200.852 68.4117 200.264C68.0943 199.667 67.9357 198.971 67.9357 198.178C67.9357 197.385 68.0943 196.689 68.4117 196.092C68.729 195.495 69.1723 195.037 69.7417 194.72C70.311 194.403 70.9597 194.244 71.6877 194.244C72.4157 194.244 73.0503 194.403 73.5917 194.72C74.1423 195.037 74.5623 195.467 74.8517 196.008C75.1503 196.54 75.2997 197.133 75.2997 197.786ZM74.3057 197.758C74.315 197.189 74.1983 196.703 73.9557 196.302C73.7223 195.901 73.4003 195.597 72.9897 195.392C72.579 195.187 72.131 195.084 71.6457 195.084C70.9177 195.084 70.297 195.317 69.7837 195.784C69.2703 196.251 68.9857 196.909 68.9297 197.758H74.3057ZM80.6767 194.216C81.5913 194.216 82.338 194.501 82.9167 195.07C83.4953 195.63 83.7847 196.447 83.7847 197.52V202H82.8187V197.632C82.8187 196.801 82.6087 196.167 82.1887 195.728C81.778 195.289 81.2133 195.07 80.4947 195.07C79.7573 195.07 79.1693 195.303 78.7307 195.77C78.292 196.237 78.0727 196.923 78.0727 197.828V202H77.0927V194.356H78.0727V195.658C78.3153 195.191 78.6653 194.837 79.1227 194.594C79.58 194.342 80.098 194.216 80.6767 194.216ZM90.4238 201.132H95.4218V202H89.2758V201.216L94.2038 193.082H89.3598V192.214H95.3518V192.998L90.4238 201.132ZM107.229 194.356L104.835 202H103.855L101.741 195.588L99.6273 202H98.6333L96.2393 194.356H97.2333L99.1373 201.006L101.279 194.356H102.259L104.373 201.02L106.263 194.356H107.229ZM109.055 192.914C108.859 192.914 108.691 192.844 108.551 192.704C108.411 192.564 108.341 192.391 108.341 192.186C108.341 191.981 108.411 191.813 108.551 191.682C108.691 191.542 108.859 191.472 109.055 191.472C109.251 191.472 109.419 191.542 109.559 191.682C109.699 191.813 109.769 191.981 109.769 192.186C109.769 192.391 109.699 192.564 109.559 192.704C109.419 192.844 109.251 192.914 109.055 192.914ZM109.545 194.356V202H108.565V194.356H109.545ZM112.745 191.64V202H111.765V191.64H112.745ZM115.944 191.64V202H114.964V191.64H115.944ZM118.653 192.914C118.457 192.914 118.289 192.844 118.149 192.704C118.009 192.564 117.939 192.391 117.939 192.186C117.939 191.981 118.009 191.813 118.149 191.682C118.289 191.542 118.457 191.472 118.653 191.472C118.849 191.472 119.017 191.542 119.157 191.682C119.297 191.813 119.367 191.981 119.367 192.186C119.367 192.391 119.297 192.564 119.157 192.704C119.017 192.844 118.849 192.914 118.653 192.914ZM119.143 194.356V202H118.163V194.356H119.143ZM124.946 194.216C125.861 194.216 126.608 194.501 127.186 195.07C127.765 195.63 128.054 196.447 128.054 197.52V202H127.088V197.632C127.088 196.801 126.878 196.167 126.458 195.728C126.048 195.289 125.483 195.07 124.764 195.07C124.027 195.07 123.439 195.303 123 195.77C122.562 196.237 122.342 196.923 122.342 197.828V202H121.362V194.356H122.342V195.658C122.585 195.191 122.935 194.837 123.392 194.594C123.85 194.342 124.368 194.216 124.946 194.216ZM133.428 194.244C134.146 194.244 134.772 194.412 135.304 194.748C135.836 195.084 136.218 195.509 136.452 196.022V194.356H137.432V202.196C137.432 202.896 137.278 203.517 136.97 204.058C136.671 204.599 136.251 205.015 135.71 205.304C135.168 205.603 134.552 205.752 133.862 205.752C132.882 205.752 132.065 205.519 131.412 205.052C130.768 204.585 130.366 203.951 130.208 203.148H131.174C131.342 203.68 131.659 204.105 132.126 204.422C132.602 204.739 133.18 204.898 133.862 204.898C134.356 204.898 134.8 204.791 135.192 204.576C135.584 204.371 135.892 204.063 136.116 203.652C136.34 203.241 136.452 202.756 136.452 202.196V200.306C136.209 200.829 135.822 201.263 135.29 201.608C134.767 201.944 134.146 202.112 133.428 202.112C132.728 202.112 132.098 201.949 131.538 201.622C130.987 201.295 130.553 200.833 130.236 200.236C129.928 199.639 129.774 198.948 129.774 198.164C129.774 197.38 129.928 196.694 130.236 196.106C130.553 195.509 130.987 195.051 131.538 194.734C132.098 194.407 132.728 194.244 133.428 194.244ZM136.452 198.178C136.452 197.562 136.326 197.021 136.074 196.554C135.822 196.087 135.476 195.728 135.038 195.476C134.608 195.224 134.132 195.098 133.61 195.098C133.068 195.098 132.583 195.219 132.154 195.462C131.724 195.705 131.384 196.059 131.132 196.526C130.889 196.983 130.768 197.529 130.768 198.164C130.768 198.789 130.889 199.34 131.132 199.816C131.384 200.283 131.724 200.642 132.154 200.894C132.583 201.137 133.068 201.258 133.61 201.258C134.132 201.258 134.608 201.132 135.038 200.88C135.476 200.628 135.822 200.269 136.074 199.802C136.326 199.335 136.452 198.794 136.452 198.178ZM146.585 197.786C146.585 198.122 146.575 198.379 146.557 198.556H140.215C140.243 199.135 140.383 199.629 140.635 200.04C140.887 200.451 141.218 200.763 141.629 200.978C142.039 201.183 142.487 201.286 142.973 201.286C143.607 201.286 144.139 201.132 144.569 200.824C145.007 200.516 145.297 200.101 145.437 199.578H146.473C146.286 200.325 145.885 200.936 145.269 201.412C144.662 201.879 143.897 202.112 142.973 202.112C142.254 202.112 141.61 201.953 141.041 201.636C140.471 201.309 140.023 200.852 139.697 200.264C139.379 199.667 139.221 198.971 139.221 198.178C139.221 197.385 139.379 196.689 139.697 196.092C140.014 195.495 140.457 195.037 141.027 194.72C141.596 194.403 142.245 194.244 142.973 194.244C143.701 194.244 144.335 194.403 144.877 194.72C145.427 195.037 145.847 195.467 146.137 196.008C146.435 196.54 146.585 197.133 146.585 197.786ZM145.591 197.758C145.6 197.189 145.483 196.703 145.241 196.302C145.007 195.901 144.685 195.597 144.275 195.392C143.864 195.187 143.416 195.084 142.931 195.084C142.203 195.084 141.582 195.317 141.069 195.784C140.555 196.251 140.271 196.909 140.215 197.758H145.591ZM151.962 194.216C152.876 194.216 153.623 194.501 154.202 195.07C154.78 195.63 155.07 196.447 155.07 197.52V202H154.104V197.632C154.104 196.801 153.894 196.167 153.474 195.728C153.063 195.289 152.498 195.07 151.78 195.07C151.042 195.07 150.454 195.303 150.016 195.77C149.577 196.237 149.358 196.923 149.358 197.828V202H148.378V194.356H149.358V195.658C149.6 195.191 149.95 194.837 150.408 194.594C150.865 194.342 151.383 194.216 151.962 194.216ZM165.601 192.214V199.62C165.601 200.367 165.372 200.969 164.915 201.426C164.458 201.874 163.846 202.098 163.081 202.098C162.288 202.098 161.653 201.86 161.177 201.384C160.71 200.899 160.477 200.245 160.477 199.424H161.471C161.48 199.956 161.611 200.39 161.863 200.726C162.124 201.062 162.53 201.23 163.081 201.23C163.604 201.23 163.991 201.076 164.243 200.768C164.495 200.46 164.621 200.077 164.621 199.62V192.214H165.601ZM171.411 202.112C170.693 202.112 170.044 201.953 169.465 201.636C168.896 201.309 168.443 200.852 168.107 200.264C167.781 199.667 167.617 198.971 167.617 198.178C167.617 197.385 167.785 196.694 168.121 196.106C168.457 195.509 168.915 195.051 169.493 194.734C170.072 194.407 170.721 194.244 171.439 194.244C172.158 194.244 172.807 194.407 173.385 194.734C173.973 195.051 174.431 195.509 174.757 196.106C175.093 196.694 175.261 197.385 175.261 198.178C175.261 198.962 175.093 199.653 174.757 200.25C174.421 200.847 173.959 201.309 173.371 201.636C172.783 201.953 172.13 202.112 171.411 202.112ZM171.411 201.258C171.915 201.258 172.382 201.146 172.811 200.922C173.241 200.689 173.586 200.343 173.847 199.886C174.118 199.419 174.253 198.85 174.253 198.178C174.253 197.506 174.123 196.941 173.861 196.484C173.6 196.017 173.255 195.672 172.825 195.448C172.396 195.215 171.929 195.098 171.425 195.098C170.921 195.098 170.455 195.215 170.025 195.448C169.596 195.672 169.251 196.017 168.989 196.484C168.737 196.941 168.611 197.506 168.611 198.178C168.611 198.85 168.737 199.419 168.989 199.886C169.251 200.343 169.591 200.689 170.011 200.922C170.441 201.146 170.907 201.258 171.411 201.258ZM180.394 202.112C179.675 202.112 179.026 201.953 178.448 201.636C177.878 201.309 177.426 200.852 177.09 200.264C176.763 199.667 176.6 198.971 176.6 198.178C176.6 197.385 176.768 196.694 177.104 196.106C177.44 195.509 177.897 195.051 178.476 194.734C179.054 194.407 179.703 194.244 180.422 194.244C181.14 194.244 181.789 194.407 182.368 194.734C182.956 195.051 183.413 195.509 183.74 196.106C184.076 196.694 184.244 197.385 184.244 198.178C184.244 198.962 184.076 199.653 183.74 200.25C183.404 200.847 182.942 201.309 182.354 201.636C181.766 201.953 181.112 202.112 180.394 202.112ZM180.394 201.258C180.898 201.258 181.364 201.146 181.794 200.922C182.223 200.689 182.568 200.343 182.83 199.886C183.1 199.419 183.236 198.85 183.236 198.178C183.236 197.506 183.105 196.941 182.844 196.484C182.582 196.017 182.237 195.672 181.808 195.448C181.378 195.215 180.912 195.098 180.408 195.098C179.904 195.098 179.437 195.215 179.008 195.448C178.578 195.672 178.233 196.017 177.972 196.484C177.72 196.941 177.594 197.506 177.594 198.178C177.594 198.85 177.72 199.419 177.972 199.886C178.233 200.343 178.574 200.689 178.994 200.922C179.423 201.146 179.89 201.258 180.394 201.258ZM188.662 202.112C187.785 202.112 187.066 201.911 186.506 201.51C185.955 201.099 185.647 200.544 185.582 199.844H186.59C186.637 200.273 186.837 200.623 187.192 200.894C187.556 201.155 188.041 201.286 188.648 201.286C189.18 201.286 189.595 201.16 189.894 200.908C190.202 200.656 190.356 200.343 190.356 199.97C190.356 199.709 190.272 199.494 190.104 199.326C189.936 199.158 189.721 199.027 189.46 198.934C189.208 198.831 188.863 198.724 188.424 198.612C187.855 198.463 187.393 198.313 187.038 198.164C186.683 198.015 186.38 197.795 186.128 197.506C185.885 197.207 185.764 196.811 185.764 196.316C185.764 195.943 185.876 195.597 186.1 195.28C186.324 194.963 186.641 194.711 187.052 194.524C187.463 194.337 187.929 194.244 188.452 194.244C189.273 194.244 189.936 194.454 190.44 194.874C190.944 195.285 191.215 195.854 191.252 196.582H190.272C190.244 196.134 190.067 195.775 189.74 195.504C189.423 195.224 188.984 195.084 188.424 195.084C187.929 195.084 187.528 195.201 187.22 195.434C186.912 195.667 186.758 195.957 186.758 196.302C186.758 196.601 186.847 196.848 187.024 197.044C187.211 197.231 187.439 197.38 187.71 197.492C187.981 197.595 188.345 197.711 188.802 197.842C189.353 197.991 189.791 198.136 190.118 198.276C190.445 198.416 190.725 198.621 190.958 198.892C191.191 199.163 191.313 199.522 191.322 199.97C191.322 200.381 191.21 200.749 190.986 201.076C190.762 201.393 190.449 201.645 190.048 201.832C189.647 202.019 189.185 202.112 188.662 202.112ZM194.441 195.182V199.928C194.441 200.395 194.53 200.717 194.707 200.894C194.884 201.071 195.197 201.16 195.645 201.16H196.541V202H195.491C194.8 202 194.287 201.841 193.951 201.524C193.615 201.197 193.447 200.665 193.447 199.928V195.182H192.383V194.356H193.447V192.438H194.441V194.356H196.541V195.182H194.441ZM208.621 194.356V202H207.641V200.656C207.417 201.132 207.072 201.496 206.605 201.748C206.138 202 205.616 202.126 205.037 202.126C204.122 202.126 203.376 201.846 202.797 201.286C202.218 200.717 201.929 199.895 201.929 198.822V194.356H202.895V198.71C202.895 199.541 203.1 200.175 203.511 200.614C203.931 201.053 204.5 201.272 205.219 201.272C205.956 201.272 206.544 201.039 206.983 200.572C207.422 200.105 207.641 199.419 207.641 198.514V194.356H208.621ZM214.442 194.216C215.357 194.216 216.104 194.501 216.682 195.07C217.261 195.63 217.55 196.447 217.55 197.52V202H216.584V197.632C216.584 196.801 216.374 196.167 215.954 195.728C215.544 195.289 214.979 195.07 214.26 195.07C213.523 195.07 212.935 195.303 212.496 195.77C212.058 196.237 211.838 196.923 211.838 197.828V202H210.858V194.356H211.838V195.658C212.081 195.191 212.431 194.837 212.888 194.594C213.346 194.342 213.864 194.216 214.442 194.216ZM219.27 198.164C219.27 197.38 219.428 196.694 219.746 196.106C220.063 195.509 220.497 195.051 221.048 194.734C221.608 194.407 222.238 194.244 222.938 194.244C223.61 194.244 224.216 194.407 224.758 194.734C225.299 195.061 225.696 195.485 225.948 196.008V191.64H226.928V202H225.948V200.292C225.714 200.824 225.332 201.263 224.8 201.608C224.268 201.944 223.642 202.112 222.924 202.112C222.224 202.112 221.594 201.949 221.034 201.622C220.483 201.295 220.049 200.833 219.732 200.236C219.424 199.639 219.27 198.948 219.27 198.164ZM225.948 198.178C225.948 197.562 225.822 197.021 225.57 196.554C225.318 196.087 224.972 195.728 224.534 195.476C224.104 195.224 223.628 195.098 223.106 195.098C222.564 195.098 222.079 195.219 221.65 195.462C221.22 195.705 220.88 196.059 220.628 196.526C220.385 196.983 220.264 197.529 220.264 198.164C220.264 198.789 220.385 199.34 220.628 199.816C220.88 200.283 221.22 200.642 221.65 200.894C222.079 201.137 222.564 201.258 223.106 201.258C223.628 201.258 224.104 201.132 224.534 200.88C224.972 200.628 225.318 200.269 225.57 199.802C225.822 199.335 225.948 198.794 225.948 198.178ZM240.385 202H239.405L233.987 193.768V202H233.007V192.214H233.987L239.405 200.432V192.214H240.385V202ZM243.094 192.914C242.898 192.914 242.73 192.844 242.59 192.704C242.45 192.564 242.38 192.391 242.38 192.186C242.38 191.981 242.45 191.813 242.59 191.682C242.73 191.542 242.898 191.472 243.094 191.472C243.29 191.472 243.458 191.542 243.598 191.682C243.738 191.813 243.808 191.981 243.808 192.186C243.808 192.391 243.738 192.564 243.598 192.704C243.458 192.844 243.29 192.914 243.094 192.914ZM243.584 194.356V202H242.604V194.356H243.584ZM249.934 202L246.784 198.57V202H245.804V191.64H246.784V197.772L249.864 194.356H251.236L247.61 198.164L251.264 202H249.934ZM253.51 191.64V202H252.53V191.64H253.51ZM255.281 198.164C255.281 197.38 255.435 196.694 255.743 196.106C256.061 195.509 256.495 195.051 257.045 194.734C257.605 194.407 258.235 194.244 258.935 194.244C259.663 194.244 260.289 194.412 260.811 194.748C261.343 195.084 261.726 195.513 261.959 196.036V194.356H262.939V202H261.959V200.306C261.717 200.829 261.329 201.263 260.797 201.608C260.275 201.944 259.649 202.112 258.921 202.112C258.231 202.112 257.605 201.949 257.045 201.622C256.495 201.295 256.061 200.833 255.743 200.236C255.435 199.639 255.281 198.948 255.281 198.164ZM261.959 198.178C261.959 197.562 261.833 197.021 261.581 196.554C261.329 196.087 260.984 195.728 260.545 195.476C260.116 195.224 259.64 195.098 259.117 195.098C258.576 195.098 258.091 195.219 257.661 195.462C257.232 195.705 256.891 196.059 256.639 196.526C256.397 196.983 256.275 197.529 256.275 198.164C256.275 198.789 256.397 199.34 256.639 199.816C256.891 200.283 257.232 200.642 257.661 200.894C258.091 201.137 258.576 201.258 259.117 201.258C259.64 201.258 260.116 201.132 260.545 200.88C260.984 200.628 261.329 200.269 261.581 199.802C261.833 199.335 261.959 198.794 261.959 198.178ZM267.809 202.112C266.931 202.112 266.213 201.911 265.653 201.51C265.102 201.099 264.794 200.544 264.729 199.844H265.737C265.783 200.273 265.984 200.623 266.339 200.894C266.703 201.155 267.188 201.286 267.795 201.286C268.327 201.286 268.742 201.16 269.041 200.908C269.349 200.656 269.503 200.343 269.503 199.97C269.503 199.709 269.419 199.494 269.251 199.326C269.083 199.158 268.868 199.027 268.607 198.934C268.355 198.831 268.009 198.724 267.571 198.612C267.001 198.463 266.539 198.313 266.185 198.164C265.83 198.015 265.527 197.795 265.275 197.506C265.032 197.207 264.911 196.811 264.911 196.316C264.911 195.943 265.023 195.597 265.247 195.28C265.471 194.963 265.788 194.711 266.199 194.524C266.609 194.337 267.076 194.244 267.599 194.244C268.42 194.244 269.083 194.454 269.587 194.874C270.091 195.285 270.361 195.854 270.399 196.582H269.419C269.391 196.134 269.213 195.775 268.887 195.504C268.569 195.224 268.131 195.084 267.571 195.084C267.076 195.084 266.675 195.201 266.367 195.434C266.059 195.667 265.905 195.957 265.905 196.302C265.905 196.601 265.993 196.848 266.171 197.044C266.357 197.231 266.586 197.38 266.857 197.492C267.127 197.595 267.491 197.711 267.949 197.842C268.499 197.991 268.938 198.136 269.265 198.276C269.591 198.416 269.871 198.621 270.105 198.892C270.338 199.163 270.459 199.522 270.469 199.97C270.469 200.381 270.357 200.749 270.133 201.076C269.909 201.393 269.596 201.645 269.195 201.832C268.793 202.019 268.331 202.112 267.809 202.112ZM281.447 192.214V193.026H277.135V196.68H280.775V197.492H277.135V202H276.155V192.214H281.447ZM284.039 195.714C284.254 195.238 284.581 194.869 285.019 194.608C285.467 194.347 286.013 194.216 286.657 194.216V195.238H286.391C285.682 195.238 285.113 195.429 284.683 195.812C284.254 196.195 284.039 196.834 284.039 197.73V202H283.059V194.356H284.039V195.714ZM287.684 198.164C287.684 197.38 287.838 196.694 288.146 196.106C288.463 195.509 288.897 195.051 289.448 194.734C290.008 194.407 290.638 194.244 291.338 194.244C292.066 194.244 292.691 194.412 293.214 194.748C293.746 195.084 294.128 195.513 294.362 196.036V194.356H295.342V202H294.362V200.306C294.119 200.829 293.732 201.263 293.2 201.608C292.677 201.944 292.052 202.112 291.324 202.112C290.633 202.112 290.008 201.949 289.448 201.622C288.897 201.295 288.463 200.833 288.146 200.236C287.838 199.639 287.684 198.948 287.684 198.164ZM294.362 198.178C294.362 197.562 294.236 197.021 293.984 196.554C293.732 196.087 293.386 195.728 292.948 195.476C292.518 195.224 292.042 195.098 291.52 195.098C290.978 195.098 290.493 195.219 290.064 195.462C289.634 195.705 289.294 196.059 289.042 196.526C288.799 196.983 288.678 197.529 288.678 198.164C288.678 198.789 288.799 199.34 289.042 199.816C289.294 200.283 289.634 200.642 290.064 200.894C290.493 201.137 290.978 201.258 291.52 201.258C292.042 201.258 292.518 201.132 292.948 200.88C293.386 200.628 293.732 200.269 293.984 199.802C294.236 199.335 294.362 198.794 294.362 198.178ZM301.163 194.216C302.078 194.216 302.824 194.501 303.403 195.07C303.982 195.63 304.271 196.447 304.271 197.52V202H303.305V197.632C303.305 196.801 303.095 196.167 302.675 195.728C302.264 195.289 301.7 195.07 300.981 195.07C300.244 195.07 299.656 195.303 299.217 195.77C298.778 196.237 298.559 196.923 298.559 197.828V202H297.579V194.356H298.559V195.658C298.802 195.191 299.152 194.837 299.609 194.594C300.066 194.342 300.584 194.216 301.163 194.216ZM306.956 201.188H310.96V202H305.836V201.188L309.77 195.168H305.906V194.356H310.89V195.168L306.956 201.188ZM317.734 195.182V199.928C317.734 200.395 317.823 200.717 318 200.894C318.177 201.071 318.49 201.16 318.938 201.16H319.834V202H318.784C318.093 202 317.58 201.841 317.244 201.524C316.908 201.197 316.74 200.665 316.74 199.928V195.182H315.676V194.356H316.74V192.438H317.734V194.356H319.834V195.182H317.734ZM322.43 195.714C322.645 195.238 322.971 194.869 323.41 194.608C323.858 194.347 324.404 194.216 325.048 194.216V195.238H324.782C324.073 195.238 323.503 195.429 323.074 195.812C322.645 196.195 322.43 196.834 322.43 197.73V202H321.45V194.356H322.43V195.714ZM327.012 192.914C326.816 192.914 326.648 192.844 326.508 192.704C326.368 192.564 326.298 192.391 326.298 192.186C326.298 191.981 326.368 191.813 326.508 191.682C326.648 191.542 326.816 191.472 327.012 191.472C327.208 191.472 327.376 191.542 327.516 191.682C327.656 191.813 327.726 191.981 327.726 192.186C327.726 192.391 327.656 192.564 327.516 192.704C327.376 192.844 327.208 192.914 327.012 192.914ZM327.502 194.356V202H326.522V194.356H327.502ZM330.996 195.182V199.928C330.996 200.395 331.084 200.717 331.262 200.894C331.439 201.071 331.752 201.16 332.2 201.16H333.096V202H332.046C331.355 202 330.842 201.841 330.506 201.524C330.17 201.197 330.002 200.665 330.002 199.928V195.182H328.938V194.356H330.002V192.438H330.996V194.356H333.096V195.182H330.996ZM335.986 195.182V199.928C335.986 200.395 336.074 200.717 336.252 200.894C336.429 201.071 336.742 201.16 337.19 201.16H338.086V202H337.036C336.345 202 335.832 201.841 335.496 201.524C335.16 201.197 334.992 200.665 334.992 199.928V195.182H333.928V194.356H334.992V192.438H335.986V194.356H338.086V195.182H335.986ZM36.086 220.05C36.338 219.518 36.7253 219.084 37.248 218.748C37.78 218.412 38.4053 218.244 39.124 218.244C39.824 218.244 40.4493 218.407 41 218.734C41.5507 219.051 41.98 219.509 42.288 220.106C42.6053 220.694 42.764 221.38 42.764 222.164C42.764 222.948 42.6053 223.639 42.288 224.236C41.98 224.833 41.546 225.295 40.986 225.622C40.4353 225.949 39.8147 226.112 39.124 226.112C38.396 226.112 37.766 225.949 37.234 225.622C36.7113 225.286 36.3287 224.852 36.086 224.32V226H35.12V215.64H36.086V220.05ZM41.77 222.164C41.77 221.529 41.644 220.983 41.392 220.526C41.1493 220.059 40.8133 219.705 40.384 219.462C39.9547 219.219 39.4693 219.098 38.928 219.098C38.4053 219.098 37.9247 219.224 37.486 219.476C37.0567 219.728 36.716 220.087 36.464 220.554C36.212 221.021 36.086 221.562 36.086 222.178C36.086 222.794 36.212 223.335 36.464 223.802C36.716 224.269 37.0567 224.628 37.486 224.88C37.9247 225.132 38.4053 225.258 38.928 225.258C39.4693 225.258 39.9547 225.137 40.384 224.894C40.8133 224.642 41.1493 224.283 41.392 223.816C41.644 223.34 41.77 222.789 41.77 222.164ZM51.4833 221.786C51.4833 222.122 51.4739 222.379 51.4553 222.556H45.1133C45.1413 223.135 45.2813 223.629 45.5333 224.04C45.7853 224.451 46.1166 224.763 46.5273 224.978C46.9379 225.183 47.3859 225.286 47.8713 225.286C48.5059 225.286 49.0379 225.132 49.4673 224.824C49.9059 224.516 50.1953 224.101 50.3353 223.578H51.3713C51.1846 224.325 50.7833 224.936 50.1673 225.412C49.5606 225.879 48.7953 226.112 47.8713 226.112C47.1526 226.112 46.5086 225.953 45.9393 225.636C45.3699 225.309 44.9219 224.852 44.5953 224.264C44.2779 223.667 44.1193 222.971 44.1193 222.178C44.1193 221.385 44.2779 220.689 44.5953 220.092C44.9126 219.495 45.3559 219.037 45.9253 218.72C46.4946 218.403 47.1433 218.244 47.8713 218.244C48.5993 218.244 49.2339 218.403 49.7753 218.72C50.3259 219.037 50.7459 219.467 51.0353 220.008C51.3339 220.54 51.4833 221.133 51.4833 221.786ZM50.4893 221.758C50.4986 221.189 50.3819 220.703 50.1393 220.302C49.9059 219.901 49.5839 219.597 49.1733 219.392C48.7626 219.187 48.3146 219.084 47.8293 219.084C47.1013 219.084 46.4806 219.317 45.9673 219.784C45.4539 220.251 45.1693 220.909 45.1133 221.758H50.4893ZM54.2563 219.714C54.4709 219.238 54.7976 218.869 55.2363 218.608C55.6843 218.347 56.2303 218.216 56.8743 218.216V219.238H56.6083C55.8989 219.238 55.3296 219.429 54.9003 219.812C54.4709 220.195 54.2563 220.834 54.2563 221.73V226H53.2763V218.356H54.2563V219.714ZM65.2645 221.786C65.2645 222.122 65.2552 222.379 65.2365 222.556H58.8945C58.9225 223.135 59.0625 223.629 59.3145 224.04C59.5665 224.451 59.8978 224.763 60.3085 224.978C60.7192 225.183 61.1672 225.286 61.6525 225.286C62.2872 225.286 62.8192 225.132 63.2485 224.824C63.6872 224.516 63.9765 224.101 64.1165 223.578H65.1525C64.9658 224.325 64.5645 224.936 63.9485 225.412C63.3418 225.879 62.5765 226.112 61.6525 226.112C60.9338 226.112 60.2898 225.953 59.7205 225.636C59.1512 225.309 58.7032 224.852 58.3765 224.264C58.0592 223.667 57.9005 222.971 57.9005 222.178C57.9005 221.385 58.0592 220.689 58.3765 220.092C58.6938 219.495 59.1372 219.037 59.7065 218.72C60.2758 218.403 60.9245 218.244 61.6525 218.244C62.3805 218.244 63.0152 218.403 63.5565 218.72C64.1072 219.037 64.5272 219.467 64.8165 220.008C65.1152 220.54 65.2645 221.133 65.2645 221.786ZM64.2705 221.758C64.2798 221.189 64.1632 220.703 63.9205 220.302C63.6872 219.901 63.3652 219.597 62.9545 219.392C62.5438 219.187 62.0958 219.084 61.6105 219.084C60.8825 219.084 60.2618 219.317 59.7485 219.784C59.2352 220.251 58.9505 220.909 58.8945 221.758H64.2705ZM67.5475 216.914C67.3515 216.914 67.1835 216.844 67.0435 216.704C66.9035 216.564 66.8335 216.391 66.8335 216.186C66.8335 215.981 66.9035 215.813 67.0435 215.682C67.1835 215.542 67.3515 215.472 67.5475 215.472C67.7435 215.472 67.9115 215.542 68.0515 215.682C68.1915 215.813 68.2615 215.981 68.2615 216.186C68.2615 216.391 68.1915 216.564 68.0515 216.704C67.9115 216.844 67.7435 216.914 67.5475 216.914ZM68.0375 218.356V226H67.0575V218.356H68.0375ZM71.5307 219.182V223.928C71.5307 224.395 71.6194 224.717 71.7967 224.894C71.9741 225.071 72.2867 225.16 72.7347 225.16H73.6307V226H72.5807C71.8901 226 71.3767 225.841 71.0407 225.524C70.7047 225.197 70.5367 224.665 70.5367 223.928V219.182H69.4727V218.356H70.5367V216.438H71.5307V218.356H73.6307V219.182H71.5307ZM77.879 226.112C77.0016 226.112 76.283 225.911 75.723 225.51C75.1723 225.099 74.8643 224.544 74.799 223.844H75.807C75.8536 224.273 76.0543 224.623 76.409 224.894C76.773 225.155 77.2583 225.286 77.865 225.286C78.397 225.286 78.8123 225.16 79.111 224.908C79.419 224.656 79.573 224.343 79.573 223.97C79.573 223.709 79.489 223.494 79.321 223.326C79.153 223.158 78.9383 223.027 78.677 222.934C78.425 222.831 78.0796 222.724 77.641 222.612C77.0716 222.463 76.6096 222.313 76.255 222.164C75.9003 222.015 75.597 221.795 75.345 221.506C75.1023 221.207 74.981 220.811 74.981 220.316C74.981 219.943 75.093 219.597 75.317 219.28C75.541 218.963 75.8583 218.711 76.269 218.524C76.6796 218.337 77.1463 218.244 77.669 218.244C78.4903 218.244 79.153 218.454 79.657 218.874C80.161 219.285 80.4316 219.854 80.469 220.582H79.489C79.461 220.134 79.2836 219.775 78.957 219.504C78.6396 219.224 78.201 219.084 77.641 219.084C77.1463 219.084 76.745 219.201 76.437 219.434C76.129 219.667 75.975 219.957 75.975 220.302C75.975 220.601 76.0636 220.848 76.241 221.044C76.4276 221.231 76.6563 221.38 76.927 221.492C77.1976 221.595 77.5616 221.711 78.019 221.842C78.5696 221.991 79.0083 222.136 79.335 222.276C79.6616 222.416 79.9416 222.621 80.175 222.892C80.4083 223.163 80.5296 223.522 80.539 223.97C80.539 224.381 80.427 224.749 80.203 225.076C79.979 225.393 79.6663 225.645 79.265 225.832C78.8636 226.019 78.4016 226.112 77.879 226.112ZM85.7775 222.164C85.7775 221.38 85.9361 220.694 86.2535 220.106C86.5708 219.509 87.0048 219.051 87.5555 218.734C88.1155 218.407 88.7455 218.244 89.4455 218.244C90.1175 218.244 90.7241 218.407 91.2655 218.734C91.8068 219.061 92.2035 219.485 92.4555 220.008V215.64H93.4355V226H92.4555V224.292C92.2221 224.824 91.8395 225.263 91.3075 225.608C90.7755 225.944 90.1501 226.112 89.4315 226.112C88.7315 226.112 88.1015 225.949 87.5415 225.622C86.9908 225.295 86.5568 224.833 86.2395 224.236C85.9315 223.639 85.7775 222.948 85.7775 222.164ZM92.4555 222.178C92.4555 221.562 92.3295 221.021 92.0775 220.554C91.8255 220.087 91.4801 219.728 91.0415 219.476C90.6121 219.224 90.1361 219.098 89.6135 219.098C89.0721 219.098 88.5868 219.219 88.1575 219.462C87.7281 219.705 87.3875 220.059 87.1355 220.526C86.8928 220.983 86.7715 221.529 86.7715 222.164C86.7715 222.789 86.8928 223.34 87.1355 223.816C87.3875 224.283 87.7281 224.642 88.1575 224.894C88.5868 225.137 89.0721 225.258 89.6135 225.258C90.1361 225.258 90.6121 225.132 91.0415 224.88C91.4801 224.628 91.8255 224.269 92.0775 223.802C92.3295 223.335 92.4555 222.794 92.4555 222.178ZM96.1627 216.914C95.9667 216.914 95.7987 216.844 95.6587 216.704C95.5187 216.564 95.4487 216.391 95.4487 216.186C95.4487 215.981 95.5187 215.813 95.6587 215.682C95.7987 215.542 95.9667 215.472 96.1627 215.472C96.3587 215.472 96.5267 215.542 96.6667 215.682C96.8067 215.813 96.8767 215.981 96.8767 216.186C96.8767 216.391 96.8067 216.564 96.6667 216.704C96.5267 216.844 96.3587 216.914 96.1627 216.914ZM96.6527 218.356V226H95.6727V218.356H96.6527ZM105.788 221.786C105.788 222.122 105.779 222.379 105.76 222.556H99.418C99.446 223.135 99.586 223.629 99.838 224.04C100.09 224.451 100.421 224.763 100.832 224.978C101.243 225.183 101.691 225.286 102.176 225.286C102.811 225.286 103.343 225.132 103.772 224.824C104.211 224.516 104.5 224.101 104.64 223.578H105.676C105.489 224.325 105.088 224.936 104.472 225.412C103.865 225.879 103.1 226.112 102.176 226.112C101.457 226.112 100.813 225.953 100.244 225.636C99.6746 225.309 99.2266 224.852 98.9 224.264C98.5826 223.667 98.424 222.971 98.424 222.178C98.424 221.385 98.5826 220.689 98.9 220.092C99.2173 219.495 99.6606 219.037 100.23 218.72C100.799 218.403 101.448 218.244 102.176 218.244C102.904 218.244 103.539 218.403 104.08 218.72C104.631 219.037 105.051 219.467 105.34 220.008C105.639 220.54 105.788 221.133 105.788 221.786ZM104.794 221.758C104.803 221.189 104.687 220.703 104.444 220.302C104.211 219.901 103.889 219.597 103.478 219.392C103.067 219.187 102.619 219.084 102.134 219.084C101.406 219.084 100.785 219.317 100.272 219.784C99.7586 220.251 99.474 220.909 99.418 221.758H104.794ZM114.139 225.048L116.715 218.356H117.751L114.685 226H113.579L110.513 218.356H111.563L114.139 225.048ZM119.569 216.914C119.373 216.914 119.205 216.844 119.065 216.704C118.925 216.564 118.855 216.391 118.855 216.186C118.855 215.981 118.925 215.813 119.065 215.682C119.205 215.542 119.373 215.472 119.569 215.472C119.765 215.472 119.933 215.542 120.073 215.682C120.213 215.813 120.283 215.981 120.283 216.186C120.283 216.391 120.213 216.564 120.073 216.704C119.933 216.844 119.765 216.914 119.569 216.914ZM120.059 218.356V226H119.079V218.356H120.059ZM129.194 221.786C129.194 222.122 129.185 222.379 129.166 222.556H122.824C122.852 223.135 122.992 223.629 123.244 224.04C123.496 224.451 123.828 224.763 124.238 224.978C124.649 225.183 125.097 225.286 125.582 225.286C126.217 225.286 126.749 225.132 127.178 224.824C127.617 224.516 127.906 224.101 128.046 223.578H129.082C128.896 224.325 128.494 224.936 127.878 225.412C127.272 225.879 126.506 226.112 125.582 226.112C124.864 226.112 124.22 225.953 123.65 225.636C123.081 225.309 122.633 224.852 122.306 224.264C121.989 223.667 121.83 222.971 121.83 222.178C121.83 221.385 121.989 220.689 122.306 220.092C122.624 219.495 123.067 219.037 123.636 218.72C124.206 218.403 124.854 218.244 125.582 218.244C126.31 218.244 126.945 218.403 127.486 218.72C128.037 219.037 128.457 219.467 128.746 220.008C129.045 220.54 129.194 221.133 129.194 221.786ZM128.2 221.758C128.21 221.189 128.093 220.703 127.85 220.302C127.617 219.901 127.295 219.597 126.884 219.392C126.474 219.187 126.026 219.084 125.54 219.084C124.812 219.084 124.192 219.317 123.678 219.784C123.165 220.251 122.88 220.909 122.824 221.758H128.2ZM131.967 219.714C132.182 219.238 132.509 218.869 132.947 218.608C133.395 218.347 133.941 218.216 134.585 218.216V219.238H134.319C133.61 219.238 133.041 219.429 132.611 219.812C132.182 220.195 131.967 220.834 131.967 221.73V226H130.987V218.356H131.967V219.714ZM137.333 219.182V223.928C137.333 224.395 137.422 224.717 137.599 224.894C137.777 225.071 138.089 225.16 138.537 225.16H139.433V226H138.383C137.693 226 137.179 225.841 136.843 225.524C136.507 225.197 136.339 224.665 136.339 223.928V219.182H135.275V218.356H136.339V216.438H137.333V218.356H139.433V219.182H137.333ZM147.966 221.786C147.966 222.122 147.956 222.379 147.938 222.556H141.596C141.624 223.135 141.764 223.629 142.016 224.04C142.268 224.451 142.599 224.763 143.01 224.978C143.42 225.183 143.868 225.286 144.354 225.286C144.988 225.286 145.52 225.132 145.95 224.824C146.388 224.516 146.678 224.101 146.818 223.578H147.854C147.667 224.325 147.266 224.936 146.65 225.412C146.043 225.879 145.278 226.112 144.354 226.112C143.635 226.112 142.991 225.953 142.422 225.636C141.852 225.309 141.404 224.852 141.078 224.264C140.76 223.667 140.602 222.971 140.602 222.178C140.602 221.385 140.76 220.689 141.078 220.092C141.395 219.495 141.838 219.037 142.408 218.72C142.977 218.403 143.626 218.244 144.354 218.244C145.082 218.244 145.716 218.403 146.258 218.72C146.808 219.037 147.228 219.467 147.518 220.008C147.816 220.54 147.966 221.133 147.966 221.786ZM146.972 221.758C146.981 221.189 146.864 220.703 146.622 220.302C146.388 219.901 146.066 219.597 145.656 219.392C145.245 219.187 144.797 219.084 144.312 219.084C143.584 219.084 142.963 219.317 142.45 219.784C141.936 220.251 141.652 220.909 141.596 221.758H146.972ZM161.3 219.07C161.02 218.426 160.591 217.922 160.012 217.558C159.443 217.185 158.771 216.998 157.996 216.998C157.268 216.998 156.615 217.166 156.036 217.502C155.458 217.838 155 218.319 154.664 218.944C154.328 219.56 154.16 220.279 154.16 221.1C154.16 221.921 154.328 222.645 154.664 223.27C155 223.895 155.458 224.376 156.036 224.712C156.615 225.048 157.268 225.216 157.996 225.216C158.678 225.216 159.289 225.071 159.83 224.782C160.381 224.483 160.82 224.063 161.146 223.522C161.482 222.971 161.674 222.332 161.72 221.604H157.604V220.806H162.756V221.52C162.71 222.379 162.476 223.158 162.056 223.858C161.636 224.549 161.072 225.095 160.362 225.496C159.662 225.897 158.874 226.098 157.996 226.098C157.091 226.098 156.27 225.888 155.532 225.468C154.795 225.039 154.212 224.446 153.782 223.69C153.362 222.925 153.152 222.061 153.152 221.1C153.152 220.139 153.362 219.28 153.782 218.524C154.212 217.759 154.795 217.166 155.532 216.746C156.27 216.317 157.091 216.102 157.996 216.102C159.042 216.102 159.956 216.363 160.74 216.886C161.524 217.409 162.094 218.137 162.448 219.07H161.3ZM171.468 221.786C171.468 222.122 171.458 222.379 171.44 222.556H165.098C165.126 223.135 165.266 223.629 165.518 224.04C165.77 224.451 166.101 224.763 166.512 224.978C166.922 225.183 167.37 225.286 167.856 225.286C168.49 225.286 169.022 225.132 169.452 224.824C169.89 224.516 170.18 224.101 170.32 223.578H171.356C171.169 224.325 170.768 224.936 170.152 225.412C169.545 225.879 168.78 226.112 167.856 226.112C167.137 226.112 166.493 225.953 165.924 225.636C165.354 225.309 164.906 224.852 164.58 224.264C164.262 223.667 164.104 222.971 164.104 222.178C164.104 221.385 164.262 220.689 164.58 220.092C164.897 219.495 165.34 219.037 165.91 218.72C166.479 218.403 167.128 218.244 167.856 218.244C168.584 218.244 169.218 218.403 169.76 218.72C170.31 219.037 170.73 219.467 171.02 220.008C171.318 220.54 171.468 221.133 171.468 221.786ZM170.474 221.758C170.483 221.189 170.366 220.703 170.124 220.302C169.89 219.901 169.568 219.597 169.158 219.392C168.747 219.187 168.299 219.084 167.814 219.084C167.086 219.084 166.465 219.317 165.952 219.784C165.438 220.251 165.154 220.909 165.098 221.758H170.474ZM176.845 218.216C177.759 218.216 178.506 218.501 179.085 219.07C179.663 219.63 179.953 220.447 179.953 221.52V226H178.987V221.632C178.987 220.801 178.777 220.167 178.357 219.728C177.946 219.289 177.381 219.07 176.663 219.07C175.925 219.07 175.337 219.303 174.899 219.77C174.46 220.237 174.241 220.923 174.241 221.828V226H173.261V218.356H174.241V219.658C174.483 219.191 174.833 218.837 175.291 218.594C175.748 218.342 176.266 218.216 176.845 218.216ZM189.036 221.786C189.036 222.122 189.027 222.379 189.008 222.556H182.666C182.694 223.135 182.834 223.629 183.086 224.04C183.338 224.451 183.669 224.763 184.08 224.978C184.491 225.183 184.939 225.286 185.424 225.286C186.059 225.286 186.591 225.132 187.02 224.824C187.459 224.516 187.748 224.101 187.888 223.578H188.924C188.737 224.325 188.336 224.936 187.72 225.412C187.113 225.879 186.348 226.112 185.424 226.112C184.705 226.112 184.061 225.953 183.492 225.636C182.923 225.309 182.475 224.852 182.148 224.264C181.831 223.667 181.672 222.971 181.672 222.178C181.672 221.385 181.831 220.689 182.148 220.092C182.465 219.495 182.909 219.037 183.478 218.72C184.047 218.403 184.696 218.244 185.424 218.244C186.152 218.244 186.787 218.403 187.328 218.72C187.879 219.037 188.299 219.467 188.588 220.008C188.887 220.54 189.036 221.133 189.036 221.786ZM188.042 221.758C188.051 221.189 187.935 220.703 187.692 220.302C187.459 219.901 187.137 219.597 186.726 219.392C186.315 219.187 185.867 219.084 185.382 219.084C184.654 219.084 184.033 219.317 183.52 219.784C183.007 220.251 182.722 220.909 182.666 221.758H188.042ZM191.809 219.714C192.024 219.238 192.35 218.869 192.789 218.608C193.237 218.347 193.783 218.216 194.427 218.216V219.238H194.161C193.452 219.238 192.882 219.429 192.453 219.812C192.024 220.195 191.809 220.834 191.809 221.73V226H190.829V218.356H191.809V219.714ZM195.453 222.164C195.453 221.38 195.607 220.694 195.915 220.106C196.233 219.509 196.667 219.051 197.217 218.734C197.777 218.407 198.407 218.244 199.107 218.244C199.835 218.244 200.461 218.412 200.983 218.748C201.515 219.084 201.898 219.513 202.131 220.036V218.356H203.111V226H202.131V224.306C201.889 224.829 201.501 225.263 200.969 225.608C200.447 225.944 199.821 226.112 199.093 226.112C198.403 226.112 197.777 225.949 197.217 225.622C196.667 225.295 196.233 224.833 195.915 224.236C195.607 223.639 195.453 222.948 195.453 222.164ZM202.131 222.178C202.131 221.562 202.005 221.021 201.753 220.554C201.501 220.087 201.156 219.728 200.717 219.476C200.288 219.224 199.812 219.098 199.289 219.098C198.748 219.098 198.263 219.219 197.833 219.462C197.404 219.705 197.063 220.059 196.811 220.526C196.569 220.983 196.447 221.529 196.447 222.164C196.447 222.789 196.569 223.34 196.811 223.816C197.063 224.283 197.404 224.642 197.833 224.894C198.263 225.137 198.748 225.258 199.289 225.258C199.812 225.258 200.288 225.132 200.717 224.88C201.156 224.628 201.501 224.269 201.753 223.802C202.005 223.335 202.131 222.794 202.131 222.178ZM206.623 219.182V223.928C206.623 224.395 206.711 224.717 206.889 224.894C207.066 225.071 207.379 225.16 207.827 225.16H208.723V226H207.673C206.982 226 206.469 225.841 206.133 225.524C205.797 225.197 205.629 224.665 205.629 223.928V219.182H204.565V218.356H205.629V216.438H206.623V218.356H208.723V219.182H206.623ZM210.829 216.914C210.633 216.914 210.465 216.844 210.325 216.704C210.185 216.564 210.115 216.391 210.115 216.186C210.115 215.981 210.185 215.813 210.325 215.682C210.465 215.542 210.633 215.472 210.829 215.472C211.025 215.472 211.193 215.542 211.333 215.682C211.473 215.813 211.543 215.981 211.543 216.186C211.543 216.391 211.473 216.564 211.333 216.704C211.193 216.844 211.025 216.914 210.829 216.914ZM211.319 218.356V226H210.339V218.356H211.319ZM216.884 226.112C216.165 226.112 215.517 225.953 214.938 225.636C214.369 225.309 213.916 224.852 213.58 224.264C213.253 223.667 213.09 222.971 213.09 222.178C213.09 221.385 213.258 220.694 213.594 220.106C213.93 219.509 214.387 219.051 214.966 218.734C215.545 218.407 216.193 218.244 216.912 218.244C217.631 218.244 218.279 218.407 218.858 218.734C219.446 219.051 219.903 219.509 220.23 220.106C220.566 220.694 220.734 221.385 220.734 222.178C220.734 222.962 220.566 223.653 220.23 224.25C219.894 224.847 219.432 225.309 218.844 225.636C218.256 225.953 217.603 226.112 216.884 226.112ZM216.884 225.258C217.388 225.258 217.855 225.146 218.284 224.922C218.713 224.689 219.059 224.343 219.32 223.886C219.591 223.419 219.726 222.85 219.726 222.178C219.726 221.506 219.595 220.941 219.334 220.484C219.073 220.017 218.727 219.672 218.298 219.448C217.869 219.215 217.402 219.098 216.898 219.098C216.394 219.098 215.927 219.215 215.498 219.448C215.069 219.672 214.723 220.017 214.462 220.484C214.21 220.941 214.084 221.506 214.084 222.178C214.084 222.85 214.21 223.419 214.462 223.886C214.723 224.343 215.064 224.689 215.484 224.922C215.913 225.146 216.38 225.258 216.884 225.258ZM226.104 218.216C227.019 218.216 227.766 218.501 228.344 219.07C228.923 219.63 229.212 220.447 229.212 221.52V226H228.246V221.632C228.246 220.801 228.036 220.167 227.616 219.728C227.206 219.289 226.641 219.07 225.922 219.07C225.185 219.07 224.597 219.303 224.158 219.77C223.72 220.237 223.5 220.923 223.5 221.828V226H222.52V218.356H223.5V219.658C223.743 219.191 224.093 218.837 224.55 218.594C225.008 218.342 225.526 218.216 226.104 218.216ZM234.774 222.164C234.774 221.38 234.932 220.694 235.25 220.106C235.567 219.509 236.001 219.051 236.552 218.734C237.112 218.407 237.742 218.244 238.442 218.244C239.114 218.244 239.72 218.407 240.262 218.734C240.803 219.061 241.2 219.485 241.452 220.008V215.64H242.432V226H241.452V224.292C241.218 224.824 240.836 225.263 240.304 225.608C239.772 225.944 239.146 226.112 238.428 226.112C237.728 226.112 237.098 225.949 236.538 225.622C235.987 225.295 235.553 224.833 235.236 224.236C234.928 223.639 234.774 222.948 234.774 222.164ZM241.452 222.178C241.452 221.562 241.326 221.021 241.074 220.554C240.822 220.087 240.476 219.728 240.038 219.476C239.608 219.224 239.132 219.098 238.61 219.098C238.068 219.098 237.583 219.219 237.154 219.462C236.724 219.705 236.384 220.059 236.132 220.526C235.889 220.983 235.768 221.529 235.768 222.164C235.768 222.789 235.889 223.34 236.132 223.816C236.384 224.283 236.724 224.642 237.154 224.894C237.583 225.137 238.068 225.258 238.61 225.258C239.132 225.258 239.608 225.132 240.038 224.88C240.476 224.628 240.822 224.269 241.074 223.802C241.326 223.335 241.452 222.794 241.452 222.178ZM251.585 221.786C251.585 222.122 251.575 222.379 251.557 222.556H245.215C245.243 223.135 245.383 223.629 245.635 224.04C245.887 224.451 246.218 224.763 246.629 224.978C247.039 225.183 247.487 225.286 247.973 225.286C248.607 225.286 249.139 225.132 249.569 224.824C250.007 224.516 250.297 224.101 250.437 223.578H251.473C251.286 224.325 250.885 224.936 250.269 225.412C249.662 225.879 248.897 226.112 247.973 226.112C247.254 226.112 246.61 225.953 246.041 225.636C245.471 225.309 245.023 224.852 244.697 224.264C244.379 223.667 244.221 222.971 244.221 222.178C244.221 221.385 244.379 220.689 244.697 220.092C245.014 219.495 245.457 219.037 246.027 218.72C246.596 218.403 247.245 218.244 247.973 218.244C248.701 218.244 249.335 218.403 249.877 218.72C250.427 219.037 250.847 219.467 251.137 220.008C251.435 220.54 251.585 221.133 251.585 221.786ZM250.591 221.758C250.6 221.189 250.483 220.703 250.241 220.302C250.007 219.901 249.685 219.597 249.275 219.392C248.864 219.187 248.416 219.084 247.931 219.084C247.203 219.084 246.582 219.317 246.069 219.784C245.555 220.251 245.271 220.909 245.215 221.758H250.591ZM254.358 219.714C254.572 219.238 254.899 218.869 255.338 218.608C255.786 218.347 256.332 218.216 256.976 218.216V219.238H256.71C256 219.238 255.431 219.429 255.002 219.812C254.572 220.195 254.358 220.834 254.358 221.73V226H253.378V218.356H254.358V219.714ZM267.584 216.214V217.026H263.272V220.68H266.912V221.492H263.272V226H262.292V216.214H267.584ZM268.748 222.164C268.748 221.38 268.902 220.694 269.21 220.106C269.528 219.509 269.962 219.051 270.512 218.734C271.072 218.407 271.702 218.244 272.402 218.244C273.13 218.244 273.756 218.412 274.278 218.748C274.81 219.084 275.193 219.513 275.426 220.036V218.356H276.406V226H275.426V224.306C275.184 224.829 274.796 225.263 274.264 225.608C273.742 225.944 273.116 226.112 272.388 226.112C271.698 226.112 271.072 225.949 270.512 225.622C269.962 225.295 269.528 224.833 269.21 224.236C268.902 223.639 268.748 222.948 268.748 222.164ZM275.426 222.178C275.426 221.562 275.3 221.021 275.048 220.554C274.796 220.087 274.451 219.728 274.012 219.476C273.583 219.224 273.107 219.098 272.584 219.098C272.043 219.098 271.558 219.219 271.128 219.462C270.699 219.705 270.358 220.059 270.106 220.526C269.864 220.983 269.742 221.529 269.742 222.164C269.742 222.789 269.864 223.34 270.106 223.816C270.358 224.283 270.699 224.642 271.128 224.894C271.558 225.137 272.043 225.258 272.584 225.258C273.107 225.258 273.583 225.132 274.012 224.88C274.451 224.628 274.796 224.269 275.048 223.802C275.3 223.335 275.426 222.794 275.426 222.178ZM287.743 218.216C288.639 218.216 289.367 218.501 289.927 219.07C290.497 219.63 290.781 220.447 290.781 221.52V226H289.815V221.632C289.815 220.801 289.615 220.167 289.213 219.728C288.812 219.289 288.266 219.07 287.575 219.07C286.857 219.07 286.283 219.308 285.853 219.784C285.424 220.26 285.209 220.951 285.209 221.856V226H284.243V221.632C284.243 220.801 284.043 220.167 283.641 219.728C283.24 219.289 282.689 219.07 281.989 219.07C281.271 219.07 280.697 219.308 280.267 219.784C279.838 220.26 279.623 220.951 279.623 221.856V226H278.643V218.356H279.623V219.672C279.866 219.196 280.211 218.837 280.659 218.594C281.107 218.342 281.607 218.216 282.157 218.216C282.82 218.216 283.399 218.375 283.893 218.692C284.397 219.009 284.761 219.476 284.985 220.092C285.191 219.485 285.541 219.023 286.035 218.706C286.539 218.379 287.109 218.216 287.743 218.216ZM293.448 216.914C293.252 216.914 293.084 216.844 292.944 216.704C292.804 216.564 292.734 216.391 292.734 216.186C292.734 215.981 292.804 215.813 292.944 215.682C293.084 215.542 293.252 215.472 293.448 215.472C293.644 215.472 293.812 215.542 293.952 215.682C294.092 215.813 294.162 215.981 294.162 216.186C294.162 216.391 294.092 216.564 293.952 216.704C293.812 216.844 293.644 216.914 293.448 216.914ZM293.938 218.356V226H292.958V218.356H293.938ZM297.137 215.64V226H296.157V215.64H297.137ZM299.846 216.914C299.65 216.914 299.482 216.844 299.342 216.704C299.202 216.564 299.132 216.391 299.132 216.186C299.132 215.981 299.202 215.813 299.342 215.682C299.482 215.542 299.65 215.472 299.846 215.472C300.042 215.472 300.21 215.542 300.35 215.682C300.49 215.813 300.56 215.981 300.56 216.186C300.56 216.391 300.49 216.564 300.35 216.704C300.21 216.844 300.042 216.914 299.846 216.914ZM300.336 218.356V226H299.356V218.356H300.336ZM309.472 221.786C309.472 222.122 309.462 222.379 309.444 222.556H303.102C303.13 223.135 303.27 223.629 303.522 224.04C303.774 224.451 304.105 224.763 304.516 224.978C304.926 225.183 305.374 225.286 305.86 225.286C306.494 225.286 307.026 225.132 307.456 224.824C307.894 224.516 308.184 224.101 308.324 223.578H309.36C309.173 224.325 308.772 224.936 308.156 225.412C307.549 225.879 306.784 226.112 305.86 226.112C305.141 226.112 304.497 225.953 303.928 225.636C303.358 225.309 302.91 224.852 302.584 224.264C302.266 223.667 302.108 222.971 302.108 222.178C302.108 221.385 302.266 220.689 302.584 220.092C302.901 219.495 303.344 219.037 303.914 218.72C304.483 218.403 305.132 218.244 305.86 218.244C306.588 218.244 307.222 218.403 307.764 218.72C308.314 219.037 308.734 219.467 309.024 220.008C309.322 220.54 309.472 221.133 309.472 221.786ZM308.478 221.758C308.487 221.189 308.37 220.703 308.128 220.302C307.894 219.901 307.572 219.597 307.162 219.392C306.751 219.187 306.303 219.084 305.818 219.084C305.09 219.084 304.469 219.317 303.956 219.784C303.442 220.251 303.158 220.909 303.102 221.758H308.478ZM36.1 249.202H39.614V250H35.12V240.214H36.1V249.202ZM47.6346 242.356V250H46.6546V248.656C46.4306 249.132 46.0852 249.496 45.6186 249.748C45.1519 250 44.6292 250.126 44.0506 250.126C43.1359 250.126 42.3892 249.846 41.8106 249.286C41.2319 248.717 40.9426 247.895 40.9426 246.822V242.356H41.9086V246.71C41.9086 247.541 42.1139 248.175 42.5246 248.614C42.9446 249.053 43.5139 249.272 44.2326 249.272C44.9699 249.272 45.5579 249.039 45.9966 248.572C46.4352 248.105 46.6546 247.419 46.6546 246.514V242.356H47.6346ZM43.2666 241.278C43.0892 241.278 42.9352 241.217 42.8046 241.096C42.6832 240.965 42.6226 240.811 42.6226 240.634C42.6226 240.457 42.6832 240.307 42.8046 240.186C42.9352 240.055 43.0892 239.99 43.2666 239.99C43.4439 239.99 43.5932 240.055 43.7146 240.186C43.8452 240.307 43.9106 240.457 43.9106 240.634C43.9106 240.811 43.8452 240.965 43.7146 241.096C43.5932 241.217 43.4439 241.278 43.2666 241.278ZM45.4226 241.278C45.2452 241.278 45.0912 241.217 44.9606 241.096C44.8392 240.965 44.7786 240.811 44.7786 240.634C44.7786 240.457 44.8392 240.307 44.9606 240.186C45.0912 240.055 45.2452 239.99 45.4226 239.99C45.5999 239.99 45.7492 240.055 45.8706 240.186C45.9919 240.307 46.0526 240.457 46.0526 240.634C46.0526 240.811 45.9919 240.965 45.8706 241.096C45.7492 241.217 45.5999 241.278 45.4226 241.278ZM50.838 244.05C51.09 243.518 51.4773 243.084 52 242.748C52.532 242.412 53.1573 242.244 53.876 242.244C54.576 242.244 55.2013 242.407 55.752 242.734C56.3026 243.051 56.732 243.509 57.04 244.106C57.3573 244.694 57.516 245.38 57.516 246.164C57.516 246.948 57.3573 247.639 57.04 248.236C56.732 248.833 56.298 249.295 55.738 249.622C55.1873 249.949 54.5666 250.112 53.876 250.112C53.148 250.112 52.518 249.949 51.986 249.622C51.4633 249.286 51.0806 248.852 50.838 248.32V250H49.872V239.64H50.838V244.05ZM56.522 246.164C56.522 245.529 56.396 244.983 56.144 244.526C55.9013 244.059 55.5653 243.705 55.136 243.462C54.7066 243.219 54.2213 243.098 53.68 243.098C53.1573 243.098 52.6766 243.224 52.238 243.476C51.8086 243.728 51.468 244.087 51.216 244.554C50.964 245.021 50.838 245.562 50.838 246.178C50.838 246.794 50.964 247.335 51.216 247.802C51.468 248.269 51.8086 248.628 52.238 248.88C52.6766 249.132 53.1573 249.258 53.68 249.258C54.2213 249.258 54.7066 249.137 55.136 248.894C55.5653 248.642 55.9013 248.283 56.144 247.816C56.396 247.34 56.522 246.789 56.522 246.164ZM60.2852 244.05C60.5372 243.518 60.9246 243.084 61.4472 242.748C61.9792 242.412 62.6046 242.244 63.3232 242.244C64.0232 242.244 64.6486 242.407 65.1992 242.734C65.7499 243.051 66.1792 243.509 66.4872 244.106C66.8046 244.694 66.9632 245.38 66.9632 246.164C66.9632 246.948 66.8046 247.639 66.4872 248.236C66.1792 248.833 65.7452 249.295 65.1852 249.622C64.6346 249.949 64.0139 250.112 63.3232 250.112C62.5952 250.112 61.9652 249.949 61.4332 249.622C60.9106 249.286 60.5279 248.852 60.2852 248.32V250H59.3192V239.64H60.2852V244.05ZM65.9692 246.164C65.9692 245.529 65.8432 244.983 65.5912 244.526C65.3486 244.059 65.0126 243.705 64.5832 243.462C64.1539 243.219 63.6686 243.098 63.1272 243.098C62.6046 243.098 62.1239 243.224 61.6852 243.476C61.2559 243.728 60.9152 244.087 60.6632 244.554C60.4112 245.021 60.2852 245.562 60.2852 246.178C60.2852 246.794 60.4112 247.335 60.6632 247.802C60.9152 248.269 61.2559 248.628 61.6852 248.88C62.1239 249.132 62.6046 249.258 63.1272 249.258C63.6686 249.258 64.1539 249.137 64.5832 248.894C65.0126 248.642 65.3486 248.283 65.5912 247.816C65.8432 247.34 65.9692 246.789 65.9692 246.164ZM75.6825 245.786C75.6825 246.122 75.6732 246.379 75.6545 246.556H69.3125C69.3405 247.135 69.4805 247.629 69.7325 248.04C69.9845 248.451 70.3158 248.763 70.7265 248.978C71.1372 249.183 71.5852 249.286 72.0705 249.286C72.7052 249.286 73.2372 249.132 73.6665 248.824C74.1052 248.516 74.3945 248.101 74.5345 247.578H75.5705C75.3838 248.325 74.9825 248.936 74.3665 249.412C73.7598 249.879 72.9945 250.112 72.0705 250.112C71.3518 250.112 70.7078 249.953 70.1385 249.636C69.5692 249.309 69.1212 248.852 68.7945 248.264C68.4772 247.667 68.3185 246.971 68.3185 246.178C68.3185 245.385 68.4772 244.689 68.7945 244.092C69.1118 243.495 69.5552 243.037 70.1245 242.72C70.6938 242.403 71.3425 242.244 72.0705 242.244C72.7985 242.244 73.4332 242.403 73.9745 242.72C74.5252 243.037 74.9452 243.467 75.2345 244.008C75.5332 244.54 75.6825 245.133 75.6825 245.786ZM74.6885 245.758C74.6978 245.189 74.5812 244.703 74.3385 244.302C74.1052 243.901 73.7832 243.597 73.3725 243.392C72.9618 243.187 72.5138 243.084 72.0285 243.084C71.3005 243.084 70.6798 243.317 70.1665 243.784C69.6532 244.251 69.3685 244.909 69.3125 245.758H74.6885ZM78.4555 243.714C78.6701 243.238 78.9968 242.869 79.4355 242.608C79.8835 242.347 80.4295 242.216 81.0735 242.216V243.238H80.8075C80.0981 243.238 79.5288 243.429 79.0995 243.812C78.6701 244.195 78.4555 244.834 78.4555 245.73V250H77.4755V242.356H78.4555V243.714ZM85.1797 250.112C84.3024 250.112 83.5837 249.911 83.0237 249.51C82.4731 249.099 82.1651 248.544 82.0997 247.844H83.1077C83.1544 248.273 83.3551 248.623 83.7097 248.894C84.0737 249.155 84.5591 249.286 85.1657 249.286C85.6977 249.286 86.1131 249.16 86.4117 248.908C86.7197 248.656 86.8737 248.343 86.8737 247.97C86.8737 247.709 86.7897 247.494 86.6217 247.326C86.4537 247.158 86.2391 247.027 85.9777 246.934C85.7257 246.831 85.3804 246.724 84.9417 246.612C84.3724 246.463 83.9104 246.313 83.5557 246.164C83.2011 246.015 82.8977 245.795 82.6457 245.506C82.4031 245.207 82.2817 244.811 82.2817 244.316C82.2817 243.943 82.3937 243.597 82.6177 243.28C82.8417 242.963 83.1591 242.711 83.5697 242.524C83.9804 242.337 84.4471 242.244 84.9697 242.244C85.7911 242.244 86.4537 242.454 86.9577 242.874C87.4617 243.285 87.7324 243.854 87.7697 244.582H86.7897C86.7617 244.134 86.5844 243.775 86.2577 243.504C85.9404 243.224 85.5017 243.084 84.9417 243.084C84.4471 243.084 84.0457 243.201 83.7377 243.434C83.4297 243.667 83.2757 243.957 83.2757 244.302C83.2757 244.601 83.3644 244.848 83.5417 245.044C83.7284 245.231 83.9571 245.38 84.2277 245.492C84.4984 245.595 84.8624 245.711 85.3197 245.842C85.8704 245.991 86.3091 246.136 86.6357 246.276C86.9624 246.416 87.2424 246.621 87.4757 246.892C87.7091 247.163 87.8304 247.522 87.8397 247.97C87.8397 248.381 87.7277 248.749 87.5037 249.076C87.2797 249.393 86.9671 249.645 86.5657 249.832C86.1644 250.019 85.7024 250.112 85.1797 250.112ZM94.0163 240.914C93.8203 240.914 93.6523 240.844 93.5123 240.704C93.3723 240.564 93.3023 240.391 93.3023 240.186C93.3023 239.981 93.3723 239.813 93.5123 239.682C93.6523 239.542 93.8203 239.472 94.0163 239.472C94.2123 239.472 94.3803 239.542 94.5203 239.682C94.6603 239.813 94.7303 239.981 94.7303 240.186C94.7303 240.391 94.6603 240.564 94.5203 240.704C94.3803 240.844 94.2123 240.914 94.0163 240.914ZM94.5063 242.356V250H93.5263V242.356H94.5063ZM100.309 242.216C101.224 242.216 101.971 242.501 102.549 243.07C103.128 243.63 103.417 244.447 103.417 245.52V250H102.451V245.632C102.451 244.801 102.241 244.167 101.821 243.728C101.411 243.289 100.846 243.07 100.127 243.07C99.3901 243.07 98.8021 243.303 98.3635 243.77C97.9248 244.237 97.7055 244.923 97.7055 245.828V250H96.7255V242.356H97.7055V243.658C97.9481 243.191 98.2981 242.837 98.7555 242.594C99.2128 242.342 99.7308 242.216 100.309 242.216ZM108.217 250.112C107.34 250.112 106.621 249.911 106.061 249.51C105.51 249.099 105.202 248.544 105.137 247.844H106.145C106.192 248.273 106.392 248.623 106.747 248.894C107.111 249.155 107.596 249.286 108.203 249.286C108.735 249.286 109.15 249.16 109.449 248.908C109.757 248.656 109.911 248.343 109.911 247.97C109.911 247.709 109.827 247.494 109.659 247.326C109.491 247.158 109.276 247.027 109.015 246.934C108.763 246.831 108.418 246.724 107.979 246.612C107.41 246.463 106.948 246.313 106.593 246.164C106.238 246.015 105.935 245.795 105.683 245.506C105.44 245.207 105.319 244.811 105.319 244.316C105.319 243.943 105.431 243.597 105.655 243.28C105.879 242.963 106.196 242.711 106.607 242.524C107.018 242.337 107.484 242.244 108.007 242.244C108.828 242.244 109.491 242.454 109.995 242.874C110.499 243.285 110.77 243.854 110.807 244.582H109.827C109.799 244.134 109.622 243.775 109.295 243.504C108.978 243.224 108.539 243.084 107.979 243.084C107.484 243.084 107.083 243.201 106.775 243.434C106.467 243.667 106.313 243.957 106.313 244.302C106.313 244.601 106.402 244.848 106.579 245.044C106.766 245.231 106.994 245.38 107.265 245.492C107.536 245.595 107.9 245.711 108.357 245.842C108.908 245.991 109.346 246.136 109.673 246.276C110 246.416 110.28 246.621 110.513 246.892C110.746 247.163 110.868 247.522 110.877 247.97C110.877 248.381 110.765 248.749 110.541 249.076C110.317 249.393 110.004 249.645 109.603 249.832C109.202 250.019 108.74 250.112 108.217 250.112ZM117.501 240.214V246.374C117.501 247.345 117.73 248.063 118.187 248.53C118.654 248.997 119.289 249.23 120.091 249.23C120.894 249.23 121.519 249.001 121.967 248.544C122.425 248.077 122.653 247.354 122.653 246.374V240.214H123.633V246.36C123.633 247.601 123.302 248.535 122.639 249.16C121.986 249.785 121.132 250.098 120.077 250.098C119.023 250.098 118.164 249.785 117.501 249.16C116.848 248.535 116.521 247.601 116.521 246.36V240.214H117.501ZM129.403 242.216C130.318 242.216 131.065 242.501 131.643 243.07C132.222 243.63 132.511 244.447 132.511 245.52V250H131.545V245.632C131.545 244.801 131.335 244.167 130.915 243.728C130.505 243.289 129.94 243.07 129.221 243.07C128.484 243.07 127.896 243.303 127.457 243.77C127.019 244.237 126.799 244.923 126.799 245.828V250H125.819V242.356H126.799V243.658C127.042 243.191 127.392 242.837 127.849 242.594C128.307 242.342 128.825 242.216 129.403 242.216ZM135.953 243.182V247.928C135.953 248.395 136.041 248.717 136.219 248.894C136.396 249.071 136.709 249.16 137.157 249.16H138.053V250H137.003C136.312 250 135.799 249.841 135.463 249.524C135.127 249.197 134.959 248.665 134.959 247.928V243.182H133.895V242.356H134.959V240.438H135.953V242.356H138.053V243.182H135.953ZM146.585 245.786C146.585 246.122 146.575 246.379 146.557 246.556H140.215C140.243 247.135 140.383 247.629 140.635 248.04C140.887 248.451 141.218 248.763 141.629 248.978C142.039 249.183 142.487 249.286 142.973 249.286C143.607 249.286 144.139 249.132 144.569 248.824C145.007 248.516 145.297 248.101 145.437 247.578H146.473C146.286 248.325 145.885 248.936 145.269 249.412C144.662 249.879 143.897 250.112 142.973 250.112C142.254 250.112 141.61 249.953 141.041 249.636C140.471 249.309 140.023 248.852 139.697 248.264C139.379 247.667 139.221 246.971 139.221 246.178C139.221 245.385 139.379 244.689 139.697 244.092C140.014 243.495 140.457 243.037 141.027 242.72C141.596 242.403 142.245 242.244 142.973 242.244C143.701 242.244 144.335 242.403 144.877 242.72C145.427 243.037 145.847 243.467 146.137 244.008C146.435 244.54 146.585 245.133 146.585 245.786ZM145.591 245.758C145.6 245.189 145.483 244.703 145.241 244.302C145.007 243.901 144.685 243.597 144.275 243.392C143.864 243.187 143.416 243.084 142.931 243.084C142.203 243.084 141.582 243.317 141.069 243.784C140.555 244.251 140.271 244.909 140.215 245.758H145.591ZM149.358 243.714C149.572 243.238 149.899 242.869 150.338 242.608C150.786 242.347 151.332 242.216 151.976 242.216V243.238H151.71C151 243.238 150.431 243.429 150.002 243.812C149.572 244.195 149.358 244.834 149.358 245.73V250H148.378V242.356H149.358V243.714ZM157.034 242.216C157.949 242.216 158.695 242.501 159.274 243.07C159.853 243.63 160.142 244.447 160.142 245.52V250H159.176V245.632C159.176 244.801 158.966 244.167 158.546 243.728C158.135 243.289 157.571 243.07 156.852 243.07C156.115 243.07 155.527 243.303 155.088 243.77C154.649 244.237 154.43 244.923 154.43 245.828V250H153.45V242.356H154.43V243.658C154.673 243.191 155.023 242.837 155.48 242.594C155.937 242.342 156.455 242.216 157.034 242.216ZM169.225 245.786C169.225 246.122 169.216 246.379 169.197 246.556H162.855C162.883 247.135 163.023 247.629 163.275 248.04C163.527 248.451 163.859 248.763 164.269 248.978C164.68 249.183 165.128 249.286 165.613 249.286C166.248 249.286 166.78 249.132 167.209 248.824C167.648 248.516 167.937 248.101 168.077 247.578H169.113C168.927 248.325 168.525 248.936 167.909 249.412C167.303 249.879 166.537 250.112 165.613 250.112C164.895 250.112 164.251 249.953 163.681 249.636C163.112 249.309 162.664 248.852 162.337 248.264C162.02 247.667 161.861 246.971 161.861 246.178C161.861 245.385 162.02 244.689 162.337 244.092C162.655 243.495 163.098 243.037 163.667 242.72C164.237 242.403 164.885 242.244 165.613 242.244C166.341 242.244 166.976 242.403 167.517 242.72C168.068 243.037 168.488 243.467 168.777 244.008C169.076 244.54 169.225 245.133 169.225 245.786ZM168.231 245.758C168.241 245.189 168.124 244.703 167.881 244.302C167.648 243.901 167.326 243.597 166.915 243.392C166.505 243.187 166.057 243.084 165.571 243.084C164.843 243.084 164.223 243.317 163.709 243.784C163.196 244.251 162.911 244.909 162.855 245.758H168.231ZM174.658 242.216C175.237 242.216 175.755 242.337 176.212 242.58C176.679 242.823 177.043 243.196 177.304 243.7C177.575 244.195 177.71 244.801 177.71 245.52V250H176.744V245.632C176.744 244.801 176.534 244.167 176.114 243.728C175.704 243.289 175.139 243.07 174.42 243.07C173.683 243.07 173.095 243.303 172.656 243.77C172.218 244.237 171.998 244.923 171.998 245.828V250H171.018V239.64H171.998V243.658C172.241 243.201 172.596 242.846 173.062 242.594C173.538 242.342 174.07 242.216 174.658 242.216ZM188.978 242.216C189.874 242.216 190.602 242.501 191.162 243.07C191.731 243.63 192.016 244.447 192.016 245.52V250H191.05V245.632C191.05 244.801 190.849 244.167 190.448 243.728C190.046 243.289 189.5 243.07 188.81 243.07C188.091 243.07 187.517 243.308 187.088 243.784C186.658 244.26 186.444 244.951 186.444 245.856V250H185.478V245.632C185.478 244.801 185.277 244.167 184.876 243.728C184.474 243.289 183.924 243.07 183.224 243.07C182.505 243.07 181.931 243.308 181.502 243.784C181.072 244.26 180.858 244.951 180.858 245.856V250H179.878V242.356H180.858V243.672C181.1 243.196 181.446 242.837 181.894 242.594C182.342 242.342 182.841 242.216 183.392 242.216C184.054 242.216 184.633 242.375 185.128 242.692C185.632 243.009 185.996 243.476 186.22 244.092C186.425 243.485 186.775 243.023 187.27 242.706C187.774 242.379 188.343 242.216 188.978 242.216ZM201.108 245.786C201.108 246.122 201.099 246.379 201.08 246.556H194.738C194.766 247.135 194.906 247.629 195.158 248.04C195.41 248.451 195.742 248.763 196.152 248.978C196.563 249.183 197.011 249.286 197.496 249.286C198.131 249.286 198.663 249.132 199.092 248.824C199.531 248.516 199.82 248.101 199.96 247.578H200.996C200.81 248.325 200.408 248.936 199.792 249.412C199.186 249.879 198.42 250.112 197.496 250.112C196.778 250.112 196.134 249.953 195.564 249.636C194.995 249.309 194.547 248.852 194.22 248.264C193.903 247.667 193.744 246.971 193.744 246.178C193.744 245.385 193.903 244.689 194.22 244.092C194.538 243.495 194.981 243.037 195.55 242.72C196.12 242.403 196.768 242.244 197.496 242.244C198.224 242.244 198.859 242.403 199.4 242.72C199.951 243.037 200.371 243.467 200.66 244.008C200.959 244.54 201.108 245.133 201.108 245.786ZM200.114 245.758C200.124 245.189 200.007 244.703 199.764 244.302C199.531 243.901 199.209 243.597 198.798 243.392C198.388 243.187 197.94 243.084 197.454 243.084C196.726 243.084 196.106 243.317 195.592 243.784C195.079 244.251 194.794 244.909 194.738 245.758H200.114ZM206.485 242.216C207.4 242.216 208.147 242.501 208.725 243.07C209.304 243.63 209.593 244.447 209.593 245.52V250H208.627V245.632C208.627 244.801 208.417 244.167 207.997 243.728C207.587 243.289 207.022 243.07 206.303 243.07C205.566 243.07 204.978 243.303 204.539 243.77C204.101 244.237 203.881 244.923 203.881 245.828V250H202.901V242.356H203.881V243.658C204.124 243.191 204.474 242.837 204.931 242.594C205.389 242.342 205.907 242.216 206.485 242.216ZM222.518 245.786C222.518 246.122 222.509 246.379 222.49 246.556H216.148C216.176 247.135 216.316 247.629 216.568 248.04C216.82 248.451 217.152 248.763 217.562 248.978C217.973 249.183 218.421 249.286 218.906 249.286C219.541 249.286 220.073 249.132 220.502 248.824C220.941 248.516 221.23 248.101 221.37 247.578H222.406C222.22 248.325 221.818 248.936 221.202 249.412C220.596 249.879 219.83 250.112 218.906 250.112C218.188 250.112 217.544 249.953 216.974 249.636C216.405 249.309 215.957 248.852 215.63 248.264C215.313 247.667 215.154 246.971 215.154 246.178C215.154 245.385 215.313 244.689 215.63 244.092C215.948 243.495 216.391 243.037 216.96 242.72C217.53 242.403 218.178 242.244 218.906 242.244C219.634 242.244 220.269 242.403 220.81 242.72C221.361 243.037 221.781 243.467 222.07 244.008C222.369 244.54 222.518 245.133 222.518 245.786ZM221.524 245.758C221.534 245.189 221.417 244.703 221.174 244.302C220.941 243.901 220.619 243.597 220.208 243.392C219.798 243.187 219.35 243.084 218.864 243.084C218.136 243.084 217.516 243.317 217.002 243.784C216.489 244.251 216.204 244.909 216.148 245.758H221.524ZM224.801 240.914C224.605 240.914 224.437 240.844 224.297 240.704C224.157 240.564 224.087 240.391 224.087 240.186C224.087 239.981 224.157 239.813 224.297 239.682C224.437 239.542 224.605 239.472 224.801 239.472C224.997 239.472 225.165 239.542 225.305 239.682C225.445 239.813 225.515 239.981 225.515 240.186C225.515 240.391 225.445 240.564 225.305 240.704C225.165 240.844 224.997 240.914 224.801 240.914ZM225.291 242.356V250H224.311V242.356H225.291ZM231.095 242.216C232.009 242.216 232.756 242.501 233.335 243.07C233.913 243.63 234.203 244.447 234.203 245.52V250H233.237V245.632C233.237 244.801 233.027 244.167 232.607 243.728C232.196 243.289 231.631 243.07 230.913 243.07C230.175 243.07 229.587 243.303 229.149 243.77C228.71 244.237 228.491 244.923 228.491 245.828V250H227.511V242.356H228.491V243.658C228.733 243.191 229.083 242.837 229.541 242.594C229.998 242.342 230.516 242.216 231.095 242.216ZM236.538 250.07C236.333 250.07 236.16 250 236.02 249.86C235.889 249.72 235.824 249.547 235.824 249.342C235.824 249.137 235.889 248.969 236.02 248.838C236.16 248.698 236.333 248.628 236.538 248.628C236.734 248.628 236.897 248.698 237.028 248.838C237.168 248.969 237.238 249.137 237.238 249.342C237.238 249.547 237.168 249.72 237.028 249.86C236.897 250 236.734 250.07 236.538 250.07Z" fill="#323232"/>
</svg>
