<svg width="51" height="50" viewBox="0 0 51 50" fill="none" xmlns="http://www.w3.org/2000/svg">
<path d="M44.25 7.5V42.5C44.25 42.8315 44.1183 43.1495 43.8839 43.3839C43.6495 43.6183 43.3315 43.75 43 43.75H8C7.66848 43.75 7.35054 43.6183 7.11612 43.3839C6.8817 43.1495 6.75 42.8315 6.75 42.5V7.5C6.75 7.16848 6.8817 6.85054 7.11612 6.61612C7.35054 6.3817 7.66848 6.25 8 6.25H43C43.3315 6.25 43.6495 6.3817 43.8839 6.61612C44.1183 6.85054 44.25 7.16848 44.25 7.5Z" stroke="black" stroke-width="1.5" stroke-linecap="round" stroke-linejoin="round"/>
<path d="M6.75 33.3333L21.3333 27.0833L44.25 37.5M33.8333 20.8333C32.7283 20.8333 31.6685 20.3943 30.8871 19.6129C30.1057 18.8315 29.6667 17.7717 29.6667 16.6667C29.6667 15.5616 30.1057 14.5018 30.8871 13.7204C31.6685 12.939 32.7283 12.5 33.8333 12.5C34.9384 12.5 35.9982 12.939 36.7796 13.7204C37.561 14.5018 38 15.5616 38 16.6667C38 17.7717 37.561 18.8315 36.7796 19.6129C35.9982 20.3943 34.9384 20.8333 33.8333 20.8333Z" stroke="black" stroke-width="1.5" stroke-linecap="round" stroke-linejoin="round"/>
</svg>
