<svg width="300" height="274" viewBox="0 0 300 274" fill="none" xmlns="http://www.w3.org/2000/svg">
<g clip-path="url(#clip0_1380_10896)">
<path d="M296.303 16.4765C282.58 16.4765 268.861 16.4765 255.142 16.4459C253.965 16.4459 253.451 16.8266 253.014 17.8944C248.131 29.9027 243.168 41.8848 238.302 53.902C237.735 55.3024 237.098 55.8319 235.52 55.8319C176.938 55.8552 118.36 55.9136 59.7851 56.0069C47.9198 56.0069 36.0501 56.0069 23.9711 56.0069C24.2371 55.3242 24.4071 54.821 24.6252 54.3265C31.8726 36.6859 39.5822 17.6799 46.8645 0.0612672L27.6078 0C27.6078 0 9.34106 44.7119 0.436598 66.3786C-0.261107 68.0766 -0.256747 68.0809 1.51804 68.0809C83.1844 68.0809 164.852 68.0926 246.521 68.1159C247.891 68.1159 248.492 67.6783 248.985 66.4355C253.32 55.5781 257.715 44.7031 262.102 33.837C262.394 33.1105 262.595 32.5241 263.633 32.5241C269.132 32.5854 274.63 32.5679 280.129 32.5241C281.04 32.5241 281.302 32.7079 280.879 33.6313C280.238 35.0448 279.715 36.5152 279.004 38.3007C283.478 38.3007 287.664 38.3007 291.851 38.3007C292.64 38.3007 292.867 37.8631 293.102 37.2811C295.282 31.9902 297.484 26.7125 299.643 21.4085C300.746 18.6777 299.246 16.4809 296.303 16.4765ZM107.809 65.9278C107.549 66.1889 107.241 66.396 106.901 66.5371C106.561 66.6783 106.197 66.7508 105.829 66.7506H97.0862C96.3437 66.7506 95.6316 66.4546 95.1066 65.9277C94.5816 65.4008 94.2866 64.6862 94.2866 63.941H97.8406C97.8406 64.1732 97.9324 64.3958 98.096 64.5599C98.2596 64.7241 98.4814 64.8163 98.7127 64.8163H104.264C104.453 64.8084 104.635 64.7387 104.781 64.6179C104.928 64.497 105.031 64.3316 105.076 64.1466C105.12 63.9615 105.103 63.7671 105.027 63.5926C104.952 63.4181 104.821 63.2731 104.656 63.1796H96.7199C96.4782 63.1813 96.2374 63.1489 96.0047 63.0833C95.538 62.9626 95.111 62.7211 94.7663 62.3831C94.3703 61.9927 94.0988 61.4929 93.9865 60.9474C93.8741 60.4018 93.926 59.835 94.1353 59.319C94.3447 58.8031 94.7022 58.3612 95.1624 58.0497C95.6226 57.7381 96.1648 57.5709 96.7199 57.5692H105.441C106.168 57.5689 106.866 57.8524 107.387 58.3597C107.909 58.867 108.214 59.5582 108.236 60.2869H104.678C104.678 60.0547 104.586 59.8321 104.423 59.668C104.259 59.5038 104.037 59.4116 103.806 59.4116H98.2723C98.041 59.4116 97.8191 59.5038 97.6556 59.668C97.492 59.8321 97.4001 60.0547 97.4001 60.2869C97.4001 60.519 97.492 60.7416 97.6556 60.9058C97.8191 61.0699 98.041 61.1621 98.2723 61.1621H105.829C106.387 61.1585 106.932 61.322 107.397 61.6315C107.861 61.9411 108.222 62.3827 108.435 62.8997C108.648 63.4168 108.702 63.9858 108.59 64.5338C108.479 65.0819 108.207 65.584 107.809 65.976V65.9278ZM135.416 63.3021V66.7287H132.181V63.3021L125.287 57.5386H129.948L133.646 61.3591H133.956L137.762 57.5386H142.014L135.416 63.3021ZM168.409 66.7287L163.643 63.2277H161.589V66.7287H157.996V57.5386H161.589V60.9652H163.643L167.886 57.5386H172.896L166.473 61.9148V62.3043L173.659 66.7287H168.409ZM203.316 59.5167H193.653V61.2146H202.518V63.1489H193.653V64.8469H203.102V66.7768H190.265V57.5867H203.316V59.5167Z" fill="#FF7E00"/>
<path d="M110.072 51.0668C104.791 51.0668 99.5103 51.0362 94.2295 51.0668C93.0173 51.0668 92.8952 50.7998 93.3574 49.7189C99.9885 33.6173 106.596 17.4968 113.181 1.35725C113.538 0.48201 113.953 0.105654 114.956 0.114407C120.77 0.184426 126.594 0.20339 132.429 0.171298C133.528 0.171298 133.737 0.381357 133.301 1.43165C131.413 5.8954 129.594 10.3898 127.75 14.8754C126.934 16.8578 126.934 16.8578 128.993 16.8578C134.378 16.8578 139.768 16.8972 145.158 16.8316C146.44 16.8316 146.592 17.1073 146.117 18.2582C142.607 26.7656 139.166 35.3255 135.651 43.8198C133.589 48.8393 129.921 51.1762 124.445 51.0668H110.054H110.072ZM130.82 25.5972C128.413 25.5972 126.241 25.5972 124.065 25.5972C123.851 25.5654 123.633 25.6091 123.448 25.7208C123.262 25.8326 123.122 26.0054 123.049 26.2098C121.741 29.4789 120.393 32.7435 118.998 36.1657C120.947 36.1657 122.731 36.2795 124.492 36.1264C125.125 36.0752 125.732 35.8518 126.248 35.4801C126.763 35.1084 127.168 34.6025 127.418 34.017C128.574 31.3169 129.616 28.573 130.82 25.5972Z" fill="#FF7E00"/>
<path d="M139.275 51.049L148.101 29.5224C151.921 20.201 155.738 10.8767 159.552 1.54954C159.871 0.766195 160.111 0.140394 161.214 0.153523C167.319 0.232295 173.424 0.223543 179.502 0.2498C179.711 0.278594 179.917 0.325449 180.117 0.389839L175.478 11.7155C174.941 13.0284 174.466 14.3675 173.851 15.6541C173.319 16.7482 173.69 16.9407 174.723 16.932C180.222 16.9013 185.721 16.932 191.215 16.932C193.042 16.932 193.042 16.932 192.353 18.6299C188.978 26.901 185.603 35.1706 182.228 43.4388C179.96 48.9791 176.607 51.1584 170.672 51.1409C160.603 51.1103 150.535 51.1409 140.461 51.1409C140.152 51.1015 139.834 51.0753 139.275 51.049ZM177.3 25.5969C174.889 25.5969 172.682 25.5969 170.472 25.5969C170.26 25.5778 170.049 25.6334 169.875 25.7541C169.701 25.8748 169.574 26.053 169.517 26.2577C168.287 29.2773 167.04 32.2925 165.801 35.3077C165.57 35.8723 165.609 36.2443 166.368 36.2311C167.833 36.1961 169.303 36.2793 170.759 36.1611C171.397 36.1406 172.017 35.9475 172.554 35.6024C173.092 35.2573 173.526 34.773 173.812 34.2006C175.037 31.4479 176.088 28.6034 177.3 25.5969Z" fill="#FF7E00"/>
<path d="M208.527 38.6606H237.015C238.864 38.6606 238.864 38.6606 238.166 40.3805C237.058 43.1069 235.929 45.8245 234.847 48.5597C234.137 50.3539 232.894 51.1504 230.949 51.146C217.557 51.1154 204.162 51.146 190.77 51.146C187.896 51.146 186.514 49.1417 187.626 46.4284C191.55 36.8489 195.523 27.2912 199.452 17.716C199.537 17.408 199.731 17.1417 199.997 16.9669C200.264 16.792 200.585 16.7208 200.9 16.7664C215.113 16.7839 229.324 16.7839 243.534 16.7664C243.988 16.7732 244.433 16.8902 244.832 17.1074C245.231 17.3246 245.571 17.6356 245.824 18.0137C246.077 18.3918 246.235 18.8258 246.284 19.2785C246.333 19.7312 246.272 20.1891 246.107 20.6131C244.641 24.6567 242.941 28.6128 241.371 32.6171C241.013 33.5273 240.294 33.1991 239.714 33.1991C230.618 33.1991 221.526 33.1991 212.434 33.1291C211.221 33.1291 210.55 33.4048 210.17 34.6126C209.748 35.9386 209.124 37.199 208.527 38.6606ZM220.479 29.3218V29.3743H222.921H225.363C228.551 29.3743 228.511 29.3743 229.724 26.4729C230.16 25.3919 230.16 25.0112 228.799 25.0375C224.949 25.1075 221.098 25.0375 217.243 25.0375C213.89 25.0375 213.925 25.0375 212.735 28.219C212.381 29.1555 212.595 29.3393 213.498 29.3262C215.813 29.2824 218.146 29.3218 220.479 29.3218Z" fill="#FF7E00"/>
<path d="M99.218 16.8145C98.5596 18.4555 97.984 19.9128 97.3909 21.3614C94.1669 29.2386 90.94 37.1012 87.7103 44.9492C86.1884 48.6515 82.4775 51.2291 78.5529 51.1022C69.7356 50.8221 60.9184 51.0584 52.1011 50.9753C49.4847 50.9753 46.8684 50.9753 44.252 50.9753C40.7155 50.9753 38.5831 47.96 39.9262 44.6385C43.5586 35.6497 47.5312 26.0352 51.1941 17.0683L69.365 17.2521C67.1847 22.416 64.7296 28.6303 62.5929 33.7986C61.7207 35.9167 61.9562 36.2711 64.2368 36.2755C66.4172 36.2755 68.5975 36.2755 70.7778 36.2755C73.1151 36.3062 74.105 35.6935 75.012 33.4922C77.1095 28.4071 79.582 22.2935 81.6141 17.1777L99.218 16.8145Z" fill="#FF7E00"/>
<path d="M54.6172 8.2705L57.8615 0.332031H75.9975L72.9625 8.2705H54.6172Z" fill="#FF7E00"/>
<path d="M85.1113 8.2705L88.2336 0.332031H105.702L102.781 8.2705H85.1113Z" fill="#FF7E00"/>
</g>
<g clip-path="url(#clip1_1380_10896)">
<path d="M105.504 196.85C109.377 196.85 112.518 200.043 112.518 203.988C112.518 207.928 109.377 211.126 105.509 211.126C101.636 211.126 98.5 207.933 98.5 203.988C98.5 200.048 101.641 196.855 105.504 196.855M184.932 196.855C188.805 196.855 191.936 200.048 191.936 203.993C191.936 207.933 188.805 211.131 184.932 211.131C181.065 211.131 177.928 207.938 177.928 203.993C177.928 200.053 181.065 196.855 184.932 196.855ZM201.356 110.68C201.621 111.582 201.522 112.551 201.079 113.38C200.635 114.209 199.884 114.83 198.987 115.109C195.31 116.217 192.92 117.612 191.751 119.142C190.52 120.754 189.846 122.726 189.727 124.966V174.206C189.521 179.943 188.198 184.464 185.617 187.699C182.934 191.077 178.814 192.977 173.134 193.528H116.782C111.751 193.528 107.595 192.215 104.443 189.501C101.291 186.787 99.3446 182.858 98.5463 177.862L98.5 177.29V146.699C98.7369 141.395 100.4 137.017 103.532 133.742C106.719 130.42 111.169 128.721 116.782 128.566H165.8C167.737 128.566 169.302 130.163 169.302 132.13C169.31 133.067 168.946 133.97 168.29 134.639C167.633 135.308 166.738 135.689 165.8 135.699H116.875C113.064 135.802 110.355 136.837 108.548 138.727C106.694 140.664 105.664 143.367 105.509 146.859V176.987C106.076 180.252 107.24 182.554 108.97 184.042C110.747 185.577 113.306 186.385 116.782 186.385L172.789 186.401C176.399 186.04 178.794 184.938 180.174 183.197C181.667 181.323 182.563 178.253 182.718 174.066V124.781C182.914 120.934 184.078 117.556 186.22 114.749C188.429 111.865 192.045 109.753 197.004 108.26C197.448 108.129 197.913 108.088 198.373 108.139C198.833 108.19 199.278 108.332 199.683 108.556C200.088 108.78 200.444 109.082 200.731 109.445C201.018 109.808 201.231 110.224 201.356 110.67M165.8 167.526C167.737 167.526 169.302 169.122 169.302 171.09C169.31 172.027 168.946 172.93 168.29 173.599C167.633 174.268 166.738 174.649 165.8 174.659H123.009C122.071 174.649 121.176 174.268 120.519 173.599C119.863 172.93 119.499 172.027 119.507 171.09C119.507 169.117 121.078 167.521 123.009 167.521L165.8 167.526ZM165.8 148.492C167.737 148.492 169.302 150.088 169.302 152.061C169.31 152.998 168.946 153.9 168.29 154.57C167.633 155.239 166.738 155.62 165.8 155.629H123.009C122.071 155.62 121.176 155.239 120.519 154.57C119.863 153.9 119.499 152.998 119.507 152.061C119.507 150.093 121.078 148.492 123.009 148.492H165.8Z" fill="#FF7E00"/>
</g>
<path d="M74.456 247.284C72.872 247.284 71.416 246.916 70.088 246.18C68.76 245.428 67.704 244.396 66.92 243.084C66.152 241.756 65.768 240.26 65.768 238.596C65.768 236.932 66.152 235.444 66.92 234.132C67.704 232.804 68.76 231.772 70.088 231.036C71.416 230.3 72.872 229.932 74.456 229.932C76.056 229.932 77.512 230.3 78.824 231.036C80.152 231.772 81.2 232.804 81.968 234.132C82.736 235.444 83.12 236.932 83.12 238.596C83.12 240.26 82.736 241.756 81.968 243.084C81.2 244.396 80.152 245.428 78.824 246.18C77.496 246.916 76.04 247.284 74.456 247.284ZM74.456 242.916C75.656 242.916 76.6 242.524 77.288 241.74C77.992 240.956 78.344 239.908 78.344 238.596C78.344 237.252 77.992 236.196 77.288 235.428C76.6 234.644 75.656 234.252 74.456 234.252C73.24 234.252 72.288 234.644 71.6 235.428C70.912 236.196 70.568 237.252 70.568 238.596C70.568 239.924 70.912 240.98 71.6 241.764C72.288 242.532 73.24 242.916 74.456 242.916ZM100.907 247.116H96.2026L89.9386 237.66V247.116H85.2346V230.196H89.9386L96.2026 239.772V230.196H100.907V247.116ZM108.29 243.516H113.546V247.116H103.586V230.196H108.29V243.516ZM120.079 230.196V247.116H115.375V230.196H120.079ZM138.43 247.116H133.726L127.462 237.66V247.116H122.758V230.196H127.462L133.726 239.772V230.196H138.43V247.116ZM145.814 233.964V236.724H151.214V240.3H145.814V243.348H151.934V247.116H141.11V230.196H151.934V233.964H145.814ZM164.65 236.844V240.756H153.778V236.844H164.65ZM174.517 247.284C172.549 247.284 170.933 246.82 169.669 245.892C168.405 244.948 167.725 243.604 167.629 241.86H172.645C172.693 242.452 172.869 242.884 173.173 243.156C173.477 243.428 173.869 243.564 174.349 243.564C174.781 243.564 175.133 243.46 175.405 243.252C175.693 243.028 175.837 242.724 175.837 242.34C175.837 241.844 175.605 241.46 175.141 241.188C174.677 240.916 173.925 240.612 172.885 240.276C171.781 239.908 170.885 239.556 170.197 239.22C169.525 238.868 168.933 238.364 168.421 237.708C167.925 237.036 167.677 236.164 167.677 235.092C167.677 234.004 167.949 233.076 168.493 232.308C169.037 231.524 169.789 230.932 170.749 230.532C171.709 230.132 172.797 229.932 174.013 229.932C175.981 229.932 177.549 230.396 178.717 231.324C179.901 232.236 180.533 233.524 180.613 235.188H175.501C175.485 234.676 175.325 234.292 175.021 234.036C174.733 233.78 174.357 233.652 173.893 233.652C173.541 233.652 173.253 233.756 173.029 233.964C172.805 234.172 172.693 234.468 172.693 234.852C172.693 235.172 172.813 235.452 173.053 235.692C173.309 235.916 173.621 236.116 173.989 236.292C174.357 236.452 174.901 236.66 175.621 236.916C176.693 237.284 177.573 237.652 178.261 238.02C178.965 238.372 179.565 238.876 180.061 239.532C180.573 240.172 180.829 240.988 180.829 241.98C180.829 242.988 180.573 243.892 180.061 244.692C179.565 245.492 178.837 246.124 177.877 246.588C176.933 247.052 175.813 247.284 174.517 247.284ZM198.16 230.196V247.116H193.456V240.324H187.72V247.116H183.016V230.196H187.72V236.556H193.456V230.196H198.16ZM208.964 247.284C207.38 247.284 205.924 246.916 204.596 246.18C203.268 245.428 202.212 244.396 201.428 243.084C200.66 241.756 200.276 240.26 200.276 238.596C200.276 236.932 200.66 235.444 201.428 234.132C202.212 232.804 203.268 231.772 204.596 231.036C205.924 230.3 207.38 229.932 208.964 229.932C210.564 229.932 212.02 230.3 213.332 231.036C214.66 231.772 215.708 232.804 216.476 234.132C217.244 235.444 217.628 236.932 217.628 238.596C217.628 240.26 217.244 241.756 216.476 243.084C215.708 244.396 214.66 245.428 213.332 246.18C212.004 246.916 210.548 247.284 208.964 247.284ZM208.964 242.916C210.164 242.916 211.108 242.524 211.796 241.74C212.5 240.956 212.852 239.908 212.852 238.596C212.852 237.252 212.5 236.196 211.796 235.428C211.108 234.644 210.164 234.252 208.964 234.252C207.748 234.252 206.796 234.644 206.108 235.428C205.42 236.196 205.076 237.252 205.076 238.596C205.076 239.924 205.42 240.98 206.108 241.764C206.796 242.532 207.748 242.916 208.964 242.916ZM233.11 235.836C233.11 236.86 232.87 237.796 232.39 238.644C231.926 239.476 231.214 240.148 230.254 240.66C229.31 241.156 228.15 241.404 226.774 241.404H224.446V247.116H219.742V230.196H226.774C228.134 230.196 229.286 230.436 230.23 230.916C231.19 231.396 231.91 232.06 232.39 232.908C232.87 233.756 233.11 234.732 233.11 235.836ZM226.318 237.66C227.646 237.66 228.31 237.052 228.31 235.836C228.31 234.604 227.646 233.988 226.318 233.988H224.446V237.66H226.318Z" fill="#FF7E00"/>
<defs>
<clipPath id="clip0_1380_10896">
<rect width="300" height="68.1159" fill="white"/>
</clipPath>
<clipPath id="clip1_1380_10896">
<rect width="103" height="103" fill="white" transform="translate(98.5 108.116)"/>
</clipPath>
</defs>
</svg>
