<svg width="129" height="29" viewBox="0 0 129 29" fill="none" xmlns="http://www.w3.org/2000/svg">
<path d="M126.92 7.7371C121.065 7.7371 115.212 7.7371 109.359 7.72448C108.856 7.72448 108.637 7.88124 108.451 8.3209C106.367 13.2652 104.249 18.1986 102.173 23.1465C101.931 23.7231 101.66 23.9411 100.986 23.9411C75.9917 23.9508 50.9985 23.9748 26.0065 24.0132C20.944 24.0132 15.8796 24.0132 10.7259 24.0132C10.8394 23.7321 10.912 23.5249 11.005 23.3213C14.0972 16.058 17.3866 8.2326 20.4937 0.978351L12.2776 0.953125C12.2776 0.953125 4.48383 19.3626 0.684614 28.2836C0.386928 28.9827 0.388789 28.9845 1.14603 28.9845C35.9901 28.9845 70.8349 28.9893 105.68 28.9989C106.264 28.9989 106.521 28.8188 106.731 28.307C108.581 23.8366 110.456 19.359 112.328 14.885C112.453 14.5859 112.538 14.3445 112.981 14.3445C115.327 14.3697 117.673 14.3625 120.019 14.3445C120.408 14.3445 120.52 14.4202 120.339 14.8004C120.066 15.3824 119.843 15.9878 119.539 16.7229C121.448 16.7229 123.234 16.7229 125.021 16.7229C125.357 16.7229 125.454 16.5427 125.555 16.3031C126.485 14.1247 127.424 11.9516 128.345 9.76778C128.816 8.64343 128.176 7.7389 126.92 7.7371ZM46.4966 28.098C46.3857 28.2055 46.2541 28.2908 46.1091 28.3489C45.9642 28.407 45.8088 28.4369 45.6519 28.4368H41.9215C41.6047 28.4368 41.3009 28.3149 41.0769 28.0979C40.8529 27.881 40.7271 27.5868 40.7271 27.28H42.2434C42.2434 27.3756 42.2826 27.4672 42.3524 27.5348C42.4222 27.6024 42.5168 27.6403 42.6155 27.6403H44.984C45.0648 27.6371 45.1423 27.6084 45.2048 27.5587C45.2673 27.5089 45.3114 27.4408 45.3303 27.3646C45.3492 27.2884 45.342 27.2083 45.3097 27.1365C45.2775 27.0647 45.2219 27.005 45.1514 26.9665H41.7653C41.6621 26.9672 41.5594 26.9538 41.4601 26.9268C41.261 26.8771 41.0788 26.7777 40.9317 26.6385C40.7628 26.4778 40.6469 26.272 40.599 26.0474C40.5511 25.8227 40.5732 25.5894 40.6625 25.3769C40.7519 25.1645 40.9044 24.9826 41.1007 24.8543C41.2971 24.726 41.5284 24.6572 41.7653 24.6565H45.4863C45.7963 24.6563 46.0941 24.7731 46.3167 24.9819C46.5394 25.1908 46.6693 25.4754 46.6789 25.7754H45.1607C45.1607 25.6799 45.1215 25.5882 45.0517 25.5206C44.982 25.453 44.8873 25.4151 44.7886 25.4151H42.4276C42.3289 25.4151 42.2343 25.453 42.1645 25.5206C42.0947 25.5882 42.0555 25.6799 42.0555 25.7754C42.0555 25.871 42.0947 25.9627 42.1645 26.0302C42.2343 26.0978 42.3289 26.1358 42.4276 26.1358H45.6519C45.8897 26.1343 46.1226 26.2016 46.3206 26.3291C46.5187 26.4565 46.673 26.6384 46.7637 26.8512C46.8544 27.0641 46.8775 27.2984 46.8299 27.524C46.7823 27.7497 46.6663 27.9564 46.4966 28.1178V28.098ZM58.2757 27.0169V28.4278H56.8951V27.0169L53.9536 24.6439H55.9425L57.5203 26.2169H57.6524L59.2766 24.6439H61.0906L58.2757 27.0169ZM72.3525 28.4278L70.3189 26.9863H69.4426V28.4278H67.9095V24.6439H69.4426V26.0547H70.3189L72.1292 24.6439H74.267L71.5264 26.4457V26.6061L74.5926 28.4278H72.3525ZM87.2461 25.4583H83.1231V26.1574H86.9056V26.9538H83.1231V27.653H87.1549V28.4476H81.6775V24.6637H87.2461V25.4583Z" fill="#FF7E00"/>
<path d="M47.4623 21.979C45.2092 21.979 42.9561 21.9664 40.703 21.979C40.1857 21.979 40.1336 21.8691 40.3308 21.4241C43.1601 14.7944 45.9794 8.15702 48.7888 1.51179C48.9414 1.15142 49.1182 0.996458 49.5461 1.00006C52.0268 1.02889 54.5119 1.0367 57.0012 1.02349C57.4701 1.02349 57.5594 1.10997 57.3734 1.54242C56.5677 3.38031 55.7919 5.23081 55.0049 7.07771C54.657 7.89395 54.657 7.89395 55.5351 7.89395C57.8329 7.89395 60.1325 7.91016 62.4322 7.88313C62.9792 7.88313 63.0443 7.99665 62.8415 8.47054C61.3437 11.9733 59.8758 15.4978 58.3762 18.9952C57.4961 21.0619 55.9314 22.0241 53.5946 21.979H47.4548H47.4623ZM56.3147 11.4922C55.2877 11.4922 54.3611 11.4922 53.4327 11.4922C53.3415 11.4792 53.2484 11.4971 53.1693 11.5432C53.0903 11.5892 53.0301 11.6603 52.9992 11.7445C52.4411 13.0905 51.8662 14.4347 51.2708 15.8437C52.1025 15.8437 52.8634 15.8906 53.6151 15.8275C53.8851 15.8064 54.144 15.7144 54.364 15.5614C54.584 15.4084 54.7567 15.2001 54.8635 14.959C55.3565 13.8473 55.8012 12.7175 56.3147 11.4922Z" fill="#FF7E00"/>
<path d="M59.9224 21.9751L63.6881 13.1118C65.3179 9.2739 66.9465 5.43475 68.5739 1.59441C68.7097 1.27187 68.812 1.01421 69.2827 1.01961C71.8875 1.05205 74.4922 1.04844 77.0858 1.05926C77.1748 1.07111 77.2626 1.0904 77.3481 1.11691L75.3685 5.78011C75.1397 6.32066 74.9369 6.87203 74.6746 7.40177C74.4476 7.85224 74.6057 7.93152 75.0467 7.92791C77.3928 7.9153 79.7389 7.92791 82.0832 7.92791C82.8628 7.92791 82.8628 7.92791 82.5688 8.62703C81.1287 12.0325 79.6887 15.4374 78.2486 18.8417C77.2812 21.1229 75.8504 22.0202 73.3182 22.013C69.0222 22.0004 64.7263 22.013 60.4284 22.013C60.2963 21.9968 60.1605 21.986 59.9224 21.9751ZM76.1462 11.4956C75.1174 11.4956 74.1759 11.4956 73.2326 11.4956C73.1426 11.4877 73.0526 11.5106 72.9781 11.5603C72.9037 11.61 72.8496 11.6834 72.8252 11.7677C72.3005 13.0109 71.7684 14.2524 71.24 15.4939C71.1414 15.7263 71.1581 15.8795 71.4819 15.8741C72.107 15.8597 72.734 15.8939 73.3554 15.8452C73.6275 15.8368 73.8921 15.7573 74.1213 15.6152C74.3506 15.4731 74.5359 15.2737 74.6578 15.038C75.1806 13.9047 75.629 12.7335 76.1462 11.4956Z" fill="#FF7E00"/>
<path d="M89.4695 16.8718H101.624C102.413 16.8718 102.413 16.8718 102.116 17.5799C101.643 18.7024 101.161 19.8214 100.7 20.9476C100.396 21.6863 99.8661 22.0143 99.0363 22.0125C93.3226 21.9998 87.6071 22.0125 81.8934 22.0125C80.6673 22.0125 80.0775 21.1872 80.5519 20.0701C82.2264 16.1258 83.9213 12.1906 85.5977 8.24811C85.6339 8.1213 85.7166 8.01162 85.8303 7.93964C85.944 7.86766 86.0809 7.83832 86.2154 7.8571C92.2795 7.86431 98.343 7.86431 104.406 7.8571C104.599 7.85989 104.789 7.90806 104.96 7.9975C105.13 8.08694 105.275 8.21498 105.383 8.37067C105.491 8.52635 105.558 8.70503 105.579 8.89143C105.6 9.07782 105.574 9.26637 105.504 9.44093C104.878 11.1058 104.153 12.7347 103.483 14.3834C103.33 14.7582 103.023 14.6231 102.776 14.6231C98.8949 14.6231 95.0157 14.6231 91.1365 14.5942C90.6193 14.5942 90.3327 14.7077 90.1709 15.2051C89.9904 15.751 89.7243 16.2699 89.4695 16.8718ZM94.5692 13.0266V13.0482H95.6111H96.653C98.013 13.0482 97.9963 13.0482 98.5135 11.8536C98.6996 11.4086 98.6996 11.2518 98.1191 11.2626C96.4762 11.2914 94.8334 11.2626 93.1887 11.2626C91.7579 11.2626 91.7728 11.2626 91.2649 12.5726C91.1142 12.9581 91.2053 13.0338 91.5905 13.0284C92.5784 13.0104 93.5738 13.0266 94.5692 13.0266Z" fill="#FF7E00"/>
<path d="M42.8314 7.875C42.5505 8.55069 42.3049 9.15071 42.0518 9.74712C40.6763 12.9905 39.2995 16.2278 37.9214 19.4591C37.2721 20.9835 35.6888 22.0448 34.0143 21.9925C30.2523 21.8772 26.4903 21.9745 22.7283 21.9403C21.612 21.9403 20.4957 21.9403 19.3793 21.9403C17.8704 21.9403 16.9606 20.6988 17.5337 19.3312C19.0835 15.6302 20.7785 11.6715 22.3413 7.97951L30.0942 8.05519C29.1639 10.1814 28.1164 12.74 27.2048 14.868C26.8326 15.7401 26.9331 15.886 27.9062 15.8878C28.8364 15.8878 29.7667 15.8878 30.697 15.8878C31.6942 15.9004 32.1166 15.6482 32.5036 14.7419C33.3985 12.6481 34.4534 10.1309 35.3204 8.02455L42.8314 7.875Z" fill="#FF7E00"/>
<path d="M23.8018 4.3545L25.186 1.08594H32.924L31.629 4.3545H23.8018Z" fill="#FF7E00"/>
<path d="M36.8126 4.3545L38.1448 1.08594H45.5981L44.3515 4.3545H36.8126Z" fill="#FF7E00"/>
</svg>
