<svg width="141" height="53" viewBox="0 0 141 53" fill="none" xmlns="http://www.w3.org/2000/svg">
<g clip-path="url(#clip0_1439_11050)">
<path d="M57.54 25.8442C58.668 25.8442 59.583 26.7742 59.583 27.9232C59.583 29.0707 58.668 30.0022 57.5415 30.0022C56.4135 30.0022 55.5 29.0722 55.5 27.9232C55.5 26.7757 56.415 25.8457 57.54 25.8457M80.6745 25.8457C81.8025 25.8457 82.7145 26.7757 82.7145 27.9247C82.7145 29.0722 81.8025 30.0037 80.6745 30.0037C79.548 30.0037 78.6345 29.0737 78.6345 27.9247C78.6345 26.7772 79.548 25.8457 80.6745 25.8457ZM85.458 0.746243C85.5354 1.0088 85.5064 1.29124 85.3773 1.5326C85.2482 1.77395 85.0293 1.95485 84.768 2.03624C83.697 2.35874 83.001 2.76524 82.6605 3.21074C82.302 3.68024 82.1055 4.25474 82.071 4.90724V19.2487C82.011 20.9197 81.6255 22.2367 80.874 23.1787C80.0925 24.1627 78.8925 24.7162 77.238 24.8767H60.825C59.3595 24.8767 58.149 24.4942 57.231 23.7037C56.313 22.9132 55.746 21.7687 55.5135 20.3137L55.5 20.1472V11.2372C55.569 9.69224 56.0535 8.41724 56.9655 7.46324C57.894 6.49574 59.19 6.00074 60.825 5.95574H75.102C75.666 5.95574 76.122 6.42074 76.122 6.99374C76.1244 7.2668 76.0183 7.52964 75.8271 7.72454C75.6358 7.91944 75.375 8.03047 75.102 8.03324H60.852C59.742 8.06324 58.953 8.36474 58.4265 8.91524C57.8865 9.47924 57.5865 10.2667 57.5415 11.2837V20.0587C57.7065 21.0097 58.0455 21.6802 58.5495 22.1137C59.067 22.5607 59.8125 22.7962 60.825 22.7962L77.1375 22.8007C78.189 22.6957 78.8865 22.3747 79.2885 21.8677C79.7235 21.3217 79.9845 20.4277 80.0295 19.2082V4.85324C80.0865 3.73274 80.4255 2.74874 81.0495 1.93124C81.693 1.09124 82.746 0.476243 84.1905 0.0412434C84.3198 0.00328001 84.4554 -0.00864175 84.5893 0.00616906C84.7233 0.0209799 84.853 0.0622287 84.9709 0.127525C85.0887 0.192821 85.1925 0.280867 85.2761 0.386559C85.3598 0.492251 85.4216 0.613488 85.458 0.743243M75.102 17.3032C75.666 17.3032 76.122 17.7682 76.122 18.3412C76.1244 18.6143 76.0183 18.8771 75.8271 19.072C75.6358 19.2669 75.375 19.378 75.102 19.3807H62.6385C62.3654 19.378 62.1047 19.2669 61.9134 19.072C61.7222 18.8771 61.6161 18.6143 61.6185 18.3412C61.6185 17.7667 62.076 17.3017 62.6385 17.3017L75.102 17.3032ZM75.102 11.7592C75.666 11.7592 76.122 12.2242 76.122 12.7987C76.1244 13.0718 76.0183 13.3346 75.8271 13.5295C75.6358 13.7244 75.375 13.8355 75.102 13.8382H62.6385C62.3654 13.8355 62.1047 13.7244 61.9134 13.5295C61.7222 13.3346 61.6161 13.0718 61.6185 12.7987C61.6185 12.2257 62.076 11.7592 62.6385 11.7592H75.102Z" fill="#FF7E00"/>
</g>
<path d="M8.10656 52.14C6.78656 52.14 5.57323 51.8333 4.46656 51.22C3.3599 50.5933 2.4799 49.7333 1.82656 48.64C1.18656 47.5333 0.866563 46.2867 0.866563 44.9C0.866563 43.5133 1.18656 42.2733 1.82656 41.18C2.4799 40.0733 3.3599 39.2133 4.46656 38.6C5.57323 37.9867 6.78656 37.68 8.10656 37.68C9.4399 37.68 10.6532 37.9867 11.7466 38.6C12.8532 39.2133 13.7266 40.0733 14.3666 41.18C15.0066 42.2733 15.3266 43.5133 15.3266 44.9C15.3266 46.2867 15.0066 47.5333 14.3666 48.64C13.7266 49.7333 12.8532 50.5933 11.7466 51.22C10.6399 51.8333 9.42656 52.14 8.10656 52.14ZM8.10656 48.5C9.10656 48.5 9.89323 48.1733 10.4666 47.52C11.0532 46.8667 11.3466 45.9933 11.3466 44.9C11.3466 43.78 11.0532 42.9 10.4666 42.26C9.89323 41.6067 9.10656 41.28 8.10656 41.28C7.09323 41.28 6.2999 41.6067 5.72656 42.26C5.15323 42.9 4.86656 43.78 4.86656 44.9C4.86656 46.0067 5.15323 46.8867 5.72656 47.54C6.2999 48.18 7.09323 48.5 8.10656 48.5ZM30.1488 52H26.2288L21.0088 44.12V52H17.0888V37.9H21.0088L26.2288 45.88V37.9H30.1488V52ZM36.3017 49H40.6817V52H32.3817V37.9H36.3017V49ZM46.1259 37.9V52H42.2059V37.9H46.1259ZM61.4183 52H57.4983L52.2783 44.12V52H48.3583V37.9H52.2783L57.4983 45.88V37.9H61.4183V52ZM67.5713 41.04V43.34H72.0713V46.32H67.5713V48.86H72.6713V52H63.6513V37.9H72.6713V41.04H67.5713ZM83.2683 43.44V46.7H74.2083V43.44H83.2683ZM91.4908 52.14C89.8508 52.14 88.5041 51.7533 87.4508 50.98C86.3974 50.1933 85.8308 49.0733 85.7508 47.62H89.9308C89.9708 48.1133 90.1174 48.4733 90.3708 48.7C90.6241 48.9267 90.9508 49.04 91.3508 49.04C91.7108 49.04 92.0041 48.9533 92.2308 48.78C92.4708 48.5933 92.5908 48.34 92.5908 48.02C92.5908 47.6067 92.3974 47.2867 92.0108 47.06C91.6241 46.8333 90.9974 46.58 90.1308 46.3C89.2108 45.9933 88.4641 45.7 87.8908 45.42C87.3308 45.1267 86.8374 44.7067 86.4108 44.16C85.9974 43.6 85.7908 42.8733 85.7908 41.98C85.7908 41.0733 86.0174 40.3 86.4708 39.66C86.9241 39.0067 87.5508 38.5133 88.3508 38.18C89.1508 37.8467 90.0574 37.68 91.0708 37.68C92.7108 37.68 94.0174 38.0667 94.9908 38.84C95.9774 39.6 96.5041 40.6733 96.5708 42.06H92.3108C92.2974 41.6333 92.1641 41.3133 91.9108 41.1C91.6708 40.8867 91.3574 40.78 90.9708 40.78C90.6774 40.78 90.4374 40.8667 90.2508 41.04C90.0641 41.2133 89.9708 41.46 89.9708 41.78C89.9708 42.0467 90.0708 42.28 90.2708 42.48C90.4841 42.6667 90.7441 42.8333 91.0508 42.98C91.3574 43.1133 91.8108 43.2867 92.4108 43.5C93.3041 43.8067 94.0374 44.1133 94.6108 44.42C95.1974 44.7133 95.6974 45.1333 96.1108 45.68C96.5374 46.2133 96.7508 46.8933 96.7508 47.72C96.7508 48.56 96.5374 49.3133 96.1108 49.98C95.6974 50.6467 95.0908 51.1733 94.2908 51.56C93.5041 51.9467 92.5708 52.14 91.4908 52.14ZM111.193 37.9V52H107.273V46.34H102.493V52H98.5731V37.9H102.493V43.2H107.273V37.9H111.193ZM120.196 52.14C118.876 52.14 117.663 51.8333 116.556 51.22C115.45 50.5933 114.57 49.7333 113.916 48.64C113.276 47.5333 112.956 46.2867 112.956 44.9C112.956 43.5133 113.276 42.2733 113.916 41.18C114.57 40.0733 115.45 39.2133 116.556 38.6C117.663 37.9867 118.876 37.68 120.196 37.68C121.53 37.68 122.743 37.9867 123.836 38.6C124.943 39.2133 125.816 40.0733 126.456 41.18C127.096 42.2733 127.416 43.5133 127.416 44.9C127.416 46.2867 127.096 47.5333 126.456 48.64C125.816 49.7333 124.943 50.5933 123.836 51.22C122.73 51.8333 121.516 52.14 120.196 52.14ZM120.196 48.5C121.196 48.5 121.983 48.1733 122.556 47.52C123.143 46.8667 123.436 45.9933 123.436 44.9C123.436 43.78 123.143 42.9 122.556 42.26C121.983 41.6067 121.196 41.28 120.196 41.28C119.183 41.28 118.39 41.6067 117.816 42.26C117.243 42.9 116.956 43.78 116.956 44.9C116.956 46.0067 117.243 46.8867 117.816 47.54C118.39 48.18 119.183 48.5 120.196 48.5ZM140.319 42.6C140.319 43.4533 140.119 44.2333 139.719 44.94C139.332 45.6333 138.739 46.1933 137.939 46.62C137.152 47.0333 136.185 47.24 135.039 47.24H133.099V52H129.179V37.9H135.039C136.172 37.9 137.132 38.1 137.919 38.5C138.719 38.9 139.319 39.4533 139.719 40.16C140.119 40.8667 140.319 41.68 140.319 42.6ZM134.659 44.12C135.765 44.12 136.319 43.6133 136.319 42.6C136.319 41.5733 135.765 41.06 134.659 41.06H133.099V44.12H134.659Z" fill="#FF7E00"/>
<defs>
<clipPath id="clip0_1439_11050">
<rect width="30" height="30" fill="white" transform="translate(55.5)"/>
</clipPath>
</defs>
</svg>
