<svg width="115" height="195" viewBox="0 0 115 195" fill="none" xmlns="http://www.w3.org/2000/svg">
<rect width="115" height="195" fill="#FBA34A" fill-opacity="0.31"/>
<g clip-path="url(#clip0_1309_10890)">
<path d="M31.58 103.689C33.836 103.689 35.666 105.549 35.666 107.847C35.666 110.142 33.836 112.005 31.583 112.005C29.327 112.005 27.5 110.145 27.5 107.847C27.5 105.552 29.33 103.692 31.58 103.692M77.849 103.692C80.105 103.692 81.929 105.552 81.929 107.85C81.929 110.145 80.105 112.008 77.849 112.008C75.596 112.008 73.769 110.148 73.769 107.85C73.769 105.555 75.596 103.692 77.849 103.692ZM87.416 53.4935C87.5707 54.0186 87.5127 54.5835 87.2545 55.0662C86.9963 55.5489 86.5586 55.9107 86.036 56.0735C83.894 56.7185 82.502 57.5315 81.821 58.4225C81.104 59.3615 80.711 60.5105 80.642 61.8155V90.4985C80.522 93.8405 79.751 96.4745 78.248 98.3585C76.685 100.326 74.285 101.433 70.976 101.754H38.15C35.219 101.754 32.798 100.989 30.962 99.4085C29.126 97.8275 27.992 95.5385 27.527 92.6285L27.5 92.2955V74.4755C27.638 71.3855 28.607 68.8355 30.431 66.9275C32.288 64.9925 34.88 64.0025 38.15 63.9125H66.704C67.832 63.9125 68.744 64.8425 68.744 65.9885C68.7488 66.5346 68.5366 67.0602 68.1541 67.4501C67.7717 67.8399 67.2501 68.0619 66.704 68.0675H38.204C35.984 68.1275 34.406 68.7305 33.353 69.8315C32.273 70.9595 31.673 72.5345 31.583 74.5685V92.1185C31.913 94.0205 32.591 95.3615 33.599 96.2285C34.634 97.1225 36.125 97.5935 38.15 97.5935L70.775 97.6025C72.878 97.3925 74.273 96.7505 75.077 95.7365C75.947 94.6445 76.469 92.8565 76.559 90.4175V61.7075C76.673 59.4665 77.351 57.4985 78.599 55.8635C79.886 54.1835 81.992 52.9535 84.881 52.0835C85.1396 52.0075 85.4107 51.9837 85.6786 52.0133C85.9466 52.0429 86.2059 52.1254 86.4417 52.256C86.6775 52.3866 86.885 52.5627 87.0523 52.7741C87.2195 52.9855 87.3431 53.228 87.416 53.4875M66.704 86.6075C67.832 86.6075 68.744 87.5375 68.744 88.6835C68.7488 89.2296 68.5366 89.7553 68.1541 90.1451C67.7717 90.5349 67.2501 90.7569 66.704 90.7625H41.777C41.2309 90.7569 40.7093 90.5349 40.3268 90.1451C39.9443 89.7553 39.7322 89.2296 39.737 88.6835C39.737 87.5345 40.652 86.6045 41.777 86.6045L66.704 86.6075ZM66.704 75.5195C67.832 75.5195 68.744 76.4495 68.744 77.5985C68.7488 78.1446 68.5366 78.6703 68.1541 79.0601C67.7717 79.4499 67.2501 79.6719 66.704 79.6775H41.777C41.2309 79.6719 40.7093 79.4499 40.3268 79.0601C39.9443 78.6703 39.7322 78.1446 39.737 77.5985C39.737 76.4525 40.652 75.5195 41.777 75.5195H66.704Z" fill="#FBA44B"/>
</g>
<path d="M13.516 137.098C12.592 137.098 11.7427 136.883 10.968 136.454C10.1933 136.015 9.57733 135.413 9.12 134.648C8.672 133.873 8.448 133.001 8.448 132.03C8.448 131.059 8.672 130.191 9.12 129.426C9.57733 128.651 10.1933 128.049 10.968 127.62C11.7427 127.191 12.592 126.976 13.516 126.976C14.4493 126.976 15.2987 127.191 16.064 127.62C16.8387 128.049 17.45 128.651 17.898 129.426C18.346 130.191 18.57 131.059 18.57 132.03C18.57 133.001 18.346 133.873 17.898 134.648C17.45 135.413 16.8387 136.015 16.064 136.454C15.2893 136.883 14.44 137.098 13.516 137.098ZM13.516 134.55C14.216 134.55 14.7667 134.321 15.168 133.864C15.5787 133.407 15.784 132.795 15.784 132.03C15.784 131.246 15.5787 130.63 15.168 130.182C14.7667 129.725 14.216 129.496 13.516 129.496C12.8067 129.496 12.2513 129.725 11.85 130.182C11.4487 130.63 11.248 131.246 11.248 132.03C11.248 132.805 11.4487 133.421 11.85 133.878C12.2513 134.326 12.8067 134.55 13.516 134.55ZM28.9455 137H26.2015L22.5475 131.484V137H19.8035V127.13H22.5475L26.2015 132.716V127.13H28.9455V137ZM33.2526 134.9H36.3186V137H30.5086V127.13H33.2526V134.9ZM40.1296 127.13V137H37.3856V127.13H40.1296ZM50.8342 137H48.0902L44.4362 131.484V137H41.6922V127.13H44.4362L48.0902 132.716V127.13H50.8342V137ZM55.1413 129.328V130.938H58.2913V133.024H55.1413V134.802H58.7113V137H52.3973V127.13H58.7113V129.328H55.1413ZM66.1292 131.008V133.29H59.7872V131.008H66.1292ZM71.885 137.098C70.737 137.098 69.7943 136.827 69.057 136.286C68.3196 135.735 67.923 134.951 67.867 133.934H70.793C70.821 134.279 70.9236 134.531 71.101 134.69C71.2783 134.849 71.507 134.928 71.787 134.928C72.039 134.928 72.2443 134.867 72.403 134.746C72.571 134.615 72.655 134.438 72.655 134.214C72.655 133.925 72.5196 133.701 72.249 133.542C71.9783 133.383 71.5396 133.206 70.933 133.01C70.289 132.795 69.7663 132.59 69.365 132.394C68.973 132.189 68.6276 131.895 68.329 131.512C68.0396 131.12 67.895 130.611 67.895 129.986C67.895 129.351 68.0536 128.81 68.371 128.362C68.6883 127.905 69.127 127.559 69.687 127.326C70.247 127.093 70.8816 126.976 71.591 126.976C72.739 126.976 73.6536 127.247 74.335 127.788C75.0256 128.32 75.3943 129.071 75.441 130.042H72.459C72.4496 129.743 72.3563 129.519 72.179 129.37C72.011 129.221 71.7916 129.146 71.521 129.146C71.3156 129.146 71.1476 129.207 71.017 129.328C70.8863 129.449 70.821 129.622 70.821 129.846C70.821 130.033 70.891 130.196 71.031 130.336C71.1803 130.467 71.3623 130.583 71.577 130.686C71.7916 130.779 72.109 130.901 72.529 131.05C73.1543 131.265 73.6676 131.479 74.069 131.694C74.4796 131.899 74.8296 132.193 75.119 132.576C75.4176 132.949 75.567 133.425 75.567 134.004C75.567 134.592 75.4176 135.119 75.119 135.586C74.8296 136.053 74.405 136.421 73.845 136.692C73.2943 136.963 72.641 137.098 71.885 137.098ZM85.6766 127.13V137H82.9326V133.038H79.5866V137H76.8426V127.13H79.5866V130.84H82.9326V127.13H85.6766ZM91.9789 137.098C91.0549 137.098 90.2056 136.883 89.4309 136.454C88.6562 136.015 88.0402 135.413 87.5829 134.648C87.1349 133.873 86.9109 133.001 86.9109 132.03C86.9109 131.059 87.1349 130.191 87.5829 129.426C88.0402 128.651 88.6562 128.049 89.4309 127.62C90.2056 127.191 91.0549 126.976 91.9789 126.976C92.9122 126.976 93.7616 127.191 94.5269 127.62C95.3016 128.049 95.9129 128.651 96.3609 129.426C96.8089 130.191 97.0329 131.059 97.0329 132.03C97.0329 133.001 96.8089 133.873 96.3609 134.648C95.9129 135.413 95.3016 136.015 94.5269 136.454C93.7522 136.883 92.9029 137.098 91.9789 137.098ZM91.9789 134.55C92.6789 134.55 93.2296 134.321 93.6309 133.864C94.0416 133.407 94.2469 132.795 94.2469 132.03C94.2469 131.246 94.0416 130.63 93.6309 130.182C93.2296 129.725 92.6789 129.496 91.9789 129.496C91.2696 129.496 90.7142 129.725 90.3129 130.182C89.9116 130.63 89.7109 131.246 89.7109 132.03C89.7109 132.805 89.9116 133.421 90.3129 133.878C90.7142 134.326 91.2696 134.55 91.9789 134.55ZM106.064 130.42C106.064 131.017 105.924 131.563 105.644 132.058C105.374 132.543 104.958 132.935 104.398 133.234C103.848 133.523 103.171 133.668 102.368 133.668H101.01V137H98.2664V127.13H102.368C103.162 127.13 103.834 127.27 104.384 127.55C104.944 127.83 105.364 128.217 105.644 128.712C105.924 129.207 106.064 129.776 106.064 130.42ZM102.102 131.484C102.877 131.484 103.264 131.129 103.264 130.42C103.264 129.701 102.877 129.342 102.102 129.342H101.01V131.484H102.102Z" fill="#FAA44B"/>
<defs>
<clipPath id="clip0_1309_10890">
<rect width="60" height="60" fill="white" transform="translate(27.5 52)"/>
</clipPath>
</defs>
</svg>
