<svg width="128" height="224" viewBox="0 0 128 224" fill="none" xmlns="http://www.w3.org/2000/svg">
<path d="M124.263 64.0039V64.1096C124.263 97.5071 97.3063 124.581 64.0526 124.581C30.7989 124.581 3.84204 97.5071 3.84204 64.1096C3.84204 30.7121 30.7989 3.63867 64.0526 3.63867H64.1052V31.1255C45.9084 31.1255 31.1578 45.9398 31.1578 64.2153C31.1578 82.4909 45.9084 97.3052 64.1052 97.3052C82.302 97.3052 97.0526 82.4909 97.0526 64.2153C97.0526 64.1445 97.0526 64.0747 97.0526 64.0039H124.263Z" fill="white"/>
<path d="M80.0128 30.1416C79.9811 30.1294 79.9521 30.1109 79.9278 30.0872C79.9034 30.0635 79.884 30.0351 79.8708 30.0037C79.8576 29.9723 79.8509 29.9385 79.8511 29.9044C79.8512 29.8704 79.8582 29.8367 79.8717 29.8054C81.2778 26.6502 83.5647 23.9722 86.4553 22.0957C89.3458 20.2192 92.7161 19.2246 96.158 19.2325C105.983 19.2325 113.947 27.1613 113.947 36.9403C113.951 41.3372 112.312 45.5753 109.354 48.8167C109.337 48.8353 109.317 48.8503 109.294 48.8609C109.271 48.8715 109.247 48.8775 109.222 48.8785C109.197 48.8795 109.172 48.8754 109.148 48.8666C109.125 48.8579 109.104 48.8445 109.085 48.8273C109.05 48.7941 109.03 48.7487 109.027 48.7005C109.024 48.6523 109.04 48.605 109.072 48.5683C111.683 45.4856 113.116 41.5692 113.112 37.5218C113.112 28.0335 105.384 20.3425 95.8485 20.3425C92.6193 20.3362 89.4529 21.2392 86.7088 22.9491C83.9647 24.6589 81.7529 27.1071 80.3243 30.0157C80.2973 30.0729 80.2496 30.1176 80.1911 30.141C80.1325 30.1643 80.0673 30.1645 80.0085 30.1416H80.0128Z" fill="white"/>
<path d="M45.7368 43.5473L46.4737 40.4814H56.7894L56.0526 43.5473H51.5263L49.8421 50.6304H46.4737L48.1052 43.6001L45.7368 43.5473Z" fill="white"/>
<path d="M57.8421 40.4814H63.1053L63.5263 46.0845L65.8421 40.4814H69.4211L64.4737 50.6304H61.2106L60.1053 43.6001H57.2632L57.8421 40.4814Z" fill="white"/>
<path d="M72.7895 40.4814L70.2632 50.6304H73.3158L74.579 45.5559L76.0527 50.6304H79.1053L81.6316 40.5872L78.3158 40.5343L77.3684 45.6088L76 40.5343L72.7895 40.4814Z" fill="white"/>
<path d="M104 43.1773C103.684 41.8029 103.263 40.8515 100.632 40.5343H97.4736L95.2631 49.3089L94 46.7717H94.3158C94.3158 46.7717 96 46.1374 96.2105 44.3402C96.421 42.543 95.2631 40.7457 93.6842 40.64L89.6315 40.4814L87.1052 50.6304H90.3684L91.1052 47.036L92.3684 50.6304H98.8421C98.8421 50.6304 102.947 50.5776 103.684 46.3488C103.684 46.3488 104.316 44.5516 104 43.1773ZM93.1579 43.9173C92.7884 44.9068 91.6842 44.6573 91.6842 44.6573C91.8947 44.1287 92 43.283 92 43.283C92 43.283 93.4736 43.0715 93.1579 43.9173ZM100.947 45.5031C100.421 47.7232 99.4736 47.8289 99.4736 47.8289H98.7368L99.8947 43.1773C99.8947 43.1773 101.474 43.283 100.947 45.5031Z" fill="white"/>
<path d="M86.6315 40.7446C84.9473 39.8989 81.7041 40.6389 80.2378 43.451C78.9473 45.9259 78.881 49.3617 80.9073 50.3872C82.7368 51.3175 85.8546 50.4158 87.301 47.6808C88.7367 44.9744 88.5262 41.6972 86.6315 40.7446ZM84.9336 45.8995C84.4873 47.3943 83.6136 48.4515 82.9831 48.2623C82.3525 48.073 82.202 46.7061 82.6494 45.2112C83.0967 43.7164 83.9683 42.6592 84.5999 42.8484C85.2315 43.0377 85.3778 44.4046 84.9315 45.8995H84.9336Z" fill="white"/>
<path d="M53.0001 44.0762H55.9475L55.0885 47.4391C55.0656 47.529 55.0634 47.623 55.0822 47.7139C55.101 47.8049 55.1402 47.8902 55.1969 47.9636C55.2535 48.0369 55.3262 48.0963 55.4092 48.1371C55.4922 48.178 55.5834 48.1992 55.6759 48.1992C55.8129 48.1992 55.9458 48.1525 56.0531 48.0669C56.1603 47.9813 56.2355 47.8617 56.2664 47.7277L57.1085 44.0762H59.9506L59.0654 48.2986C58.8985 49.0887 58.4638 49.7962 57.8355 50.3003C57.2072 50.8045 56.4242 51.0741 55.6201 51.0631L54.4117 51.0441C54.0618 51.0389 53.7174 50.9558 53.4032 50.8009C53.0891 50.646 52.8131 50.4231 52.5951 50.1482C52.377 49.8733 52.2224 49.5532 52.1422 49.2111C52.0621 48.869 52.0585 48.5133 52.1317 48.1696L53.0001 44.0762Z" fill="white"/>
<path d="M16.5852 143.488L19.6842 139.552H16.6631V138.474H21.2557V139.494L18.1178 143.488H21.2631V144.561H16.5852V143.488Z" fill="white"/>
<path d="M24.9579 140.152C25.2738 140.295 25.5423 140.526 25.7316 140.818C25.9201 141.097 26.0425 141.415 26.0895 141.748C26.1255 142.045 26.1381 142.343 26.1274 142.642H22.8643C22.8825 143.093 23.0386 143.41 23.3327 143.593C23.5277 143.71 23.7519 143.769 23.979 143.762C24.1622 143.777 24.3454 143.735 24.5047 143.643C24.664 143.551 24.7918 143.413 24.8716 143.246H26.0674C26.0358 143.514 25.8916 143.784 25.6327 144.06C25.2313 144.498 24.6699 144.717 23.9485 144.717C23.3737 144.724 22.8146 144.528 22.3695 144.163C21.9134 143.794 21.6853 143.195 21.6853 142.366C21.6853 141.586 21.8913 140.987 22.3032 140.569C22.7151 140.15 23.2492 139.942 23.9053 139.944C24.2669 139.938 24.6257 140.009 24.9579 140.152ZM23.2043 141.168C23.0276 141.36 22.9169 141.605 22.8885 141.865H24.9074C24.9055 141.731 24.8765 141.599 24.8222 141.477C24.7679 141.355 24.6895 141.245 24.5916 141.154C24.3979 140.99 24.1504 140.903 23.8969 140.911C23.7701 140.904 23.6432 140.923 23.5241 140.968C23.405 141.012 23.2961 141.08 23.2043 141.168Z" fill="white"/>
<path d="M29.1842 139.955L29.2894 139.961V141.167C29.2157 141.158 29.1494 141.153 29.0926 141.151C29.0357 141.149 28.9873 141.151 28.9526 141.151C28.481 141.151 28.1652 141.305 28.0052 141.613C27.9147 141.786 27.8694 142.053 27.8694 142.414V144.565H26.6831V140.064H27.801V140.849C27.9257 140.621 28.0851 140.413 28.2736 140.234C28.5164 140.041 28.8203 139.943 29.1294 139.957L29.1842 139.955Z" fill="white"/>
<path d="M29.4863 140.939V140.101H30.1116V138.846H31.2695V140.101H32V140.939H31.2716V143.318C31.2716 143.503 31.2947 143.618 31.3421 143.663C31.3895 143.709 31.5316 143.731 31.7695 143.731H31.8821C31.9221 143.731 31.9611 143.731 32 143.725V144.604L31.4442 144.625C30.8905 144.644 30.5123 144.548 30.3095 144.336C30.1779 144.201 30.1126 143.993 30.1126 143.713V140.941L29.4863 140.939Z" fill="white"/>
<path d="M33.9306 139.523H32.7422V138.437H33.9306V139.523ZM32.7422 140.059H33.9306V144.561H32.7422V140.059Z" fill="white"/>
<path d="M36.8948 138.419L37.1411 138.437V139.395C37.0759 139.388 36.9653 139.381 36.8106 139.377C36.7526 139.369 36.6935 139.374 36.6378 139.392C36.5821 139.411 36.5314 139.441 36.4895 139.483C36.4327 139.55 36.4014 139.635 36.4011 139.724V140.103H37.1706V140.934H36.4011V144.563H35.238V140.934H34.5801V140.103H35.2211V139.815C35.2211 139.333 35.3022 139.001 35.4643 138.82C35.6334 138.55 36.0432 138.415 36.6938 138.415C36.7674 138.413 36.8348 138.415 36.8948 138.419Z" fill="white"/>
<path d="M39.0241 139.523H37.8357V138.437H39.0241V139.523ZM37.8357 140.059H39.0241V144.561H37.8357V140.059Z" fill="white"/>
<path d="M39.879 141.019V140.061H43.4232V141.039L41.2243 143.596H43.5011V144.562H39.7222V143.645L41.9443 141.019H39.879Z" fill="white"/>
<path d="M45.5241 139.523H44.3357V138.437H45.5241V139.523ZM44.3357 140.059H45.5241V144.561H44.3357V140.059Z" fill="white"/>
<path d="M49.5536 140.152C49.8695 140.296 50.1383 140.527 50.3283 140.818C50.5159 141.097 50.638 141.415 50.6851 141.748C50.721 142.045 50.734 142.343 50.7241 142.642H47.4609C47.4785 143.093 47.6346 143.41 47.9294 143.593C48.1243 143.71 48.3486 143.769 48.5757 143.762C48.7588 143.777 48.942 143.735 49.1012 143.643C49.2604 143.551 49.388 143.413 49.4672 143.246H50.663C50.6315 143.514 50.4862 143.784 50.2283 144.06C49.8276 144.498 49.2662 144.717 48.5441 144.717C47.9693 144.724 47.4104 144.528 46.9651 144.163C46.509 143.794 46.2813 143.195 46.282 142.366C46.282 141.586 46.4876 140.987 46.8988 140.569C47.3101 140.15 47.8444 139.942 48.502 139.944C48.8632 139.938 49.2217 140.009 49.5536 140.152ZM47.8009 141.168C47.6243 141.36 47.5137 141.605 47.4851 141.865H49.5041C49.5025 141.731 49.4736 141.599 49.4193 141.477C49.365 141.354 49.2864 141.245 49.1883 141.154C48.9942 140.99 48.7464 140.903 48.4925 140.911C48.3659 140.904 48.2392 140.923 48.1203 140.968C48.0013 141.012 47.8927 141.08 47.8009 141.168Z" fill="white"/>
<path d="M53.7812 139.955L53.8864 139.961V141.167C53.8117 141.158 53.7464 141.153 53.6885 141.151C53.6306 141.149 53.5833 141.151 53.5485 141.151C53.0776 141.151 52.7619 141.305 52.6012 141.613C52.5106 141.786 52.4654 142.053 52.4654 142.414V144.565H51.2791V140.064H52.398V140.849C52.5223 140.621 52.6818 140.413 52.8706 140.234C53.113 140.041 53.4165 139.943 53.7254 139.957L53.7812 139.955Z" fill="white"/>
<path d="M54.0833 140.939V140.101H54.7075V138.846H55.8654V140.101H56.5927V140.939H55.8654V143.318C55.8654 143.503 55.8885 143.618 55.9348 143.663C55.9822 143.709 56.1243 143.731 56.3633 143.731H56.4759C56.5159 143.731 56.5548 143.729 56.5927 143.725V144.604L56.038 144.625C55.4843 144.644 55.1061 144.548 54.9032 144.336C54.7717 144.201 54.7054 143.993 54.7054 143.713V140.941L54.0833 140.939Z" fill="white"/>
<path d="M60.2433 140.152C60.5592 140.296 60.828 140.527 61.018 140.818C61.2056 141.097 61.3277 141.415 61.3748 141.748C61.4108 142.045 61.4234 142.343 61.4127 142.642H58.1496C58.1685 143.093 58.325 143.41 58.6191 143.593C58.8136 143.71 59.0375 143.769 59.2643 143.762C59.4476 143.777 59.631 143.736 59.7903 143.643C59.9497 143.551 60.0775 143.413 60.1569 143.246H61.3527C61.3212 143.514 61.1769 143.784 60.919 144.06C60.5169 144.498 59.9555 144.717 59.2348 144.717C58.66 144.724 58.101 144.528 57.6559 144.163C57.1997 143.794 56.9717 143.195 56.9717 142.366C56.9717 141.586 57.1776 140.987 57.5896 140.569C58.0015 140.15 58.5355 139.942 59.1917 139.944C59.5529 139.938 59.9114 140.009 60.2433 140.152ZM58.4896 141.168C58.3129 141.36 58.2023 141.604 58.1738 141.865H60.1927C60.1911 141.731 60.1622 141.599 60.1079 141.477C60.0536 141.355 59.975 141.245 59.8769 141.154C59.6833 140.99 59.4358 140.903 59.1822 140.911C59.0554 140.904 58.9286 140.923 58.8095 140.968C58.6904 141.012 58.5815 141.08 58.4896 141.168Z" fill="white"/>
<path d="M68.7936 138.474V139.552H66.9799V144.561H65.7052V139.552H63.8831V138.474H68.7936Z" fill="white"/>
<path d="M71.1883 141.823C71.3484 141.808 71.5058 141.773 71.6567 141.717C71.729 141.696 71.7925 141.652 71.8379 141.591C71.8834 141.531 71.9084 141.458 71.9094 141.382C71.9171 141.306 71.903 141.23 71.8686 141.163C71.8343 141.095 71.7812 141.039 71.7157 141C71.5369 140.92 71.3417 140.884 71.1462 140.895C70.8662 140.895 70.6673 140.964 70.5504 141.106C70.4594 141.226 70.4019 141.369 70.3841 141.518H69.2536C69.2629 141.169 69.3779 140.83 69.5831 140.548C69.8946 140.152 70.429 139.954 71.1862 139.954C71.6408 139.945 72.0908 140.045 72.4989 140.247C72.882 140.442 73.0732 140.811 73.0725 141.354V143.418C73.0725 143.562 73.0725 143.735 73.081 143.938C73.0773 144.048 73.1015 144.157 73.1515 144.255C73.196 144.315 73.2556 144.363 73.3241 144.392V144.565H72.0494C72.0158 144.483 71.9907 144.397 71.9746 144.309C71.961 144.23 71.9504 144.139 71.942 144.037C71.7782 144.214 71.5887 144.366 71.3799 144.487C71.1176 144.635 70.8208 144.711 70.5199 144.706C70.1513 144.72 69.7907 144.595 69.5083 144.357C69.2417 144.124 69.1087 143.795 69.1094 143.367C69.1094 142.814 69.3234 142.414 69.7515 142.166C69.9866 142.031 70.3318 141.935 70.7873 141.877L71.1883 141.823ZM69.8736 138.396H70.9473V139.374H69.8736V138.396ZM71.9052 142.373C71.8333 142.418 71.7572 142.456 71.6778 142.486C71.5752 142.522 71.4695 142.549 71.362 142.566L71.0957 142.616C70.9086 142.64 70.7266 142.695 70.5567 142.778C70.4685 142.826 70.3958 142.899 70.3468 142.987C70.2978 143.075 70.2746 143.176 70.2799 143.277C70.2723 143.357 70.2837 143.439 70.3132 143.515C70.3426 143.59 70.3892 143.658 70.4494 143.712C70.5666 143.803 70.7117 143.851 70.8599 143.846C71.1134 143.848 71.3609 143.77 71.5683 143.623C71.7841 143.475 71.8957 143.2 71.9041 142.81L71.9052 142.373ZM71.5189 138.396H72.5915V139.374H71.5189V138.396Z" fill="white"/>
<path d="M73.6116 140.939V140.101H74.2358V138.846H75.3937V140.101H76.121V140.939H75.3937V143.318C75.3937 143.503 75.4168 143.618 75.4632 143.663C75.5105 143.709 75.6526 143.731 75.8916 143.731H76.0042C76.0442 143.731 76.0832 143.729 76.121 143.725V144.604L75.5663 144.625C75.0126 144.644 74.6344 144.548 74.4316 144.336C74.3 144.201 74.2337 143.993 74.2337 143.713V140.941L73.6116 140.939Z" fill="white"/>
<path d="M78.0559 139.523H76.8674V138.437H78.0559V139.523ZM76.8674 140.059H78.0559V144.561H76.8674V140.059Z" fill="white"/>
<path d="M81.3822 140.055C81.6802 140.187 81.9237 140.417 82.0716 140.709V140.059H83.2148V144.329C83.2148 144.911 83.1176 145.349 82.9232 145.643C82.5885 146.15 81.9471 146.403 80.999 146.403C80.4264 146.403 79.959 146.29 79.5969 146.064C79.4217 145.958 79.2752 145.81 79.1706 145.634C79.0659 145.457 79.0062 145.258 78.9969 145.053H80.2716C80.2912 145.166 80.3474 145.271 80.4316 145.35C80.558 145.455 80.7695 145.511 81.0632 145.511C81.4843 145.511 81.7667 145.37 81.9106 145.088C82.0032 144.907 82.0506 144.601 82.0506 144.172V143.883C81.9595 144.05 81.8364 144.198 81.6885 144.317C81.4239 144.505 81.1042 144.6 80.7801 144.585C80.5191 144.596 80.2592 144.546 80.0202 144.441C79.7811 144.335 79.569 144.176 79.4001 143.976C79.0562 143.57 78.8843 143.02 78.8843 142.326C78.8843 141.657 79.0499 141.093 79.3811 140.635C79.7123 140.176 80.1818 139.948 80.7895 139.952C80.9919 139.947 81.1933 139.982 81.3822 140.055ZM81.7811 143.283C81.9695 143.071 82.0643 142.744 82.0643 142.29C82.0643 141.863 81.9748 141.538 81.7959 141.315C81.7106 141.207 81.6011 141.12 81.4762 141.062C81.3513 141.003 81.2145 140.975 81.0769 140.98C80.8915 140.97 80.7078 141.021 80.5546 141.127C80.4013 141.232 80.2871 141.385 80.2295 141.563C80.1411 141.808 80.0993 142.067 80.1064 142.327C80.1023 142.566 80.1471 142.804 80.238 143.025C80.2995 143.199 80.4158 143.349 80.5693 143.452C80.7228 143.555 80.9053 143.605 81.0895 143.595C81.2205 143.596 81.3502 143.569 81.4697 143.516C81.5892 143.462 81.6955 143.382 81.7811 143.283Z" fill="white"/>
<path d="M84.2715 138.495H85.4231V141.779L86.8967 140.081H88.3578L86.7515 141.76L88.421 144.561H86.9936L85.9083 142.638L85.4231 143.145V144.561H84.2715V138.495Z" fill="white"/>
<path d="M91.8621 140.152C92.1782 140.296 92.447 140.527 92.6368 140.818C92.8245 141.097 92.9465 141.415 92.9937 141.749C93.0295 142.045 93.0425 142.344 93.0326 142.642H89.7694C89.7877 143.093 89.9438 143.41 90.2379 143.593C90.4328 143.711 90.6571 143.769 90.8842 143.762C91.1191 143.772 91.3497 143.697 91.5347 143.551C91.6352 143.465 91.7172 143.36 91.7758 143.241H92.9726C92.941 143.509 92.7958 143.779 92.5379 144.055C92.1365 144.493 91.5751 144.712 90.8537 144.712C90.2789 144.719 89.72 144.523 89.2747 144.158C88.8186 143.789 88.5909 143.19 88.5916 142.361C88.5916 141.581 88.7972 140.982 89.2084 140.563C89.6196 140.145 90.154 139.937 90.8116 139.939C91.1728 139.934 91.5309 140.007 91.8621 140.152ZM90.1052 141.168C89.9287 141.361 89.818 141.605 89.7894 141.865H91.8084C91.8068 141.731 91.7779 141.599 91.7236 141.477C91.6693 141.355 91.5907 141.245 91.4926 141.154C91.2985 140.99 91.0507 140.903 90.7968 140.911C90.6702 140.904 90.5435 140.924 90.4246 140.968C90.3056 141.012 90.197 141.08 90.1052 141.168Z" fill="white"/>
<path d="M94.8043 139.523H93.6169V138.437H94.8043V139.523ZM93.6169 140.059H94.8043V144.561H93.6169V140.059Z" fill="white"/>
<path d="M95.4536 140.939V140.101H96.0789V138.846H97.2368V140.101H97.9652V140.939H97.2368V143.318C97.2368 143.503 97.2599 143.618 97.3073 143.663C97.3547 143.709 97.4957 143.731 97.7347 143.731H97.8473C97.8873 143.731 97.9262 143.731 97.9652 143.725V144.604L97.4094 144.625C96.8557 144.644 96.4775 144.548 96.2747 144.336C96.1431 144.201 96.0778 143.993 96.0778 143.713V140.941L95.4536 140.939Z" fill="white"/>
<path d="M101.614 140.152C101.93 140.296 102.198 140.527 102.389 140.818C102.576 141.097 102.698 141.415 102.745 141.749C102.781 142.045 102.794 142.344 102.784 142.642H99.5212C99.5387 143.093 99.6948 143.41 99.9896 143.593C100.185 143.711 100.409 143.769 100.636 143.762C100.871 143.771 101.101 143.697 101.286 143.551C101.387 143.465 101.469 143.36 101.527 143.241H102.724C102.693 143.509 102.547 143.779 102.29 144.055C101.888 144.493 101.327 144.712 100.605 144.712C100.031 144.719 99.4716 144.523 99.0264 144.158C98.5703 143.789 98.3426 143.19 98.3433 142.361C98.3433 141.581 98.5489 140.982 98.9601 140.563C99.3713 140.145 99.9057 139.937 100.563 139.939C100.925 139.934 101.283 140.007 101.614 140.152ZM99.8612 141.168C99.6846 141.361 99.5739 141.605 99.5454 141.865H101.564C101.563 141.731 101.534 141.599 101.48 141.477C101.425 141.355 101.347 141.245 101.249 141.154C101.055 140.99 100.807 140.903 100.554 140.911C100.427 140.904 100.3 140.923 100.181 140.968C100.062 141.012 99.9529 141.08 99.8612 141.168Z" fill="white"/>
<path d="M106.965 140.319C107.259 140.562 107.406 140.966 107.405 141.53V144.561H106.21V141.823C106.219 141.637 106.187 141.451 106.117 141.279C106.002 141.047 105.784 140.931 105.463 140.932C105.069 140.932 104.798 141.101 104.651 141.439C104.568 141.658 104.529 141.891 104.537 142.125V144.557H103.36V140.068H104.495V140.725C104.607 140.536 104.749 140.367 104.916 140.226C105.182 140.036 105.503 139.94 105.829 139.953C106.239 139.934 106.642 140.064 106.965 140.319Z" fill="white"/>
<path d="M108.877 140.233H110.123V141.468H108.877V140.233ZM108.877 143.327H110.123V144.562H108.877V143.327Z" fill="white"/>
<path d="M45.323 153.527C45.337 153.766 45.3985 154.001 45.5041 154.216C45.5946 154.396 45.7241 154.553 45.883 154.677C46.0423 154.798 46.2241 154.886 46.4178 154.935C46.6295 154.99 46.8475 155.017 47.0662 155.015C47.3034 155.019 47.5395 154.983 47.7651 154.909C47.9428 154.853 48.1065 154.759 48.2451 154.634C48.3656 154.523 48.4592 154.386 48.5188 154.233C48.578 154.079 48.608 153.916 48.6072 153.751C48.6167 153.547 48.5606 153.345 48.4472 153.176C48.3357 153.025 48.1918 152.902 48.0262 152.816C47.8395 152.718 47.6416 152.642 47.4367 152.592C47.2143 152.536 46.9869 152.481 46.7546 152.427C46.5223 152.374 46.295 152.31 46.0725 152.237C45.8618 152.17 45.6629 152.07 45.483 151.941C45.3084 151.816 45.1644 151.652 45.062 151.463C44.9476 151.234 44.8925 150.979 44.902 150.723C44.9022 150.513 44.9467 150.305 45.0325 150.114C45.1219 149.912 45.254 149.731 45.4199 149.585C45.6091 149.423 45.8279 149.3 46.0641 149.222C46.3521 149.127 46.6537 149.081 46.9567 149.086C47.2618 149.081 47.5654 149.129 47.8536 149.23C48.0892 149.315 48.3043 149.449 48.4851 149.623C48.6515 149.787 48.7807 149.985 48.8641 150.203C48.949 150.427 48.9918 150.665 48.9904 150.905H48.443C48.4479 150.698 48.4061 150.493 48.3209 150.304C48.2463 150.147 48.1365 150.008 47.9999 149.9C47.8563 149.792 47.6934 149.711 47.5199 149.664C47.339 149.613 47.152 149.587 46.9641 149.588C46.7129 149.581 46.4628 149.622 46.2272 149.71C46.0474 149.78 45.885 149.888 45.7515 150.027C45.6378 150.15 45.5542 150.298 45.5072 150.459C45.4622 150.612 45.4536 150.775 45.482 150.932C45.5067 151.112 45.5896 151.278 45.7178 151.406C45.8503 151.53 46.0044 151.629 46.1725 151.698C46.3644 151.778 46.5631 151.84 46.7662 151.884C46.9767 151.932 47.203 151.983 47.4272 152.036C47.6515 152.089 47.8694 152.153 48.0799 152.226C48.2807 152.295 48.4697 152.395 48.6399 152.522C48.8052 152.649 48.9392 152.813 49.0315 153C49.1368 153.229 49.1872 153.48 49.1788 153.732C49.1788 154.295 48.9851 154.732 48.5978 155.043C48.2104 155.353 47.6658 155.508 46.9641 155.508C46.6678 155.51 46.3727 155.469 46.0883 155.385C45.8322 155.311 45.5942 155.184 45.3894 155.013C45.1914 154.845 45.0344 154.634 44.9304 154.396C44.8153 154.122 44.7593 153.826 44.7662 153.529L45.323 153.527Z" fill="white"/>
<path d="M52.161 152.791C52.2557 152.78 52.3694 152.763 52.502 152.74C52.6138 152.724 52.7229 152.692 52.8263 152.647C52.8664 152.629 52.9016 152.602 52.9288 152.567C52.956 152.532 52.9742 152.492 52.982 152.448C53.0004 152.363 53.0103 152.277 53.0115 152.19C53.0149 152.073 52.9946 151.956 52.9519 151.847C52.9092 151.738 52.845 151.639 52.7631 151.556C52.5968 151.39 52.3161 151.306 51.921 151.306C51.7598 151.305 51.599 151.321 51.441 151.353C51.3039 151.38 51.1737 151.435 51.0578 151.514C50.9455 151.592 50.8532 151.697 50.7884 151.818C50.7114 151.967 50.6642 152.129 50.6494 152.296H50.1357C50.1452 152.064 50.2056 151.837 50.3126 151.632C50.4084 151.455 50.5421 151.302 50.7042 151.184C50.8719 151.065 51.0605 150.979 51.2599 150.93C51.479 150.876 51.7038 150.849 51.9294 150.85C52.1379 150.849 52.3457 150.873 52.5484 150.922C52.7298 150.965 52.9013 151.042 53.0536 151.15C53.2001 151.26 53.3161 151.405 53.3905 151.573C53.4772 151.776 53.5188 151.995 53.5126 152.216V154.601C53.5126 154.798 53.5473 154.924 53.6178 154.977C53.6884 155.03 53.8284 155.018 54.0389 154.939V155.336L53.8663 155.387C53.794 155.409 53.7187 155.421 53.6431 155.421C53.5666 155.421 53.4903 155.413 53.4157 155.396C53.3422 155.388 53.2721 155.361 53.2136 155.315C53.1632 155.273 53.1216 155.221 53.0915 155.163C53.0599 155.102 53.0385 155.036 53.0284 154.968C53.0167 154.894 53.011 154.819 53.0115 154.744C52.8064 154.975 52.5553 155.159 52.2747 155.286C51.9939 155.411 51.6894 155.475 51.382 155.472C51.1956 155.472 51.0099 155.447 50.8305 155.396C50.6605 155.349 50.5016 155.268 50.3631 155.159C50.2304 155.052 50.1226 154.918 50.0473 154.765C49.9646 154.593 49.9241 154.403 49.9294 154.211C49.9294 153.467 50.4375 153.027 51.4536 152.892L52.161 152.791ZM53.0115 153.044C52.8046 153.133 52.5864 153.193 52.3631 153.222C52.1442 153.25 51.9252 153.273 51.7063 153.29C51.3871 153.298 51.0754 153.388 50.801 153.552C50.6938 153.625 50.6076 153.726 50.5508 153.843C50.4939 153.96 50.4684 154.09 50.4768 154.22C50.4732 154.336 50.4978 154.45 50.5484 154.554C50.5991 154.658 50.6742 154.748 50.7673 154.816C50.8582 154.883 50.9612 154.932 51.0705 154.96C51.1843 154.991 51.3019 155.007 51.4199 155.006C51.6189 155.007 51.817 154.981 52.0094 154.93C52.1915 154.884 52.364 154.805 52.5189 154.698C52.6667 154.594 52.7891 154.458 52.8768 154.3C52.97 154.125 53.0164 153.928 53.0115 153.729V153.044Z" fill="white"/>
<path d="M55.2767 155.345H54.7715V150.964H55.2767V151.623H55.2936C55.4156 151.378 55.6096 151.176 55.8494 151.044C56.0921 150.911 56.3646 150.843 56.641 150.845C56.8146 150.842 56.9878 150.865 57.1546 150.913C57.2835 150.952 57.4046 151.014 57.5125 151.095C57.6087 151.169 57.6914 151.259 57.7567 151.361C57.8223 151.465 57.8773 151.576 57.921 151.691C58.0485 151.426 58.2524 151.205 58.5062 151.057C58.7637 150.914 59.0541 150.841 59.3483 150.845C59.5941 150.834 59.8387 150.885 60.0599 150.993C60.2281 151.084 60.3691 151.218 60.4683 151.382C60.5674 151.553 60.6318 151.741 60.6578 151.936C60.6888 152.149 60.7043 152.364 60.7041 152.579V155.345H60.1989V152.317C60.2124 152.055 60.1431 151.796 60.001 151.577C59.8683 151.397 59.6231 151.306 59.2641 151.306C59.0724 151.306 58.8833 151.351 58.7121 151.437C58.5409 151.524 58.3925 151.65 58.2789 151.805C58.22 151.884 58.1732 151.971 58.1399 152.063C58.1027 152.164 58.0731 152.267 58.0515 152.372C58.0296 152.476 58.0141 152.582 58.0052 152.689C57.9967 152.795 57.9925 152.895 57.9925 152.985V155.345H57.4873V152.317C57.5008 152.055 57.4315 151.796 57.2894 151.577C57.1578 151.397 56.9115 151.306 56.5525 151.306C56.3608 151.306 56.1717 151.351 56.0005 151.437C55.8293 151.524 55.6809 151.65 55.5673 151.805C55.5084 151.884 55.4616 151.971 55.4283 152.063C55.3911 152.164 55.3615 152.267 55.3399 152.372C55.318 152.476 55.3026 152.582 55.2936 152.689C55.2852 152.795 55.281 152.895 55.281 152.985L55.2767 155.345Z" fill="white"/>
<path d="M62.2917 155.345H61.7896V150.964H62.2948V151.623H62.3117C62.4337 151.378 62.6276 151.176 62.8674 151.044C63.1102 150.911 63.3826 150.843 63.659 150.845C63.8327 150.842 64.0058 150.865 64.1727 150.913C64.3016 150.952 64.4227 151.014 64.5306 151.095C64.6265 151.169 64.7091 151.259 64.7748 151.361C64.8404 151.465 64.8954 151.576 64.939 151.691C65.0666 151.426 65.2704 151.205 65.5243 151.057C65.7818 150.914 66.0721 150.841 66.3664 150.845C66.6122 150.834 66.8568 150.885 67.078 150.993C67.2461 151.084 67.3871 151.218 67.4864 151.382C67.585 151.553 67.6493 151.741 67.6759 151.936C67.7068 152.149 67.7223 152.364 67.7222 152.579V155.345H67.2169V152.317C67.2305 152.055 67.1612 151.796 67.019 151.577C66.8864 151.397 66.6411 151.306 66.2822 151.306C66.0905 151.306 65.9013 151.351 65.7302 151.437C65.559 151.524 65.4106 151.65 65.2969 151.805C65.2376 151.883 65.1907 151.97 65.158 152.063C65.1207 152.164 65.0912 152.267 65.0695 152.372C65.0472 152.476 65.0317 152.582 65.0232 152.689C65.0148 152.795 65.0106 152.895 65.0106 152.985V155.345H64.5053V152.317C64.5189 152.055 64.4496 151.796 64.3074 151.577C64.1748 151.397 63.9295 151.306 63.5706 151.306C63.3789 151.306 63.1898 151.351 63.0186 151.437C62.8474 151.524 62.699 151.65 62.5853 151.805C62.5265 151.884 62.4796 151.971 62.4464 152.063C62.4092 152.164 62.3796 152.267 62.358 152.372C62.3361 152.476 62.3206 152.582 62.3117 152.689C62.3032 152.795 62.299 152.895 62.299 152.985L62.2917 155.345Z" fill="white"/>
<path d="M69.1799 153.272C69.1784 153.5 69.2096 153.726 69.2726 153.945C69.3275 154.144 69.4205 154.331 69.5462 154.494C69.6692 154.652 69.8261 154.779 70.0052 154.867C70.2047 154.963 70.4239 155.011 70.6452 155.006C70.9496 155.015 71.2485 154.923 71.4957 154.744C71.7357 154.562 71.9029 154.299 71.9673 154.004H72.5315C72.4726 154.206 72.3906 154.4 72.2873 154.583C72.1881 154.759 72.06 154.916 71.9083 155.048C71.7501 155.185 71.5671 155.29 71.3694 155.357C71.1357 155.433 70.8908 155.469 70.6452 155.463C70.3355 155.471 70.0279 155.41 69.7441 155.285C69.5011 155.175 69.2876 155.008 69.121 154.799C68.9526 154.583 68.8295 154.336 68.7589 154.072C68.6782 153.778 68.6385 153.475 68.641 153.171C68.6388 152.864 68.6857 152.558 68.7799 152.266C68.8656 151.997 68.9998 151.746 69.1757 151.526C69.3469 151.315 69.5626 151.144 69.8073 151.027C70.0704 150.902 70.3585 150.84 70.6494 150.845C71.2494 150.845 71.721 151.052 72.0641 151.467C72.4073 151.881 72.5757 152.483 72.5694 153.272H69.1799ZM72.022 152.849C72.0233 152.645 71.9935 152.441 71.9336 152.245C71.8794 152.066 71.7907 151.899 71.6726 151.754C71.5534 151.614 71.4055 151.502 71.2389 151.424C71.0509 151.34 70.8468 151.298 70.641 151.302C70.436 151.297 70.2327 151.341 70.0473 151.429C69.8798 151.51 69.7308 151.625 69.6094 151.767C69.4856 151.913 69.3873 152.079 69.3189 152.257C69.2445 152.447 69.1963 152.646 69.1757 152.849H72.022Z" fill="white"/>
<path d="M73.6262 155.344V149.255H74.1315V155.344H73.6262Z" fill="white"/>
<path d="M75.9252 155.345H75.4199V150.964H75.9252V151.573C76.1123 151.37 76.3246 151.193 76.5568 151.044C76.792 150.904 77.0621 150.833 77.3357 150.841C77.5922 150.839 77.8466 150.886 78.0852 150.981C78.3229 151.081 78.5253 151.251 78.6662 151.467C78.7672 151.612 78.8322 151.779 78.8557 151.954C78.8753 152.126 78.8852 152.3 78.8852 152.474V155.341H78.3799V152.486C78.3799 152.092 78.2929 151.796 78.1189 151.598C77.9441 151.402 77.6557 151.302 77.2515 151.302C77.1052 151.301 76.9598 151.325 76.822 151.374C76.697 151.42 76.5793 151.484 76.4726 151.565C76.3711 151.641 76.2817 151.732 76.2073 151.835C76.136 151.932 76.0793 152.039 76.0389 152.152C75.9905 152.283 75.9593 152.419 75.9462 152.558C75.9347 152.688 75.9294 152.829 75.9294 152.981L75.9252 155.345Z" fill="white"/>
<path d="M43.9126 165.811V159.722H46.1052C46.4118 159.714 46.7179 159.75 47.0147 159.827C47.2408 159.888 47.4517 159.996 47.6336 160.144C47.7895 160.274 47.9097 160.441 47.9831 160.631C48.0562 160.83 48.0919 161.04 48.0884 161.252C48.0924 161.441 48.0639 161.628 48.0042 161.806C47.9557 161.948 47.8815 162.08 47.7852 162.195C47.6997 162.296 47.5953 162.38 47.4779 162.441C47.3653 162.499 47.2447 162.541 47.12 162.563V162.58C47.541 162.642 47.854 162.809 48.0589 163.079C48.2715 163.373 48.3797 163.731 48.3663 164.094C48.3739 164.369 48.3237 164.643 48.2189 164.898C48.1285 165.105 47.9881 165.287 47.8105 165.426C47.6232 165.568 47.4078 165.667 47.1789 165.718C46.9181 165.779 46.651 165.809 46.3831 165.807L43.9126 165.811ZM44.4852 162.411H45.9336C46.1856 162.416 46.4372 162.39 46.6831 162.335C46.86 162.296 47.0266 162.22 47.1715 162.111C47.2917 162.017 47.3835 161.891 47.4368 161.747C47.4928 161.588 47.5199 161.421 47.5168 161.252C47.5218 161.085 47.4901 160.919 47.4242 160.766C47.3597 160.633 47.257 160.523 47.1294 160.449C46.9664 160.358 46.7879 160.298 46.6031 160.271C46.3398 160.232 46.0736 160.213 45.8073 160.216H44.4852V162.411ZM44.4852 165.32H45.9421C46.2164 165.323 46.4905 165.309 46.7631 165.278C46.9651 165.26 47.1613 165.201 47.34 165.105C47.4897 165.02 47.609 164.89 47.681 164.733C47.7641 164.532 47.8029 164.316 47.7947 164.098C47.8038 163.887 47.7604 163.676 47.6684 163.485C47.5856 163.332 47.4596 163.207 47.3063 163.126C47.1297 163.035 46.9388 162.977 46.7421 162.952C46.4978 162.92 46.2516 162.904 46.0052 162.906H44.4852V165.32Z" fill="white"/>
<path d="M49.7651 163.738C49.7637 163.966 49.7949 164.192 49.8578 164.41C49.9132 164.61 50.0061 164.796 50.1314 164.96C50.2546 165.117 50.4115 165.245 50.5904 165.332C50.7899 165.429 51.0091 165.476 51.2304 165.472C51.5349 165.48 51.8337 165.388 52.0809 165.21C52.3209 165.027 52.4881 164.765 52.5525 164.47H53.1167C53.0578 164.672 52.9758 164.866 52.8725 165.049C52.7733 165.225 52.6452 165.382 52.4936 165.514C52.3353 165.651 52.1523 165.756 51.9546 165.823C51.7209 165.899 51.476 165.935 51.2304 165.929C50.9207 165.936 50.6131 165.876 50.3293 165.751C50.0863 165.641 49.8728 165.474 49.7062 165.265C49.5378 165.049 49.4147 164.802 49.3441 164.537C49.2634 164.244 49.2237 163.941 49.2262 163.637C49.224 163.329 49.2709 163.024 49.3651 162.732C49.4508 162.463 49.585 162.212 49.7609 161.992C49.9323 161.781 50.148 161.61 50.3925 161.493C50.6557 161.368 50.9438 161.306 51.2346 161.311C51.8353 161.311 52.3069 161.518 52.6493 161.932C52.9918 162.347 53.1602 162.949 53.1546 163.738H49.7651ZM52.6072 163.315C52.6085 163.11 52.5787 162.906 52.5188 162.711C52.4646 162.531 52.3759 162.365 52.2578 162.22C52.1388 162.08 51.9908 161.967 51.8241 161.89C51.6361 161.806 51.432 161.764 51.2262 161.768C51.0212 161.763 50.818 161.807 50.6325 161.894C50.4652 161.976 50.3161 162.091 50.1946 162.233C50.0708 162.378 49.9726 162.544 49.9041 162.723C49.8302 162.913 49.782 163.112 49.7609 163.315H52.6072Z" fill="white"/>
<path d="M53.698 161.852V161.429H54.3464V160.736C54.3311 160.444 54.4045 160.155 54.5569 159.907C54.6973 159.704 54.9359 159.603 55.2727 159.603C55.3517 159.603 55.4243 159.603 55.4917 159.611C55.5591 159.619 55.6264 159.626 55.6938 159.636V160.102C55.5947 160.076 55.493 160.061 55.3906 160.059C55.2848 160.053 55.1795 160.078 55.0875 160.131C55.0167 160.177 54.961 160.244 54.9275 160.321C54.8924 160.406 54.8711 160.496 54.8643 160.588C54.8559 160.687 54.8517 160.787 54.8517 160.888V161.429H55.6938V161.852H54.8517V165.81H54.3464V161.852H53.698Z" fill="white"/>
<path d="M58.2106 165.929C57.9412 165.926 57.6745 165.874 57.4233 165.777C57.1806 165.683 56.9619 165.535 56.7833 165.345C56.5909 165.138 56.4432 164.894 56.3496 164.627C56.2367 164.303 56.1825 163.963 56.1896 163.62C56.1872 163.315 56.2298 163.012 56.3159 162.719C56.3936 162.453 56.5224 162.205 56.6948 161.988C56.8659 161.778 57.0817 161.608 57.3264 161.493C57.6039 161.367 57.9061 161.305 58.2106 161.311C58.518 161.304 58.8229 161.366 59.1033 161.493C59.3471 161.608 59.5628 161.775 59.7348 161.984C59.9078 162.199 60.0353 162.448 60.1096 162.715C60.1925 163.01 60.2336 163.314 60.2317 163.62C60.2362 163.943 60.1879 164.264 60.0885 164.572C60.0014 164.839 59.8626 165.086 59.6801 165.299C59.5041 165.501 59.2855 165.662 59.0401 165.768C58.7777 165.879 58.4952 165.934 58.2106 165.929ZM59.6927 163.62C59.6942 163.375 59.6659 163.131 59.6085 162.893C59.5585 162.682 59.47 162.483 59.3475 162.305C59.2296 162.139 59.0736 162.004 58.8927 161.912C58.6799 161.81 58.4461 161.761 58.2106 161.768C57.9751 161.761 57.7418 161.815 57.5327 161.924C57.3496 162.025 57.1924 162.167 57.0738 162.339C56.9523 162.519 56.8639 162.719 56.8127 162.931C56.756 163.156 56.7277 163.388 56.7285 163.62C56.7258 163.873 56.7584 164.125 56.8254 164.369C56.8814 164.581 56.9771 164.78 57.1075 164.956C57.2291 165.119 57.388 165.249 57.5706 165.337C57.7708 165.431 57.9898 165.477 58.2106 165.472C58.4462 165.479 58.6795 165.425 58.8885 165.316C59.0733 165.214 59.2307 165.069 59.3475 164.893C59.4678 164.712 59.5561 164.512 59.6085 164.301C59.665 164.078 59.6936 163.85 59.6938 163.62H59.6927ZM57.318 160.009H57.8654V160.871H57.318V160.009ZM58.657 160.009H59.2043V160.871H58.657V160.009Z" fill="white"/>
<path d="M61.6893 165.811H61.1841V161.43H61.6893V162.25H61.7062C61.8465 161.898 62.0276 161.654 62.2493 161.519C62.5175 161.368 62.8222 161.294 63.1293 161.307V161.857C62.8861 161.843 62.6432 161.89 62.422 161.992C62.2441 162.082 62.092 162.216 61.9799 162.381C61.8658 162.557 61.7884 162.754 61.7525 162.961C61.7098 163.191 61.6886 163.424 61.6893 163.658V165.811Z" fill="white"/>
<path d="M67.3317 159.722H67.8369V165.811H67.3317V165.041H67.3148C67.2436 165.185 67.1482 165.315 67.0327 165.426C66.9193 165.535 66.7919 165.627 66.6538 165.701C66.5203 165.773 66.379 165.83 66.2327 165.87C66.0929 165.909 65.9484 165.929 65.8033 165.929C65.4935 165.938 65.1856 165.878 64.9022 165.752C64.6634 165.64 64.4542 165.474 64.2917 165.266C64.1259 165.049 64.0069 164.8 63.9422 164.534C63.8686 164.238 63.8332 163.934 63.8369 163.629C63.8358 163.332 63.8755 163.036 63.9548 162.749C64.0266 162.482 64.148 162.231 64.3127 162.009C64.4743 161.797 64.6815 161.623 64.919 161.502C65.1873 161.37 65.4834 161.304 65.7822 161.312C66.0905 161.313 66.3944 161.386 66.6706 161.523C66.9489 161.657 67.1818 161.87 67.3401 162.136L67.3317 159.722ZM67.3317 163.604C67.3315 163.364 67.2961 163.126 67.2264 162.897C67.1649 162.687 67.0665 162.49 66.9359 162.314C66.8114 162.15 66.6535 162.014 66.4727 161.916C66.2819 161.816 66.0692 161.765 65.8538 161.768C65.6169 161.762 65.3824 161.816 65.1717 161.925C64.9833 162.026 64.8216 162.171 64.7001 162.348C64.5712 162.54 64.4797 162.755 64.4306 162.982C64.3727 163.236 64.3501 163.496 64.3633 163.756C64.3588 164.005 64.3973 164.252 64.4769 164.487C64.5449 164.686 64.6524 164.869 64.7927 165.025C64.9239 165.169 65.0849 165.283 65.2643 165.359C65.4511 165.436 65.6516 165.475 65.8538 165.473C66.0728 165.477 66.2895 165.427 66.4854 165.329C66.668 165.236 66.8266 165.101 66.9485 164.936C67.0779 164.757 67.1736 164.557 67.2306 164.344C67.2981 164.103 67.3321 163.854 67.3317 163.604Z" fill="white"/>
<path d="M69.4199 163.738C69.4184 163.966 69.4496 164.192 69.5125 164.41C69.5675 164.61 69.6604 164.796 69.7862 164.96C69.9092 165.118 70.0661 165.245 70.2452 165.332C70.4447 165.429 70.6639 165.476 70.8852 165.472C71.1896 165.48 71.4885 165.388 71.7357 165.21C71.9756 165.027 72.1429 164.765 72.2073 164.47H72.7715C72.7126 164.672 72.6306 164.866 72.5273 165.049C72.4281 165.225 72.3 165.382 72.1483 165.514C71.9901 165.651 71.8071 165.756 71.6094 165.823C71.3757 165.899 71.1308 165.935 70.8852 165.929C70.5755 165.936 70.2679 165.876 69.9841 165.751C69.7411 165.641 69.5275 165.474 69.361 165.265C69.1926 165.049 69.0694 164.802 68.9989 164.537C68.9182 164.244 68.8785 163.941 68.881 163.637C68.8788 163.329 68.9257 163.024 69.0199 162.732C69.1056 162.463 69.2397 162.212 69.4157 161.992C69.5869 161.78 69.8026 161.61 70.0473 161.493C70.3104 161.368 70.5985 161.306 70.8894 161.311C71.4894 161.311 71.961 161.518 72.3041 161.932C72.6473 162.347 72.8157 162.949 72.8094 163.738H69.4199ZM72.262 163.315C72.2633 163.11 72.2335 162.906 72.1736 162.711C72.1194 162.531 72.0307 162.365 71.9125 162.22C71.7934 162.08 71.6455 161.967 71.4789 161.89C71.2909 161.806 71.0868 161.764 70.881 161.768C70.676 161.763 70.4727 161.807 70.2873 161.894C70.1198 161.976 69.9707 162.091 69.8494 162.233C69.7256 162.378 69.6273 162.544 69.5589 162.723C69.4845 162.913 69.4363 163.112 69.4157 163.315H72.262Z" fill="white"/>
<path d="M74.3212 165.811H73.8159V161.43H74.3212V162.25H74.338C74.4784 161.898 74.6594 161.654 74.8812 161.519C75.1493 161.367 75.454 161.294 75.7612 161.307V161.857C75.5179 161.843 75.275 161.89 75.0538 161.992C74.8759 162.082 74.7238 162.216 74.6117 162.381C74.4976 162.557 74.4203 162.754 74.3843 162.961C74.3416 163.191 74.3204 163.424 74.3212 163.658V165.811Z" fill="white"/>
<path d="M77.1 165.811H76.5947V161.43H77.1V162.039C77.2871 161.836 77.4994 161.659 77.7316 161.51C77.9668 161.37 78.2369 161.299 78.5105 161.307C78.767 161.305 79.0214 161.352 79.26 161.447C79.4977 161.547 79.7001 161.716 79.841 161.933C79.942 162.078 80.007 162.244 80.0305 162.419C80.0501 162.592 80.06 162.766 80.06 162.94V165.807H79.5547V162.952C79.5547 162.558 79.4677 162.262 79.2937 162.064C79.1189 161.868 78.8305 161.768 78.4263 161.768C78.28 161.766 78.1346 161.791 77.9968 161.84C77.8718 161.886 77.7541 161.95 77.6474 162.03C77.5459 162.107 77.4565 162.198 77.3821 162.301C77.3109 162.398 77.2541 162.505 77.2137 162.618C77.1653 162.749 77.1341 162.885 77.121 163.024C77.1095 163.154 77.1042 163.295 77.1042 163.447L77.1 165.811Z" fill="white"/>
<path d="M44.8568 71.5491V74.4542C44.8463 74.7501 44.9123 75.0437 45.0483 75.3063C45.2371 75.6481 45.5557 75.8187 46.0041 75.818C46.541 75.818 46.9073 75.634 47.0999 75.264C47.2154 75.0104 47.2692 74.7328 47.2568 74.4542V71.5491H47.8999V74.192C47.8999 74.77 47.8224 75.215 47.6673 75.5273C47.3831 76.0911 46.8455 76.373 46.0547 76.373C45.2638 76.373 44.7276 76.0911 44.4462 75.5273C44.289 75.2101 44.2104 74.764 44.2104 74.1889V71.5459L44.8568 71.5491Z" fill="white"/>
<path d="M48.842 72.8226H49.4094V73.3089C49.5148 73.1695 49.6392 73.0457 49.7789 72.941C49.9678 72.8103 50.1926 72.742 50.422 72.7455C50.6578 72.7334 50.8903 72.8049 51.0789 72.9474C51.1862 73.0412 51.273 73.1564 51.3336 73.2857C51.4479 73.1147 51.6023 72.9746 51.7831 72.8776C51.9632 72.7878 52.162 72.7425 52.3631 72.7455C52.822 72.7455 53.1343 72.9118 53.2999 73.2444C53.3987 73.4721 53.4444 73.7194 53.4336 73.9676V76.25H52.8378V73.8682C52.8378 73.6409 52.781 73.4834 52.6673 73.3977C52.5465 73.3104 52.4003 73.2654 52.2515 73.2698C52.0357 73.2663 51.8271 73.3479 51.6705 73.4971C51.5077 73.6493 51.4263 73.9024 51.4263 74.2562V76.25H50.842V74.013C50.8527 73.839 50.8243 73.6649 50.7589 73.5035C50.6726 73.3438 50.5094 73.2635 50.2715 73.2635C50.0492 73.2661 49.8369 73.3569 49.681 73.5161C49.5031 73.6853 49.4147 73.9898 49.4147 74.4317V76.25H48.842V72.8226Z" fill="white"/>
<path d="M54.5717 72.8232L55.2285 75.5243L55.8949 72.8232H56.5391L57.2075 75.5074L57.9064 72.8232H58.4791L57.4885 76.2506H56.8928L56.198 73.5971L55.5254 76.2506H54.9296L53.9443 72.8232H54.5717Z" fill="white"/>
<path d="M61.1779 72.9169C61.3873 73.0157 61.5668 73.1685 61.6979 73.3599C61.8161 73.5429 61.8943 73.749 61.9274 73.9646C61.968 74.2144 61.9849 74.4675 61.9779 74.7205H59.4737C59.4685 75.0179 59.5541 75.3097 59.719 75.5567C59.8712 75.7682 60.1081 75.8739 60.4295 75.8739C60.5634 75.8798 60.697 75.8561 60.8208 75.8046C60.9447 75.7531 61.0558 75.675 61.1463 75.5758C61.2479 75.4608 61.3221 75.3242 61.3632 75.1761H61.9274C61.905 75.3253 61.8547 75.4688 61.779 75.599C61.7056 75.7395 61.6104 75.8673 61.4969 75.9775C61.3181 76.1514 61.0941 76.2713 60.8505 76.3232C60.6967 76.3596 60.5391 76.377 60.3811 76.375C60.1785 76.3781 59.9776 76.3381 59.7915 76.2578C59.6053 76.1774 59.4382 76.0585 59.3011 75.9088C59.0063 75.5987 58.8586 75.1642 58.8579 74.6053C58.8572 74.0464 59.006 73.5992 59.3042 73.2637C59.4479 73.0957 59.6273 72.9623 59.8291 72.8732C60.031 72.7841 60.2502 72.7416 60.4705 72.7488C60.7162 72.748 60.9586 72.8056 61.1779 72.9169ZM61.3884 74.2627C61.3765 74.0541 61.3213 73.8503 61.2263 73.6644C61.0684 73.386 60.806 73.2471 60.439 73.2478C60.3145 73.2453 60.1909 73.2696 60.0765 73.319C59.9621 73.3684 59.8596 73.4418 59.7758 73.5343C59.5945 73.7333 59.4936 73.993 59.4926 74.2627H61.3884Z" fill="white"/>
<path d="M62.7305 71.5488H63.3042V76.2501H62.7305V71.5488Z" fill="white"/>
<path d="M64.3159 71.8652H64.8959V72.823H65.4401V73.2935H64.8959V75.5305C64.8902 75.578 64.8986 75.6262 64.9201 75.6689C64.9417 75.7116 64.9754 75.747 65.0169 75.7705C65.0878 75.7984 65.164 75.8104 65.2401 75.8054H65.3285C65.3611 75.8054 65.398 75.8054 65.4401 75.798V76.2525C65.3729 76.272 65.3043 76.2858 65.2348 76.2938C65.1583 76.3025 65.0813 76.3068 65.0043 76.3065C64.7359 76.3065 64.5548 76.2377 64.459 76.095C64.3572 75.9356 64.3072 75.7483 64.3159 75.559V73.2935H63.8538V72.823H64.3159V71.8652Z" fill="white"/>
<path d="M66.3842 75.1755C66.3897 75.333 66.4393 75.4858 66.5274 75.6163C66.6726 75.8024 66.9235 75.8954 67.28 75.8954C67.476 75.8995 67.6696 75.8514 67.8411 75.7559C67.9178 75.7145 67.9812 75.6521 68.0241 75.5759C68.0669 75.4998 68.0874 75.413 68.0832 75.3256C68.085 75.2569 68.0677 75.1891 68.0333 75.1297C67.9989 75.0704 67.9488 75.0218 67.8884 74.9894C67.7315 74.917 67.567 74.8623 67.3979 74.8266L66.9474 74.7114C66.7216 74.6637 66.5043 74.5817 66.3032 74.4682C66.1893 74.4038 66.0949 74.3096 66.0299 74.1958C65.9648 74.0819 65.9316 73.9525 65.9337 73.8212C65.9289 73.672 65.9579 73.5236 66.0184 73.3872C66.0789 73.2507 66.1695 73.1299 66.2832 73.0336C66.5162 72.8342 66.8288 72.7341 67.2211 72.7334C67.7362 72.7334 68.107 72.8849 68.3337 73.188C68.4723 73.3646 68.5466 73.5836 68.5442 73.8086H68.0021C67.9915 73.6794 67.944 73.556 67.8653 73.4533C67.734 73.3025 67.5056 73.2267 67.18 73.226C67.0068 73.2141 66.8342 73.2577 66.6874 73.3508C66.6346 73.3877 66.5917 73.4371 66.5625 73.4946C66.5333 73.5522 66.5187 73.6161 66.52 73.6806C66.5207 73.7548 66.5415 73.8274 66.5803 73.8906C66.6191 73.9538 66.6743 74.0051 66.74 74.039C66.8575 74.1047 66.9842 74.1521 67.1158 74.1796L67.4958 74.2727C67.9074 74.3784 68.1842 74.4704 68.3242 74.5634C68.5474 74.7114 68.659 74.9429 68.659 75.258C68.6599 75.4068 68.6296 75.5542 68.5699 75.6905C68.5102 75.8268 68.4226 75.9488 68.3126 76.0487C68.0825 76.2707 67.7316 76.3817 67.26 76.3817C66.7512 76.3817 66.3916 76.2658 66.1811 76.0339C65.9677 75.7987 65.8468 75.4936 65.8411 75.1755H66.3842Z" fill="white"/>
<path d="M71.5936 73.0045C71.8343 73.1926 71.9792 73.5158 72.0283 73.9739H71.4736C71.4478 73.7792 71.3675 73.5959 71.242 73.4453C71.1213 73.3043 70.9266 73.2339 70.6578 73.2339C70.2922 73.2339 70.0311 73.4132 69.8747 73.772C69.7648 74.0451 69.7124 74.3381 69.721 74.6325C69.7109 74.9362 69.786 75.2366 69.9378 75.4994C70.007 75.596 70.0958 75.6768 70.1982 75.7366C70.3007 75.7964 70.4145 75.8338 70.5324 75.8464C70.6502 75.859 70.7693 75.8464 70.882 75.8096C70.9947 75.7728 71.0984 75.7125 71.1862 75.6326C71.3366 75.4637 71.4362 75.2555 71.4736 75.0321H72.0315C71.9683 75.4867 71.809 75.819 71.5536 76.0291C71.2754 76.2479 70.9288 76.3604 70.5757 76.3462C70.3719 76.3538 70.1692 76.3133 69.9838 76.2279C69.7984 76.1425 69.6356 76.0147 69.5083 75.8546C69.2342 75.5064 69.0917 75.072 69.1062 74.6283C69.1062 74.0271 69.2518 73.5588 69.5431 73.2233C69.6795 73.0622 69.8502 72.9338 70.0426 72.8476C70.235 72.7614 70.4441 72.7197 70.6547 72.7254C70.99 72.7091 71.321 72.8075 71.5936 73.0045Z" fill="white"/>
<path d="M72.6316 71.5322H73.2053V73.2861C73.3078 73.1462 73.4314 73.0232 73.5716 72.9214C73.7793 72.7938 74.0199 72.7306 74.2632 72.7395C74.7579 72.7395 75.0937 72.9133 75.2705 73.2607C75.3777 73.5099 75.4267 73.7804 75.4137 74.0515V76.2504H74.8242V74.0896C74.8363 73.9002 74.8035 73.7107 74.7284 73.5366C74.6232 73.3485 74.4295 73.2544 74.1421 73.2544C73.904 73.2545 73.6741 73.3421 73.4958 73.5007C73.3021 73.6656 73.2053 73.9754 73.2053 74.4321V76.2504H72.6316V71.5322Z" fill="white"/>
<path d="M76.8705 72.8232V75.0983C76.8653 75.2459 76.8937 75.3927 76.9536 75.5275C77.0589 75.7316 77.2452 75.8341 77.5242 75.8341C77.9228 75.8341 78.1947 75.6551 78.34 75.2971C78.4281 75.0432 78.4681 74.775 78.4579 74.5063V72.8232H79.0315V76.2506H78.4894L78.4958 75.7442C78.4255 75.8711 78.3315 75.9831 78.2189 76.0741C77.9936 76.2561 77.7111 76.3517 77.4221 76.3437C76.9358 76.3437 76.6042 76.1802 76.4273 75.8531C76.3236 75.6365 76.2744 75.3977 76.2842 75.1575V72.8317L76.8705 72.8232Z" fill="white"/>
<path d="M80.0747 71.8652H80.6537V72.823H81.1989V73.2935H80.6537V75.5305C80.6482 75.5781 80.6569 75.6263 80.6786 75.669C80.7003 75.7117 80.7341 75.747 80.7758 75.7705C80.8463 75.7985 80.9222 75.8104 80.9979 75.8054H81.0874C81.1189 75.8054 81.1568 75.8054 81.1989 75.798V76.2525C81.1318 76.272 81.0631 76.2858 80.9937 76.2938C80.9168 76.3025 80.8395 76.3068 80.7621 76.3065C80.4947 76.3065 80.3126 76.2377 80.2179 76.095C80.116 75.9356 80.066 75.7483 80.0747 75.559V73.2935H79.6116V72.823H80.0747V71.8652Z" fill="white"/>
<path d="M81.5505 75.7918L83.579 73.3381H81.7053V72.8232H84.3505V73.2937L82.34 75.7347H84.4105V76.2506H81.5505V75.7918Z" fill="white"/>
<path d="M52.5916 64.2686V64.8289H51.0126V68.9709H50.3695V64.8268H48.7905V64.2686H52.5916Z" fill="white"/>
<path d="M53.4622 64.2685V67.1747C53.4521 67.4684 53.5177 67.7597 53.6527 68.0204C53.8422 68.3623 54.1611 68.5332 54.6095 68.5332C55.1464 68.5332 55.5116 68.3485 55.7053 67.9792C55.8203 67.7254 55.8737 67.4479 55.8611 67.1694V64.2685H56.5053V66.9115C56.5053 67.4894 56.4278 67.9341 56.2727 68.2456C55.9871 68.813 55.4495 69.097 54.6601 69.0977C53.8706 69.0984 53.3348 68.813 53.0527 68.2414C52.8976 67.9306 52.8201 67.4859 52.8201 66.9072V64.2685H53.4622ZM53.9116 63.1553H54.5074V63.8213H53.9116V63.1553ZM54.9643 63.1553H55.5601V63.8213H54.9643V63.1553Z" fill="white"/>
<path d="M57.4579 64.2686L58.8032 68.2732L60.1316 64.2686H60.8421L59.1347 68.9709H58.4621L56.7568 64.2686H57.4579Z" fill="white"/>
<path d="M62.459 64.2686H63.2074L65.5716 68.0744V64.2686H66.1737V68.9709H65.4632L63.0642 65.165V68.9709H62.459V64.2686Z" fill="white"/>
<path d="M70.6316 64.9381C70.9411 65.3546 71.0962 65.8871 71.0969 66.5355C71.0969 67.2403 70.9193 67.8238 70.5643 68.2862C70.1481 68.8317 69.5544 69.1048 68.7832 69.1055C68.0632 69.1055 67.4969 68.8666 67.0843 68.3887C66.7165 67.9278 66.533 67.3453 66.5337 66.6412C66.5163 66.0608 66.6805 65.4896 67.0032 65.0078C67.4067 64.4271 68.0032 64.1367 68.7927 64.1367C69.62 64.1374 70.233 64.4045 70.6316 64.9381ZM70.0727 67.932C70.3261 67.5148 70.4558 67.0336 70.4464 66.545C70.4464 65.9917 70.3025 65.5466 70.0148 65.2098C69.7271 64.8729 69.3334 64.7044 68.8337 64.7044C68.6119 64.6971 68.391 64.7381 68.1864 64.8246C67.9818 64.9111 67.7983 65.041 67.6485 65.2055C67.3432 65.5396 67.1902 66.033 67.1895 66.6856C67.1737 67.1545 67.3104 67.6158 67.579 67.9997C67.8414 68.357 68.2671 68.5357 68.8558 68.5357C69.4151 68.5357 69.82 68.3344 70.0706 67.932H70.0727Z" fill="white"/>
<path d="M71.5283 64.2678H73.6946C73.9967 64.2577 74.2976 64.3114 74.5778 64.4253C75.0178 64.6251 75.2378 64.9962 75.2378 65.5354C75.2532 65.7676 75.1984 65.9992 75.0806 66.1997C74.9629 66.4002 74.7876 66.5603 74.5778 66.6592C74.7391 66.7182 74.8816 66.8197 74.9904 66.9531C75.0831 67.075 75.1346 67.2723 75.1452 67.5451L75.1673 68.1794C75.1683 68.3138 75.1831 68.4477 75.2115 68.579C75.2208 68.6397 75.2442 68.6974 75.2796 68.7475C75.3151 68.7976 75.3617 68.8388 75.4157 68.8676V68.9733H74.6378C74.6138 68.9234 74.5968 68.8704 74.5873 68.8158C74.5691 68.6929 74.5586 68.569 74.5557 68.4447L74.5167 67.6603C74.502 67.3537 74.3883 67.1479 74.1757 67.0429C73.9938 66.9751 73.8 66.9456 73.6062 66.9562H72.162V68.9733H71.5304L71.5283 64.2678ZM73.6336 66.4223C73.8814 66.4354 74.1272 66.3727 74.3388 66.2426C74.5129 66.1228 74.5995 65.9075 74.5988 65.5967C74.5988 65.2619 74.4778 65.0336 74.2357 64.9116C74.0718 64.8405 73.894 64.8076 73.7157 64.8154H72.162V66.4223H73.6336Z" fill="white"/>
<path d="M75.7959 64.2686H77.6906C78.3334 64.2686 78.8327 64.498 79.1885 64.9568C79.5043 65.3712 79.6625 65.8998 79.6632 66.5426C79.6701 67.0089 79.5742 67.471 79.3822 67.8958C79.0538 68.6097 78.4878 68.9663 77.6843 68.9656H75.7896L75.7959 64.2686ZM77.5643 68.4265C77.7421 68.4313 77.9197 68.4085 78.0906 68.3588C78.3412 68.2727 78.5551 68.1034 78.6969 67.8788C78.8345 67.6562 78.9265 67.4082 78.9674 67.1494C78.9977 66.9869 79.0135 66.822 79.0148 66.6567C79.0148 66.0739 78.8997 65.6214 78.6695 65.2993C78.4394 64.9772 78.0682 64.8162 77.5559 64.8162H76.4327V68.4265H77.5643Z" fill="white"/>
<path d="M44.6515 78.9313C45.102 79.1681 45.3774 79.5839 45.4778 80.1788H44.8704C44.8458 80.0331 44.7926 79.8939 44.7138 79.7692C44.635 79.6445 44.5322 79.5368 44.4115 79.4525C44.1468 79.2924 43.8413 79.2134 43.5325 79.2252C43.3318 79.2225 43.133 79.2639 42.9499 79.3464C42.7668 79.429 42.6039 79.5507 42.4725 79.703C42.1862 80.0195 42.043 80.4903 42.043 81.1154C42.043 81.6567 42.1609 82.0972 42.3967 82.4369C42.6325 82.7766 43.0185 82.9465 43.5546 82.9465C43.9261 82.96 44.2889 82.8319 44.5704 82.5881C44.8385 82.3506 44.976 81.9651 44.983 81.4315H43.563V80.9209H45.5525V83.3524H45.1578L45.0094 82.7689C44.8512 82.9559 44.6647 83.1169 44.4567 83.2457C44.14 83.4095 43.7865 83.4885 43.4304 83.4751C42.9183 83.4835 42.4225 83.2943 42.0452 82.9465C41.6241 82.5088 41.4136 81.908 41.4136 81.144C41.4136 80.38 41.6192 79.7742 42.0304 79.3267C42.2214 79.1149 42.456 78.9475 42.718 78.8361C42.98 78.7248 43.263 78.6721 43.5473 78.6818C43.9302 78.672 44.3096 78.7577 44.6515 78.9313Z" fill="white"/>
<path d="M46.5264 80.0341H47.0748V80.5045C47.1772 80.3698 47.2976 80.2499 47.4327 80.1483C47.616 80.0222 47.8337 79.9561 48.0558 79.959C48.2826 79.9487 48.5058 80.0178 48.6874 80.1546C48.7909 80.2461 48.8751 80.3575 48.9348 80.4823C49.0447 80.3165 49.1941 80.1809 49.3695 80.088C49.5435 80.0004 49.736 79.9562 49.9306 79.959C50.3748 79.959 50.6769 80.1201 50.8369 80.4421C50.9323 80.6626 50.9766 80.9019 50.9664 81.142V83.3505H50.3895V81.0469C50.3895 80.8259 50.3348 80.6737 50.2253 80.5912C50.1081 80.5065 49.9664 80.4631 49.8222 80.4675C49.6133 80.4638 49.4114 80.5428 49.2601 80.6874C49.1022 80.8333 49.0243 81.0786 49.0243 81.4211V83.3505H48.459V81.1832C48.4695 81.0154 48.4421 80.8474 48.379 80.6916C48.2948 80.5359 48.1376 80.4584 47.9074 80.4591C47.6922 80.4614 47.4867 80.5492 47.3358 80.7033C47.1632 80.8671 47.0779 81.1621 47.0779 81.5892V83.3505H46.5264V80.0341Z" fill="white"/>
<path d="M51.8484 78.7852H52.3873V80.4354C52.5012 80.2816 52.6498 80.1572 52.8209 80.0723C52.992 79.9873 53.1807 79.9444 53.3715 79.947C53.559 79.9402 53.7456 79.9745 53.9185 80.0475C54.0914 80.1206 54.2464 80.2306 54.3726 80.3699C54.6287 80.6518 54.7565 81.0704 54.7558 81.6258C54.7733 82.0914 54.6404 82.5502 54.3768 82.9335C54.2584 83.1015 54.1001 83.237 53.9162 83.3278C53.7324 83.4187 53.5289 83.4619 53.3242 83.4537C53.0999 83.46 52.8791 83.3961 52.6926 83.2708C52.5655 83.1731 52.4544 83.0561 52.3631 82.924V83.3469H51.8515L51.8484 78.7852ZM53.9652 82.6037C54.127 82.3138 54.2043 81.9841 54.1884 81.6522C54.1999 81.3472 54.1224 81.0455 53.9652 80.7843C53.8955 80.6736 53.7978 80.5834 53.682 80.5231C53.5662 80.4627 53.4366 80.4343 53.3063 80.4407C53.1823 80.4403 53.0596 80.4651 52.9454 80.5136C52.8313 80.5621 52.7281 80.6333 52.6421 80.723C52.4512 80.9112 52.3561 81.2209 52.3568 81.6522C52.348 81.91 52.3876 82.1672 52.4737 82.4102C52.5312 82.5791 52.6425 82.7243 52.7903 82.8234C52.938 82.9226 53.1142 82.9702 53.2915 82.9589C53.4254 82.9669 53.5589 82.938 53.6776 82.8754C53.7963 82.8128 53.8957 82.7189 53.9652 82.6037Z" fill="white"/>
<path d="M55.5937 78.8008H56.2106V80.6805H58.5674V78.8008H59.1864V83.3467H58.5674V81.2228H56.2106V83.3498H55.5906L55.5937 78.8008Z" fill="white"/>
<path d="M62.5264 80.2621C62.4648 80.1247 62.4319 79.9761 62.4295 79.8254C62.4259 79.6899 62.4502 79.5551 62.5012 79.4295C62.5521 79.3039 62.6284 79.1904 62.7253 79.096C62.8317 78.9973 62.9566 78.9209 63.0927 78.8712C63.2287 78.8214 63.3733 78.7994 63.518 78.8063C63.6526 78.7986 63.7874 78.8185 63.914 78.8648C64.0407 78.9112 64.1567 78.983 64.2548 79.0759C64.3399 79.1599 64.4072 79.2604 64.4526 79.3712C64.498 79.482 64.5206 79.6009 64.519 79.7208C64.5233 80.0005 64.426 80.2722 64.2453 80.4851C64.0869 80.6562 63.9063 80.8052 63.7085 80.9281L64.5348 81.9197C64.5906 81.7537 64.6285 81.6311 64.6506 81.5497C64.6727 81.4683 64.6938 81.3541 64.7169 81.2072H65.2432C65.2088 81.4941 65.138 81.7755 65.0327 82.0445C64.9274 82.3116 64.8748 82.4198 64.8748 82.369L65.6843 83.3501H64.9685L64.5474 82.83C64.4125 82.9848 64.257 83.1204 64.0853 83.2327C63.8306 83.384 63.5391 83.4612 63.2432 83.4558C62.7723 83.4558 62.4299 83.3282 62.2159 83.0731C62.0098 82.8336 61.8975 82.527 61.9001 82.2104C61.8898 81.8933 62.0009 81.5842 62.2106 81.3467C62.4242 81.1401 62.6638 80.9624 62.9232 80.8181C62.7649 80.653 62.6312 80.4657 62.5264 80.2621ZM63.8632 82.8088C64.0124 82.7182 64.1417 82.5981 64.2432 82.4557L63.219 81.2008C63.0134 81.3271 62.8231 81.4768 62.6516 81.647C62.5153 81.8034 62.4428 82.0058 62.4485 82.2136C62.4429 82.3211 62.464 82.4283 62.51 82.5256C62.5559 82.6228 62.6252 82.7071 62.7116 82.7708C62.873 82.896 63.0708 82.9647 63.2748 82.9663C63.483 82.9725 63.6886 82.9178 63.8664 82.8088H63.8632ZM63.8232 80.2314C63.94 80.104 64.0049 79.9373 64.0053 79.7641C64.0076 79.6356 63.9601 79.5113 63.8727 79.4174C63.8271 79.3684 63.7715 79.3301 63.7097 79.3049C63.6479 79.2797 63.5814 79.2683 63.5148 79.2715C63.2874 79.2715 63.1285 79.3476 63.0401 79.5009C62.9951 79.5789 62.9718 79.6676 62.9727 79.7578C62.9742 79.886 63.0106 80.0114 63.078 80.1204C63.1794 80.2796 63.2946 80.4296 63.4222 80.5686C63.5682 80.4719 63.7027 80.3587 63.8232 80.2314Z" fill="white"/>
<path d="M71.5104 79.1318C71.8085 79.3987 71.9962 79.7679 72.0368 80.1668H71.4378C71.3835 79.8955 71.241 79.6501 71.0326 79.4691C70.8304 79.2978 70.5462 79.2122 70.1799 79.2122C69.9761 79.205 69.7732 79.2438 69.5861 79.3255C69.3991 79.4073 69.2326 79.53 69.0989 79.6847C68.8245 79.9998 68.6873 80.4826 68.6873 81.1331C68.6873 81.6645 68.8112 82.0965 69.0589 82.4292C69.3062 82.7601 69.6768 82.9261 70.1673 82.9261C70.3704 82.9355 70.5725 82.8918 70.7538 82.7991C70.935 82.7065 71.0891 82.568 71.201 82.3975C71.341 82.1766 71.4361 81.9302 71.481 81.6722H72.0799C72.0405 82.121 71.8556 82.5444 71.5536 82.8774C71.1936 83.2672 70.7083 83.4624 70.0978 83.4631C69.611 83.4774 69.1369 83.3055 68.7715 82.9821C68.3013 82.5592 68.0659 81.9059 68.0652 81.0221C68.0652 80.3504 68.2406 79.8 68.5915 79.3708C68.9747 78.9049 69.501 78.6716 70.1704 78.6709C70.7473 78.6744 71.194 78.8281 71.5104 79.1318Z" fill="white"/>
<path d="M75.2632 80.3648C75.5579 80.6503 75.7049 81.0693 75.7042 81.6218C75.7042 82.1568 75.5747 82.5987 75.3158 82.9475C75.0569 83.2964 74.6551 83.4726 74.1105 83.4761C73.907 83.4852 73.704 83.4483 73.5166 83.3682C73.3291 83.2881 73.162 83.1667 73.0274 83.0131C72.7635 82.7016 72.6316 82.2854 72.6316 81.7645C72.6316 81.2078 72.7719 80.7637 73.0526 80.4325C73.1924 80.2694 73.367 80.1402 73.5635 80.0545C73.7601 79.9688 73.9733 79.9289 74.1874 79.9377C74.386 79.9334 74.5834 79.969 74.7681 80.0424C74.9529 80.1157 75.1212 80.2253 75.2632 80.3648ZM74.92 82.5712C75.0612 82.2806 75.1333 81.961 75.1305 81.6377C75.1407 81.3775 75.0899 81.1186 74.9821 80.8818C74.8263 80.5766 74.5569 80.424 74.1737 80.424C73.8348 80.424 73.5891 80.5541 73.4369 80.8141C73.2764 81.101 73.1968 81.4262 73.2063 81.755C73.1948 82.0657 73.275 82.3728 73.4369 82.6378C73.5916 82.8735 73.8358 82.9909 74.1737 82.9909C74.5351 82.9909 74.7846 82.851 74.9221 82.5712H74.92Z" fill="white"/>
<path d="M76.6001 82.6758H77.2454V83.3503H76.6001V82.6758Z" fill="white"/>
<path d="M78.3979 78.8008H78.9958V81.0209L81.2064 78.8008H82.0485L80.1643 80.6339L82.1053 83.3498H81.3053L79.7201 81.0674L78.9958 81.7641V83.3498H78.3979V78.8008Z" fill="white"/>
<path d="M85.7738 78.9312C86.2229 79.168 86.4983 79.5838 86.6001 80.1787H85.9927C85.9679 80.033 85.9145 79.8937 85.8355 79.769C85.7565 79.6443 85.6536 79.5367 85.5327 79.4524C85.2681 79.2922 84.9626 79.2132 84.6538 79.2251C84.4533 79.2224 84.2546 79.2638 84.0717 79.3464C83.8887 79.4289 83.726 79.5506 83.5948 79.703C83.3071 80.0194 83.1636 80.4902 83.1643 81.1154C83.1643 81.6566 83.2826 82.0971 83.519 82.4368C83.7555 82.7765 84.1415 82.9464 84.6769 82.9464C85.0484 82.9599 85.4113 82.8319 85.6927 82.588C85.9608 82.3505 86.098 81.965 86.1043 81.4315H84.6854V80.9208H86.6738V83.3524H86.279L86.1317 82.7677C85.9733 82.9546 85.7868 83.1154 85.579 83.2445C85.2622 83.4082 84.9088 83.4872 84.5527 83.4739C84.0406 83.4824 83.5448 83.2932 83.1675 82.9453C82.7464 82.5077 82.5359 81.9068 82.5359 81.1428C82.5359 80.3789 82.7433 79.7738 83.158 79.3277C83.349 79.1159 83.5836 78.9485 83.8456 78.8371C84.1075 78.7258 84.3905 78.6731 84.6748 78.6828C85.0559 78.6735 85.4334 78.7588 85.7738 78.9312Z" fill="white"/>
<path d="M21.2306 66.0652L25.4737 68.7578L25.1811 65.8876L25.7895 65.8252L26.1716 69.575L25.5769 69.6363L21.3548 66.9226L21.6706 70.037L21.0622 70.0994L20.658 66.1223L21.2306 66.0652Z" fill="#0C3985"/>
<path d="M25.3085 72.8029C25.249 73.0483 25.125 73.2731 24.9496 73.4541C24.7803 73.6217 24.5776 73.7514 24.3548 73.8347C24.0972 73.9343 23.8307 74.0094 23.5591 74.0588L23.0022 71.4042C22.6828 71.4658 22.3893 71.6228 22.1601 71.8546C21.9696 72.066 21.9106 72.3388 21.9812 72.6792C22.005 72.823 22.0602 72.9598 22.1429 73.0796C22.2255 73.1995 22.3334 73.2996 22.4591 73.3727C22.6049 73.4551 22.7677 73.5029 22.9348 73.5123L23.0601 74.1106C22.897 74.1205 22.7335 74.0997 22.578 74.0493C22.412 74.0034 22.254 73.9321 22.1096 73.8379C21.8851 73.6871 21.7071 73.4761 21.5959 73.2289C21.5238 73.0741 21.4705 72.9112 21.4369 72.7437C21.3888 72.5286 21.387 72.3057 21.4314 72.0899C21.4759 71.874 21.5657 71.6702 21.6948 71.492C21.9615 71.1086 22.3931 70.8538 22.9896 70.7276C23.5861 70.6015 24.0984 70.6575 24.5264 70.8957C24.7373 71.0089 24.9198 71.1686 25.0602 71.3629C25.2006 71.5572 25.2952 71.781 25.337 72.0174C25.3895 72.2778 25.3798 72.547 25.3085 72.8029ZM23.917 73.3315C24.1369 73.2715 24.3422 73.1668 24.5201 73.0238C24.7812 72.7948 24.871 72.485 24.7896 72.0946C24.7639 71.9623 24.71 71.8371 24.6317 71.7277C24.5534 71.6182 24.4525 71.527 24.3359 71.4603C24.0818 71.3112 23.7816 71.2626 23.4938 71.3239L23.917 73.3315Z" fill="#0C3985"/>
<path d="M25.8695 74.5879L26.0369 75.1535L25.418 75.3395C25.6112 75.3717 25.7958 75.4437 25.9601 75.551C26.0666 75.6082 26.1609 75.686 26.2373 75.78C26.3137 75.874 26.3709 75.9823 26.4053 76.0986C26.4053 76.1092 26.4127 76.1293 26.419 76.1557C26.4253 76.1821 26.4327 76.2297 26.4453 76.2952L25.8137 76.4866C25.8095 76.4485 25.8043 76.4133 25.798 76.3809C25.7906 76.3502 25.7822 76.3174 25.7716 76.2815C25.7409 76.149 25.6799 76.0255 25.5935 75.9207C25.5071 75.816 25.3976 75.7328 25.2737 75.6778C25.0373 75.5755 24.7723 75.5613 24.5264 75.6377L22.4632 76.2561L22.2864 75.6599L25.8695 74.5879Z" fill="#0C3985"/>
<path d="M27.6622 76.7945L27.8727 77.3855L26.8906 77.7449L27.0917 78.2999L26.6085 78.4765L26.4075 77.9215L24.1117 78.7598C24.0611 78.7715 24.0151 78.7977 23.9792 78.8353C23.9433 78.8728 23.9191 78.9201 23.9096 78.9713C23.9072 79.0537 23.923 79.1356 23.9559 79.2112L23.9906 79.3022C24.0032 79.3339 24.0201 79.3709 24.0401 79.4079L23.579 79.5855C23.5343 79.5239 23.4945 79.4589 23.4601 79.391C23.4229 79.3162 23.3902 79.2392 23.3622 79.1605C23.2632 78.8877 23.2668 78.6763 23.3727 78.5262C23.4993 78.3623 23.6726 78.2409 23.8696 78.1784L26.199 77.3326L26.0285 76.8611L26.5106 76.6846L26.6811 77.1561L27.6622 76.7945Z" fill="#0C3985"/>
<path d="M27.4032 79.1024L27.6475 79.6849L24.2106 81.1364L23.9685 80.5486L27.4032 79.1024ZM28.7011 78.5537L28.9453 79.1362L28.2885 79.4143L28.0443 78.8318L28.7011 78.5537Z" fill="#0C3985"/>
<path d="M29.2937 80.5174C29.5499 80.5554 29.7671 80.7612 29.9453 81.1348C29.9621 81.1707 29.979 81.2066 29.9948 81.2458C30.0106 81.2849 30.0274 81.3282 30.0464 81.3779L29.5295 81.6274C29.5053 81.5671 29.4885 81.5217 29.4769 81.4974C29.4653 81.4731 29.4548 81.4456 29.4432 81.4234C29.3621 81.2532 29.2685 81.1728 29.1632 81.1823C29.0579 81.1918 28.8232 81.288 28.4579 81.4614L28.7232 82.0154L28.2758 82.2268L28.0074 81.6655L25.0958 83.0694L24.8306 82.5154L27.7421 81.1115L27.52 80.6548L27.9674 80.4434L28.1895 80.9075L28.7158 80.6516C28.8933 80.5564 29.0927 80.5101 29.2937 80.5174Z" fill="#0C3985"/>
<path d="M29.1021 82.7331L29.4032 83.2892L26.1274 85.0726L25.8274 84.5165L29.1021 82.7331ZM30.34 82.0586L30.6411 82.6136L30.0095 82.9551L29.7095 82.4001L30.34 82.0586Z" fill="#0C3985"/>
<path d="M27.0873 85.8182L30.5263 86.2263L29.4421 84.5104L29.9168 84.207L31.4473 86.629L31.0136 86.906L27.5979 86.5001L28.7968 88.3967L28.3221 88.699L26.6694 86.0846L27.0873 85.8182Z" fill="#0C3985"/>
<path d="M32.0304 87.4506L32.4031 87.9601L29.401 90.1802L29.0283 89.6707L32.0304 87.4506ZM33.1652 86.6133L33.5378 87.1228L32.9631 87.5457L32.5904 87.0362L33.1652 86.6133Z" fill="#0C3985"/>
<path d="M34.5136 90.7063C34.5788 90.9486 34.5788 91.204 34.5136 91.4463C34.4447 91.6774 34.3269 91.8909 34.1683 92.0721C33.9896 92.283 33.7919 92.477 33.5778 92.6515L31.822 90.5921C31.5708 90.7991 31.3875 91.0772 31.2957 91.3902C31.2255 91.6658 31.3045 91.9361 31.5325 92.2011C31.6222 92.3158 31.7359 92.4093 31.8656 92.4747C31.9954 92.5401 32.1379 92.5759 32.2831 92.5796C32.4504 92.5817 32.616 92.5456 32.7673 92.4739L33.162 92.938C33.0237 93.0256 32.8701 93.0863 32.7094 93.1166C32.5415 93.1556 32.3685 93.1681 32.1968 93.1536C31.9292 93.1296 31.6738 93.0303 31.4599 92.8671C31.3223 92.7661 31.1976 92.6486 31.0883 92.5172C30.9435 92.3517 30.8356 92.1571 30.7717 91.9463C30.7078 91.7356 30.6894 91.5136 30.7178 91.2951C30.7683 90.8299 31.0255 90.3983 31.4894 90.0001C31.9532 89.6018 32.4287 89.4059 32.9157 89.4123C33.1548 89.4102 33.3911 89.4628 33.607 89.5659C33.8229 89.669 34.0127 89.82 34.162 90.0074C34.3326 90.2091 34.4531 90.4486 34.5136 90.7063ZM33.5441 91.8385C33.7088 91.6804 33.8389 91.4896 33.9262 91.2782C34.0462 90.9519 33.9761 90.6368 33.7157 90.3331C33.63 90.2284 33.5228 90.1437 33.4014 90.0845C33.2801 90.0254 33.1474 89.9934 33.0125 89.9905C32.7195 89.9834 32.4341 90.0846 32.2104 90.2749L33.5441 91.8385Z" fill="#0C3985"/>
<path d="M35.8568 92.001L36.2779 92.4164L35.8231 92.8784C36.0073 92.8128 36.203 92.7862 36.3979 92.8002C36.519 92.7989 36.6391 92.8218 36.7513 92.8676C36.8635 92.9133 36.9656 92.981 37.0516 93.0666L37.0905 93.111C37.1084 93.1311 37.1379 93.1681 37.181 93.2167L36.7137 93.6914C36.6944 93.6626 36.6733 93.635 36.6505 93.6089C36.6305 93.5857 36.6074 93.5614 36.581 93.535C36.4905 93.4336 36.3778 93.3546 36.2518 93.3044C36.1258 93.2541 35.9898 93.2339 35.8547 93.2453C35.5988 93.2692 35.3598 93.3843 35.181 93.5698L33.6631 95.1091L33.2231 94.6714L35.8568 92.001Z" fill="#0C3985"/>
<path d="M38.4864 93.0752L38.9569 93.4907L38.2664 94.2783L38.7085 94.6684L38.3695 95.0564L37.9274 94.6663L36.3158 96.5121C36.2769 96.5469 36.249 96.5923 36.2355 96.6429C36.222 96.6934 36.2236 96.7468 36.2401 96.7965C36.2775 96.8703 36.3307 96.9349 36.3959 96.9857L36.4695 97.0481C36.4958 97.0703 36.5285 97.0946 36.5664 97.121L36.238 97.4953C36.1691 97.4635 36.1033 97.4257 36.0411 97.3822C35.9729 97.3346 35.9075 97.2831 35.8453 97.2278C35.6274 97.0365 35.5295 96.8493 35.5516 96.6675C35.5844 96.4626 35.6788 96.2726 35.8222 96.1231L37.458 94.254L37.0832 93.9231L37.4232 93.5361L37.798 93.867L38.4864 93.0752Z" fill="#0C3985"/>
<path d="M41.1158 96.6826C41.2322 96.9062 41.2875 97.1568 41.2758 97.4088C41.2582 97.6472 41.1907 97.8792 41.0779 98.0897C40.9501 98.3355 40.7996 98.5687 40.6285 98.7864L38.4653 97.1615C38.267 97.4192 38.15 97.7307 38.1295 98.0558C38.1243 98.3402 38.2611 98.5844 38.5379 98.7959C38.6502 98.8884 38.7815 98.9548 38.9224 98.9903C39.0633 99.0258 39.2102 99.0294 39.3527 99.001C39.5166 98.9657 39.6703 98.8934 39.8021 98.7895L40.2895 99.1564C40.1732 99.2719 40.0365 99.3648 39.8864 99.4302C39.7315 99.5059 39.5655 99.5562 39.3948 99.5792C39.127 99.6153 38.8545 99.575 38.6085 99.4629C38.4525 99.3949 38.3054 99.3079 38.1706 99.2039C37.9924 99.0748 37.8438 98.9088 37.7348 98.7172C37.6259 98.5255 37.5591 98.3126 37.539 98.0928C37.4864 97.6291 37.6428 97.1516 38.0085 96.6604C38.3741 96.1691 38.7951 95.8731 39.2716 95.7723C39.5042 95.7176 39.7461 95.7165 39.9791 95.7693C40.2121 95.822 40.4302 95.9272 40.6169 96.0768C40.8287 96.2361 40.9997 96.4437 41.1158 96.6826ZM40.4211 98.0009C40.5479 97.8094 40.6332 97.5933 40.6716 97.3666C40.7165 97.0212 40.5804 96.7291 40.2632 96.4901C40.1569 96.4071 40.0339 96.3481 39.9027 96.3172C39.7715 96.2864 39.6352 96.2844 39.5032 96.3115C39.2147 96.3684 38.9574 96.5308 38.7811 96.7671L40.4211 98.0009Z" fill="#0C3985"/>
<path d="M42.7106 97.6475L43.2096 97.9646L42.8675 98.5154C43.0331 98.411 43.2183 98.3419 43.4117 98.3124C43.5293 98.2842 43.6513 98.2799 43.7706 98.2997C43.8899 98.3195 44.0041 98.363 44.1064 98.4277C44.1159 98.434 44.1317 98.4446 44.1538 98.4615L44.2664 98.5482L43.9148 99.1138C43.8897 99.0906 43.8633 99.0687 43.8359 99.0482C43.8117 99.0303 43.7833 99.0112 43.7517 98.9911C43.6412 98.9124 43.514 98.8604 43.3801 98.8393C43.2462 98.8182 43.1093 98.8286 42.9801 98.8696C42.7354 98.9501 42.5274 99.1158 42.3938 99.3368L41.2548 101.164L40.7285 100.835L42.7106 97.6475Z" fill="#0C3985"/>
<path d="M47.4884 98.7979L50.8726 100.263L50.6242 100.847L47.8526 99.6436L47.2357 101.081L49.7989 102.19L49.5631 102.739L47.001 101.63L46.3158 103.235L49.1336 104.455L48.8926 105.018L45.46 103.538L47.4884 98.7979Z" fill="#0C3985"/>
<path d="M51.3316 101.888L51.8958 102.057L51.7431 102.569C51.9407 102.422 52.1683 102.321 52.4095 102.274C52.6314 102.238 52.8584 102.255 53.0726 102.323C53.5747 102.473 53.8589 102.754 53.9294 103.163C53.9598 103.461 53.9239 103.762 53.8242 104.044L53.1358 106.354L52.5326 106.172L53.2095 103.903C53.2709 103.723 53.2921 103.532 53.2716 103.343C53.2337 103.088 53.0761 102.918 52.7989 102.834C52.6827 102.796 52.5613 102.775 52.4389 102.774C52.2741 102.781 52.1134 102.828 51.9707 102.911C51.8281 102.994 51.7077 103.111 51.62 103.251C51.531 103.42 51.4604 103.597 51.4095 103.78L50.8473 105.666L50.2537 105.488L51.3316 101.888Z" fill="#0C3985"/>
<path d="M55.6526 101.995L56.2642 102.126L56.0473 103.153L56.6231 103.275L56.5178 103.78L55.9421 103.657L55.4336 106.057C55.417 106.106 55.4151 106.16 55.4282 106.211C55.4413 106.261 55.4688 106.307 55.5073 106.342C55.5757 106.388 55.6534 106.418 55.7347 106.43C55.7642 106.436 55.7957 106.443 55.8294 106.448C55.8631 106.453 55.9031 106.46 55.9494 106.465L55.8442 106.952C55.7689 106.959 55.6932 106.959 55.6178 106.952C55.5347 106.944 55.4521 106.931 55.3705 106.913C55.0898 106.853 54.9143 106.738 54.8442 106.57C54.7722 106.375 54.762 106.163 54.8147 105.962L55.3294 103.53L54.8421 103.424L54.9473 102.919L55.4357 103.025L55.6526 101.995Z" fill="#0C3985"/>
<path d="M57.4736 106.044C57.4561 106.216 57.4867 106.389 57.5621 106.545C57.6905 106.767 57.9452 106.904 58.3263 106.956C58.5359 106.989 58.7504 106.965 58.9473 106.885C59.0353 106.85 59.1115 106.79 59.1674 106.713C59.2232 106.636 59.2564 106.545 59.2631 106.45C59.2753 106.376 59.2668 106.3 59.2386 106.23C59.2103 106.161 59.1634 106.101 59.1031 106.056C58.9462 105.954 58.7781 105.871 58.6021 105.808L58.1315 105.617C57.8962 105.533 57.6756 105.412 57.4778 105.259C57.3647 105.172 57.277 105.056 57.224 104.923C57.171 104.79 57.1547 104.645 57.1768 104.503C57.1926 104.341 57.2446 104.184 57.329 104.045C57.4134 103.905 57.5279 103.787 57.6642 103.698C57.9449 103.513 58.2957 103.449 58.7168 103.507C59.2663 103.577 59.6407 103.795 59.8399 104.161C59.9619 104.374 60.0083 104.623 59.9715 104.866L59.3926 104.788C59.4006 104.646 59.3673 104.505 59.2968 104.382C59.1778 104.198 58.9452 104.083 58.5968 104.035C58.4127 103.998 58.2215 104.021 58.0515 104.101C57.9895 104.134 57.9365 104.181 57.897 104.239C57.8576 104.298 57.8329 104.365 57.8252 104.435C57.8143 104.515 57.8255 104.597 57.8578 104.672C57.8901 104.747 57.9422 104.811 58.0084 104.858C58.1238 104.948 58.2528 105.019 58.3905 105.069L58.7821 105.226C59.2087 105.394 59.4894 105.539 59.6242 105.661C59.8424 105.853 59.928 106.121 59.881 106.465C59.8609 106.626 59.8074 106.781 59.724 106.921C59.6407 107.06 59.5292 107.181 59.3968 107.274C59.1161 107.482 58.7242 107.552 58.221 107.486C57.6778 107.413 57.3094 107.234 57.1178 106.957C56.9235 106.669 56.8387 106.32 56.8789 105.974L57.4736 106.044Z" fill="#0C3985"/>
<path d="M63.8127 104.357C64.1292 104.691 64.2769 105.172 64.2559 105.798C64.2362 106.404 64.0748 106.9 63.7717 107.285C63.4685 107.67 63.0124 107.852 62.4033 107.831C62.1753 107.834 61.9498 107.784 61.7438 107.686C61.5378 107.588 61.3566 107.444 61.2138 107.266C60.9275 106.905 60.7927 106.432 60.8148 105.842C60.8359 105.207 61.0113 104.71 61.3412 104.349C61.5024 104.169 61.7027 104.029 61.9264 103.939C62.1502 103.85 62.3915 103.813 62.6317 103.832C62.8536 103.835 63.0725 103.884 63.2754 103.974C63.4783 104.064 63.6611 104.195 63.8127 104.357ZM63.3443 106.844C63.511 106.518 63.6017 106.159 63.6096 105.793C63.6306 105.499 63.5841 105.204 63.4738 104.931C63.311 104.579 63.0162 104.396 62.5896 104.382C62.2113 104.369 61.9306 104.507 61.7475 104.795C61.5568 105.115 61.455 105.48 61.4527 105.852C61.4296 106.204 61.5101 106.555 61.6843 106.862C61.8471 107.135 62.1155 107.277 62.4896 107.29C62.8952 107.304 63.1801 107.155 63.3443 106.844Z" fill="#0C3985"/>
<path d="M65.2559 103.951L65.8432 103.922L65.8759 104.57C65.9526 104.39 66.065 104.227 66.2064 104.091C66.2865 104.002 66.3836 103.928 66.492 103.876C66.6004 103.824 66.718 103.794 66.838 103.788C66.8495 103.788 66.8685 103.788 66.8959 103.788L67.038 103.795L67.0706 104.462C67.0358 104.456 67.0006 104.453 66.9653 104.453C66.9348 104.453 66.9001 104.453 66.8601 104.453C66.7245 104.452 66.5905 104.482 66.4685 104.542C66.3465 104.601 66.2399 104.688 66.1569 104.796C66.0014 105.001 65.9245 105.257 65.9401 105.514L66.0453 107.674L65.4264 107.705L65.2559 103.951Z" fill="#0C3985"/>
<path d="M69.8548 103.682C70.0031 103.764 70.1386 103.868 70.2569 103.989L70.1938 103.52L70.7591 103.442L71.2169 106.825C71.2808 107.299 71.2633 107.682 71.1643 107.973C70.9783 108.513 70.5317 108.83 69.8243 108.925C69.4759 108.985 69.1174 108.938 68.7959 108.791C68.5033 108.65 68.3152 108.389 68.2317 108.009L68.8559 107.924C68.8937 108.065 68.9738 108.191 69.0854 108.285C69.2422 108.406 69.4706 108.446 69.7675 108.405C70.239 108.341 70.5233 108.13 70.6233 107.77C70.6836 107.559 70.6752 107.197 70.598 106.686C70.5138 106.881 70.3803 107.052 70.2106 107.18C69.9444 107.347 69.6346 107.431 69.3207 107.421C69.0068 107.411 68.7029 107.308 68.4475 107.125C68.112 106.878 67.9015 106.424 67.8159 105.764C67.7317 105.14 67.8152 104.633 68.0664 104.242C68.1736 104.06 68.3203 103.905 68.4955 103.789C68.6707 103.673 68.8698 103.597 69.078 103.569C69.3424 103.528 69.6131 103.567 69.8548 103.682ZM70.0201 104.343C69.9201 104.248 69.7998 104.178 69.6685 104.136C69.5371 104.095 69.3982 104.085 69.2622 104.106C68.8306 104.165 68.5629 104.412 68.459 104.846C68.404 105.138 68.4012 105.437 68.4506 105.73C68.5075 106.153 68.6341 106.461 68.8306 106.654C68.9222 106.749 69.0354 106.82 69.1605 106.862C69.2855 106.903 69.4187 106.913 69.5485 106.891C69.7498 106.874 69.9404 106.793 70.0929 106.66C70.2454 106.527 70.3519 106.349 70.3969 106.151C70.4672 105.882 70.4812 105.602 70.438 105.327C70.3762 104.869 70.2369 104.54 70.0201 104.343Z" fill="#0C3985"/>
<path d="M72.4704 103.047L73.0641 105.471C73.0965 105.629 73.1646 105.778 73.2631 105.906C73.4231 106.098 73.649 106.158 73.941 106.085C74.1294 106.052 74.3016 105.957 74.4308 105.815C74.5601 105.674 74.6391 105.493 74.6557 105.302C74.6827 105.009 74.6549 104.713 74.5736 104.43L74.1347 102.632L74.7357 102.483L75.6294 106.135L75.062 106.274L74.9368 105.734C74.8954 105.887 74.8257 106.03 74.7315 106.157C74.5437 106.408 74.272 106.583 73.9662 106.65C73.4561 106.776 73.0662 106.688 72.7968 106.385C72.6294 106.18 72.5148 105.936 72.4631 105.676L71.8557 103.195L72.4704 103.047Z" fill="#0C3985"/>
<path d="M75.8547 102.15L76.4084 101.949L76.5884 102.452C76.6605 102.216 76.7838 101.999 76.9495 101.817C77.1069 101.656 77.2993 101.534 77.5116 101.46C78.0028 101.282 78.3982 101.336 78.6979 101.623C78.8987 101.844 79.0483 102.107 79.1358 102.393L79.9526 104.661L79.36 104.873L78.5579 102.644C78.5007 102.463 78.4043 102.296 78.2758 102.157C78.0937 101.974 77.8663 101.933 77.5947 102.031C77.4788 102.069 77.3694 102.125 77.2705 102.197C77.142 102.301 77.0407 102.435 76.9752 102.587C76.9097 102.739 76.8821 102.905 76.8947 103.07C76.9243 103.258 76.9741 103.442 77.0432 103.62L77.7105 105.471L77.1284 105.682L75.8547 102.15Z" fill="#0C3985"/>
<path d="M81.6232 99.9206C81.7912 99.951 81.9538 100.007 82.1053 100.086L81.8948 99.6627L82.4085 99.4121L83.8948 102.483C84.1053 102.912 84.2074 103.282 84.2011 103.591C84.1927 104.162 83.8674 104.604 83.2253 104.918C82.9128 105.084 82.5579 105.152 82.2064 105.114C81.8843 105.069 81.6246 104.88 81.4274 104.547L81.9938 104.271C82.074 104.393 82.1892 104.488 82.3243 104.543C82.5116 104.607 82.7404 104.572 83.0106 104.437C83.438 104.225 83.6422 103.938 83.6264 103.566C83.6173 103.347 83.4969 103.007 83.2653 102.543C83.2454 102.752 83.173 102.953 83.0548 103.126C82.8535 103.368 82.5852 103.545 82.284 103.634C81.9827 103.723 81.6619 103.72 81.3622 103.626C80.9678 103.497 80.6253 103.133 80.3348 102.533C80.0611 101.969 79.9829 101.461 80.1001 101.008C80.1456 100.803 80.2368 100.611 80.367 100.446C80.4972 100.281 80.6629 100.148 80.8516 100.057C81.0892 99.9341 81.3582 99.8865 81.6232 99.9206ZM81.9853 100.497C81.8611 100.438 81.725 100.408 81.5875 100.41C81.4501 100.413 81.315 100.446 81.1927 100.509C80.7997 100.701 80.6222 101.018 80.6601 101.461C80.6971 101.757 80.7869 102.043 80.9253 102.307C81.1106 102.687 81.3267 102.94 81.5738 103.065C81.6902 103.126 81.8199 103.159 81.9516 103.159C82.0833 103.159 82.2131 103.126 82.3295 103.065C82.5147 102.986 82.6704 102.85 82.7741 102.677C82.8779 102.504 82.9246 102.302 82.9074 102.101C82.8901 101.823 82.8163 101.552 82.6906 101.304C82.4878 100.886 82.2527 100.617 81.9853 100.497Z" fill="#0C3985"/>
<path d="M85.0527 100.821C85.1478 100.965 85.2813 101.08 85.438 101.152C85.6766 101.243 85.9601 101.187 86.2885 100.984C86.4711 100.876 86.6215 100.72 86.7243 100.534C86.7711 100.451 86.7936 100.357 86.7893 100.261C86.785 100.166 86.7541 100.074 86.7001 99.9952C86.663 99.9301 86.6085 99.8766 86.5429 99.8408C86.4773 99.8049 86.4031 99.7881 86.3285 99.7922C86.1429 99.8136 85.9603 99.8561 85.7843 99.919L85.299 100.07C85.0643 100.155 84.8178 100.202 84.5685 100.21C84.4257 100.214 84.2844 100.18 84.1594 100.11C84.0344 100.041 83.9303 99.9392 83.858 99.8154C83.7681 99.6795 83.7098 99.5251 83.6874 99.3635C83.6649 99.2019 83.679 99.0373 83.7285 98.8819C83.8275 98.5627 84.0573 98.291 84.418 98.0669C84.891 97.7751 85.3187 97.7046 85.7011 97.8554C85.93 97.943 86.1225 98.1059 86.2475 98.3174L85.7443 98.6261C85.6606 98.5119 85.5463 98.4239 85.4148 98.3724C85.2043 98.3058 84.9538 98.365 84.6548 98.55C84.4885 98.6373 84.3548 98.7764 84.2738 98.9464C84.2464 99.0113 84.2352 99.0819 84.2412 99.1522C84.2473 99.2224 84.2704 99.29 84.3085 99.3492C84.3507 99.4185 84.4109 99.4748 84.4828 99.5121C84.5546 99.5494 84.6352 99.5662 84.7159 99.5607C84.8613 99.5559 85.0052 99.5285 85.1422 99.4792L85.5443 99.3503C85.9801 99.2086 86.2896 99.1388 86.4727 99.1505C86.7625 99.161 86.9976 99.3136 87.178 99.6082C87.2641 99.7462 87.3205 99.9006 87.3437 100.062C87.3669 100.223 87.3563 100.387 87.3127 100.544C87.2285 100.882 86.9692 101.185 86.5348 101.453C86.0682 101.743 85.6717 101.839 85.3454 101.743C85.0131 101.643 84.7274 101.427 84.5401 101.134L85.0527 100.821Z" fill="#0C3985"/>
<path d="M86.098 95.6865C86.0895 95.4265 86.2527 95.1752 86.5874 94.9328C86.618 94.9095 86.6517 94.8873 86.6864 94.864L86.8074 94.79L87.1432 95.2563C87.0885 95.2901 87.0485 95.3155 87.0253 95.3313C87.0022 95.3472 86.979 95.362 86.959 95.3768C86.806 95.4874 86.7439 95.5931 86.7727 95.6939C86.8011 95.7996 86.9338 96.0111 87.1717 96.342L87.6674 95.9804L87.959 96.3843L87.4569 96.749L89.3517 99.3761L88.8548 99.7366L86.9601 97.1095L86.5453 97.4119L86.2538 97.008L86.6748 96.7067L86.3295 96.2289C86.2066 96.0715 86.1267 95.8845 86.098 95.6865Z" fill="#0C3985"/>
<path d="M90.7538 95.3405C90.7975 95.3001 90.8298 95.2488 90.8472 95.1917C90.8646 95.1347 90.8665 95.074 90.8527 95.0159C90.8275 94.937 90.785 94.8648 90.7285 94.8045C90.675 94.7303 90.6029 94.6717 90.5195 94.6345C90.4361 94.5974 90.3444 94.5831 90.2538 94.593C90.0337 94.6395 89.831 94.7468 89.6685 94.9028C89.4222 95.1142 89.3053 95.331 89.3169 95.554C89.3353 95.7102 89.3945 95.8586 89.4885 95.9843L89.0527 96.3617C88.7622 96.0023 88.666 95.6612 88.7643 95.3384C88.8708 95.0067 89.0703 94.7131 89.339 94.4926C89.6095 94.2405 89.9444 94.0688 90.3064 93.9968C90.4597 93.9737 90.6164 93.9929 90.7597 94.0523C90.903 94.1117 91.0276 94.2091 91.1201 94.334L92.5148 95.9832C92.5484 96.027 92.5942 96.0598 92.6464 96.0773C92.6927 96.0911 92.7517 96.0699 92.8127 96.0139C92.8362 95.9936 92.8587 95.9721 92.8801 95.9494C92.9032 95.9251 92.9285 95.8966 92.9538 95.8659L93.2548 96.2211C93.1809 96.3466 93.0845 96.4574 92.9706 96.5478C92.9058 96.6123 92.8248 96.658 92.7362 96.6801C92.6477 96.7023 92.5548 96.7 92.4674 96.6736C92.3538 96.6299 92.25 96.5638 92.1622 96.4791C92.1704 96.715 92.1258 96.9499 92.0317 97.1662C91.9286 97.4189 91.7657 97.6425 91.5569 97.8175C91.4438 97.9219 91.311 98.0025 91.1664 98.0547C91.0218 98.1068 90.8682 98.1293 90.7148 98.1209C90.5677 98.1121 90.424 98.0726 90.293 98.0049C90.1619 97.9372 90.0464 97.8427 89.9538 97.7276C89.8498 97.6189 89.7708 97.4887 89.7224 97.346C89.674 97.2034 89.6574 97.0518 89.6738 96.9019C89.723 96.5939 89.866 96.3088 90.0832 96.0858L90.7538 95.3405ZM90.8643 97.4908C91.0328 97.4861 91.1943 97.4217 91.3201 97.309C91.4875 97.1658 91.6185 96.9846 91.7022 96.7804C91.7784 96.6219 91.805 96.4439 91.7785 96.2699C91.752 96.0959 91.6737 95.934 91.5538 95.8056L91.2253 95.4177C91.192 95.5191 91.1437 95.6149 91.0822 95.702C91.0149 95.8013 90.9407 95.8956 90.8601 95.9843L90.6064 96.2655C90.483 96.3926 90.3839 96.5413 90.3138 96.7042C90.2771 96.8038 90.2692 96.9117 90.291 97.0155C90.3128 97.1193 90.3634 97.2148 90.4369 97.291C90.4873 97.3559 90.5524 97.4078 90.6267 97.4426C90.701 97.4773 90.7824 97.4938 90.8643 97.4908Z" fill="#0C3985"/>
<path d="M93.2233 91.1451C93.5517 91.1007 93.9159 91.2335 94.3159 91.5436L93.8948 91.9781C93.7231 91.8511 93.5191 91.7752 93.3064 91.7593C93.1064 91.748 92.9057 91.8463 92.7043 92.0542C92.4306 92.3362 92.3755 92.6766 92.539 93.0755C92.6717 93.3697 92.863 93.6334 93.1012 93.8504C93.3312 94.0893 93.6227 94.2595 93.9433 94.342C94.0701 94.3626 94.1998 94.3556 94.3237 94.3215C94.4476 94.2874 94.5628 94.2269 94.6614 94.1442C94.76 94.0615 94.8398 93.9585 94.8953 93.8422C94.9508 93.7258 94.9808 93.5988 94.9833 93.4698C94.963 93.223 94.8744 92.9868 94.7275 92.7879L95.1485 92.3524C95.458 92.7492 95.5983 93.1266 95.5696 93.4846C95.5334 93.8668 95.3611 94.223 95.0843 94.4879C94.9367 94.6531 94.7523 94.7808 94.5461 94.8608C94.3399 94.9407 94.1178 94.9705 93.898 94.9478C93.4172 94.894 92.9703 94.673 92.6348 94.323C92.1612 93.8655 91.9022 93.3955 91.858 92.9127C91.8323 92.6844 91.8584 92.4533 91.9344 92.2367C92.0105 92.0201 92.1344 91.8236 92.2969 91.662C92.5377 91.3883 92.8647 91.2058 93.2233 91.1451Z" fill="#0C3985"/>
<path d="M92.842 89.1603L93.2273 88.6729L94.7284 89.8676C94.6773 89.6854 94.6546 89.4964 94.661 89.3072C94.6908 89.0445 94.7982 88.7967 94.9694 88.5958C95.3006 88.1729 95.6747 88.0062 96.0915 88.0957C96.377 88.1744 96.6411 88.3168 96.8641 88.5123L98.7452 90.0103L98.3494 90.5114L96.501 89.0398C96.3474 88.9 96.1631 88.7986 95.9631 88.7438C95.7326 88.7036 95.521 88.8061 95.3315 89.0493C95.1724 89.2532 95.0934 89.5086 95.1094 89.7671C95.1199 90.0441 95.3199 90.3369 95.7115 90.6488L97.2631 91.8868L96.8778 92.3741L92.842 89.1603Z" fill="#0C3985"/>
<path d="M95.2495 86.0462L95.5737 85.5356L97.1432 86.5431C97.0661 86.3412 97.0373 86.1239 97.059 85.9088C97.0809 85.6963 97.1531 85.4923 97.2695 85.3136C97.3765 85.1321 97.522 84.9765 97.6958 84.8581C97.8696 84.7397 98.0673 84.6613 98.2748 84.6285C98.6958 84.558 99.1709 84.6926 99.7 85.0324C100.199 85.3523 100.537 85.7375 100.715 86.1879C100.803 86.4004 100.837 86.6318 100.813 86.8609C100.789 87.0899 100.708 87.3093 100.578 87.4988C100.449 87.7165 100.255 87.8875 100.023 87.9872C99.8539 88.0475 99.6764 88.081 99.4969 88.0866L99.9011 88.3456L99.5927 88.8287L95.2495 86.0462ZM100.153 86.376C100.012 86.0892 99.7565 85.8263 99.3853 85.5874C99.1032 85.3903 98.7699 85.28 98.4264 85.2702C98.2803 85.268 98.1364 85.3051 98.0094 85.3776C97.8824 85.4501 97.7771 85.5554 97.7042 85.6825C97.6293 85.7997 97.579 85.9311 97.5565 86.0686C97.5341 86.206 97.5399 86.3467 97.5737 86.4818C97.6376 86.7757 97.8748 87.0544 98.2853 87.318C98.5255 87.4837 98.7943 87.6031 99.0779 87.67C99.2709 87.7196 99.4748 87.7037 99.6577 87.6247C99.8407 87.5457 99.9925 87.4081 100.09 87.2334C100.178 87.1094 100.231 86.9632 100.242 86.811C100.253 86.6588 100.222 86.5064 100.153 86.3708V86.376Z" fill="#0C3985"/>
<path d="M99.7588 81.2296C99.9574 81.0749 100.194 80.9767 100.443 80.9452C100.679 80.9212 100.918 80.9471 101.144 81.0214C101.408 81.1054 101.663 81.2137 101.906 81.3449L100.69 83.7679C100.978 83.9186 101.304 83.9794 101.626 83.9424C101.907 83.898 102.124 83.7218 102.279 83.4138C102.35 83.2867 102.392 83.1454 102.402 83.0001C102.412 82.8547 102.389 82.709 102.337 82.5733C102.274 82.4174 102.176 82.2779 102.051 82.1652L102.326 81.6197C102.46 81.7146 102.574 81.8336 102.664 81.9707C102.766 82.1106 102.845 82.2658 102.898 82.4306C102.979 82.689 102.987 82.9651 102.92 83.2277C102.881 83.394 102.821 83.5548 102.743 83.7066C102.647 83.9049 102.51 84.0804 102.341 84.2213C102.173 84.3622 101.976 84.4654 101.764 84.5238C101.318 84.6563 100.822 84.5858 100.277 84.3124C99.7315 84.0389 99.3676 83.6742 99.1852 83.2182C99.0909 82.9977 99.0477 82.7586 99.0588 82.5189C99.07 82.2791 99.1351 82.0451 99.2494 81.8343C99.3683 81.5945 99.5431 81.3871 99.7588 81.2296ZM101.174 81.6895C100.964 81.5983 100.739 81.5515 100.51 81.5521C100.16 81.5676 99.8967 81.7533 99.722 82.1092C99.6592 82.229 99.6229 82.3611 99.6157 82.4963C99.6084 82.6315 99.6303 82.7667 99.6799 82.8926C99.7866 83.1675 99.9905 83.3934 100.253 83.5269L101.174 81.6895Z" fill="#0C3985"/>
<path d="M99.5 78.9855L99.7368 78.403L100.704 78.8005L100.926 78.2539L101.402 78.4495L101.179 78.9961L103.44 79.9253C103.485 79.9511 103.537 79.9628 103.589 79.9591C103.642 79.9553 103.691 79.9362 103.733 79.9042C103.79 79.8444 103.834 79.772 103.859 79.6927C103.871 79.6653 103.882 79.6346 103.894 79.6029C103.905 79.5712 103.919 79.532 103.932 79.4876L104.391 79.6758C104.383 79.7516 104.369 79.8266 104.348 79.8999C104.326 79.9805 104.299 80.0596 104.267 80.1368C104.158 80.4053 104.014 80.5589 103.836 80.5977C103.633 80.6336 103.423 80.6063 103.236 80.5195L100.947 79.5786L100.758 80.0416L100.283 79.846L100.472 79.383L99.5 78.9855Z" fill="#0C3985"/>
<path d="M101.229 77.4361L101.419 76.8769L102.031 77.0883C101.894 76.9494 101.786 76.7839 101.715 76.602C101.661 76.4934 101.629 76.3751 101.622 76.254C101.614 76.1329 101.63 76.0115 101.67 75.8968C101.676 75.878 101.683 75.8596 101.692 75.8419C101.702 75.8165 101.722 75.7732 101.751 75.7129L102.382 75.9243C102.365 75.9541 102.35 75.9848 102.336 76.0163C102.323 76.0448 102.312 76.0766 102.3 76.1115C102.248 76.2373 102.227 76.3734 102.236 76.5092C102.246 76.6449 102.287 76.7766 102.356 76.8938C102.489 77.1151 102.697 77.2813 102.941 77.3621L104.978 78.062L104.778 78.6508L101.229 77.4361Z" fill="#0C3985"/>
<path d="M100.68 74.608L100.852 73.999L101.538 74.1935L101.368 74.8025L100.68 74.608ZM102.036 74.9928L102.207 74.3838L105.789 75.4019L105.618 76.0108L102.036 74.9928Z" fill="#0C3985"/>
<path d="M103.069 71.0272C103.221 70.8258 103.424 70.6691 103.657 70.5737C103.879 70.4895 104.117 70.4535 104.354 70.468C104.63 70.4801 104.904 70.5179 105.173 70.5811L104.632 73.2325C104.948 73.3028 105.278 73.2767 105.579 73.1575C105.837 73.0412 106 72.8125 106.071 72.4713C106.106 72.3301 106.11 72.1827 106.082 72.0397C106.054 71.8968 105.995 71.7618 105.908 71.6446C105.807 71.511 105.677 71.4025 105.527 71.3275L105.651 70.728C105.805 70.7841 105.948 70.8692 106.072 70.9786C106.206 71.0868 106.322 71.2161 106.416 71.3613C106.562 71.5891 106.642 71.8536 106.645 72.1246C106.65 72.2957 106.634 72.4668 106.598 72.6341C106.556 72.8509 106.469 73.0563 106.342 73.2364C106.215 73.4166 106.051 73.5673 105.861 73.6786C105.465 73.9239 104.967 73.9845 104.37 73.8605C103.772 73.7364 103.326 73.4799 103.032 73.0908C102.884 72.9024 102.78 72.6827 102.729 72.4483C102.678 72.2139 102.681 71.9709 102.737 71.7377C102.79 71.4776 102.904 71.2339 103.069 71.0272ZM104.555 71.1012C104.329 71.0675 104.099 71.0812 103.879 71.1414C103.548 71.2471 103.343 71.4938 103.263 71.8814C103.234 72.0135 103.233 72.1505 103.261 72.2829C103.289 72.4154 103.345 72.5402 103.425 72.6489C103.599 72.8865 103.855 73.051 104.142 73.1109L104.555 71.1012Z" fill="#0C3985"/>
<path d="M101.875 69.1008L101.937 68.4993L103.789 68.6906C103.63 68.5449 103.508 68.3639 103.431 68.162C103.355 67.9622 103.329 67.7473 103.353 67.5351C103.367 67.3245 103.427 67.1197 103.53 66.9353C103.632 66.751 103.774 66.5915 103.944 66.4684C104.292 66.2168 104.776 66.1227 105.398 66.1861C105.986 66.2468 106.461 66.4381 106.822 66.7602C106.996 66.9102 107.13 67.1016 107.211 67.317C107.292 67.5324 107.318 67.7648 107.286 67.9929C107.269 68.2455 107.172 68.4859 107.008 68.679C106.884 68.8101 106.741 68.9208 106.582 69.0067L107.058 69.0564L107 69.6273L101.875 69.1008ZM106.401 67.1831C106.15 66.9886 105.804 66.8687 105.362 66.8236C105.022 66.7754 104.675 66.8272 104.363 66.9727C104.232 67.0368 104.12 67.135 104.039 67.2571C103.958 67.3792 103.91 67.5208 103.902 67.6673C103.888 67.8058 103.902 67.9458 103.943 68.0787C103.984 68.2116 104.053 68.3346 104.143 68.4401C104.333 68.6748 104.669 68.8157 105.154 68.8629C105.442 68.9024 105.736 68.8877 106.019 68.8196C106.213 68.7767 106.388 68.6705 106.516 68.5176C106.644 68.3647 106.719 68.1735 106.727 67.9738C106.75 67.8249 106.732 67.6724 106.675 67.533C106.618 67.3936 106.524 67.2726 106.403 67.1831H106.401Z" fill="#0C3985"/>
<g opacity="0.8">
<path d="M45.7253 118.244L45.3916 118.108L46.6084 115.119L46.9421 115.256L46.7727 115.672C46.9505 115.585 47.1387 115.522 47.3327 115.483C47.5255 115.451 47.7234 115.476 47.9021 115.556C48.0723 115.624 48.2272 115.725 48.3579 115.854C48.4882 115.988 48.5749 116.159 48.6063 116.343C48.6331 116.47 48.6295 116.601 48.5958 116.726C48.5613 116.85 48.5199 116.971 48.4716 117.09L47.6748 119.047L47.3411 118.91L48.1358 116.959C48.2411 116.689 48.2695 116.464 48.2105 116.282C48.1516 116.1 47.9863 115.954 47.72 115.844C47.6239 115.804 47.5211 115.781 47.4169 115.778C47.3213 115.775 47.2259 115.787 47.1337 115.813C47.0452 115.838 46.9608 115.876 46.8832 115.926C46.8089 115.974 46.7416 116.032 46.6832 116.099C46.6148 116.176 46.5561 116.261 46.5084 116.352C46.4653 116.437 46.4232 116.532 46.38 116.636L45.7253 118.244Z" fill="#0C3985"/>
<path d="M50.4044 118.007C50.4717 118.021 50.5517 118.034 50.6465 118.049C50.726 118.063 50.8072 118.066 50.8875 118.058C50.9195 118.054 50.9501 118.042 50.9766 118.024C51.003 118.005 51.0245 117.981 51.0391 117.952C51.0716 117.897 51.0984 117.839 51.1191 117.778C51.1497 117.698 51.1637 117.611 51.1605 117.525C51.1572 117.438 51.1367 117.354 51.1002 117.275C51.0275 117.122 50.858 116.999 50.5928 116.911C50.4843 116.873 50.3721 116.847 50.258 116.833C50.1584 116.821 50.0573 116.83 49.9612 116.859C49.8665 116.889 49.78 116.941 49.7086 117.01C49.6197 117.096 49.5482 117.199 49.498 117.312L49.1517 117.196C49.2116 117.037 49.305 116.893 49.4254 116.773C49.5304 116.672 49.6567 116.595 49.7949 116.549C49.9352 116.504 50.0828 116.487 50.2296 116.497C50.3903 116.509 50.5488 116.542 50.7012 116.594C50.8422 116.641 50.9769 116.705 51.1023 116.785C51.2153 116.857 51.3133 116.95 51.3907 117.06C51.4639 117.17 51.5084 117.297 51.5202 117.43C51.5311 117.592 51.5081 117.754 51.4528 117.906L50.8949 119.574C50.8496 119.712 50.8433 119.807 50.878 119.861C50.9128 119.915 51.0117 119.938 51.1749 119.931L51.0823 120.209H50.9528C50.8991 120.208 50.8459 120.198 50.7949 120.181C50.7429 120.164 50.6931 120.141 50.6465 120.112C50.598 120.089 50.5574 120.052 50.5296 120.006C50.505 119.965 50.4889 119.919 50.4823 119.872C50.4739 119.822 50.4739 119.771 50.4823 119.721C50.4923 119.666 50.5071 119.612 50.5265 119.56C50.336 119.673 50.1241 119.745 49.9044 119.771C49.6861 119.794 49.4655 119.769 49.258 119.697C49.1318 119.655 49.0123 119.595 48.9033 119.519C48.7989 119.447 48.7101 119.354 48.6423 119.247C48.5765 119.141 48.5342 119.023 48.518 118.899C48.5028 118.759 48.5201 118.617 48.5686 118.485C48.7419 117.965 49.1879 117.773 49.9065 117.91L50.4044 118.007ZM50.9202 118.378C50.7599 118.393 50.5983 118.385 50.4402 118.355C50.2854 118.324 50.1328 118.29 49.9802 118.249C49.762 118.181 49.5297 118.174 49.3075 118.227C49.1778 118.276 49.068 118.368 48.9952 118.486C48.9223 118.605 48.8904 118.745 48.9044 118.883C48.9165 118.962 48.9456 119.037 48.9896 119.103C49.0353 119.17 49.0936 119.228 49.1612 119.272C49.2308 119.32 49.3066 119.358 49.3865 119.384C49.5208 119.43 49.6607 119.457 49.8023 119.465C49.9366 119.474 50.0715 119.458 50.2002 119.418C50.3253 119.38 50.44 119.313 50.5349 119.223C50.6396 119.121 50.7171 118.994 50.7602 118.854L50.9202 118.378Z" fill="#0C3985"/>
<path d="M54.2789 118.79C54.2869 118.566 54.2259 118.344 54.1041 118.156C53.978 117.978 53.7903 117.853 53.5778 117.807C53.4187 117.76 53.2498 117.757 53.0894 117.799C52.9428 117.841 52.808 117.917 52.6957 118.02C52.5782 118.13 52.4793 118.258 52.4031 118.4C52.3235 118.547 52.2617 118.703 52.2189 118.864C52.1761 119.026 52.1517 119.193 52.1462 119.361C52.1411 119.52 52.1631 119.679 52.2115 119.83C52.2588 119.974 52.3392 120.105 52.4462 120.212C52.5676 120.328 52.7177 120.409 52.881 120.448C53.107 120.519 53.352 120.499 53.5631 120.391C53.7719 120.268 53.9341 120.08 54.0241 119.855L54.3957 119.954C54.3244 120.11 54.2327 120.256 54.1231 120.387C54.0228 120.508 53.9015 120.609 53.7652 120.686C53.6282 120.761 53.4774 120.808 53.322 120.823C52.921 120.851 52.5238 120.729 52.2073 120.48C52.0599 120.356 51.9444 120.198 51.8704 120.019C51.7949 119.833 51.757 119.633 51.7589 119.432C51.7585 119.207 51.7882 118.983 51.8473 118.766C51.9023 118.554 51.9881 118.352 52.102 118.165C52.2083 117.99 52.3448 117.835 52.5052 117.707C52.6605 117.587 52.8401 117.502 53.0315 117.458C53.2407 117.414 53.4576 117.422 53.6631 117.481C53.9697 117.547 54.2439 117.719 54.4389 117.965C54.6073 118.195 54.6704 118.5 54.6283 118.881L54.2789 118.79Z" fill="#0C3985"/>
<path d="M54.7778 121.187L55.641 116.78L55.9947 116.85L55.6663 118.527C55.8239 118.407 55.9962 118.309 56.1789 118.234C56.3621 118.164 56.5617 118.151 56.7526 118.195C56.9325 118.228 57.104 118.298 57.2568 118.399C57.4101 118.505 57.5276 118.656 57.5936 118.831C57.6445 118.951 57.6665 119.08 57.6578 119.21C57.6471 119.337 57.6292 119.465 57.6041 119.59L57.1978 121.664L56.8452 121.595L57.2505 119.526C57.3059 119.244 57.287 119.018 57.1936 118.847C57.0999 118.681 56.9115 118.569 56.6284 118.513C56.5244 118.491 56.4173 118.489 56.3126 118.507C56.176 118.529 56.0461 118.582 55.9323 118.661C55.8185 118.74 55.7237 118.844 55.6547 118.964C55.6021 119.052 55.5611 119.146 55.5326 119.245C55.5063 119.338 55.482 119.438 55.4599 119.549L55.1263 121.256L54.7778 121.187Z" fill="#0C3985"/>
<path d="M60.1179 120.915C59.9564 120.792 59.8184 120.641 59.7105 120.468C59.6158 120.302 59.5788 120.108 59.6052 119.918C59.6203 119.719 59.7049 119.532 59.8442 119.39C59.9799 119.251 60.1471 119.147 60.3315 119.087C60.2551 118.979 60.1899 118.864 60.1368 118.743C60.0857 118.616 60.068 118.478 60.0852 118.342C60.0976 118.224 60.1334 118.109 60.1905 118.005C60.2477 117.899 60.3279 117.807 60.4252 117.736C60.5328 117.659 60.6549 117.604 60.7842 117.575C60.9396 117.54 61.0997 117.531 61.2579 117.549C61.5912 117.582 61.8368 117.706 61.9947 117.923C62.1602 118.169 62.2258 118.47 62.1779 118.763L61.8547 118.73C61.8842 118.521 61.8391 118.308 61.7273 118.128C61.6242 117.988 61.4452 117.905 61.1905 117.881C61.0203 117.858 60.8474 117.893 60.6989 117.979C60.6275 118.028 60.5688 118.093 60.5277 118.169C60.4867 118.245 60.4645 118.33 60.4631 118.417C60.4489 118.559 60.49 118.7 60.5779 118.811C60.6791 118.944 60.7961 119.064 60.9263 119.168C61.0666 119.285 61.22 119.401 61.3863 119.514C61.5465 119.625 61.6998 119.746 61.8452 119.876C61.9796 119.995 62.095 120.135 62.1873 120.289C62.2747 120.437 62.3116 120.609 62.2926 120.779C62.2843 120.889 62.2554 120.997 62.2073 121.096C62.1631 121.184 62.1063 121.265 62.0389 121.336C61.9706 121.408 61.8935 121.471 61.8094 121.523C61.7242 121.578 61.6347 121.629 61.541 121.685C61.5589 121.707 61.5852 121.741 61.6221 121.783C61.6619 121.831 61.6971 121.883 61.7273 121.938C61.7624 122.004 61.7889 122.075 61.8063 122.149C61.8269 122.232 61.8326 122.318 61.8231 122.404C61.8122 122.547 61.7698 122.687 61.6989 122.812C61.6351 122.922 61.5478 123.017 61.4431 123.09C61.3366 123.163 61.2167 123.214 61.0905 123.24C60.955 123.27 60.8157 123.277 60.6779 123.262C60.5304 123.256 60.3859 123.219 60.2536 123.153C60.1214 123.087 60.0045 122.994 59.9105 122.879C59.7305 122.633 59.6476 122.328 59.6779 122.023L60.0358 122.058C60.0009 122.27 60.0479 122.488 60.1673 122.667C60.235 122.747 60.3188 122.811 60.4132 122.856C60.5075 122.901 60.6103 122.925 60.7147 122.927C60.798 122.935 60.8821 122.931 60.9642 122.914C61.0436 122.898 61.1193 122.868 61.1873 122.823C61.2546 122.78 61.312 122.723 61.3558 122.655C61.402 122.581 61.4298 122.497 61.4368 122.41C61.4472 122.316 61.4349 122.221 61.401 122.133C61.3661 122.047 61.3189 121.967 61.261 121.894C61.2022 121.818 61.1363 121.747 61.0642 121.683C60.994 121.619 60.9238 121.559 60.8536 121.502L60.1179 120.915ZM60.5168 119.306C60.3674 119.352 60.2288 119.428 60.1094 119.529C60.0032 119.625 59.9383 119.758 59.9284 119.9C59.9205 119.975 59.9295 120.051 59.9547 120.122C59.9806 120.192 60.016 120.257 60.06 120.317C60.1025 120.379 60.1512 120.436 60.2052 120.488C60.261 120.542 60.3158 120.594 60.3715 120.639L61.3652 121.459C61.4326 121.428 61.5 121.392 61.5684 121.353C61.6359 121.314 61.6991 121.268 61.7568 121.215C61.8114 121.164 61.8579 121.105 61.8947 121.04C61.9324 120.969 61.9553 120.892 61.9621 120.812C61.9705 120.733 61.9607 120.654 61.9336 120.58C61.9064 120.508 61.868 120.441 61.82 120.381C61.7715 120.32 61.7176 120.263 61.6589 120.211C61.6 120.159 61.5421 120.112 61.4863 120.068L60.5168 119.306Z" fill="#0C3985"/>
<path d="M64.5265 121.231C64.5363 121.36 64.5719 121.486 64.6312 121.601C64.6906 121.716 64.7723 121.818 64.8717 121.901C65.0728 122.053 65.3193 122.131 65.5707 122.123C65.7157 122.124 65.8593 122.095 65.9917 122.035C66.1129 121.979 66.2206 121.898 66.3075 121.796C66.3968 121.692 66.4651 121.571 66.5086 121.44C66.556 121.298 66.5795 121.15 66.578 121C66.5794 120.847 66.5541 120.695 66.5033 120.551C66.4564 120.42 66.3849 120.299 66.2928 120.196C66.2015 120.095 66.0889 120.016 65.9633 119.965C65.8252 119.909 65.6774 119.882 65.5286 119.884C65.3506 119.88 65.1739 119.916 65.0117 119.989C64.8515 120.07 64.7134 120.189 64.6096 120.335L64.2938 120.292L64.637 118.015H66.737V118.352H64.9664L64.7012 119.832C64.7854 119.778 64.8622 119.733 64.9328 119.695C65.0002 119.659 65.0707 119.628 65.1433 119.605C65.2167 119.582 65.2921 119.567 65.3686 119.559C65.4553 119.55 65.5424 119.546 65.6296 119.547C65.8123 119.545 65.9936 119.579 66.1633 119.647C66.3221 119.712 66.4656 119.809 66.5843 119.933C66.7081 120.065 66.8031 120.222 66.8633 120.392C66.9319 120.588 66.9654 120.794 66.9622 121.001C66.9657 121.213 66.9278 121.423 66.8507 121.621C66.7831 121.792 66.6822 121.948 66.5538 122.08C66.4319 122.203 66.2856 122.3 66.1243 122.363C65.9651 122.427 65.7949 122.46 65.6233 122.459C65.4345 122.461 65.2461 122.44 65.0622 122.397C64.8963 122.359 64.7401 122.287 64.6033 122.185C64.4704 122.084 64.3623 121.954 64.2875 121.805C64.1989 121.625 64.1487 121.429 64.1401 121.228L64.5265 121.231Z" fill="#0C3985"/>
<path d="M69.6337 118.888C69.5875 118.689 69.4835 118.507 69.3348 118.367C69.2588 118.303 69.1706 118.255 69.0756 118.227C68.9805 118.198 68.8807 118.189 68.7821 118.201C68.5601 118.204 68.3466 118.287 68.1811 118.436C68.0357 118.578 67.9273 118.753 67.8653 118.947C67.7965 119.159 67.7565 119.379 67.7463 119.602C67.7337 119.836 67.7263 120.057 67.7242 120.267C67.779 120.179 67.8358 120.092 67.8969 120.005C67.9567 119.917 68.0275 119.838 68.1074 119.769C68.1919 119.696 68.2875 119.636 68.3906 119.593C68.5171 119.543 68.6512 119.513 68.7874 119.507C69.2148 119.478 69.5537 119.582 69.8042 119.816C70.0548 120.051 70.1951 120.389 70.2253 120.829C70.2548 121.273 70.1604 121.63 69.9421 121.899C69.7239 122.168 69.399 122.317 68.9674 122.346C68.7665 122.361 68.5647 122.338 68.3727 122.276C68.1834 122.213 68.0142 122.1 67.8821 121.95C67.7236 121.766 67.603 121.552 67.5274 121.321C67.4237 121.006 67.3635 120.679 67.3485 120.348C67.3309 120.076 67.3347 119.803 67.36 119.531C67.3823 119.262 67.4448 118.997 67.5453 118.747C67.6383 118.514 67.7851 118.307 67.9737 118.143C68.1861 117.971 68.4493 117.874 68.7221 117.868C69.0236 117.835 69.3271 117.91 69.579 118.079C69.7015 118.172 69.8043 118.289 69.8813 118.422C69.9583 118.555 70.008 118.703 70.0274 118.855L69.6337 118.888ZM68.8011 119.84C68.6632 119.847 68.5289 119.886 68.4085 119.954C68.2965 120.018 68.1998 120.105 68.1253 120.211C68.0488 120.319 67.9928 120.44 67.96 120.568C67.9241 120.706 67.9113 120.849 67.9221 120.991C67.9311 121.118 67.9566 121.244 67.9979 121.364C68.0396 121.487 68.1042 121.6 68.1884 121.698C68.2759 121.798 68.3836 121.878 68.5042 121.933C68.6455 121.995 68.8004 122.019 68.9537 122.003C69.1103 121.998 69.2633 121.954 69.399 121.876C69.5125 121.808 69.6084 121.713 69.679 121.601C69.7481 121.489 69.7959 121.365 69.82 121.235C69.8454 121.104 69.8535 120.97 69.8442 120.837C69.8221 120.496 69.7253 120.239 69.5558 120.065C69.3863 119.89 69.1327 119.822 68.8011 119.844V119.84Z" fill="#0C3985"/>
<path d="M72.5906 121.895L71.8169 117.472L72.219 117.401L72.6201 119.692L74.4001 117.022L74.8548 116.941L73.4864 119.001L75.9264 121.312L75.4358 121.398L73.2422 119.31L72.6958 120.121L72.9948 121.83L72.5906 121.895Z" fill="#0C3985"/>
<path d="M76.1274 121.264L76.6316 116.486L77.079 116.369L79.8159 120.288L79.4095 120.394L78.5674 119.158L76.6695 119.665L76.5338 121.158L76.1274 121.264ZM76.7117 119.277L78.3485 118.845L76.9327 116.781L76.7117 119.277Z" fill="#0C3985"/>
<path d="M79.46 116.274H79.4484L80.7663 119.961L80.3821 120.099L78.8716 115.87L79.3063 115.713L82.9758 118.559H82.9874L81.6674 114.866L82.0516 114.728L83.5621 118.956L83.1158 119.117L79.46 116.274Z" fill="#0C3985"/>
<path d="M85.3327 116.018L85.1801 115.691L86.8527 114.901L87.8348 117.001L87.5191 117.15L87.1938 116.456C87.1827 116.605 87.1555 116.754 87.1127 116.897C87.0705 117.039 87.007 117.174 86.9243 117.296C86.8333 117.429 86.7234 117.547 86.598 117.647C86.4471 117.766 86.2829 117.867 86.1085 117.947C85.8745 118.06 85.6197 118.124 85.3601 118.134C85.1081 118.143 84.8575 118.092 84.6285 117.986C84.3727 117.865 84.1442 117.693 83.957 117.48C83.7228 117.215 83.53 116.915 83.3854 116.592C83.2518 116.312 83.1572 116.014 83.1043 115.708C83.0563 115.433 83.0631 115.151 83.1243 114.878C83.1871 114.616 83.3084 114.372 83.4791 114.164C83.6771 113.93 83.925 113.745 84.2043 113.621C84.399 113.528 84.606 113.463 84.8191 113.428C85.0167 113.396 85.2186 113.4 85.4148 113.439C85.611 113.48 85.7975 113.559 85.9643 113.67C86.1493 113.796 86.3107 113.955 86.4412 114.137L86.0612 114.317C85.9634 114.187 85.8428 114.075 85.7054 113.988C85.576 113.907 85.4335 113.849 85.2843 113.818C85.1356 113.788 84.983 113.784 84.8327 113.804C84.6773 113.824 84.526 113.869 84.3843 113.936C84.1528 114.038 83.9483 114.194 83.7875 114.39C83.6484 114.569 83.5558 114.779 83.518 115.003C83.4787 115.249 83.4869 115.5 83.5422 115.743C83.6049 116.029 83.7002 116.306 83.8264 116.57C83.9272 116.789 84.0607 116.991 84.2222 117.169C84.3713 117.336 84.5497 117.473 84.7485 117.574C84.9403 117.671 85.1508 117.725 85.3654 117.732C85.595 117.736 85.8225 117.685 86.0285 117.584C86.1381 117.531 86.2418 117.467 86.338 117.393C86.4398 117.315 86.5301 117.222 86.6064 117.118C86.687 117.009 86.7511 116.887 86.797 116.759C86.8472 116.617 86.8736 116.467 86.8748 116.316C86.8771 116.16 86.8569 116.005 86.8148 115.855C86.7705 115.698 86.7152 115.544 86.6496 115.395L85.3327 116.018Z" fill="#0C3985"/>
</g>
<path d="M64 126.536C98.2417 126.536 126 98.6579 126 64.2681C126 29.8784 98.2417 2 64 2C29.7583 2 2 29.8784 2 64.2681C2 98.6579 29.7583 126.536 64 126.536Z" stroke="white" stroke-width="4" stroke-miterlimit="10"/>
<path d="M125.947 64.2153C125.947 29.8547 98.2127 2 64.0001 2C29.7875 2 2.05273 29.8547 2.05273 64.2153V159.785C2.05273 194.145 29.7875 222 64.0001 222C98.2127 222 125.947 194.145 125.947 159.785V64.2153Z" stroke="white" stroke-width="4" stroke-miterlimit="10"/>
</svg>
