<svg width="85" height="137" viewBox="0 0 85 137" fill="none" xmlns="http://www.w3.org/2000/svg">
<rect width="84" height="136.752" transform="translate(0.723633)" fill="#FF7E00" fill-opacity="0.7"/>
<g clip-path="url(#clip0_1127_2556)">
<path d="M38.2913 68.0735C37.7762 69.245 37.0367 70.2986 36.1167 71.1717C34.3106 72.8567 31.9492 73.7788 29.5069 73.7527H29.3916C27.9727 73.7312 26.5747 73.3984 25.2918 72.7768C24.0089 72.1552 22.8708 71.2591 21.9542 70.1489C20.1333 67.9671 19.3089 65.1965 19.6919 62.5373C20.3167 57.7579 24.4566 54.1558 29.3219 54.1558C31.959 54.1558 34.5571 55.3432 36.451 57.412C37.3896 58.4333 38.1166 59.6388 38.5883 60.9558H42.621C41.8646 57.5935 39.8982 54.6473 37.1147 52.7056L35.9593 51.9273L36.9038 50.9944L36.9524 50.9428C39.325 48.154 40.3912 45.5713 40.3912 42.5663C40.3912 36.8771 36.3341 31.9629 30.9658 31.1198C30.1649 30.9916 29.3514 30.967 28.5445 31.0466C23.4293 31.4075 19.1905 35.5816 18.4553 40.9881V41.0579C18.246 45.0757 19.4112 48.6013 21.7464 50.9944L22.7023 51.9373L21.6134 52.694C20.0589 53.7362 18.7363 55.1028 17.7322 56.7043C16.728 58.3059 16.0648 60.1065 15.7858 61.9886V62.0318C15.6114 64.0508 15.8506 66.0848 16.488 68.0036C17.1255 69.9223 18.1471 71.6834 19.4874 73.174C22.084 76.056 25.552 77.6391 29.2862 77.6391H29.3965C33.129 77.6076 36.5889 76.2688 39.1173 73.8691C39.6033 73.4076 40.0527 72.9071 40.461 72.3724C40.1465 71.9018 39.8567 71.4144 39.5928 70.9123C39.0789 70.0068 38.6433 69.0569 38.2913 68.0735ZM21.9964 42.0574V42.0258C22.2804 38.2757 25.2859 35.1126 28.8577 34.805C29.6253 34.805 29.9337 34.8216 30.0538 34.8316L30.0797 34.8449L30.2193 34.8632C33.9518 35.3205 36.7723 38.6316 36.7723 42.5663C36.7723 46.5009 33.7571 49.8835 29.8996 50.3275H28.8236C24.674 49.6706 21.9964 46.4294 21.9964 42.0574Z" fill="white"/>
<path d="M54.3563 45.5096C52.2271 45.5096 50.2602 46.0401 46.6851 47.6349L46.737 36.6757H65.1741V32.46H42.5696L42.5014 52.4527H47.0843L47.3245 52.2531C49.5135 50.4514 52.2814 49.5546 55.0833 49.7392C57.8853 49.9239 60.5182 51.1767 62.464 53.2509C64.6407 55.5143 65.8583 58.5661 65.8525 61.7439C65.8525 68.3777 60.6951 73.7758 54.3563 73.7758C51.5911 73.7706 48.9243 72.7235 46.8636 70.8339C44.7978 68.9323 43.443 66.3526 43.0321 63.5383L42.9201 62.775H38.9961L39.1162 63.7811C39.1162 63.8127 39.1243 63.8426 39.1292 63.8759C39.4253 66.2628 40.228 68.5543 41.4807 70.5895C44.2395 75.0713 49.022 77.9899 54.3563 77.9899C62.8291 77.9899 69.7246 70.7025 69.7246 61.7439C69.7246 52.7853 62.8291 45.5096 54.3563 45.5096Z" fill="white"/>
</g>
<path d="M28.4878 86.7812V93.1099C28.5118 93.5332 28.4464 93.9568 28.2965 94.3482C28.1466 94.7396 27.9163 95.0883 27.6233 95.3674C26.9581 95.9236 26.1312 96.2 25.2941 96.1459C24.4099 96.1969 23.5381 95.9014 22.8364 95.3129C22.5273 95.0276 22.2827 94.6685 22.1216 94.2635C21.9606 93.8585 21.8873 93.4185 21.9076 92.9776H24.2582C24.2375 93.2946 24.3267 93.6085 24.5082 93.8572C24.6007 93.9598 24.7124 94.0393 24.8357 94.0904C24.9591 94.1414 25.0911 94.1628 25.2227 94.1531C25.3431 94.1614 25.4638 94.1421 25.5771 94.0965C25.6903 94.0509 25.7935 93.98 25.88 93.8884C25.9658 93.7829 26.0311 93.6595 26.0716 93.5257C26.1121 93.3918 26.1272 93.2503 26.1158 93.1099V86.7812H28.4878Z" fill="white"/>
<path d="M30.4417 90.1834C30.7496 89.6107 31.2066 89.1395 31.7605 88.8234C32.3325 88.4996 32.9754 88.3342 33.627 88.3435C34.1583 88.3327 34.6852 88.4447 35.1695 88.6715C35.5772 88.8598 35.9306 89.1547 36.1953 89.5274V88.4555H38.7405V96.0469H36.1953V94.967C35.9212 95.3366 35.5636 95.6306 35.1541 95.8229C34.6709 96.0534 34.1432 96.1656 33.6116 96.1509C32.965 96.1592 32.3273 95.9939 31.7605 95.6709C31.2058 95.3488 30.749 94.8723 30.4417 94.295C30.1226 93.6603 29.9561 92.955 29.9561 92.2392C29.9561 91.5234 30.1226 90.8181 30.4417 90.1834ZM35.6631 90.8793C35.3043 90.5573 34.8457 90.3801 34.3713 90.3801C33.8968 90.3801 33.4382 90.5573 33.0794 90.8793C32.8993 91.0528 32.7582 91.2653 32.6662 91.5017C32.5743 91.7381 32.5336 91.9927 32.5472 92.2472C32.5351 92.5028 32.5764 92.758 32.6683 92.9955C32.7601 93.233 32.9003 93.447 33.0794 93.6231C33.4273 93.9624 33.8899 94.1463 34.3674 94.135C34.8459 94.1471 35.3103 93.9665 35.6631 93.6311C36.004 93.2618 36.1942 92.7704 36.1942 92.2592C36.1942 91.748 36.004 91.2565 35.6631 90.8873V90.8793Z" fill="white"/>
<path d="M47.4115 89.2741C47.7023 89.59 47.9275 89.9684 48.0723 90.3843C48.217 90.8003 48.2781 91.2444 48.2513 91.6875V96.1522H45.7917V92.0012C45.8035 91.7828 45.7715 91.5642 45.6977 91.3602C45.624 91.1561 45.5103 90.9715 45.3643 90.8187C45.0451 90.5445 44.6484 90.3951 44.2395 90.3951C43.8306 90.3951 43.4338 90.5445 43.1146 90.8187C42.9696 90.9719 42.857 91.1568 42.7845 91.3609C42.7121 91.5649 42.6814 91.7833 42.6947 92.0012V96.1522H40.2051V86H42.6872V89.5074C42.9632 89.1532 43.3159 88.877 43.7145 88.703C44.1894 88.4919 44.7005 88.3904 45.2143 88.4053C46.0246 88.3744 46.8137 88.6865 47.4115 89.2741Z" fill="white"/>
<path d="M52.8344 88.7095C53.2301 88.4616 53.6684 88.3358 54.1119 88.3431V90.843H53.5127C53.0818 90.8055 52.6526 90.9396 52.2879 91.2257C52.1398 91.393 52.0257 91.6011 51.9548 91.8331C51.8839 92.0651 51.8581 92.3145 51.8796 92.5611V96.1522H49.7197V88.4245H51.8994V89.7111C52.1459 89.2942 52.4656 88.9518 52.8344 88.7095Z" fill="white"/>
<path d="M62.8635 92.8109H57.2965C57.3031 93.017 57.3494 93.2193 57.4326 93.405C57.5158 93.5907 57.6339 93.7558 57.7796 93.8898C58.0744 94.1432 58.443 94.2763 58.8202 94.2654C59.0768 94.291 59.3348 94.235 59.5621 94.1042C59.7894 93.9735 59.9759 93.7739 60.0986 93.5302H62.7297C62.589 94.0369 62.3337 94.4983 61.9864 94.8728C61.6159 95.285 61.1672 95.6066 60.6709 95.8158C60.1061 96.0464 59.506 96.1602 58.902 96.1515C58.177 96.1642 57.4584 96.0031 56.7986 95.68C56.2107 95.3819 55.7133 94.9108 55.3641 94.3214C55.0081 93.7001 54.8274 92.9811 54.8438 92.2515C54.8295 91.5258 55.0074 90.8107 55.3566 90.1896C55.6968 89.591 56.193 89.113 56.7837 88.8151C57.4432 88.5036 58.1556 88.3428 58.8759 88.3428C59.5962 88.3428 60.3087 88.5036 60.9682 88.8151C61.5595 89.0992 62.0585 89.5666 62.4014 90.1575C62.7444 90.7483 62.9156 91.4356 62.8932 92.1316C62.9006 92.3634 62.8858 92.5872 62.8635 92.8109ZM60.3885 91.5163C60.3932 91.3321 60.3565 91.1495 60.2814 90.9839C60.2064 90.8183 60.0952 90.6747 59.9574 90.5652C59.6438 90.3238 59.2651 90.2003 58.8797 90.2136C58.5065 90.197 58.1393 90.3183 57.8391 90.5572C57.6953 90.6704 57.5744 90.8137 57.4837 90.9785C57.393 91.1434 57.3344 91.3263 57.3114 91.5163H60.3885Z" fill="white"/>
<path d="M22.2188 103.174V103.822H23.3564V104.425H22.2188V105.126H23.5055V105.752H21.3701V102.549H23.5055V103.174H22.2188Z" fill="white"/>
<path d="M25.7789 105.742L25.0695 104.537H24.8673V105.742H24.0391V102.55H25.4242C25.6591 102.543 25.8928 102.588 26.1106 102.682C26.2822 102.755 26.4297 102.881 26.5344 103.044C26.6274 103.196 26.6762 103.374 26.6745 103.556C26.676 103.763 26.6081 103.965 26.483 104.124C26.3379 104.306 26.1421 104.433 25.9243 104.488L26.7082 105.752L25.7789 105.742ZM24.8726 103.988H25.387C25.5087 103.997 25.6296 103.96 25.7275 103.882C25.7665 103.845 25.7972 103.799 25.8172 103.748C25.8372 103.697 25.8459 103.641 25.8427 103.586C25.8449 103.532 25.8357 103.478 25.8158 103.429C25.7958 103.379 25.7656 103.335 25.7275 103.3C25.6294 103.223 25.5085 103.186 25.387 103.196H24.8726V103.988Z" fill="white"/>
<path d="M29.5623 102.75C29.8287 102.872 30.0552 103.069 30.2148 103.318C30.3655 103.568 30.4452 103.857 30.4452 104.15C30.4452 104.444 30.3655 104.732 30.2148 104.983C30.0546 105.233 29.8266 105.43 29.5585 105.551C29.2498 105.69 28.9147 105.759 28.577 105.751H27.2422V102.549H28.577C28.9159 102.541 29.2524 102.61 29.5623 102.75ZM29.2871 104.832C29.3804 104.746 29.4535 104.641 29.5012 104.523C29.5488 104.405 29.5697 104.278 29.5623 104.15C29.5695 104.022 29.5485 103.894 29.5009 103.775C29.4533 103.656 29.3803 103.55 29.2871 103.463C29.0704 103.288 28.7974 103.201 28.5212 103.219H28.1104V105.072H28.5212C28.7974 105.087 29.0696 105 29.2871 104.826V104.832Z" fill="white"/>
<path d="M31.1293 105.6C31.0828 105.556 31.0451 105.499 31.0192 105.433C30.9932 105.368 30.9796 105.296 30.9795 105.223C30.9791 105.15 30.9923 105.077 31.0183 105.011C31.0443 104.944 31.0823 104.886 31.1293 104.842C31.2405 104.74 31.3751 104.685 31.5133 104.685C31.6515 104.685 31.7861 104.74 31.8974 104.842C31.9444 104.886 31.9823 104.944 32.0083 105.011C32.0343 105.077 32.0476 105.15 32.0472 105.223C32.047 105.296 32.0334 105.368 32.0075 105.433C31.9815 105.499 31.9438 105.556 31.8974 105.6C31.7851 105.699 31.6509 105.752 31.5133 105.752C31.3757 105.752 31.2416 105.699 31.1293 105.6Z" fill="white"/>
<path d="M34.0334 102.549V104.446C34.0276 104.526 34.0398 104.606 34.0691 104.682C34.0985 104.757 34.1443 104.826 34.2038 104.884C34.3415 104.995 34.52 105.05 34.7009 105.038C34.884 105.049 35.0647 104.994 35.206 104.884C35.2668 104.827 35.3138 104.758 35.3439 104.683C35.374 104.607 35.3864 104.526 35.3804 104.446V102.549H36.3166V104.442C36.3255 104.697 36.2491 104.947 36.0981 105.159C35.9501 105.356 35.7458 105.51 35.5087 105.603C35.2476 105.704 34.9673 105.755 34.6848 105.752C34.4097 105.755 34.1367 105.705 33.883 105.605C33.6516 105.513 33.4542 105.359 33.3157 105.163C33.1746 104.946 33.1048 104.695 33.1153 104.442V102.549H34.0334Z" fill="white"/>
<path d="M39.5207 105.752H38.7939L37.5784 103.777V105.752H36.8516V102.549H37.5784L38.7939 104.533V102.549H39.5207V105.752Z" fill="white"/>
<path d="M42.5221 102.75C42.7439 102.872 42.9324 103.069 43.0653 103.318C43.1907 103.568 43.2571 103.857 43.2571 104.15C43.2571 104.444 43.1907 104.732 43.0653 104.983C42.9319 105.233 42.7422 105.43 42.519 105.551C42.2621 105.69 41.9831 105.759 41.702 105.751H40.5879V102.55H41.6989C41.9821 102.541 42.2633 102.609 42.5221 102.75ZM42.2931 104.832C42.3707 104.746 42.4316 104.641 42.4713 104.523C42.5109 104.405 42.5283 104.278 42.5221 104.15C42.5281 104.022 42.5107 103.894 42.4711 103.775C42.4315 103.657 42.3707 103.55 42.2931 103.464C42.1124 103.289 41.8854 103.202 41.6556 103.219H41.3136V105.072H41.6556C41.8844 105.086 42.1097 104.999 42.29 104.826L42.2931 104.832Z" fill="white"/>
<path d="M47.5285 102.549V103.174H46.6142V105.752H45.7737V103.174H44.8594V102.549H47.5285Z" fill="white"/>
<path d="M48.596 102.549V105.752H47.5283V102.549H48.596Z" fill="white"/>
<path d="M49.9786 103.174V103.822H51.1144V104.425H49.9786V105.126H51.2652V105.752H49.1299V102.549H51.2652V103.174H49.9786Z" fill="white"/>
<path d="M53.9342 102.549V103.174H52.5979V103.849H53.5971V104.455H52.5979V105.752H51.7988V102.549H53.9342Z" fill="white"/>
<path d="M56.9624 104.385C57.0762 104.52 57.1386 104.697 57.1368 104.88C57.1391 105.004 57.1136 105.126 57.0625 105.236C57.0115 105.347 56.9363 105.442 56.8437 105.514C56.6011 105.685 56.3144 105.768 56.0256 105.749H54.4678V102.551H55.9698C56.251 102.534 56.5303 102.612 56.7687 102.775C56.8599 102.841 56.9341 102.932 56.9845 103.038C57.0348 103.143 57.0596 103.261 57.0566 103.381C57.0618 103.553 57.0062 103.72 56.9013 103.849C56.7923 103.979 56.6502 104.071 56.4931 104.113C56.6735 104.143 56.8392 104.238 56.9624 104.385ZM55.2859 103.846H55.8197C55.9277 103.852 56.035 103.823 56.1268 103.76C56.1624 103.732 56.1909 103.695 56.2098 103.652C56.2287 103.609 56.2374 103.561 56.2349 103.514C56.2373 103.465 56.2287 103.417 56.2098 103.373C56.1909 103.33 56.1624 103.292 56.1268 103.263C56.0358 103.199 55.9281 103.168 55.8197 103.176H55.2859V103.846ZM56.2035 105.032C56.2406 105.003 56.2703 104.963 56.2898 104.918C56.3093 104.873 56.318 104.823 56.3152 104.774C56.3171 104.723 56.3074 104.672 56.287 104.626C56.2666 104.58 56.2362 104.54 56.1983 104.51C56.1036 104.441 55.9909 104.408 55.8773 104.415H55.2859V105.121H55.886C55.9978 105.128 56.1088 105.097 56.2035 105.032Z" fill="white"/>
<path d="M59.6932 105.182H58.3074L58.0845 105.752H57.1367L58.4818 102.549H59.5285L60.8736 105.752H59.9161L59.6932 105.182ZM59.4606 104.581L58.9993 103.408L58.5438 104.581H59.4606Z" fill="white"/>
<path d="M62.1752 102.549V104.446C62.1705 104.526 62.1805 104.606 62.2046 104.681C62.2286 104.757 62.2663 104.826 62.3151 104.884C62.4303 104.994 62.579 105.05 62.7297 105.038C62.8814 105.049 63.031 104.994 63.1477 104.884C63.1985 104.827 63.2378 104.758 63.2631 104.683C63.2884 104.607 63.299 104.526 63.2942 104.446V102.549H64.0769V104.442C64.0837 104.697 64.0197 104.947 63.8937 105.159C63.7719 105.356 63.6026 105.51 63.4058 105.603C63.1889 105.704 62.9561 105.755 62.7214 105.752C62.4895 105.756 62.2593 105.706 62.0453 105.605C61.8538 105.513 61.6905 105.359 61.5757 105.163C61.4577 104.947 61.3997 104.696 61.4092 104.442V102.549H62.1752Z" fill="white"/>
<defs>
<clipPath id="clip0_1127_2556">
<rect width="54" height="47" fill="white" transform="translate(15.7236 31)"/>
</clipPath>
</defs>
</svg>
