<svg width="22" height="21" viewBox="0 0 22 21" fill="none" xmlns="http://www.w3.org/2000/svg">
<path d="M14.1631 0.317513L20.3463 3.99518C21.0603 4.41412 21.4987 5.18439 21.5 6.01829V12.6604C21.5 13.071 21.3933 13.4744 21.1907 13.8304C20.988 14.1863 20.6964 14.4823 20.345 14.6888L10.1692 20.6825L10.1666 20.6839C9.81282 20.8909 9.41123 21 9.00238 21C8.59353 21 8.19193 20.8909 7.83819 20.6839L1.64581 17.0354C1.29668 16.8294 1.00713 16.5346 0.806073 16.1803C0.605013 15.826 0.499478 15.4246 0.500002 15.0162V8.34103C0.500002 7.938 0.602377 7.54822 0.788752 7.2075L0.794002 7.20087L0.807127 7.17568C1.004 6.82833 1.29144 6.53136 1.64713 6.32322L11.8413 0.316188C12.1929 0.10911 12.5926 0 12.9996 0C13.4066 0 13.8063 0.10911 14.1579 0.316188L14.1605 0.317513H14.1631ZM12.8336 2.03305L3.42294 7.57739L8.82519 10.7433C8.8789 10.7745 8.93977 10.7909 9.00172 10.7909C9.06367 10.7909 9.12454 10.7745 9.17825 10.7433L18.5653 5.24405L13.1643 2.03305C13.114 2.00373 13.057 1.98829 12.9989 1.98829C12.9409 1.98829 12.8838 2.00373 12.8336 2.03305ZM2.63806 15.3172L8.01931 18.4897V12.5596C7.95761 12.5304 7.89718 12.4986 7.83819 12.4641L2.46875 9.31811V15.0162C2.46875 15.1422 2.53438 15.2562 2.63806 15.3172ZM13.9256 16.1683L15.9219 14.9924V9.09274L13.9256 10.2621V16.1683ZM10.1666 12.4641H10.1679C10.1101 12.4986 10.0498 12.5291 9.98938 12.5583V18.4871L11.9581 17.327V11.4141L10.1666 12.4641ZM17.8906 13.8323L19.3541 12.9706H19.3567C19.41 12.9394 19.4542 12.8945 19.4848 12.8405C19.5155 12.7865 19.5315 12.7253 19.5312 12.663V6.97814L17.8906 7.93932V13.8323Z" fill="black"/>
</svg>
