<svg width="109" height="189" viewBox="0 0 109 189" fill="none" xmlns="http://www.w3.org/2000/svg">
<path d="M105 53.9108V56.4736C105 84.6404 82.4255 105 54.1667 105C25.9078 105 3 82.1668 3 54C3 25.8332 25.9078 3 54.1667 3H54.2114V26.1818C38.7478 26.1818 26.2128 38.6759 26.2128 54.0892C26.2128 69.5024 38.7478 81.9965 54.2114 81.9965C69.675 81.9965 82.2099 69.5024 82.2099 54.0892C82.2099 54.0294 82.2099 53.9706 82.2099 53.9108H105Z" fill="#0C3985"/>
<path d="M67.8851 25.6648C67.8583 25.6546 67.8339 25.639 67.8133 25.6191C67.7927 25.5992 67.7763 25.5753 67.7652 25.5489C67.7541 25.5224 67.7484 25.4941 67.7485 25.4654C67.7487 25.4367 67.7546 25.4084 67.766 25.3821C68.9535 22.7289 70.8848 20.477 73.3261 18.899C75.7673 17.321 78.6137 16.4846 81.5205 16.4912C89.8184 16.4912 96.5445 23.1587 96.5445 31.3819C96.5476 35.0793 95.1631 38.6432 92.6649 41.3689C92.6507 41.3845 92.6336 41.3972 92.6144 41.4061C92.5953 41.415 92.5746 41.42 92.5535 41.4208C92.5324 41.4217 92.5113 41.4183 92.4915 41.4109C92.4718 41.4035 92.4536 41.3923 92.4383 41.3778C92.4088 41.3499 92.3911 41.3117 92.389 41.2712C92.3868 41.2307 92.4003 41.1908 92.4267 41.16C94.6323 38.5678 95.842 35.2744 95.8387 31.8709C95.8387 23.8921 89.3125 17.4247 81.2591 17.4247C78.5319 17.4194 75.8577 18.1787 73.5402 19.6166C71.2227 21.0544 69.3547 23.1131 68.1482 25.559C68.1254 25.6071 68.0851 25.6447 68.0357 25.6643C67.9862 25.6839 67.9311 25.6841 67.8815 25.6648H67.8851Z" fill="#0C3985"/>
<path d="M38.9375 36.9375L39.5598 34.3594H48.272L47.6497 36.9375H43.827L42.4046 42.8937H39.5598L40.9377 36.9819L38.9375 36.9375Z" fill="#0C3985"/>
<path d="M49.1608 34.3594H53.6058L53.9614 39.0711L55.9172 34.3594H58.9398L54.7615 42.8937H52.0056L51.0722 36.9819H48.6719L49.1608 34.3594Z" fill="#0C3985"/>
<path d="M61.785 34.3594L59.6514 42.8937H62.2295L63.2962 38.6266L64.5408 42.8937H67.1189L69.2525 34.4483L66.4522 34.4038L65.6521 38.671L64.4964 34.4038L61.785 34.3594Z" fill="#0C3985"/>
<path d="M88.1434 36.6263C87.8767 35.4706 87.5211 34.6705 85.2986 34.4038H82.6316L80.7647 41.7825L79.6979 39.6489H79.9646C79.9646 39.6489 81.387 39.1155 81.5648 37.6042C81.7426 36.0929 80.7647 34.5816 79.4312 34.4927L76.0086 34.3594L73.875 42.8937H76.6309L77.2532 39.8711L78.32 42.8937H83.7873C83.7873 42.8937 87.2544 42.8493 87.8767 39.2933C87.8767 39.2933 88.4101 37.782 88.1434 36.6263ZM78.9867 37.2486C78.6747 38.0807 77.7421 37.8709 77.7421 37.8709C77.9199 37.4264 78.0088 36.7152 78.0088 36.7152C78.0088 36.7152 79.2534 36.5374 78.9867 37.2486ZM85.5653 38.5821C85.1208 40.449 84.3207 40.5379 84.3207 40.5379H83.6984L84.6763 36.6263C84.6763 36.6263 86.0098 36.7152 85.5653 38.5821Z" fill="#0C3985"/>
<path d="M73.4751 34.5819C72.0527 33.8707 69.3137 34.493 68.0753 36.8577C66.9854 38.9388 66.9294 41.8281 68.6407 42.6904C70.1858 43.4727 72.819 42.7144 74.0405 40.4146C75.2531 38.1387 75.0753 35.3828 73.4751 34.5819ZM72.0412 38.9166C71.6642 40.1736 70.9264 41.0626 70.3938 40.9035C69.8613 40.7444 69.7342 39.5949 70.112 38.3379C70.4899 37.0808 71.2259 36.1918 71.7593 36.351C72.2927 36.5101 72.4163 37.6596 72.0394 38.9166H72.0412Z" fill="#0C3985"/>
<path d="M45.072 37.3818H47.5612L46.8358 40.2097C46.8164 40.2854 46.8146 40.3644 46.8305 40.4409C46.8463 40.5173 46.8794 40.5891 46.9273 40.6508C46.9752 40.7125 47.0365 40.7624 47.1066 40.7967C47.1768 40.8311 47.2538 40.8489 47.3319 40.8489C47.4476 40.8489 47.5598 40.8097 47.6504 40.7377C47.741 40.6657 47.8045 40.5651 47.8306 40.4524L48.5418 37.3818H50.9421L50.1944 40.9325C50.0535 41.5969 49.6864 42.1918 49.1558 42.6158C48.6252 43.0397 47.9639 43.2664 47.2848 43.2572L46.2642 43.2412C45.9687 43.2368 45.6778 43.167 45.4125 43.0367C45.1472 42.9065 44.9141 42.719 44.73 42.4878C44.5458 42.2567 44.4152 41.9876 44.3475 41.6999C44.2799 41.4122 44.2768 41.113 44.3386 40.824L45.072 37.3818Z" fill="#0C3985"/>
<path d="M14.3179 120.978L16.9351 117.668H14.3837V116.762H18.2623V117.62L15.6122 120.978H18.2686V121.881H14.3179V120.978Z" fill="#0C3985"/>
<path d="M21.3889 118.173C21.6557 118.293 21.8824 118.487 22.0423 118.733C22.2014 118.967 22.3048 119.234 22.3446 119.515C22.3749 119.764 22.3856 120.015 22.3766 120.266H19.6207C19.6361 120.645 19.768 120.912 20.0163 121.066C20.1809 121.165 20.3703 121.214 20.5621 121.208C20.7168 121.22 20.8716 121.185 21.0061 121.108C21.1406 121.031 21.2486 120.914 21.316 120.775H22.3259C22.2992 121 22.1774 121.227 21.9587 121.459C21.6197 121.827 21.1456 122.011 20.5363 122.011C20.0509 122.018 19.5787 121.853 19.2028 121.545C18.8176 121.235 18.625 120.731 18.625 120.034C18.625 119.379 18.7989 118.875 19.1468 118.523C19.4947 118.171 19.9458 117.996 20.4999 117.997C20.8053 117.992 21.1083 118.052 21.3889 118.173ZM19.9078 119.027C19.7586 119.189 19.6652 119.394 19.6411 119.613H21.3462C21.3446 119.5 21.3201 119.389 21.2743 119.287C21.2284 119.184 21.1622 119.092 21.0795 119.015C20.9159 118.877 20.7069 118.804 20.4928 118.811C20.3857 118.805 20.2786 118.821 20.178 118.858C20.0774 118.895 19.9854 118.953 19.9078 119.027Z" fill="#0C3985"/>
<path d="M24.9584 118.007L25.0473 118.012V119.026C24.9851 119.019 24.9291 119.014 24.8811 119.012C24.8331 119.011 24.7922 119.012 24.7629 119.012C24.3646 119.012 24.0979 119.142 23.9628 119.401C23.8863 119.547 23.8481 119.771 23.8481 120.075V121.884H22.8462V118.098H23.7903V118.759C23.8956 118.567 24.0303 118.392 24.1895 118.242C24.3945 118.079 24.6511 117.997 24.9122 118.009L24.9584 118.007Z" fill="#0C3985"/>
<path d="M25.2134 118.835V118.13H25.7414V117.075H26.7193V118.13H27.3363V118.835H26.7211V120.836C26.7211 120.991 26.7407 121.088 26.7807 121.126C26.8207 121.165 26.9407 121.183 27.1416 121.183H27.2367C27.2705 121.183 27.3034 121.183 27.3363 121.178V121.918L26.8669 121.935C26.3993 121.951 26.0799 121.87 25.9086 121.692C25.7974 121.579 25.7423 121.404 25.7423 121.168V118.837L25.2134 118.835Z" fill="#0C3985"/>
<path d="M28.9666 117.645H27.9629V116.731H28.9666V117.645ZM27.9629 118.096H28.9666V121.881H27.9629V118.096Z" fill="#0C3985"/>
<path d="M31.47 116.716L31.6781 116.731V117.537C31.6229 117.53 31.5296 117.525 31.3989 117.522C31.3499 117.515 31.3 117.519 31.253 117.534C31.206 117.55 31.1631 117.576 31.1278 117.61C31.0797 117.667 31.0533 117.739 31.0531 117.813V118.132H31.703V118.831H31.0531V121.883H30.0708V118.831H29.5151V118.132H30.0565V117.89C30.0565 117.484 30.125 117.205 30.2619 117.053C30.4047 116.826 30.7508 116.713 31.3002 116.713C31.3625 116.711 31.4194 116.713 31.47 116.716Z" fill="#0C3985"/>
<path d="M33.2688 117.645H32.2651V116.731H33.2688V117.645ZM32.2651 118.096H33.2688V121.881H32.2651V118.096Z" fill="#0C3985"/>
<path d="M33.9904 118.903V118.097H36.9836V118.92L35.1265 121.069H37.0494V121.882H33.8579V121.111L35.7346 118.903H33.9904Z" fill="#0C3985"/>
<path d="M38.7581 117.645H37.7544V116.731H38.7581V117.645ZM37.7544 118.096H38.7581V121.881H37.7544V118.096Z" fill="#0C3985"/>
<path d="M42.1614 118.173C42.4283 118.293 42.6552 118.488 42.8157 118.733C42.9742 118.967 43.0773 119.235 43.1171 119.515C43.1474 119.764 43.1584 120.015 43.15 120.266H40.3941C40.4089 120.645 40.5408 120.912 40.7897 121.066C40.9543 121.165 41.1438 121.214 41.3356 121.208C41.4902 121.221 41.645 121.186 41.7794 121.108C41.9138 121.031 42.0216 120.915 42.0885 120.775H43.0984C43.0718 121 42.9491 121.227 42.7313 121.459C42.3929 121.827 41.9187 122.011 41.3089 122.011C40.8235 122.017 40.3514 121.852 39.9754 121.545C39.5902 121.235 39.3978 120.731 39.3984 120.034C39.3984 119.379 39.5721 118.875 39.9194 118.523C40.2667 118.171 40.718 117.996 41.2733 117.997C41.5784 117.992 41.8811 118.052 42.1614 118.173ZM40.6813 119.027C40.5321 119.189 40.4387 119.394 40.4146 119.613H42.1197C42.1183 119.5 42.0939 119.389 42.0481 119.286C42.0022 119.184 41.9358 119.091 41.853 119.015C41.689 118.877 41.4797 118.804 41.2653 118.811C41.1584 118.805 41.0514 118.821 40.951 118.858C40.8505 118.896 40.7587 118.953 40.6813 119.027Z" fill="#0C3985"/>
<path d="M45.7318 118.007L45.8207 118.012V119.026C45.7576 119.019 45.7025 119.014 45.6536 119.012C45.6047 119.011 45.5647 119.012 45.5353 119.012C45.1376 119.012 44.871 119.142 44.7352 119.401C44.6588 119.547 44.6206 119.771 44.6206 120.075V121.884H43.6187V118.098H44.5637V118.759C44.6686 118.567 44.8033 118.392 44.9628 118.242C45.1675 118.079 45.4239 117.997 45.6847 118.009L45.7318 118.007Z" fill="#0C3985"/>
<path d="M45.9868 118.835V118.13H46.514V117.075H47.4919V118.13H48.1062V118.835H47.4919V120.836C47.4919 120.992 47.5114 121.088 47.5506 121.126C47.5906 121.165 47.7106 121.183 47.9124 121.183H48.0075C48.0413 121.183 48.0742 121.181 48.1062 121.178V121.918L47.6377 121.935C47.1701 121.951 46.8506 121.87 46.6793 121.692C46.5682 121.579 46.5122 121.404 46.5122 121.168V118.837L45.9868 118.835Z" fill="#0C3985"/>
<path d="M51.1893 118.173C51.4561 118.293 51.6831 118.488 51.8436 118.733C52.002 118.967 52.1051 119.235 52.1449 119.515C52.1753 119.764 52.186 120.015 52.1769 120.266H49.4211C49.4371 120.645 49.5692 120.912 49.8175 121.066C49.9818 121.165 50.171 121.214 50.3625 121.208C50.5173 121.221 50.6722 121.186 50.8068 121.108C50.9413 121.031 51.0493 120.915 51.1164 120.775H52.1263C52.0996 121 51.9778 121.227 51.76 121.459C51.4204 121.827 50.9463 122.011 50.3376 122.011C49.8522 122.018 49.38 121.853 49.0041 121.545C48.6189 121.235 48.4263 120.731 48.4263 120.034C48.4263 119.379 48.6002 118.875 48.9481 118.523C49.296 118.171 49.747 117.996 50.3012 117.997C50.6063 117.992 50.909 118.052 51.1893 118.173ZM49.7082 119.027C49.559 119.189 49.4656 119.394 49.4415 119.613H51.1466C51.1452 119.5 51.1208 119.389 51.0749 119.286C51.0291 119.184 50.9627 119.091 50.8799 119.015C50.7164 118.877 50.5073 118.804 50.2932 118.811C50.1861 118.805 50.079 118.821 49.9784 118.858C49.8778 118.896 49.7858 118.953 49.7082 119.027Z" fill="#0C3985"/>
<path d="M58.4103 116.762V117.668H56.8786V121.881H55.802V117.668H54.2632V116.762H58.4103Z" fill="#0C3985"/>
<path d="M60.433 119.579C60.5682 119.567 60.7012 119.537 60.8286 119.49C60.8896 119.472 60.9432 119.435 60.9816 119.385C61.02 119.334 61.0412 119.272 61.042 119.209C61.0485 119.145 61.0366 119.081 61.0076 119.024C60.9785 118.967 60.9337 118.92 60.8784 118.888C60.7274 118.82 60.5626 118.79 60.3975 118.799C60.161 118.799 59.993 118.858 59.8943 118.977C59.8174 119.078 59.7689 119.197 59.7538 119.323H58.799C58.8069 119.029 58.904 118.745 59.0773 118.507C59.3404 118.174 59.7918 118.008 60.4312 118.008C60.8151 118 61.1952 118.085 61.5398 118.254C61.8634 118.418 62.0249 118.728 62.0243 119.185V120.921C62.0243 121.042 62.0243 121.188 62.0314 121.358C62.0283 121.451 62.0488 121.543 62.091 121.625C62.1286 121.675 62.1789 121.715 62.2368 121.74V121.885H61.1602C61.1318 121.816 61.1107 121.744 61.0971 121.67C61.0855 121.604 61.0767 121.527 61.0695 121.441C60.9311 121.59 60.7711 121.718 60.5948 121.82C60.3732 121.944 60.1226 122.008 59.8685 122.004C59.5572 122.015 59.2526 121.911 59.0142 121.71C58.789 121.515 58.6767 121.237 58.6772 120.878C58.6772 120.413 58.858 120.076 59.2195 119.868C59.4181 119.755 59.7097 119.673 60.0943 119.625L60.433 119.579ZM59.3227 116.697H60.2294V117.52H59.3227V116.697ZM61.0384 120.042C60.9778 120.08 60.9134 120.112 60.8464 120.137C60.7597 120.167 60.6705 120.19 60.5797 120.204L60.3548 120.246C60.1967 120.267 60.0431 120.313 59.8996 120.382C59.8251 120.423 59.7637 120.484 59.7223 120.558C59.6809 120.633 59.6614 120.717 59.6658 120.802C59.6594 120.87 59.669 120.938 59.6939 121.002C59.7188 121.065 59.7582 121.122 59.8089 121.168C59.9079 121.245 60.0305 121.285 60.1556 121.281C60.3697 121.282 60.5788 121.216 60.7539 121.093C60.9362 120.969 61.0304 120.738 61.0375 120.41L61.0384 120.042ZM60.7122 116.697H61.618V117.52H60.7122V116.697Z" fill="#0C3985"/>
<path d="M62.4795 118.835V118.13H63.0067V117.075H63.9846V118.13H64.5989V118.835H63.9846V120.836C63.9846 120.992 64.0041 121.088 64.0432 121.126C64.0832 121.165 64.2033 121.183 64.4051 121.183H64.5002C64.534 121.183 64.5669 121.181 64.5989 121.178V121.918L64.1304 121.935C63.6627 121.951 63.3433 121.87 63.172 121.692C63.0609 121.579 63.0049 121.404 63.0049 121.168V118.837L62.4795 118.835Z" fill="#0C3985"/>
<path d="M66.2322 117.645H65.2285V116.731H66.2322V117.645ZM65.2285 118.096H66.2322V121.881H65.2285V118.096Z" fill="#0C3985"/>
<path d="M69.0417 118.092C69.2934 118.203 69.4991 118.397 69.624 118.642V118.096H70.5895V121.687C70.5895 122.176 70.5074 122.544 70.3432 122.792C70.0605 123.217 69.5188 123.43 68.7181 123.43C68.2345 123.43 67.8398 123.335 67.534 123.145C67.386 123.056 67.2623 122.932 67.1739 122.784C67.0855 122.635 67.0351 122.467 67.0272 122.295H68.1038C68.1203 122.39 68.1678 122.478 68.2389 122.544C68.3456 122.633 68.5243 122.68 68.7723 122.68C69.1279 122.68 69.3665 122.562 69.488 122.325C69.5662 122.172 69.6062 121.915 69.6062 121.554V121.311C69.5293 121.452 69.4254 121.576 69.3004 121.676C69.077 121.835 68.807 121.914 68.5332 121.902C68.3128 121.91 68.0934 121.869 67.8914 121.78C67.6895 121.691 67.5104 121.558 67.3677 121.39C67.0773 121.048 66.9321 120.586 66.9321 120.002C66.9321 119.439 67.072 118.965 67.3517 118.58C67.6315 118.194 68.028 118.002 68.5412 118.005C68.7121 118.001 68.8822 118.031 69.0417 118.092ZM69.3786 120.806C69.5378 120.629 69.6178 120.353 69.6178 119.972C69.6178 119.613 69.5422 119.339 69.3911 119.152C69.3191 119.061 69.2266 118.988 69.1212 118.939C69.0157 118.89 68.9001 118.866 68.7839 118.87C68.6273 118.862 68.4722 118.905 68.3428 118.993C68.2134 119.082 68.1168 119.211 68.0683 119.36C67.9936 119.566 67.9583 119.784 67.9643 120.003C67.9608 120.204 67.9986 120.404 68.0754 120.59C68.1274 120.736 68.2256 120.862 68.3552 120.949C68.4849 121.035 68.639 121.077 68.7946 121.069C68.9052 121.07 69.0147 121.048 69.1156 121.002C69.2165 120.957 69.3063 120.89 69.3786 120.806Z" fill="#0C3985"/>
<path d="M71.4819 116.78H72.4545V119.541L73.6991 118.114H74.933L73.5764 119.525L74.9864 121.881H73.7809L72.8643 120.264L72.4545 120.69V121.881H71.4819V116.78Z" fill="#0C3985"/>
<path d="M77.893 118.173C78.16 118.293 78.387 118.488 78.5473 118.733C78.7057 118.968 78.8088 119.235 78.8486 119.515C78.8789 119.764 78.8899 120.016 78.8815 120.266H76.1256C76.1411 120.646 76.2729 120.912 76.5213 121.067C76.6859 121.165 76.8753 121.214 77.0671 121.209C77.2655 121.217 77.4603 121.154 77.6165 121.031C77.7014 120.959 77.7707 120.87 77.8201 120.771H78.8309C78.8042 120.995 78.6815 121.223 78.4637 121.455C78.1247 121.823 77.6506 122.007 77.0413 122.007C76.5559 122.013 76.0839 121.848 75.7078 121.541C75.3226 121.231 75.1303 120.727 75.1309 120.03C75.1309 119.375 75.3045 118.871 75.6518 118.519C75.9991 118.167 76.4504 117.992 77.0058 117.993C77.3109 117.99 77.6133 118.051 77.893 118.173ZM76.4092 119.027C76.2601 119.189 76.1667 119.394 76.1425 119.613H77.8476C77.8463 119.501 77.8219 119.39 77.776 119.287C77.7302 119.184 77.6638 119.092 77.5809 119.016C77.417 118.877 77.2077 118.805 76.9933 118.811C76.8864 118.805 76.7794 118.822 76.6789 118.859C76.5785 118.896 76.4867 118.953 76.4092 119.027Z" fill="#0C3985"/>
<path d="M80.3773 117.645H79.3745V116.731H80.3773V117.645ZM79.3745 118.096H80.3773V121.881H79.3745V118.096Z" fill="#0C3985"/>
<path d="M80.9258 118.835V118.13H81.4538V117.075H82.4317V118.13H83.0469V118.835H82.4317V120.836C82.4317 120.991 82.4513 121.088 82.4913 121.126C82.5313 121.165 82.6504 121.183 82.8522 121.183H82.9474C82.9811 121.183 83.014 121.183 83.0469 121.178V121.918L82.5775 121.935C82.1099 121.951 81.7905 121.87 81.6192 121.692C81.5081 121.579 81.453 121.404 81.453 121.168V118.837L80.9258 118.835Z" fill="#0C3985"/>
<path d="M86.1283 118.173C86.3952 118.294 86.6221 118.488 86.7826 118.733C86.9411 118.968 87.0441 119.235 87.084 119.515C87.1143 119.764 87.1253 120.016 87.1169 120.266H84.361C84.3758 120.646 84.5077 120.912 84.7566 121.067C84.9212 121.165 85.1106 121.214 85.3024 121.209C85.5008 121.216 85.6955 121.153 85.8518 121.031C85.9365 120.959 86.0057 120.87 86.0554 120.771H87.0662C87.0395 120.995 86.9169 121.223 86.6991 121.455C86.3601 121.823 85.8859 122.007 85.2767 122.007C84.7912 122.013 84.3191 121.848 83.9432 121.541C83.5579 121.231 83.3656 120.727 83.3662 120.03C83.3662 119.375 83.5399 118.871 83.8872 118.519C84.2345 118.167 84.6858 117.992 85.2411 117.993C85.5462 117.99 85.8486 118.051 86.1283 118.173ZM84.6481 119.027C84.499 119.189 84.4056 119.394 84.3814 119.613H86.0865C86.0853 119.501 86.061 119.389 86.0152 119.287C85.9693 119.184 85.9028 119.092 85.8198 119.016C85.6563 118.877 85.4472 118.804 85.2331 118.811C85.126 118.805 85.0188 118.821 84.9182 118.858C84.8176 118.896 84.7257 118.953 84.6481 119.027Z" fill="#0C3985"/>
<path d="M90.6478 118.314C90.8962 118.518 91.02 118.858 91.0194 119.333V121.881H90.0104V119.579C90.018 119.422 89.991 119.266 89.9313 119.121C89.8347 118.926 89.6507 118.829 89.3792 118.83C89.0462 118.83 88.8177 118.972 88.6938 119.256C88.6231 119.44 88.5902 119.636 88.5969 119.833V121.878H87.603V118.103H88.5614V118.655C88.6559 118.497 88.776 118.355 88.917 118.236C89.1417 118.076 89.4131 117.995 89.6886 118.006C90.0349 117.991 90.3752 118.1 90.6478 118.314Z" fill="#0C3985"/>
<path d="M92.2622 118.242H93.3148V119.281H92.2622V118.242ZM92.2622 120.843H93.3148V121.882H92.2622V120.843Z" fill="#0C3985"/>
<path d="M38.5884 129.42C38.6002 129.621 38.6522 129.818 38.7413 129.999C38.8178 130.151 38.9271 130.283 39.0614 130.387C39.1959 130.489 39.3495 130.562 39.513 130.604C39.6918 130.65 39.8759 130.673 40.0606 130.671C40.2609 130.674 40.4603 130.644 40.6509 130.583C40.801 130.535 40.9392 130.456 41.0563 130.351C41.158 130.258 41.2371 130.142 41.2874 130.014C41.3374 129.884 41.3628 129.747 41.3621 129.608C41.3701 129.437 41.3227 129.267 41.227 129.125C41.1328 128.998 41.0112 128.895 40.8714 128.822C40.7137 128.739 40.5466 128.676 40.3735 128.634C40.1857 128.586 39.9936 128.54 39.7975 128.495C39.6013 128.45 39.4093 128.397 39.2214 128.335C39.0435 128.279 38.8755 128.195 38.7236 128.086C38.5761 127.981 38.4545 127.844 38.368 127.684C38.2713 127.492 38.2249 127.278 38.2328 127.062C38.233 126.886 38.2706 126.711 38.3431 126.55C38.4185 126.38 38.5302 126.228 38.6702 126.106C38.8301 125.969 39.0148 125.865 39.2143 125.8C39.4575 125.72 39.7123 125.682 39.9682 125.686C40.2258 125.681 40.4823 125.722 40.7256 125.807C40.9246 125.879 41.1063 125.991 41.259 126.138C41.3995 126.275 41.5086 126.441 41.579 126.625C41.6507 126.813 41.6869 127.013 41.6857 127.215H41.2234C41.2275 127.041 41.1922 126.868 41.1203 126.71C41.0573 126.577 40.9645 126.461 40.8492 126.37C40.7279 126.279 40.5903 126.211 40.4438 126.171C40.291 126.129 40.133 126.107 39.9744 126.107C39.7623 126.102 39.551 126.137 39.3521 126.21C39.2002 126.269 39.063 126.36 38.9503 126.477C38.8543 126.58 38.7837 126.705 38.744 126.84C38.706 126.969 38.6987 127.106 38.7227 127.238C38.7436 127.389 38.8136 127.529 38.9218 127.636C39.0337 127.741 39.1639 127.824 39.3059 127.882C39.4679 127.949 39.6357 128.001 39.8072 128.038C39.985 128.079 40.1762 128.122 40.3655 128.166C40.5549 128.211 40.7389 128.265 40.9167 128.326C41.0864 128.384 41.2459 128.468 41.3897 128.575C41.5293 128.682 41.6424 128.819 41.7204 128.977C41.8093 129.17 41.8519 129.38 41.8448 129.592C41.8448 130.066 41.6813 130.434 41.3541 130.695C41.0269 130.955 40.567 131.086 39.9744 131.086C39.7241 131.088 39.4749 131.053 39.2347 130.983C39.0184 130.92 38.8175 130.814 38.6444 130.67C38.4773 130.528 38.3447 130.351 38.2568 130.15C38.1596 129.92 38.1123 129.672 38.1182 129.421L38.5884 129.42Z" fill="#0C3985"/>
<path d="M44.3631 128.801C44.4431 128.792 44.5391 128.778 44.6511 128.758C44.7455 128.745 44.8376 128.719 44.9249 128.68C44.9589 128.665 44.9886 128.642 45.0115 128.613C45.0345 128.584 45.0499 128.55 45.0565 128.513C45.072 128.442 45.0804 128.369 45.0814 128.296C45.0842 128.198 45.0671 128.1 45.031 128.008C44.995 127.916 44.9407 127.833 44.8716 127.763C44.7311 127.623 44.4941 127.553 44.1604 127.553C44.0243 127.552 43.8884 127.565 43.755 127.592C43.6392 127.615 43.5292 127.661 43.4314 127.727C43.3366 127.794 43.2586 127.881 43.2038 127.983C43.1388 128.108 43.099 128.245 43.0865 128.385H42.6527C42.6607 128.19 42.7117 128 42.802 127.827C42.8829 127.678 42.9959 127.549 43.1327 127.45C43.2744 127.35 43.4337 127.278 43.6021 127.237C43.7871 127.191 43.977 127.168 44.1675 127.169C44.3435 127.168 44.519 127.188 44.6902 127.229C44.8434 127.266 44.9883 127.331 45.117 127.421C45.2407 127.514 45.3386 127.636 45.4014 127.777C45.4747 127.948 45.5099 128.132 45.5046 128.318V130.323C45.5046 130.489 45.5339 130.595 45.5935 130.64C45.653 130.684 45.7713 130.674 45.9491 130.608V130.942L45.8033 130.985C45.7422 131.003 45.6787 131.013 45.6148 131.013C45.5502 131.013 45.4858 131.006 45.4228 130.992C45.3606 130.986 45.3015 130.962 45.2521 130.924C45.2095 130.889 45.1744 130.845 45.149 130.796C45.1222 130.745 45.1042 130.69 45.0956 130.632C45.0857 130.57 45.081 130.507 45.0814 130.444C44.9081 130.638 44.6961 130.793 44.4591 130.899C44.2219 131.005 43.9648 131.058 43.7052 131.056C43.5477 131.056 43.3909 131.035 43.2394 130.992C43.0959 130.952 42.9617 130.885 42.8447 130.793C42.7326 130.703 42.6416 130.59 42.578 130.462C42.5081 130.317 42.4739 130.157 42.4784 129.996C42.4784 129.37 42.9075 129 43.7657 128.887L44.3631 128.801ZM45.0814 129.015C44.9067 129.089 44.7224 129.14 44.5338 129.164C44.3489 129.188 44.164 129.207 43.979 129.221C43.7095 129.227 43.4462 129.303 43.2145 129.441C43.124 129.503 43.0512 129.587 43.0032 129.686C42.9552 129.784 42.9336 129.894 42.9407 130.003C42.9377 130.1 42.9585 130.197 43.0012 130.284C43.044 130.372 43.1074 130.447 43.1861 130.504C43.2628 130.561 43.3498 130.602 43.4421 130.625C43.5383 130.652 43.6375 130.665 43.7372 130.665C43.9053 130.665 44.0726 130.643 44.2351 130.6C44.3889 130.561 44.5346 130.495 44.6653 130.405C44.7902 130.318 44.8935 130.204 44.9676 130.071C45.0464 129.923 45.0856 129.758 45.0814 129.591V129.015Z" fill="#0C3985"/>
<path d="M46.9951 130.949H46.5684V127.265H46.9951V127.82H47.0093C47.1123 127.613 47.2761 127.443 47.4787 127.332C47.6837 127.221 47.9138 127.163 48.1472 127.165C48.2939 127.162 48.4401 127.182 48.581 127.222C48.6899 127.255 48.7921 127.307 48.8833 127.375C48.9645 127.437 49.0343 127.513 49.0896 127.599C49.1449 127.687 49.1914 127.78 49.2282 127.877C49.3359 127.653 49.5081 127.467 49.7225 127.343C49.94 127.223 50.1852 127.161 50.4337 127.165C50.6413 127.156 50.8479 127.199 51.0347 127.29C51.1767 127.366 51.2958 127.479 51.3796 127.617C51.4633 127.76 51.5176 127.918 51.5396 128.083C51.5658 128.262 51.5789 128.442 51.5787 128.623V130.949H51.152V128.403C51.1635 128.183 51.105 127.965 50.9849 127.781C50.8729 127.629 50.6657 127.553 50.3626 127.553C50.2007 127.553 50.041 127.59 49.8964 127.663C49.7518 127.736 49.6265 127.842 49.5305 127.973C49.4808 128.039 49.4412 128.112 49.4131 128.189C49.3817 128.274 49.3567 128.361 49.3385 128.449C49.32 128.537 49.3069 128.626 49.2994 128.716C49.2922 128.805 49.2887 128.889 49.2887 128.965V130.949H48.862V128.403C48.8734 128.183 48.8149 127.965 48.6948 127.781C48.5837 127.629 48.3757 127.553 48.0725 127.553C47.9106 127.553 47.7509 127.59 47.6063 127.663C47.4618 127.736 47.3364 127.842 47.2404 127.973C47.1907 128.039 47.1512 128.112 47.1231 128.189C47.0917 128.274 47.0667 128.361 47.0484 128.449C47.0299 128.537 47.0169 128.626 47.0093 128.716C47.0022 128.805 46.9986 128.889 46.9986 128.965L46.9951 130.949Z" fill="#0C3985"/>
<path d="M52.9192 130.949H52.4951V127.265H52.9218V127.82H52.9361C53.0391 127.613 53.2029 127.443 53.4054 127.332C53.6105 127.221 53.8406 127.163 54.074 127.165C54.2206 127.162 54.3669 127.182 54.5078 127.222C54.6166 127.255 54.7189 127.307 54.8101 127.375C54.8911 127.437 54.9608 127.513 55.0163 127.599C55.0717 127.687 55.1181 127.78 55.155 127.877C55.2627 127.653 55.4349 127.467 55.6493 127.343C55.8667 127.223 56.1119 127.161 56.3605 127.165C56.568 127.156 56.7746 127.199 56.9614 127.29C57.1035 127.366 57.2225 127.479 57.3064 127.617C57.3896 127.76 57.444 127.919 57.4664 128.083C57.4925 128.262 57.5056 128.442 57.5055 128.623V130.949H57.0788V128.403C57.0902 128.183 57.0317 127.965 56.9116 127.781C56.7996 127.629 56.5925 127.553 56.2894 127.553C56.1274 127.553 55.9677 127.59 55.8231 127.663C55.6786 127.736 55.5532 127.842 55.4573 127.973C55.4072 128.038 55.3676 128.112 55.3399 128.189C55.3085 128.274 55.2835 128.361 55.2652 128.449C55.2463 128.537 55.2333 128.626 55.2261 128.716C55.219 128.805 55.2154 128.889 55.2154 128.965V130.949H54.7887V128.403C54.8002 128.183 54.7417 127.965 54.6216 127.781C54.5096 127.629 54.3024 127.553 53.9993 127.553C53.8374 127.553 53.6777 127.59 53.5331 127.663C53.3885 127.736 53.2632 127.842 53.1672 127.973C53.1175 128.039 53.0779 128.112 53.0498 128.189C53.0184 128.274 52.9935 128.361 52.9752 128.449C52.9567 128.537 52.9436 128.626 52.9361 128.716C52.9289 128.805 52.9254 128.889 52.9254 128.965L52.9192 130.949Z" fill="#0C3985"/>
<path d="M58.7365 129.206C58.7353 129.398 58.7616 129.588 58.8147 129.772C58.8612 129.939 58.9396 130.096 59.0459 130.234C59.1497 130.366 59.2822 130.473 59.4335 130.547C59.6019 130.628 59.7871 130.668 59.974 130.664C60.2311 130.672 60.4835 130.594 60.6923 130.444C60.8949 130.291 61.0362 130.07 61.0906 129.822H61.5671C61.5173 129.991 61.4481 130.155 61.3608 130.309C61.2771 130.456 61.1688 130.589 61.0408 130.7C60.9072 130.815 60.7526 130.903 60.5856 130.96C60.3882 131.024 60.1814 131.054 59.974 131.048C59.7124 131.055 59.4527 131.004 59.213 130.899C59.0078 130.806 58.8274 130.666 58.6867 130.49C58.5445 130.309 58.4405 130.101 58.3809 129.878C58.3128 129.632 58.2793 129.377 58.2813 129.121C58.2795 128.863 58.3191 128.606 58.3987 128.36C58.471 128.134 58.5843 127.923 58.7329 127.738C58.8775 127.56 59.0597 127.417 59.2663 127.318C59.4886 127.213 59.7319 127.161 59.9775 127.165C60.4843 127.165 60.8825 127.34 61.1724 127.688C61.4622 128.036 61.6044 128.543 61.5991 129.206H58.7365ZM61.1368 128.851C61.1379 128.678 61.1127 128.507 61.0621 128.342C61.0164 128.192 60.9415 128.052 60.8416 127.93C60.741 127.812 60.6161 127.717 60.4754 127.652C60.3167 127.581 60.1443 127.546 59.9704 127.549C59.7973 127.546 59.6257 127.582 59.469 127.656C59.3276 127.724 59.2017 127.821 59.0992 127.94C58.9946 128.063 58.9117 128.203 58.8539 128.353C58.791 128.513 58.7503 128.68 58.7329 128.851H61.1368Z" fill="#0C3985"/>
<path d="M62.4917 130.949V125.828H62.9184V130.949H62.4917Z" fill="#0C3985"/>
<path d="M64.4331 130.949H64.0063V127.265H64.4331V127.777C64.5911 127.606 64.7704 127.457 64.9665 127.332C65.1651 127.214 65.3933 127.155 65.6243 127.162C65.8409 127.16 66.0558 127.199 66.2573 127.279C66.458 127.363 66.629 127.506 66.748 127.688C66.8333 127.809 66.8882 127.95 66.908 128.097C66.9246 128.242 66.9329 128.388 66.9329 128.534V130.945H66.5062V128.545C66.5062 128.213 66.4327 127.964 66.2857 127.798C66.1382 127.633 65.8946 127.549 65.5532 127.549C65.4297 127.548 65.3069 127.568 65.1905 127.61C65.0849 127.648 64.9855 127.702 64.8953 127.77C64.8097 127.834 64.7341 127.911 64.6713 127.997C64.6111 128.079 64.5632 128.169 64.5291 128.264C64.4882 128.374 64.4619 128.489 64.4508 128.605C64.4411 128.715 64.4366 128.833 64.4366 128.961L64.4331 130.949Z" fill="#0C3985"/>
<path d="M37.397 139.75V134.63H39.2487C39.5077 134.624 39.7661 134.654 40.0168 134.719C40.2078 134.77 40.3859 134.861 40.5396 134.985C40.6712 135.094 40.7727 135.235 40.8347 135.394C40.8964 135.561 40.9266 135.739 40.9236 135.917C40.927 136.075 40.903 136.233 40.8525 136.383C40.8115 136.502 40.7489 136.613 40.6676 136.71C40.5953 136.795 40.5071 136.865 40.408 136.916C40.3129 136.965 40.2111 137 40.1057 137.019V137.033C40.4613 137.086 40.7257 137.226 40.8987 137.453C41.0782 137.701 41.1696 138.001 41.1583 138.307C41.1647 138.538 41.1223 138.768 41.0339 138.982C40.9575 139.157 40.8389 139.309 40.6889 139.427C40.5308 139.546 40.3489 139.629 40.1555 139.672C39.9352 139.723 39.7096 139.748 39.4834 139.747L37.397 139.75ZM37.8806 136.891H39.1038C39.3166 136.895 39.5291 136.874 39.7368 136.827C39.8862 136.795 40.0269 136.73 40.1493 136.639C40.2508 136.559 40.3283 136.454 40.3733 136.333C40.4206 136.199 40.4435 136.059 40.4409 135.917C40.4451 135.777 40.4184 135.637 40.3627 135.508C40.3082 135.396 40.2215 135.303 40.1137 135.241C39.976 135.165 39.8253 135.114 39.6692 135.092C39.4468 135.058 39.2221 135.043 38.9972 135.046H37.8806V136.891ZM37.8806 139.338H39.111C39.3426 139.34 39.5741 139.328 39.8044 139.302C39.9749 139.287 40.1406 139.237 40.2915 139.156C40.418 139.085 40.5188 138.975 40.5796 138.843C40.6497 138.675 40.6825 138.493 40.6756 138.31C40.6833 138.132 40.6466 137.955 40.5689 137.794C40.499 137.666 40.3926 137.561 40.2631 137.492C40.114 137.416 39.9527 137.367 39.7866 137.346C39.5803 137.319 39.3724 137.306 39.1643 137.307H37.8806V139.338Z" fill="#0C3985"/>
<path d="M42.34 138.007C42.3388 138.198 42.3651 138.389 42.4183 138.573C42.465 138.74 42.5435 138.897 42.6494 139.035C42.7534 139.167 42.8859 139.274 43.037 139.348C43.2055 139.429 43.3906 139.469 43.5775 139.465C43.8346 139.472 44.087 139.395 44.2958 139.245C44.4985 139.091 44.6397 138.871 44.6941 138.622H45.1706C45.1208 138.792 45.0516 138.956 44.9643 139.11C44.8806 139.257 44.7724 139.389 44.6443 139.501C44.5107 139.616 44.3561 139.704 44.1891 139.76C43.9918 139.824 43.7849 139.854 43.5775 139.849C43.316 139.856 43.0562 139.805 42.8165 139.7C42.6113 139.607 42.4309 139.467 42.2902 139.291C42.1481 139.11 42.044 138.902 41.9844 138.679C41.9163 138.433 41.8828 138.178 41.8849 137.922C41.883 137.664 41.9226 137.407 42.0022 137.161C42.0746 136.935 42.1879 136.724 42.3365 136.539C42.4812 136.361 42.6634 136.218 42.8699 136.119C43.0921 136.014 43.3354 135.962 43.5811 135.966C44.0884 135.966 44.4867 136.14 44.7759 136.489C45.0651 136.837 45.2073 137.343 45.2026 138.007H42.34ZM44.7403 137.652C44.7414 137.479 44.7162 137.308 44.6656 137.143C44.6199 136.992 44.545 136.852 44.4452 136.731C44.3447 136.613 44.2197 136.518 44.0789 136.453C43.9202 136.382 43.7478 136.347 43.5739 136.35C43.4008 136.346 43.2292 136.383 43.0726 136.457C42.9312 136.525 42.8054 136.622 42.7027 136.741C42.5982 136.864 42.5152 137.003 42.4574 137.154C42.395 137.314 42.3543 137.481 42.3365 137.652H44.7403Z" fill="#0C3985"/>
<path d="M45.6611 136.422V136.066H46.2088V135.483C46.1958 135.238 46.2578 134.995 46.3866 134.786C46.5051 134.616 46.7066 134.53 46.9911 134.53C47.0577 134.53 47.1191 134.53 47.176 134.537C47.2329 134.544 47.2898 134.55 47.3467 134.559V134.95C47.263 134.928 47.1771 134.916 47.0906 134.914C47.0013 134.909 46.9124 134.93 46.8346 134.975C46.7748 135.014 46.7278 135.069 46.6995 135.135C46.6699 135.206 46.6519 135.282 46.6461 135.359C46.639 135.442 46.6355 135.526 46.6355 135.611V136.066H47.3467V136.422H46.6355V139.75H46.2088V136.422H45.6611Z" fill="#0C3985"/>
<path d="M49.4725 139.849C49.245 139.847 49.0198 139.804 48.8076 139.721C48.6026 139.642 48.4179 139.518 48.2671 139.359C48.1046 139.185 47.9799 138.979 47.9008 138.754C47.8054 138.482 47.7597 138.196 47.7657 137.908C47.7637 137.652 47.7996 137.396 47.8723 137.15C47.938 136.927 48.0467 136.718 48.1924 136.535C48.3368 136.358 48.5191 136.216 48.7258 136.119C48.9602 136.013 49.2153 135.961 49.4725 135.966C49.7321 135.96 49.9896 136.013 50.2264 136.119C50.4324 136.216 50.6145 136.357 50.7598 136.532C50.9059 136.713 51.0136 136.923 51.0763 137.147C51.1463 137.394 51.181 137.651 51.1794 137.908C51.1832 138.179 51.1424 138.45 51.0585 138.708C50.9849 138.933 50.8677 139.14 50.7136 139.32C50.5649 139.49 50.3803 139.625 50.1731 139.714C49.9515 139.808 49.7129 139.854 49.4725 139.849ZM50.7242 137.908C50.7255 137.702 50.7016 137.497 50.6531 137.296C50.6109 137.119 50.5361 136.952 50.4326 136.802C50.3331 136.663 50.2013 136.549 50.0486 136.471C49.8689 136.386 49.6714 136.344 49.4725 136.35C49.2736 136.345 49.0766 136.39 48.9 136.482C48.7453 136.566 48.6126 136.686 48.5124 136.83C48.4098 136.982 48.3352 137.151 48.2919 137.328C48.244 137.518 48.2201 137.712 48.2208 137.908C48.2185 138.12 48.2461 138.332 48.3026 138.537C48.3499 138.716 48.4308 138.883 48.5409 139.032C48.6436 139.168 48.7778 139.278 48.932 139.352C49.1011 139.431 49.286 139.47 49.4725 139.465C49.6715 139.471 49.8685 139.426 50.045 139.334C50.2011 139.248 50.3341 139.126 50.4326 138.978C50.5342 138.826 50.6088 138.658 50.6531 138.48C50.7008 138.293 50.725 138.101 50.7251 137.908H50.7242ZM48.7187 134.871H49.1809V135.597H48.7187V134.871ZM49.8495 134.871H50.3117V135.597H49.8495V134.871Z" fill="#0C3985"/>
<path d="M52.4101 139.75H51.9834V136.066H52.4101V136.756H52.4243C52.5429 136.46 52.6958 136.255 52.8831 136.141C53.1096 136.014 53.3668 135.952 53.6263 135.963V136.425C53.4208 136.414 53.2157 136.453 53.0289 136.539C52.8786 136.615 52.7501 136.727 52.6555 136.866C52.5591 137.014 52.4938 137.18 52.4635 137.353C52.4274 137.547 52.4095 137.743 52.4101 137.94V139.75Z" fill="#0C3985"/>
<path d="M57.1753 134.63H57.602V139.75H57.1753V139.103H57.1611C57.101 139.224 57.0204 139.334 56.9229 139.427C56.8271 139.518 56.7194 139.596 56.6028 139.658C56.4901 139.719 56.3708 139.767 56.2472 139.8C56.1291 139.833 56.0071 139.85 55.8845 139.85C55.6229 139.858 55.3629 139.807 55.1235 139.701C54.9218 139.607 54.7452 139.467 54.6079 139.292C54.4679 139.109 54.3674 138.9 54.3128 138.677C54.2506 138.428 54.2207 138.172 54.2239 137.916C54.2229 137.666 54.2564 137.417 54.3234 137.176C54.384 136.951 54.4866 136.74 54.6257 136.554C54.7621 136.375 54.9372 136.229 55.1377 136.127C55.3643 136.016 55.6144 135.961 55.8667 135.967C56.1271 135.968 56.3837 136.029 56.617 136.145C56.8521 136.257 57.0487 136.437 57.1824 136.66L57.1753 134.63ZM57.1753 137.894C57.1752 137.693 57.1452 137.493 57.0864 137.3C57.0345 137.124 56.9514 136.957 56.8411 136.81C56.7359 136.672 56.6026 136.558 56.4499 136.475C56.2888 136.391 56.1091 136.348 55.9272 136.351C55.7272 136.346 55.5291 136.391 55.3511 136.483C55.192 136.568 55.0555 136.69 54.9528 136.838C54.844 137 54.7667 137.181 54.7253 137.372C54.6764 137.585 54.6572 137.804 54.6684 138.022C54.6646 138.231 54.6971 138.439 54.7644 138.637C54.8218 138.805 54.9125 138.958 55.0311 139.089C55.1419 139.211 55.2778 139.306 55.4293 139.37C55.5871 139.435 55.7565 139.468 55.9272 139.466C56.1121 139.469 56.2952 139.428 56.4606 139.345C56.6148 139.267 56.7488 139.153 56.8517 139.014C56.961 138.864 57.0418 138.696 57.09 138.517C57.147 138.314 57.1757 138.105 57.1753 137.894Z" fill="#0C3985"/>
<path d="M58.9391 138.007C58.9379 138.198 58.9642 138.389 59.0174 138.573C59.0638 138.74 59.1423 138.897 59.2485 139.035C59.3523 139.167 59.4849 139.274 59.6361 139.348C59.8046 139.429 59.9897 139.469 60.1766 139.465C60.4338 139.472 60.6861 139.395 60.8949 139.245C61.0976 139.091 61.2388 138.871 61.2932 138.622H61.7697C61.7199 138.792 61.6507 138.956 61.5635 139.11C61.4797 139.257 61.3715 139.389 61.2434 139.501C61.1098 139.616 60.9553 139.704 60.7883 139.76C60.5909 139.824 60.3841 139.854 60.1766 139.849C59.9151 139.856 59.6553 139.805 59.4156 139.7C59.2104 139.607 59.03 139.467 58.8894 139.291C58.7472 139.11 58.6432 138.902 58.5835 138.679C58.5154 138.433 58.4819 138.178 58.484 137.922C58.4821 137.664 58.5218 137.407 58.6013 137.161C58.6737 136.935 58.787 136.724 58.9356 136.539C59.0802 136.361 59.2623 136.218 59.469 136.119C59.6912 136.014 59.9345 135.962 60.1802 135.966C60.6869 135.966 61.0852 136.14 61.375 136.489C61.6648 136.837 61.807 137.343 61.8017 138.007H58.9391ZM61.3394 137.652C61.3405 137.479 61.3153 137.308 61.2648 137.143C61.219 136.992 61.1441 136.852 61.0443 136.731C60.9437 136.613 60.8187 136.518 60.678 136.453C60.5193 136.382 60.3469 136.347 60.1731 136.35C59.9999 136.346 59.8283 136.383 59.6717 136.457C59.5302 136.525 59.4043 136.622 59.3019 136.741C59.1973 136.864 59.1143 137.003 59.0565 137.154C58.9937 137.313 58.953 137.481 58.9356 137.652H61.3394Z" fill="#0C3985"/>
<path d="M63.0786 139.75H62.6519V136.066H63.0786V136.756H63.0928C63.2113 136.46 63.3642 136.255 63.5515 136.141C63.778 136.014 64.0353 135.952 64.2947 135.963V136.425C64.0893 136.414 63.8841 136.453 63.6973 136.539C63.5471 136.615 63.4186 136.727 63.3239 136.866C63.2276 137.014 63.1623 137.18 63.1319 137.354C63.0958 137.547 63.078 137.743 63.0786 137.94V139.75Z" fill="#0C3985"/>
<path d="M65.4257 139.75H64.999V136.066H65.4257V136.578C65.5838 136.407 65.763 136.258 65.9591 136.133C66.1578 136.015 66.386 135.956 66.617 135.962C66.8336 135.96 67.0485 136 67.25 136.08C67.4507 136.164 67.6216 136.306 67.7407 136.489C67.826 136.61 67.8808 136.75 67.9007 136.898C67.9173 137.043 67.9256 137.189 67.9256 137.335V139.746H67.4989V137.346C67.4989 137.014 67.4254 136.765 67.2784 136.599C67.1308 136.434 66.8872 136.35 66.5459 136.35C66.4223 136.349 66.2995 136.369 66.1832 136.41C66.0776 136.449 65.9781 136.503 65.888 136.57C65.8023 136.635 65.7268 136.711 65.664 136.798C65.6038 136.88 65.5559 136.969 65.5218 137.065C65.4809 137.175 65.4546 137.289 65.4435 137.406C65.4337 137.515 65.4293 137.634 65.4293 137.762L65.4257 139.75Z" fill="#0C3985"/>
<path d="M38.1948 60.4841V62.9271C38.1859 63.1759 38.2416 63.4227 38.3566 63.6436C38.516 63.931 38.7851 64.0745 39.1638 64.0739C39.6172 64.0739 39.9265 63.9192 40.0892 63.608C40.1868 63.3948 40.2322 63.1614 40.2217 62.9271V60.4841H40.7649V62.7066C40.7649 63.1926 40.6994 63.5669 40.5684 63.8294C40.3284 64.3035 39.8744 64.5406 39.2064 64.5406C38.5385 64.5406 38.0857 64.3035 37.8481 63.8294C37.7153 63.5627 37.6489 63.1875 37.6489 62.7039V60.4814L38.1948 60.4841Z" fill="#0C3985"/>
<path d="M41.5605 61.5553H42.0397V61.9642C42.1287 61.847 42.2338 61.7428 42.3518 61.6548C42.5113 61.5449 42.7012 61.4874 42.8949 61.4904C43.094 61.4802 43.2904 61.5403 43.4497 61.6602C43.5403 61.7391 43.6136 61.8359 43.6648 61.9446C43.7613 61.8009 43.8917 61.6831 44.0444 61.6015C44.1965 61.526 44.3644 61.4879 44.5342 61.4904C44.9218 61.4904 45.1856 61.6302 45.3254 61.91C45.4089 62.1014 45.4475 62.3094 45.4383 62.518V64.4374H44.9352V62.4345C44.9352 62.2433 44.8872 62.1109 44.7912 62.0389C44.6891 61.9654 44.5657 61.9276 44.44 61.9313C44.2577 61.9284 44.0816 61.997 43.9493 62.1224C43.8118 62.2505 43.743 62.4632 43.743 62.7607V64.4374H43.2496V62.5563C43.2586 62.41 43.2346 62.2635 43.1794 62.1278C43.1065 61.9935 42.9687 61.926 42.7678 61.926C42.58 61.9282 42.4007 62.0045 42.2691 62.1384C42.1188 62.2807 42.0442 62.5367 42.0442 62.9083V64.4374H41.5605V61.5553Z" fill="#0C3985"/>
<path d="M46.399 61.5547L46.9537 63.8261L47.5164 61.5547H48.0605L48.625 63.8118L49.2153 61.5547H49.6989L48.8624 64.4368H48.3592L47.7725 62.2054L47.2044 64.4368H46.7012L45.8691 61.5547H46.399Z" fill="#0C3985"/>
<path d="M51.9784 61.6342C52.1552 61.7172 52.3068 61.8458 52.4176 62.0067C52.5174 62.1606 52.5834 62.3339 52.6114 62.5152C52.6456 62.7253 52.6599 62.9381 52.654 63.1508H50.5391C50.5347 63.4009 50.607 63.6463 50.7462 63.854C50.8749 64.0318 51.0749 64.1207 51.3463 64.1207C51.4594 64.1257 51.5722 64.1058 51.6768 64.0625C51.7814 64.0192 51.8752 63.9535 51.9517 63.87C52.0375 63.7734 52.1002 63.6585 52.1349 63.534H52.6114C52.5925 63.6594 52.5499 63.7801 52.486 63.8896C52.4241 64.0077 52.3436 64.1152 52.2478 64.2079C52.0967 64.3541 51.9076 64.4549 51.7019 64.4986C51.572 64.5292 51.4389 64.5438 51.3054 64.5421C51.1343 64.5447 50.9647 64.5111 50.8075 64.4436C50.6503 64.376 50.5091 64.276 50.3933 64.1501C50.1444 63.8893 50.0196 63.5239 50.019 63.0539C50.0185 62.584 50.1441 62.2079 50.396 61.9258C50.5173 61.7846 50.6688 61.6723 50.8393 61.5974C51.0098 61.5225 51.1949 61.4867 51.381 61.4929C51.5885 61.4922 51.7932 61.5406 51.9784 61.6342ZM52.1562 62.7659C52.1461 62.5905 52.0995 62.4191 52.0193 62.2627C51.8859 62.0286 51.6643 61.9119 51.3543 61.9125C51.2492 61.9103 51.1448 61.9307 51.0482 61.9723C50.9516 62.0138 50.865 62.0756 50.7942 62.1534C50.6412 62.3207 50.5559 62.5391 50.5551 62.7659H52.1562Z" fill="#0C3985"/>
<path d="M53.2896 60.4854H53.7741V64.4387H53.2896V60.4854Z" fill="#0C3985"/>
<path d="M54.6286 60.75H55.1184V61.5554H55.578V61.951H55.1184V63.8322C55.1136 63.8721 55.1207 63.9126 55.1389 63.9486C55.1571 63.9845 55.1855 64.0142 55.2206 64.034C55.2805 64.0575 55.3449 64.0675 55.4091 64.0633H55.4838C55.5113 64.0633 55.5424 64.0633 55.578 64.0571V64.4393C55.5213 64.4557 55.4633 64.4673 55.4046 64.474C55.34 64.4813 55.275 64.4849 55.21 64.4847C54.9833 64.4847 54.8304 64.4269 54.7495 64.3069C54.6634 64.1728 54.6212 64.0153 54.6286 63.8562V61.951H54.2383V61.5554H54.6286V60.75Z" fill="#0C3985"/>
<path d="M56.3752 63.5331C56.3799 63.6655 56.4218 63.794 56.4961 63.9038C56.6188 64.0602 56.8307 64.1385 57.1318 64.1385C57.2973 64.1419 57.4608 64.1014 57.6056 64.0211C57.6704 63.9863 57.724 63.9338 57.7601 63.8698C57.7963 63.8057 57.8136 63.7328 57.8101 63.6593C57.8116 63.6016 57.797 63.5445 57.768 63.4946C57.7389 63.4447 57.6966 63.4038 57.6456 63.3766C57.513 63.3157 57.3741 63.2697 57.2313 63.2397L56.8508 63.1428C56.6601 63.1027 56.4767 63.0338 56.3068 62.9383C56.2106 62.8841 56.1309 62.805 56.076 62.7092C56.021 62.6134 55.993 62.5046 55.9947 62.3943C55.9907 62.2687 56.0152 62.1439 56.0663 62.0292C56.1174 61.9145 56.1939 61.8129 56.2899 61.732C56.4866 61.5642 56.7507 61.4801 57.082 61.4795C57.517 61.4795 57.8302 61.6069 58.0216 61.8618C58.1387 62.0103 58.2015 62.1945 58.1994 62.3836H57.7416C57.7327 62.275 57.6925 62.1712 57.626 62.0849C57.5152 61.9581 57.3223 61.8944 57.0473 61.8938C56.901 61.8837 56.7553 61.9204 56.6313 61.9987C56.5867 62.0297 56.5505 62.0712 56.5258 62.1196C56.5011 62.168 56.4888 62.2217 56.4899 62.276C56.4905 62.3384 56.5081 62.3995 56.5408 62.4526C56.5736 62.5057 56.6202 62.5489 56.6757 62.5774C56.7749 62.6326 56.8819 62.6725 56.9931 62.6956L57.314 62.7739C57.6616 62.8628 57.8954 62.9401 58.0136 63.0183C58.2021 63.1428 58.2963 63.3375 58.2963 63.6024C58.2972 63.7276 58.2715 63.8515 58.2211 63.9661C58.1707 64.0807 58.0967 64.1834 58.0039 64.2674C57.8095 64.4541 57.5131 64.5474 57.1149 64.5474C56.6852 64.5474 56.3814 64.4499 56.2036 64.2549C56.0234 64.0572 55.9214 63.8006 55.9165 63.5331H56.3752Z" fill="#0C3985"/>
<path d="M60.7749 61.7078C60.9782 61.8661 61.1006 62.1378 61.142 62.523H60.6735C60.6517 62.3593 60.5839 62.2052 60.478 62.0785C60.376 61.96 60.2116 61.9007 59.9846 61.9007C59.6758 61.9007 59.4553 62.0516 59.3232 62.3532C59.2304 62.5829 59.1862 62.8293 59.1934 63.0769C59.1849 63.3322 59.2483 63.5848 59.3765 63.8059C59.435 63.8871 59.5099 63.9551 59.5964 64.0053C59.6829 64.0556 59.7791 64.0871 59.8786 64.0977C59.9781 64.1082 60.0788 64.0977 60.1739 64.0667C60.2691 64.0357 60.3566 63.985 60.4308 63.9179C60.5578 63.7759 60.642 63.6008 60.6735 63.4129H61.1447C61.0914 63.7952 60.9568 64.0746 60.7411 64.2512C60.5062 64.4353 60.2134 64.5298 59.9152 64.5179C59.7431 64.5243 59.5719 64.4902 59.4154 64.4184C59.2588 64.3467 59.1213 64.2391 59.0138 64.1046C58.7822 63.8118 58.6619 63.4464 58.6742 63.0733C58.6742 62.5678 58.7972 62.174 59.0431 61.8919C59.1584 61.7564 59.3025 61.6484 59.465 61.5759C59.6274 61.5035 59.8041 61.4683 59.9819 61.4731C60.2652 61.4595 60.5447 61.5422 60.7749 61.7078Z" fill="#0C3985"/>
<path d="M61.6514 60.4707H62.1359V61.9455C62.2225 61.8279 62.3269 61.7244 62.4452 61.6388C62.6207 61.5316 62.8238 61.4784 63.0293 61.4859C63.4471 61.4859 63.7307 61.632 63.8801 61.9242C63.9706 62.1337 64.012 62.3612 64.001 62.5892V64.4383H63.5031V62.6212C63.5134 62.462 63.4857 62.3026 63.4222 62.1562C63.3333 61.998 63.1698 61.9189 62.9271 61.9189C62.7259 61.919 62.5318 61.9927 62.3812 62.126C62.2177 62.2647 62.1359 62.5252 62.1359 62.9092V64.4383H61.6514V60.4707Z" fill="#0C3985"/>
<path d="M65.2316 61.5547V63.4678C65.2272 63.5919 65.2512 63.7153 65.3018 63.8287C65.3907 64.0003 65.548 64.0866 65.7836 64.0866C66.1202 64.0866 66.3499 63.936 66.4726 63.6349C66.5471 63.4215 66.5808 63.1959 66.5722 62.97V61.5547H67.0567V64.4368H66.5988L66.6042 64.011C66.5448 64.1176 66.4654 64.2118 66.3704 64.2883C66.1801 64.4414 65.9415 64.5218 65.6974 64.515C65.2867 64.515 65.0066 64.3775 64.8573 64.1026C64.7696 63.9204 64.7281 63.7195 64.7364 63.5176V61.5618L65.2316 61.5547Z" fill="#0C3985"/>
<path d="M67.9375 60.75H68.4265V61.5554H68.887V61.951H68.4265V63.8322C68.4219 63.8722 68.4292 63.9127 68.4475 63.9486C68.4659 63.9845 68.4944 64.0142 68.5296 64.034C68.5892 64.0575 68.6533 64.0675 68.7172 64.0633H68.7928C68.8194 64.0633 68.8514 64.0633 68.887 64.0571V64.4393C68.8303 64.4557 68.7723 64.4673 68.7136 64.474C68.6487 64.4814 68.5834 64.4849 68.5181 64.4847C68.2923 64.4847 68.1385 64.4269 68.0584 64.3069C67.9724 64.1728 67.9302 64.0153 67.9375 63.8562V61.951H67.5464V61.5554H67.9375V60.75Z" fill="#0C3985"/>
<path d="M69.1841 64.051L70.8972 61.9876H69.3148V61.5547H71.5488V61.9503L69.8508 64.003H71.5995V64.4368H69.1841V64.051Z" fill="#0C3985"/>
<path d="M44.7268 54.3623V54.8335H43.3933V58.3166H42.8501V54.8317H41.5166V54.3623H44.7268Z" fill="#0C3985"/>
<path d="M45.4617 54.3619V56.8057C45.4532 57.0527 45.5086 57.2977 45.6226 57.5169C45.7826 57.8044 46.052 57.9481 46.4307 57.9481C46.8841 57.9481 47.1926 57.7928 47.3562 57.4823C47.4533 57.2689 47.4984 57.0355 47.4877 56.8013V54.3619H48.0318V56.5844C48.0318 57.0704 47.9663 57.4443 47.8353 57.7063C47.5941 58.1834 47.1401 58.4222 46.4734 58.4228C45.8066 58.4234 45.3542 58.1834 45.1159 57.7027C44.9849 57.4414 44.9194 57.0674 44.9194 56.5808V54.3619H45.4617ZM45.8413 53.4258H46.3445V53.9859H45.8413V53.4258ZM46.7303 53.4258H47.2335V53.9859H46.7303V53.4258Z" fill="#0C3985"/>
<path d="M48.8367 54.3623L49.9728 57.7298L51.0947 54.3623H51.6948L50.2529 58.3166H49.6848L48.2446 54.3623H48.8367Z" fill="#0C3985"/>
<path d="M53.0605 54.3623H53.6926L55.6893 57.5627V54.3623H56.1978V58.3166H55.5977L53.5717 55.1162V58.3166H53.0605V54.3623Z" fill="#0C3985"/>
<path d="M59.9624 54.9248C60.2238 55.2751 60.3548 55.7229 60.3553 56.2681C60.3553 56.8608 60.2054 57.3515 59.9055 57.7403C59.5541 58.199 59.0527 58.4287 58.4013 58.4293C57.7933 58.4293 57.315 58.2283 56.9665 57.8265C56.6559 57.4389 56.501 56.9491 56.5015 56.357C56.4868 55.869 56.6255 55.3886 56.898 54.9835C57.2388 54.4952 57.7426 54.251 58.4093 54.251C59.1081 54.2516 59.6258 54.4762 59.9624 54.9248ZM59.4904 57.4425C59.7044 57.0916 59.8139 56.687 59.8059 56.2761C59.8059 55.8109 59.6845 55.4366 59.4415 55.1533C59.1985 54.87 58.866 54.7284 58.444 54.7284C58.2566 54.7222 58.0701 54.7567 57.8973 54.8294C57.7245 54.9021 57.5695 55.0114 57.443 55.1497C57.1852 55.4307 57.056 55.8455 57.0554 56.3943C57.042 56.7886 57.1575 57.1766 57.3843 57.4994C57.606 57.7998 57.9654 57.9501 58.4627 57.9501C58.935 57.9501 59.277 57.7809 59.4886 57.4425H59.4904Z" fill="#0C3985"/>
<path d="M60.7197 54.3623H62.5493C62.8044 54.3538 63.0585 54.399 63.2951 54.4948C63.6667 54.6628 63.8525 54.9749 63.8525 55.4282C63.8655 55.6236 63.8193 55.8182 63.7198 55.9869C63.6204 56.1555 63.4724 56.2901 63.2951 56.3732C63.4314 56.4229 63.5517 56.5082 63.6436 56.6204C63.7219 56.7229 63.7654 56.8889 63.7743 57.1182L63.793 57.6516C63.7939 57.7646 63.8064 57.8772 63.8303 57.9877C63.8382 58.0387 63.8579 58.0873 63.8879 58.1294C63.9178 58.1715 63.9572 58.2061 64.0028 58.2304V58.3193H63.3458C63.3255 58.2773 63.3112 58.2327 63.3031 58.1868C63.2878 58.0834 63.2789 57.9792 63.2765 57.8748L63.2436 57.2151C63.2311 56.9573 63.1351 56.7843 62.9555 56.696C62.8019 56.6389 62.6382 56.6141 62.4746 56.6231H61.2549V58.3193H60.7215L60.7197 54.3623ZM62.4977 56.1741C62.707 56.1851 62.9146 56.1324 63.0933 56.023C63.2403 55.9222 63.3135 55.7412 63.3129 55.4798C63.3129 55.1983 63.2107 55.0063 63.0062 54.9037C62.8678 54.844 62.7177 54.8163 62.5671 54.8228H61.2549V56.1741H62.4977Z" fill="#0C3985"/>
<path d="M64.3242 54.3623H65.9244C66.4673 54.3623 66.8889 54.5552 67.1894 54.941C67.4561 55.2895 67.5898 55.734 67.5904 56.2745C67.5962 56.6667 67.5151 57.0553 67.353 57.4124C67.0756 58.0128 66.5976 58.3127 65.919 58.3121H64.3188L64.3242 54.3623ZM65.8177 57.8587C65.9679 57.8628 66.1178 57.8436 66.2622 57.8018C66.4738 57.7295 66.6544 57.5871 66.7743 57.3982C66.8905 57.211 66.9681 57.0025 67.0027 56.7848C67.0282 56.6482 67.0416 56.5095 67.0427 56.3705C67.0427 55.8804 66.9455 55.4999 66.7511 55.2291C66.5567 54.9582 66.2432 54.8228 65.8106 54.8228H64.862V57.8587H65.8177Z" fill="#0C3985"/>
<path d="M38.0212 66.6932C38.4017 66.8923 38.6343 67.242 38.719 67.7422H38.2061C38.1853 67.6197 38.1403 67.5027 38.0738 67.3978C38.0072 67.2929 37.9204 67.2024 37.8185 67.1315C37.5949 66.9969 37.3369 66.9304 37.0762 66.9403C36.9067 66.9381 36.7388 66.9729 36.5841 67.0423C36.4295 67.1117 36.2919 67.214 36.181 67.3421C35.9391 67.6082 35.8182 68.0041 35.8182 68.5298C35.8182 68.985 35.9178 69.3554 36.1169 69.6411C36.3161 69.9267 36.642 70.0696 37.0948 70.0696C37.4086 70.0809 37.715 69.9733 37.9527 69.7682C38.1791 69.5685 38.2953 69.2443 38.3012 68.7956H37.102V68.3663H38.7822V70.411H38.4488L38.3234 69.9202C38.1899 70.0775 38.0324 70.2129 37.8567 70.3212C37.5892 70.4589 37.2906 70.5254 36.9899 70.5141C36.5574 70.5212 36.1387 70.3621 35.82 70.0696C35.4644 69.7015 35.2866 69.1963 35.2866 68.5538C35.2866 67.9114 35.4603 67.402 35.8076 67.0257C35.9689 66.8476 36.167 66.7068 36.3883 66.6132C36.6095 66.5195 36.8485 66.4752 37.0886 66.4834C37.412 66.4751 37.7325 66.5472 38.0212 66.6932Z" fill="#0C3985"/>
<path d="M39.6045 67.6196H40.0677V68.0152C40.1541 67.9019 40.2558 67.8011 40.3699 67.7156C40.5248 67.6096 40.7086 67.554 40.8962 67.5565C41.0877 67.5478 41.2762 67.606 41.4296 67.721C41.517 67.7979 41.5881 67.8916 41.6385 67.9966C41.7313 67.8571 41.8575 67.7431 42.0057 67.665C42.1526 67.5913 42.3151 67.5541 42.4795 67.5565C42.8547 67.5565 43.1098 67.6919 43.2449 67.9628C43.3255 68.1481 43.3629 68.3494 43.3543 68.5513V70.4084H42.8671V68.4713C42.8671 68.2855 42.8209 68.1575 42.7284 68.0881C42.6295 68.0169 42.5098 67.9804 42.3879 67.9841C42.2115 67.981 42.041 68.0474 41.9132 68.169C41.7799 68.2917 41.7141 68.498 41.7141 68.786V70.4084H41.2367V68.586C41.2455 68.4448 41.2224 68.3035 41.1691 68.1726C41.098 68.0416 40.9652 67.9764 40.7709 67.977C40.5891 67.9789 40.4156 68.0528 40.2881 68.1824C40.1423 68.3202 40.0703 68.5682 40.0703 68.9273V70.4084H39.6045V67.6196Z" fill="#0C3985"/>
<path d="M44.0991 66.5693H44.5543V67.9571C44.6505 67.8277 44.776 67.7231 44.9205 67.6517C45.065 67.5803 45.2243 67.5442 45.3855 67.5463C45.5438 67.5406 45.7014 67.5695 45.8474 67.6309C45.9934 67.6923 46.1243 67.7848 46.2309 67.9019C46.4473 68.139 46.5551 68.491 46.5545 68.9581C46.5694 69.3496 46.4571 69.7354 46.2345 70.0578C46.1345 70.199 46.0008 70.3129 45.8455 70.3893C45.6903 70.4657 45.5184 70.5021 45.3455 70.4951C45.156 70.5005 44.9696 70.4467 44.8121 70.3413C44.7048 70.2592 44.6109 70.1608 44.5338 70.0498V70.4053H44.1018L44.0991 66.5693ZM45.8869 69.7804C46.0235 69.5366 46.0888 69.2594 46.0754 68.9803C46.0851 68.7238 46.0196 68.4701 45.8869 68.2504C45.828 68.1573 45.7455 68.0815 45.6477 68.0307C45.5499 67.98 45.4404 67.9561 45.3304 67.9615C45.2257 67.9611 45.122 67.982 45.0256 68.0228C44.9292 68.0636 44.8421 68.1235 44.7694 68.1989C44.6082 68.3571 44.5279 68.6176 44.5285 68.9803C44.521 69.1971 44.5545 69.4133 44.6272 69.6177C44.6758 69.7597 44.7698 69.8818 44.8946 69.9651C45.0194 70.0485 45.1681 70.0885 45.3179 70.0791C45.431 70.0858 45.5437 70.0615 45.644 70.0089C45.7442 69.9562 45.8282 69.8772 45.8869 69.7804Z" fill="#0C3985"/>
<path d="M47.2624 66.582H47.7834V68.1627H49.7738V66.582H50.2966V70.4047H49.7738V68.6187H47.7834V70.4074H47.2598L47.2624 66.582Z" fill="#0C3985"/>
<path d="M53.1169 67.8124C53.0649 67.6969 53.0371 67.572 53.0351 67.4453C53.032 67.3313 53.0526 67.2179 53.0956 67.1123C53.1386 67.0067 53.2031 66.9112 53.2849 66.8319C53.3748 66.7489 53.4802 66.6846 53.5952 66.6428C53.7101 66.601 53.8322 66.5825 53.9543 66.5883C54.068 66.5818 54.1819 66.5985 54.2889 66.6375C54.3958 66.6765 54.4938 66.7369 54.5766 66.815C54.6485 66.8856 54.7053 66.9701 54.7437 67.0633C54.782 67.1565 54.8011 67.2565 54.7998 67.3573C54.8034 67.5925 54.7212 67.821 54.5686 68C54.4348 68.1439 54.2823 68.2692 54.1152 68.3725L54.8131 69.2064C54.8602 69.0668 54.8922 68.9637 54.9109 68.8952C54.9296 68.8268 54.9473 68.7308 54.9669 68.6072H55.4114C55.3823 68.8485 55.3225 69.0851 55.2336 69.3113C55.1447 69.5359 55.1003 69.6269 55.1003 69.5842L55.7839 70.4092H55.1794L54.8238 69.9718C54.7098 70.102 54.5785 70.216 54.4335 70.3105C54.2184 70.4377 53.9722 70.5026 53.7223 70.4981C53.3246 70.4981 53.0354 70.3908 52.8547 70.1763C52.6806 69.9749 52.5858 69.717 52.588 69.4508C52.5793 69.1841 52.6731 68.9242 52.8502 68.7245C53.0306 68.5508 53.2329 68.4013 53.4521 68.28C53.3183 68.1412 53.2054 67.9837 53.1169 67.8124ZM54.2459 69.954C54.3719 69.8778 54.4811 69.7768 54.5669 69.6571L53.7019 68.6019C53.5282 68.7081 53.3675 68.834 53.2227 68.977C53.1075 69.1086 53.0463 69.2787 53.0511 69.4535C53.0464 69.5439 53.0643 69.6341 53.1031 69.7158C53.1419 69.7976 53.2004 69.8685 53.2734 69.922C53.4097 70.0274 53.5767 70.0851 53.749 70.0865C53.9248 70.0917 54.0984 70.0457 54.2486 69.954H54.2459ZM54.2121 67.7866C54.3107 67.6795 54.3656 67.5393 54.3659 67.3937C54.3679 67.2857 54.3277 67.1811 54.2539 67.1021C54.2155 67.061 54.1685 67.0287 54.1163 67.0075C54.0641 66.9863 54.0079 66.9768 53.9517 66.9794C53.7597 66.9794 53.6254 67.0434 53.5507 67.1724C53.5127 67.2379 53.4931 67.3126 53.4938 67.3884C53.4951 67.4962 53.5258 67.6017 53.5827 67.6933C53.6684 67.8272 53.7657 67.9533 53.8734 68.0702C53.9967 67.9889 54.1104 67.8937 54.2121 67.7866Z" fill="#0C3985"/>
<path d="M60.7051 66.8612C60.9568 67.0856 61.1154 67.3961 61.1496 67.7316H60.6438C60.5979 67.5034 60.4775 67.297 60.3015 67.1448C60.1308 67.0008 59.8908 66.9288 59.5814 66.9288C59.4092 66.9228 59.2379 66.9554 59.0799 67.0241C58.9219 67.0929 58.7813 67.1961 58.6684 67.3262C58.4367 67.5911 58.3208 67.9971 58.3208 68.5441C58.3208 68.991 58.4254 69.3543 58.6346 69.634C58.8435 69.9123 59.1565 70.0518 59.5707 70.0518C59.7423 70.0598 59.913 70.023 60.066 69.9451C60.2191 69.8672 60.3492 69.7508 60.4437 69.6073C60.5619 69.4216 60.6423 69.2144 60.6802 68.9975H61.186C61.1528 69.3749 60.9966 69.7309 60.7415 70.011C60.4375 70.3387 60.0277 70.5029 59.5121 70.5035C59.1009 70.5155 58.7005 70.3709 58.3919 70.099C57.9948 69.7434 57.796 69.194 57.7954 68.4508C57.7954 67.8859 57.9436 67.4231 58.2399 67.0621C58.5635 66.6704 59.008 66.4742 59.5734 66.4736C60.0606 66.4766 60.4378 66.6058 60.7051 66.8612Z" fill="#0C3985"/>
<path d="M63.8739 67.8973C64.1228 68.1373 64.2469 68.4896 64.2463 68.9543C64.2463 69.4041 64.137 69.7757 63.9183 70.0691C63.6996 70.3625 63.3603 70.5106 62.9004 70.5136C62.7285 70.5212 62.5571 70.4902 62.3988 70.4228C62.2405 70.3554 62.0993 70.2534 61.9856 70.1242C61.7628 69.8623 61.6514 69.5123 61.6514 69.0743C61.6514 68.6061 61.7699 68.2327 62.007 67.9542C62.125 67.817 62.2725 67.7084 62.4384 67.6363C62.6044 67.5643 62.7845 67.5307 62.9653 67.5381C63.133 67.5345 63.2998 67.5644 63.4558 67.6261C63.6118 67.6878 63.7539 67.78 63.8739 67.8973ZM63.584 69.7526C63.7033 69.5083 63.7642 69.2395 63.7618 68.9676C63.7705 68.7489 63.7275 68.5311 63.6365 68.332C63.5049 68.0754 63.2773 67.9471 62.9537 67.9471C62.6675 67.9471 62.4601 68.0564 62.3315 68.2751C62.196 68.5163 62.1287 68.7898 62.1368 69.0663C62.127 69.3275 62.1948 69.5858 62.3315 69.8086C62.4621 70.0069 62.6684 70.1055 62.9537 70.1055C63.259 70.1055 63.4697 69.9879 63.5858 69.7526H63.584Z" fill="#0C3985"/>
<path d="M65.0029 69.8408H65.5479V70.408H65.0029V69.8408Z" fill="#0C3985"/>
<path d="M66.5215 66.582H67.0264V68.4489L68.8933 66.582H69.6045L68.0132 68.1236L69.6525 70.4074H68.9769L67.6381 68.488L67.0264 69.0739V70.4074H66.5215V66.582Z" fill="#0C3985"/>
<path d="M72.7507 66.6923C73.13 66.8914 73.3626 67.2411 73.4485 67.7413H72.9356C72.9146 67.6188 72.8695 67.5017 72.8028 67.3968C72.7361 67.292 72.6492 67.2014 72.5471 67.1306C72.3236 66.9958 72.0656 66.9294 71.8048 66.9394C71.6354 66.9372 71.4676 66.972 71.3131 67.0414C71.1587 67.1108 71.0212 67.2131 70.9104 67.3413C70.6675 67.6074 70.5462 68.0033 70.5468 68.529C70.5468 68.9841 70.6467 69.3545 70.8464 69.6402C71.0462 69.9259 71.3721 70.0687 71.8243 70.0687C72.1381 70.08 72.4445 69.9724 72.6822 69.7673C72.9086 69.5676 73.0245 69.2434 73.0298 68.7948H71.8314V68.3654H73.5108V70.4101H73.1774L73.0529 69.9185C72.9191 70.0756 72.7617 70.2108 72.5862 70.3194C72.3186 70.4571 72.0201 70.5235 71.7194 70.5123C71.2869 70.5194 70.8682 70.3603 70.5495 70.0678C70.1939 69.6998 70.0161 69.1945 70.0161 68.5521C70.0161 67.9096 70.1912 67.4008 70.5415 67.0257C70.7028 66.8476 70.9009 66.7068 71.1222 66.6132C71.3434 66.5195 71.5824 66.4752 71.8225 66.4834C72.1444 66.4756 72.4632 66.5473 72.7507 66.6923Z" fill="#0C3985"/>
<path d="M18.2409 55.8727L21.8245 58.137L21.5773 55.7234L22.0912 55.6709L22.4139 58.8242L21.9116 58.8757L18.3458 56.5937L18.6125 59.2127L18.0987 59.2651L17.7573 55.9207L18.2409 55.8727Z" fill="white"/>
<path d="M21.6852 61.5385C21.6349 61.7448 21.5302 61.9339 21.3821 62.0861C21.2391 62.227 21.0679 62.3361 20.8798 62.4061C20.6622 62.4899 20.4372 62.553 20.2077 62.5946L19.7374 60.3623C19.4676 60.4141 19.2198 60.5461 19.0262 60.741C18.8653 60.9188 18.8155 61.1482 18.8751 61.4345C18.8953 61.5554 18.9419 61.6704 19.0117 61.7712C19.0814 61.872 19.1726 61.9562 19.2787 62.0176C19.4019 62.087 19.5394 62.1271 19.6805 62.135L19.7863 62.6382C19.6486 62.6465 19.5105 62.629 19.3792 62.5866C19.2389 62.548 19.1055 62.488 18.9836 62.4088C18.7939 62.282 18.6437 62.1046 18.5497 61.8967C18.4889 61.7666 18.4438 61.6296 18.4155 61.4887C18.3749 61.3078 18.3733 61.1204 18.4108 60.9389C18.4484 60.7574 18.5242 60.586 18.6333 60.4361C18.8585 60.1137 19.223 59.8995 19.7268 59.7934C20.2305 59.6873 20.6632 59.7344 21.0247 59.9347C21.2027 60.0299 21.3569 60.1642 21.4755 60.3276C21.594 60.491 21.674 60.6792 21.7092 60.878C21.7536 61.0969 21.7454 61.3233 21.6852 61.5385ZM20.51 61.983C20.6957 61.9326 20.8691 61.8445 21.0194 61.7243C21.2398 61.5317 21.3157 61.2712 21.2469 60.9429C21.2252 60.8316 21.1797 60.7264 21.1136 60.6343C21.0475 60.5423 20.9623 60.4656 20.8638 60.4095C20.6492 60.2841 20.3957 60.2432 20.1526 60.2948L20.51 61.983Z" fill="white"/>
<path d="M22.159 63.0391L22.3003 63.5147L21.7776 63.6711C21.9408 63.6982 22.0967 63.7587 22.2354 63.8489C22.3254 63.897 22.405 63.9625 22.4696 64.0415C22.5341 64.1206 22.5823 64.2116 22.6115 64.3094C22.6115 64.3183 22.6177 64.3352 22.623 64.3574C22.6283 64.3797 22.6346 64.4197 22.6452 64.4748L22.1118 64.6357C22.1083 64.6037 22.1038 64.5741 22.0985 64.5468C22.0923 64.521 22.0852 64.4935 22.0763 64.4632C22.0503 64.3518 21.9988 64.248 21.9259 64.1599C21.8529 64.0718 21.7604 64.0018 21.6558 63.9556C21.4561 63.8696 21.2323 63.8576 21.0246 63.9218L19.2822 64.4419L19.1328 63.9405L22.159 63.0391Z" fill="white"/>
<path d="M23.6725 64.8952L23.8503 65.3921L23.0209 65.6944L23.1907 66.1611L22.7827 66.3096L22.6129 65.8429L20.674 66.5478C20.6313 66.5576 20.5924 66.5797 20.5621 66.6113C20.5318 66.6429 20.5113 66.6826 20.5033 66.7256C20.5013 66.795 20.5147 66.8639 20.5424 66.9274L20.5717 67.0039C20.5824 67.0306 20.5966 67.0617 20.6135 67.0928L20.2241 67.2421C20.1863 67.1904 20.1527 67.1357 20.1237 67.0786C20.0922 67.0157 20.0646 66.951 20.041 66.8848C19.9574 66.6554 19.9604 66.4776 20.0499 66.3514C20.1568 66.2135 20.3032 66.1115 20.4695 66.0589L22.4368 65.3477L22.2928 64.9512L22.7 64.8027L22.844 65.1992L23.6725 64.8952Z" fill="white"/>
<path d="M23.454 66.8364L23.6603 67.3262L20.7577 68.5468L20.5532 68.0525L23.454 66.8364ZM24.5501 66.375L24.7564 66.8648L24.2017 67.0986L23.9954 66.6088L24.5501 66.375Z" fill="white"/>
<path d="M25.0506 68.0261C25.2669 68.0581 25.4503 68.2312 25.6009 68.5453C25.6151 68.5755 25.6293 68.6057 25.6427 68.6386C25.656 68.6715 25.6702 68.708 25.6862 68.7497L25.2497 68.9595C25.2293 68.9089 25.2151 68.8706 25.2053 68.8502C25.1955 68.8297 25.1866 68.8066 25.1768 68.788C25.1084 68.6448 25.0293 68.5773 24.9404 68.5853C24.8515 68.5933 24.6532 68.6742 24.3447 68.82L24.5688 69.2858L24.1909 69.4636L23.9642 68.9915L21.5053 70.1721L21.2812 69.7063L23.7402 68.5257L23.5526 68.1417L23.9305 67.9639L24.118 68.3541L24.5625 68.139C24.7124 68.059 24.8808 68.02 25.0506 68.0261Z" fill="white"/>
<path d="M24.8892 69.8894L25.1435 70.3571L22.3769 71.8568L22.1235 71.3892L24.8892 69.8894ZM25.9347 69.3223L26.1889 69.789L25.6555 70.0761L25.4022 69.6094L25.9347 69.3223Z" fill="white"/>
<path d="M23.1874 72.4837L26.0918 72.8269L25.1761 71.384L25.577 71.1289L26.8696 73.1656L26.5034 73.3985L23.6186 73.0571L24.6311 74.652L24.2302 74.9063L22.8345 72.7078L23.1874 72.4837Z" fill="white"/>
<path d="M27.3626 73.8564L27.6773 74.2849L25.1419 76.1518L24.8271 75.7233L27.3626 73.8564ZM28.3209 73.1523L28.6356 73.5808L28.1502 73.9364L27.8355 73.5079L28.3209 73.1523Z" fill="white"/>
<path d="M29.4594 76.5941C29.5144 76.7979 29.5144 77.0126 29.4594 77.2164C29.4012 77.4108 29.3017 77.5903 29.1678 77.7427C29.0168 77.9201 28.8499 78.0831 28.669 78.2299L27.1862 76.4981C26.9741 76.6722 26.8192 76.906 26.7417 77.1693C26.6824 77.401 26.7491 77.6283 26.9417 77.8512C27.0174 77.9476 27.1135 78.0262 27.223 78.0812C27.3326 78.1362 27.453 78.1663 27.5756 78.1694C27.7169 78.1712 27.8567 78.1408 27.9845 78.0805L28.3179 78.4708C28.2011 78.5445 28.0714 78.5955 27.9356 78.621C27.7938 78.6538 27.6477 78.6643 27.5027 78.6521C27.2767 78.6319 27.061 78.5484 26.8804 78.4112C26.7642 78.3263 26.6588 78.2274 26.5666 78.117C26.4443 77.9778 26.3531 77.8141 26.2991 77.6369C26.2452 77.4597 26.2296 77.273 26.2536 77.0893C26.2963 76.6981 26.5135 76.3351 26.9053 76.0003C27.297 75.6654 27.6985 75.5007 28.1099 75.506C28.3117 75.5043 28.5114 75.5485 28.6937 75.6352C28.876 75.7219 29.0363 75.8488 29.1624 76.0065C29.3065 76.1761 29.4083 76.3775 29.4594 76.5941ZM28.6406 77.5462C28.7797 77.4133 28.8896 77.2528 28.9633 77.0751C29.0646 76.8007 29.0054 76.5357 28.7855 76.2803C28.7131 76.1923 28.6226 76.121 28.5201 76.0713C28.4176 76.0216 28.3055 75.9946 28.1916 75.9923C27.9442 75.9863 27.7031 76.0714 27.5142 76.2314L28.6406 77.5462Z" fill="white"/>
<path d="M30.5934 77.6836L30.949 78.033L30.565 78.4215C30.7205 78.3663 30.8857 78.3439 31.0504 78.3557C31.1526 78.3546 31.2541 78.3739 31.3488 78.4123C31.4436 78.4508 31.5298 78.5077 31.6024 78.5797L31.6353 78.617C31.6504 78.6339 31.6753 78.665 31.7118 78.7059L31.3171 79.1051C31.3008 79.0808 31.283 79.0577 31.2637 79.0358C31.2468 79.0162 31.2273 78.9958 31.205 78.9735C31.1286 78.8883 31.0334 78.8219 30.927 78.7796C30.8205 78.7374 30.7057 78.7203 30.5916 78.7299C30.3755 78.75 30.1736 78.8468 30.0227 79.0029L28.7407 80.2972L28.3691 79.9292L30.5934 77.6836Z" fill="white"/>
<path d="M32.8146 78.5859L33.212 78.9353L32.6288 79.5976L33.0022 79.9257L32.7159 80.2519L32.3425 79.9239L30.9815 81.4761C30.9486 81.5053 30.925 81.5435 30.9136 81.586C30.9022 81.6285 30.9036 81.6735 30.9175 81.7152C30.9491 81.7773 30.9941 81.8316 31.0491 81.8743L31.1113 81.9268C31.1335 81.9455 31.1611 81.9659 31.1931 81.9881L30.9157 82.3028C30.8576 82.2761 30.8019 82.2443 30.7495 82.2077C30.6918 82.1677 30.6366 82.1244 30.5841 82.0779C30.4001 81.917 30.3174 81.7596 30.3361 81.6067C30.3638 81.4344 30.4435 81.2747 30.5645 81.1489L31.946 79.5772L31.6296 79.2989L31.9167 78.9735L32.2332 79.2518L32.8146 78.5859Z" fill="white"/>
<path d="M35.0351 81.619C35.1334 81.807 35.18 82.0178 35.1702 82.2297C35.1553 82.4302 35.0983 82.6252 35.0031 82.8022C34.8951 83.0089 34.768 83.2051 34.6235 83.3881L32.7966 82.0217C32.6291 82.2385 32.5303 82.5004 32.513 82.7738C32.5085 83.0129 32.6241 83.2183 32.8579 83.3961C32.9527 83.4739 33.0636 83.5298 33.1826 83.5596C33.3016 83.5894 33.4257 83.5925 33.546 83.5685C33.6844 83.5389 33.8142 83.4781 33.9256 83.3907L34.3372 83.6992C34.239 83.7964 34.1235 83.8745 33.9967 83.9295C33.8659 83.9932 33.7257 84.0355 33.5815 84.0548C33.3554 84.0852 33.1253 84.0513 32.9175 83.957C32.7858 83.8998 32.6616 83.8267 32.5476 83.7392C32.3971 83.6306 32.2717 83.4911 32.1797 83.3299C32.0876 83.1687 32.0312 82.9897 32.0142 82.8049C31.9698 82.4149 32.102 82.0134 32.4107 81.6003C32.7195 81.1872 33.0751 80.9383 33.4775 80.8536C33.6739 80.8075 33.8782 80.8066 34.075 80.851C34.2718 80.8953 34.456 80.9838 34.6137 81.1096C34.7926 81.2435 34.937 81.4181 35.0351 81.619ZM34.4483 82.7276C34.5554 82.5665 34.6275 82.3848 34.6599 82.1942C34.6978 81.9038 34.5829 81.6581 34.315 81.4572C34.2252 81.3873 34.1213 81.3377 34.0105 81.3118C33.8997 81.2858 33.7846 81.2842 33.6731 81.3069C33.4294 81.3548 33.2121 81.4913 33.0633 81.6901L34.4483 82.7276Z" fill="white"/>
<path d="M36.382 82.4316L36.8034 82.6983L36.5144 83.1615C36.6543 83.0737 36.8108 83.0156 36.9741 82.9908C37.0734 82.9671 37.1764 82.9635 37.2772 82.9801C37.3779 82.9967 37.4744 83.0333 37.5608 83.0877C37.5688 83.0931 37.5821 83.1019 37.6008 83.1162L37.6959 83.1891L37.399 83.6647C37.3777 83.6452 37.3555 83.6268 37.3323 83.6096C37.3119 83.5944 37.2879 83.5784 37.2612 83.5616C37.1679 83.4953 37.0605 83.4516 36.9474 83.4339C36.8343 83.4161 36.7187 83.4248 36.6096 83.4593C36.4029 83.527 36.2273 83.6664 36.1144 83.8523L35.1525 85.3884L34.708 85.112L36.382 82.4316Z" fill="white"/>
<path d="M40.4172 83.3984L43.2753 84.6306L43.0655 85.1213L40.7248 84.1096L40.2038 85.3187L42.3685 86.2512L42.1694 86.7126L40.0056 85.7801L39.4269 87.1296L41.8067 88.1555L41.6031 88.6293L38.7041 87.3847L40.4172 83.3984Z" fill="white"/>
<path d="M43.6628 85.9961L44.1393 86.1383L44.0104 86.5686C44.1772 86.4451 44.3694 86.3604 44.5731 86.3206C44.7605 86.291 44.9522 86.3053 45.1332 86.3624C45.5572 86.4886 45.7973 86.7242 45.8568 87.0682C45.8825 87.3189 45.8521 87.5721 45.7679 87.8096L45.1865 89.7521L44.6771 89.5992L45.2487 87.6905C45.3006 87.5395 45.3185 87.379 45.3012 87.2202C45.2692 87.0051 45.1361 86.8623 44.902 86.7917C44.8038 86.7595 44.7013 86.7424 44.598 86.7411C44.4588 86.747 44.3231 86.7866 44.2026 86.8566C44.0821 86.9266 43.9804 87.0249 43.9064 87.1429C43.8312 87.2842 43.7716 87.4332 43.7286 87.5874L43.2538 89.1734L42.7524 89.024L43.6628 85.9961Z" fill="white"/>
<path d="M47.3118 86.0859L47.8284 86.1962L47.6452 87.0594L48.1315 87.1625L48.0426 87.5866L47.5563 87.4834L47.1269 89.5015C47.1129 89.5432 47.1113 89.5881 47.1223 89.6307C47.1334 89.6734 47.1566 89.7118 47.1892 89.7415C47.2469 89.78 47.3125 89.8052 47.3812 89.8153C47.4061 89.8206 47.4328 89.8259 47.4612 89.8304C47.4896 89.8348 47.5234 89.8402 47.5625 89.8446L47.4736 90.2544C47.41 90.2598 47.3461 90.2598 47.2825 90.2544C47.2123 90.2476 47.1425 90.2367 47.0736 90.2215C46.8365 90.1706 46.6884 90.0743 46.6291 89.9326C46.5684 89.7689 46.5597 89.5903 46.6042 89.4215L47.0389 87.3768L46.6273 87.2879L46.7162 86.8629L47.1287 86.9518L47.3118 86.0859Z" fill="white"/>
<path d="M48.8499 89.4914C48.8351 89.6361 48.8609 89.782 48.9246 89.9128C49.033 90.0995 49.2481 90.2148 49.57 90.2586C49.747 90.2863 49.9282 90.2657 50.0945 90.1991C50.1688 90.1691 50.2332 90.1189 50.2803 90.0542C50.3275 89.9894 50.3555 89.9127 50.3612 89.8328C50.3715 89.7706 50.3643 89.7067 50.3405 89.6483C50.3166 89.5899 50.277 89.5393 50.226 89.5021C50.0936 89.4163 49.9516 89.3462 49.8029 89.2932L49.4055 89.1323C49.2068 89.0618 49.0205 88.9604 48.8534 88.8318C48.7578 88.7585 48.6838 88.6607 48.639 88.5489C48.5943 88.437 48.5805 88.3152 48.5992 88.1962C48.6125 88.0596 48.6565 87.9278 48.7277 87.8105C48.799 87.6932 48.8957 87.5935 49.0108 87.5187C49.2479 87.3635 49.5442 87.3098 49.8998 87.3578C50.3638 87.4171 50.68 87.6005 50.8483 87.9081C50.9514 88.0875 50.9905 88.2965 50.9595 88.5011L50.4705 88.4353C50.4773 88.3161 50.4492 88.1974 50.3896 88.0939C50.2892 87.9392 50.0927 87.8423 49.7984 87.8023C49.643 87.7707 49.4815 87.7901 49.3379 87.8574C49.2856 87.8851 49.2408 87.9252 49.2074 87.9741C49.1741 88.0231 49.1533 88.0795 49.1468 88.1384C49.1376 88.2061 49.1471 88.2751 49.1744 88.3378C49.2016 88.4005 49.2456 88.4545 49.3015 88.494C49.399 88.5699 49.5079 88.6299 49.6242 88.6718L49.9549 88.8033C50.3152 88.945 50.5523 89.0671 50.6661 89.1696C50.8504 89.3314 50.9227 89.5566 50.883 89.8452C50.866 89.981 50.8209 90.1116 50.7504 90.2289C50.68 90.3462 50.5859 90.4474 50.4741 90.5262C50.237 90.7005 49.906 90.7597 49.4811 90.704C49.0223 90.6427 48.7112 90.4924 48.5494 90.2595C48.3853 90.017 48.3137 89.7236 48.3476 89.4327L48.8499 89.4914Z" fill="white"/>
<path d="M54.2038 88.0738C54.471 88.3548 54.5958 88.7587 54.578 89.2855C54.5614 89.7952 54.4251 90.2119 54.1691 90.5355C53.9131 90.8591 53.5278 91.0123 53.0134 90.9951C52.8209 90.9969 52.6305 90.9551 52.4565 90.8727C52.2825 90.7903 52.1294 90.6695 52.0088 90.5195C51.767 90.2163 51.6532 89.818 51.6719 89.322C51.6897 88.7886 51.8378 88.3702 52.1164 88.0667C52.2526 87.9156 52.4217 87.7978 52.6107 87.7224C52.7997 87.647 53.0035 87.6161 53.2063 87.632C53.3937 87.6349 53.5786 87.6755 53.75 87.7514C53.9214 87.8273 54.0757 87.937 54.2038 88.0738ZM53.8082 90.1647C53.9489 89.891 54.0255 89.5888 54.0322 89.2811C54.0499 89.034 54.0107 88.7861 53.9175 88.5566C53.78 88.2602 53.5311 88.1061 53.1707 88.0943C52.8513 88.0836 52.6142 88.1995 52.4595 88.4419C52.2985 88.7106 52.2126 89.0176 52.2106 89.3309C52.1911 89.6269 52.2591 89.9222 52.4062 90.1799C52.5437 90.4092 52.7704 90.5292 53.0863 90.5399C53.4289 90.5518 53.6695 90.4267 53.8082 90.1647Z" fill="white"/>
<path d="M55.4224 87.7307L55.9184 87.7067L55.946 88.2516C56.0108 88.0998 56.1057 87.9628 56.2251 87.8489C56.2928 87.7733 56.3748 87.7118 56.4663 87.668C56.5579 87.6242 56.6572 87.599 56.7585 87.5938C56.7683 87.5937 56.7843 87.5938 56.8074 87.5938L56.9274 87.6L56.955 88.16C56.9256 88.1555 56.8959 88.1531 56.8661 88.1529C56.8403 88.1529 56.811 88.1529 56.7772 88.1529C56.6627 88.1519 56.5495 88.1773 56.4465 88.2273C56.3435 88.2773 56.2534 88.3504 56.1833 88.441C56.052 88.6141 55.9871 88.8286 56.0002 89.0455L56.0891 90.8617L55.5664 90.8875L55.4224 87.7307Z" fill="white"/>
<path d="M59.3069 87.5045C59.4321 87.5734 59.5465 87.6602 59.6465 87.7623L59.5931 87.3676L60.0705 87.3027L60.4572 90.1475C60.5112 90.5458 60.4963 90.8676 60.4128 91.113C60.2557 91.5669 59.8785 91.8336 59.2811 91.9131C58.9868 91.9637 58.6841 91.9243 58.4125 91.8002C58.1654 91.6816 58.0066 91.4626 57.936 91.1432L58.4632 91.0712C58.4951 91.19 58.5628 91.2961 58.657 91.3752C58.7895 91.4766 58.9824 91.5104 59.2331 91.4757C59.6314 91.4223 59.8714 91.2445 59.9558 90.9423C60.0068 90.7645 59.9997 90.4604 59.9345 90.0302C59.8634 90.1946 59.7506 90.3377 59.6074 90.4453C59.3825 90.586 59.1209 90.6567 58.8558 90.6485C58.5907 90.6402 58.334 90.5534 58.1183 90.3991C57.835 90.1917 57.6572 89.8103 57.5849 89.255C57.5138 88.7305 57.5843 88.3037 57.7965 87.9748C57.887 87.8222 58.0109 87.6921 58.1588 87.5942C58.3068 87.4963 58.475 87.4331 58.6508 87.4094C58.8741 87.3746 59.1027 87.4077 59.3069 87.5045ZM59.4464 88.0602C59.362 87.9804 59.2604 87.9209 59.1495 87.8864C59.0385 87.8519 58.9212 87.8432 58.8064 87.861C58.4419 87.9108 58.2158 88.1182 58.1281 88.4833C58.0816 88.7287 58.0792 88.9803 58.121 89.2265C58.169 89.5821 58.2759 89.8411 58.4419 90.0035C58.5192 90.0834 58.6148 90.1432 58.7204 90.1779C58.8261 90.2126 58.9385 90.2211 59.0482 90.2026C59.2182 90.1883 59.3792 90.1202 59.508 90.0084C59.6368 89.8965 59.7267 89.7466 59.7647 89.5803C59.824 89.3544 59.8358 89.1186 59.7994 88.8878C59.7472 88.502 59.6296 88.2261 59.4464 88.0602Z" fill="white"/>
<path d="M61.5158 86.9709L62.0171 89.0094C62.0445 89.1424 62.102 89.2674 62.1852 89.3747C62.3203 89.5365 62.5111 89.5869 62.7577 89.5259C62.9168 89.4979 63.0622 89.4182 63.1714 89.299C63.2805 89.1799 63.3473 89.0281 63.3613 88.8671C63.3841 88.6205 63.3606 88.3717 63.292 88.1337L62.9213 86.6224L63.4289 86.4971L64.1836 89.5677L63.7045 89.685L63.5987 89.2307C63.5637 89.3591 63.5049 89.4797 63.4253 89.5863C63.2667 89.7976 63.0373 89.9447 62.779 90.0006C62.3482 90.1067 62.0189 90.0326 61.7913 89.7784C61.65 89.6056 61.5532 89.4008 61.5095 89.1818L60.9966 87.0954L61.5158 86.9709Z" fill="white"/>
<path d="M64.374 86.2175L64.8416 86.0486L64.9937 86.4709C65.0545 86.2727 65.1587 86.0905 65.2986 85.9375C65.4315 85.802 65.594 85.6992 65.7733 85.637C66.1882 85.4871 66.5221 85.5327 66.7752 85.7739C66.9448 85.96 67.0711 86.1813 67.145 86.422L67.8349 88.3289L67.3344 88.5067L66.657 86.6327C66.6086 86.4802 66.5273 86.3403 66.4187 86.2228C66.2649 86.0691 66.0729 86.0344 65.8435 86.1171C65.7456 86.1492 65.6533 86.1963 65.5697 86.2566C65.4612 86.3441 65.3756 86.4566 65.3203 86.5846C65.265 86.7125 65.2417 86.852 65.2524 86.9909C65.2774 87.1491 65.3194 87.3041 65.3777 87.4532L65.9413 89.0098L65.4497 89.1876L64.374 86.2175Z" fill="white"/>
<path d="M69.2454 84.3426C69.3873 84.3682 69.5246 84.415 69.6526 84.4813L69.4748 84.1257L69.9086 83.915L71.1639 86.4976C71.3417 86.8585 71.4279 87.1691 71.4226 87.4292C71.4155 87.9093 71.1408 88.2812 70.5985 88.5449C70.3345 88.6845 70.0348 88.7418 69.7379 88.7094C69.4659 88.6721 69.2466 88.5132 69.0801 88.2329L69.5584 88.0009C69.6261 88.1035 69.7235 88.1832 69.8375 88.2293C69.9958 88.2833 70.189 88.2536 70.4171 88.1404C70.7781 87.9626 70.9505 87.7208 70.9372 87.4079C70.9295 87.2242 70.8279 86.9376 70.6323 86.5482C70.6155 86.7239 70.5543 86.8925 70.4545 87.0381C70.2845 87.2416 70.0579 87.3902 69.8035 87.4651C69.549 87.5399 69.2781 87.5376 69.025 87.4586C68.6919 87.3501 68.4027 87.0437 68.1573 86.5394C67.9262 86.0652 67.8601 85.6379 67.9591 85.2574C67.9975 85.0848 68.0746 84.923 68.1845 84.7845C68.2945 84.6459 68.4344 84.534 68.5938 84.4573C68.7944 84.354 69.0216 84.314 69.2454 84.3426ZM69.5513 84.8271C69.4463 84.7775 69.3314 84.7527 69.2153 84.7545C69.0992 84.7564 68.9851 84.7849 68.8818 84.8378C68.5499 84.999 68.4 85.2657 68.432 85.6379C68.4632 85.8865 68.5391 86.1275 68.656 86.3491C68.8125 86.6691 68.995 86.8816 69.2037 86.9865C69.302 87.0384 69.4116 87.0656 69.5228 87.0656C69.634 87.0656 69.7436 87.0384 69.842 86.9865C69.9984 86.9201 70.1298 86.8059 70.2174 86.6603C70.3051 86.5147 70.3445 86.3451 70.33 86.1758C70.3154 85.9424 70.2531 85.7146 70.1469 85.5063C69.9756 85.1543 69.7771 84.9279 69.5513 84.8271Z" fill="white"/>
<path d="M72.1418 85.0995C72.2222 85.2208 72.3349 85.3172 72.4672 85.3777C72.6687 85.4542 72.9082 85.4071 73.1855 85.2364C73.3397 85.1455 73.4668 85.0151 73.5536 84.8586C73.5931 84.7887 73.6121 84.7091 73.6085 84.6289C73.6048 84.5487 73.5787 84.4712 73.5331 84.4052C73.5018 84.3504 73.4558 84.3055 73.4004 84.2754C73.345 84.2452 73.2823 84.2311 73.2193 84.2345C73.0625 84.2525 72.9084 84.2883 72.7597 84.3412L72.3499 84.4683C72.1516 84.5394 71.9434 84.579 71.7329 84.5856C71.6123 84.5893 71.493 84.5605 71.3874 84.5021C71.2818 84.4438 71.1939 84.3581 71.1328 84.254C71.0569 84.1398 71.0077 84.0099 70.9887 83.874C70.9698 83.7381 70.9817 83.5997 71.0235 83.4691C71.107 83.2006 71.3011 82.9721 71.6058 82.7836C72.0052 82.5383 72.3665 82.479 72.6895 82.6058C72.8827 82.6795 73.0453 82.8164 73.1508 82.9943L72.7259 83.2539C72.6552 83.1579 72.5587 83.0839 72.4477 83.0406C72.2699 82.9846 72.0583 83.0343 71.8058 83.1899C71.6653 83.2633 71.5524 83.3803 71.484 83.5233C71.4608 83.5778 71.4514 83.6372 71.4565 83.6963C71.4616 83.7553 71.4811 83.8122 71.5133 83.862C71.5489 83.9203 71.5998 83.9676 71.6605 83.999C71.7211 84.0303 71.7892 84.0444 71.8574 84.0398C71.9802 84.0358 72.1017 84.0127 72.2174 83.9713L72.557 83.8629C72.925 83.7438 73.1864 83.6851 73.3411 83.6949C73.5859 83.7038 73.7844 83.8321 73.9367 84.0798C74.0094 84.1958 74.0571 84.3257 74.0767 84.4612C74.0963 84.5966 74.0874 84.7347 74.0505 84.8666C73.9794 85.151 73.7604 85.4059 73.3935 85.6311C72.9994 85.8747 72.6646 85.9559 72.389 85.8747C72.1084 85.7908 71.8671 85.6091 71.7089 85.3626L72.1418 85.0995Z" fill="white"/>
<path d="M73.0247 80.7822C73.0176 80.5635 73.1554 80.3522 73.4381 80.1483C73.4638 80.1288 73.4923 80.1101 73.5216 80.0905L73.6239 80.0283L73.9074 80.4204C73.8612 80.4488 73.8274 80.4702 73.8079 80.4835C73.7883 80.4968 73.7688 80.5093 73.7519 80.5217C73.6227 80.6148 73.5702 80.7037 73.5945 80.7884C73.6185 80.8773 73.7305 81.0551 73.9315 81.3334L74.3502 81.0293L74.5964 81.3689L74.1724 81.6756L75.7726 83.8848L75.353 84.1879L73.7528 81.9788L73.4025 82.233L73.1562 81.8934L73.5118 81.6401L73.2203 81.2382C73.1164 81.1059 73.049 80.9487 73.0247 80.7822Z" fill="white"/>
<path d="M76.9568 80.4904C76.9937 80.4565 77.021 80.4133 77.0357 80.3653C77.0504 80.3174 77.052 80.2663 77.0403 80.2175C77.019 80.1512 76.9832 80.0904 76.9354 80.0397C76.8902 79.9773 76.8293 79.928 76.7589 79.8968C76.6885 79.8656 76.6111 79.8535 76.5345 79.8619C76.3487 79.901 76.1775 79.9912 76.0402 80.1224C75.8322 80.3002 75.7335 80.4824 75.7433 80.67C75.7588 80.8013 75.8088 80.9261 75.8882 81.0318L75.5202 81.3492C75.2748 81.0469 75.1936 80.7601 75.2766 80.4887C75.3665 80.2098 75.535 79.9628 75.762 79.7775C75.9904 79.5654 76.2732 79.4211 76.5789 79.3605C76.7084 79.3411 76.8408 79.3572 76.9618 79.4072C77.0828 79.4571 77.188 79.539 77.2661 79.6441L78.4441 81.0309C78.4724 81.0678 78.5111 81.0953 78.5552 81.1101C78.5943 81.1216 78.6441 81.1038 78.6956 81.0567C78.7155 81.0396 78.7345 81.0215 78.7525 81.0025C78.7721 80.9821 78.7934 80.958 78.8148 80.9323L79.069 81.231C79.0066 81.3365 78.9252 81.4296 78.829 81.5057C78.7742 81.5599 78.7058 81.5983 78.6311 81.6169C78.5563 81.6356 78.4779 81.6337 78.4041 81.6115C78.308 81.5747 78.2204 81.5191 78.1462 81.4479C78.1532 81.6463 78.1155 81.8438 78.036 82.0257C77.949 82.2382 77.8114 82.4262 77.6351 82.5734C77.5395 82.6612 77.4274 82.729 77.3053 82.7728C77.1831 82.8166 77.0534 82.8356 76.9239 82.8285C76.7996 82.8211 76.6783 82.7879 76.5676 82.731C76.4569 82.674 76.3594 82.5946 76.2811 82.4978C76.1933 82.4064 76.1266 82.2969 76.0857 82.1769C76.0449 82.0569 76.0309 81.9295 76.0447 81.8035C76.0862 81.5445 76.207 81.3047 76.3905 81.1172L76.9568 80.4904ZM77.0501 82.2987C77.1924 82.2947 77.3288 82.2405 77.435 82.1457C77.5765 82.0254 77.6871 81.873 77.7578 81.7012C77.8221 81.568 77.8446 81.4183 77.8222 81.272C77.7998 81.1257 77.7337 80.9896 77.6324 80.8816L77.355 80.5553C77.3269 80.6406 77.2861 80.7212 77.2341 80.7945C77.1773 80.878 77.1147 80.9573 77.0466 81.0318L76.8323 81.2683C76.7281 81.3752 76.6444 81.5002 76.5852 81.6372C76.5542 81.7209 76.5475 81.8116 76.5659 81.899C76.5843 81.9863 76.6271 82.0666 76.6892 82.1306C76.7318 82.1852 76.7867 82.2289 76.8494 82.2581C76.9122 82.2873 76.981 82.3012 77.0501 82.2987Z" fill="white"/>
<path d="M79.042 76.9631C79.3194 76.9257 79.627 77.0375 79.9648 77.2982L79.6092 77.6636C79.4641 77.5568 79.2919 77.493 79.1122 77.4796C78.9433 77.4701 78.7738 77.5528 78.6037 77.7276C78.3726 77.9647 78.3261 78.2509 78.4641 78.5864C78.5762 78.8338 78.7377 79.0555 78.9389 79.238C79.1332 79.4389 79.3793 79.582 79.6501 79.6514C79.7572 79.6687 79.8668 79.6629 79.9714 79.6342C80.076 79.6055 80.1733 79.5546 80.2566 79.4851C80.3399 79.4155 80.4072 79.3289 80.4541 79.2311C80.501 79.1332 80.5264 79.0265 80.5284 78.918C80.5113 78.7104 80.4364 78.5118 80.3124 78.3446L80.668 77.9783C80.9293 78.312 81.0479 78.6293 81.0236 78.9304C80.993 79.2518 80.8475 79.5514 80.6137 79.7741C80.4891 79.913 80.3333 80.0204 80.1592 80.0876C79.9851 80.1549 79.7975 80.1799 79.6118 80.1608C79.2058 80.1156 78.8284 79.9297 78.5451 79.6354C78.145 79.2508 77.9263 78.8554 77.889 78.4495C77.8672 78.2576 77.8893 78.0632 77.9535 77.881C78.0177 77.6989 78.1224 77.5337 78.2597 77.3978C78.463 77.1676 78.7391 77.0142 79.042 76.9631Z" fill="white"/>
<path d="M78.7202 75.2948L79.0456 74.885L80.3133 75.8896C80.2702 75.7364 80.251 75.5774 80.2564 75.4184C80.2816 75.1974 80.3723 74.9891 80.5169 74.8201C80.7966 74.4645 81.1125 74.3243 81.4645 74.3996C81.7056 74.4658 81.9287 74.5855 82.1171 74.7499L83.7057 76.0096L83.3714 76.431L81.8104 75.1935C81.6806 75.0759 81.525 74.9907 81.3561 74.9446C81.1614 74.9108 80.9827 74.997 80.8227 75.2015C80.6883 75.3729 80.6216 75.5877 80.6351 75.8051C80.644 76.038 80.8129 76.2843 81.1436 76.5465L82.454 77.5875L82.1286 77.9974L78.7202 75.2948Z" fill="white"/>
<path d="M80.7534 72.6752L81.0272 72.2458L82.3527 73.093C82.2876 72.9232 82.2633 72.7405 82.2816 72.5596C82.3001 72.381 82.3611 72.2094 82.4594 72.0591C82.5497 71.9065 82.6727 71.7757 82.8194 71.6761C82.9662 71.5765 83.1332 71.5106 83.3084 71.483C83.664 71.4238 84.0652 71.537 84.5121 71.8226C84.9335 72.0917 85.2191 72.4156 85.3691 72.7943C85.4437 72.973 85.4723 73.1676 85.4521 73.3602C85.4319 73.5529 85.3636 73.7373 85.2535 73.8967C85.1448 74.0797 84.9807 74.2235 84.785 74.3074C84.6421 74.3581 84.4921 74.3863 84.3405 74.3909L84.6819 74.6088L84.4214 75.015L80.7534 72.6752ZM84.8944 72.9526C84.7758 72.7113 84.5598 72.4903 84.2463 72.2894C84.008 72.1236 83.7266 72.0309 83.4364 72.0227C83.3131 72.0208 83.1915 72.052 83.0843 72.113C82.977 72.1739 82.8881 72.2625 82.8266 72.3694C82.7632 72.4679 82.7208 72.5784 82.7018 72.694C82.6828 72.8096 82.6878 72.9278 82.7163 73.0415C82.7703 73.2886 82.9706 73.523 83.3173 73.7447C83.5201 73.884 83.7471 73.9844 83.9867 74.0407C84.1497 74.0824 84.3218 74.069 84.4764 74.0026C84.6309 73.9361 84.7591 73.8205 84.841 73.6735C84.9158 73.5692 84.9604 73.4463 84.9698 73.3183C84.9792 73.1903 84.9531 73.0622 84.8944 72.9481V72.9526Z" fill="white"/>
<path d="M84.5619 68.6254C84.7296 68.4953 84.9291 68.4127 85.1397 68.3862C85.3394 68.366 85.5411 68.3878 85.7318 68.4502C85.9543 68.5209 86.1697 68.612 86.3754 68.7223L85.3486 70.7599C85.5915 70.8866 85.8668 70.9377 86.139 70.9065C86.376 70.8692 86.5597 70.721 86.6901 70.462C86.75 70.3552 86.7854 70.2363 86.7938 70.1142C86.8023 69.992 86.7836 69.8694 86.739 69.7553C86.6856 69.6242 86.6033 69.5069 86.4981 69.4121L86.7301 68.9534C86.8428 69.0332 86.9396 69.1333 87.0155 69.2486C87.1014 69.3662 87.168 69.4967 87.2129 69.6353C87.2814 69.8526 87.2879 70.0848 87.2315 70.3056C87.1984 70.4454 87.1483 70.5807 87.0822 70.7083C87.0012 70.8751 86.8855 71.0226 86.743 71.1411C86.6004 71.2596 86.4342 71.3463 86.2554 71.3955C85.8785 71.5069 85.4598 71.4476 84.9993 71.2177C84.5388 70.9877 84.2315 70.681 84.0774 70.2976C83.9978 70.1122 83.9613 69.9111 83.9707 69.7095C83.9801 69.5079 84.0351 69.3111 84.1316 69.1339C84.232 68.9322 84.3796 68.7578 84.5619 68.6254ZM85.7567 69.0121C85.5799 68.9354 85.3893 68.8961 85.1966 68.8965C84.9003 68.9096 84.6783 69.0657 84.5308 69.365C84.4777 69.4658 84.4471 69.5768 84.441 69.6905C84.4348 69.8042 84.4533 69.9179 84.4952 70.0238C84.5853 70.255 84.7575 70.4449 84.9788 70.5572L85.7567 69.0121Z" fill="white"/>
<path d="M84.3433 66.7373L84.5433 66.2474L85.3603 66.5817L85.5478 66.1221L85.9497 66.2865L85.7612 66.7461L87.6708 67.5276C87.7091 67.5492 87.7531 67.5591 87.797 67.556C87.841 67.5528 87.883 67.5367 87.9179 67.5098C87.9667 67.4595 88.0032 67.3987 88.0246 67.332C88.0344 67.3089 88.0441 67.2831 88.0539 67.2564C88.0637 67.2298 88.0753 67.1969 88.0859 67.1595L88.4735 67.3178C88.4672 67.3815 88.4553 67.4446 88.438 67.5062C88.4193 67.574 88.3964 67.6405 88.3695 67.7054C88.2771 67.9312 88.1556 68.0604 88.005 68.093C87.8334 68.1232 87.6566 68.1002 87.4983 68.0272L85.5656 67.236L85.4056 67.6254L85.0047 67.4609L85.1638 67.0715L84.3433 66.7373Z" fill="white"/>
<path d="M85.8032 65.4354L85.9641 64.9651L86.4806 65.1429C86.3649 65.0261 86.2742 64.887 86.2139 64.734C86.1685 64.6426 86.1417 64.5431 86.1352 64.4413C86.1286 64.3395 86.1424 64.2374 86.1757 64.141C86.1808 64.1252 86.1871 64.1097 86.1944 64.0948C86.2033 64.0734 86.2202 64.037 86.2442 63.9863L86.7776 64.1641C86.7631 64.1892 86.7501 64.215 86.7384 64.2415C86.7278 64.2655 86.718 64.2921 86.7082 64.3215C86.6646 64.4273 86.6462 64.5418 86.6544 64.656C86.6626 64.7701 86.6971 64.8808 86.7553 64.9793C86.8677 65.1655 87.0431 65.3052 87.2496 65.3732L88.9698 65.9617L88.8009 66.4568L85.8032 65.4354Z" fill="white"/>
<path d="M85.3398 63.057L85.4848 62.5449L86.0644 62.7085L85.9212 63.2206L85.3398 63.057ZM86.4849 63.3806L86.6298 62.8685L89.655 63.7246L89.5101 64.2367L86.4849 63.3806Z" fill="white"/>
<path d="M87.3581 60.0452C87.4862 59.8758 87.6576 59.744 87.8542 59.6638C88.0419 59.593 88.2424 59.5627 88.4427 59.5749C88.6757 59.5851 88.9072 59.6169 89.1343 59.67L88.6774 61.8996C88.9444 61.9588 89.223 61.9368 89.4775 61.8365C89.695 61.7387 89.8334 61.5464 89.8926 61.2595C89.9226 61.1408 89.9258 61.0168 89.9022 60.8966C89.8785 60.7764 89.8285 60.6629 89.7557 60.5644C89.6703 60.452 89.5602 60.3608 89.4339 60.2977L89.5379 59.7936C89.6687 59.8408 89.7893 59.9123 89.8935 60.0043C90.007 60.0953 90.1052 60.204 90.1842 60.3261C90.3078 60.5176 90.375 60.7401 90.378 60.968C90.3821 61.1119 90.3687 61.2558 90.338 61.3964C90.3029 61.5787 90.2292 61.7514 90.1219 61.9029C90.0145 62.0544 89.8761 62.1812 89.7157 62.2748C89.3809 62.481 88.961 62.532 88.456 62.4277C87.9511 62.3234 87.5744 62.1076 87.3261 61.7805C87.2012 61.622 87.114 61.4373 87.0708 61.2402C87.0277 61.043 87.0299 60.8387 87.0772 60.6426C87.1218 60.4239 87.2181 60.219 87.3581 60.0452ZM88.6125 60.1074C88.422 60.079 88.2276 60.0905 88.0418 60.1412C87.7626 60.2301 87.5893 60.4375 87.5217 60.7635C87.4968 60.8746 87.4961 60.9897 87.5198 61.1011C87.5434 61.2125 87.5907 61.3175 87.6586 61.4089C87.8056 61.6086 88.0212 61.747 88.264 61.7974L88.6125 60.1074Z" fill="white"/>
<path d="M86.3486 58.4251L86.4011 57.9192L87.9657 58.0801C87.8314 57.9577 87.7276 57.8054 87.6626 57.6357C87.5991 57.4676 87.5765 57.2869 87.5968 57.1085C87.6089 56.9314 87.66 56.7592 87.7463 56.6041C87.8327 56.4491 87.9522 56.315 88.0964 56.2115C88.3898 55.9999 88.799 55.9208 89.3241 55.9741C89.8208 56.0251 90.2217 56.186 90.5269 56.4568C90.6739 56.5829 90.7868 56.7439 90.8553 56.9251C90.9238 57.1062 90.9457 57.3016 90.919 57.4934C90.9043 57.7058 90.822 57.908 90.6843 58.0704C90.5796 58.1807 90.458 58.2737 90.3242 58.346L90.726 58.3877L90.6772 58.8678L86.3486 58.4251ZM90.1713 56.8124C89.9591 56.6489 89.6667 56.5481 89.2939 56.5102C89.0065 56.4696 88.7134 56.5132 88.4502 56.6355C88.3392 56.6894 88.2446 56.772 88.1762 56.8747C88.1077 56.9773 88.0679 57.0964 88.0608 57.2196C88.0486 57.3361 88.0604 57.4538 88.0954 57.5656C88.1304 57.6774 88.1879 57.7808 88.2644 57.8695C88.4244 58.0668 88.7089 58.1853 89.1179 58.2251C89.3616 58.2582 89.6094 58.2459 89.8486 58.1886C90.0128 58.1525 90.1604 58.0633 90.2686 57.9347C90.3768 57.806 90.4395 57.6453 90.4469 57.4774C90.4663 57.3521 90.4511 57.2239 90.4028 57.1067C90.3545 56.9895 90.2751 56.8877 90.1731 56.8124H90.1713Z" fill="white"/>
<g opacity="0.8">
<path d="M38.9278 99.7499L38.646 99.6353L39.6737 97.1221L39.9555 97.2368L39.8124 97.587C39.9626 97.5141 40.1215 97.4606 40.2853 97.4279C40.4482 97.4012 40.6153 97.4225 40.7663 97.4892C40.9099 97.5464 41.0408 97.6316 41.1512 97.7399C41.2612 97.8527 41.3344 97.9962 41.361 98.1515C41.3836 98.258 41.3806 98.3683 41.3521 98.4733C41.323 98.5772 41.288 98.6793 41.2472 98.7792L40.5742 100.425L40.2924 100.31L40.9636 98.6689C41.0525 98.4422 41.0765 98.2529 41.0267 98.1C40.9769 97.9471 40.8374 97.8244 40.6125 97.7319C40.5313 97.6977 40.4445 97.6787 40.3564 97.6759C40.2757 97.6738 40.1951 97.6837 40.1173 97.7053C40.0425 97.7265 39.9712 97.7586 39.9057 97.8004C39.843 97.841 39.7861 97.89 39.7368 97.9462C39.6791 98.0107 39.6295 98.082 39.5892 98.1586C39.5528 98.2307 39.5172 98.3098 39.4808 98.3978L38.9278 99.7499Z" fill="white"/>
<path d="M42.8793 99.5494C42.9362 99.5609 43.0038 99.5725 43.0838 99.5849C43.151 99.5967 43.2195 99.5991 43.2874 99.592C43.3144 99.589 43.3403 99.5792 43.3626 99.5637C43.3849 99.5482 43.4031 99.5274 43.4154 99.5031C43.4429 99.457 43.4655 99.4081 43.483 99.3573C43.5088 99.2893 43.5206 99.2168 43.5179 99.1441C43.5152 99.0714 43.4978 99.0001 43.467 98.9342C43.4056 98.8053 43.2625 98.7021 43.0385 98.6275C42.9469 98.5956 42.8521 98.5739 42.7558 98.5626C42.6716 98.5523 42.5863 98.5596 42.5051 98.5839C42.4251 98.6092 42.352 98.6527 42.2917 98.711C42.2167 98.7836 42.1563 98.8699 42.1139 98.9653L41.8214 98.8675C41.872 98.7337 41.9509 98.6125 42.0526 98.5119C42.1413 98.4267 42.2479 98.3623 42.3646 98.3234C42.4831 98.2857 42.6077 98.2709 42.7318 98.2799C42.8675 98.29 43.0013 98.3175 43.13 98.3617C43.2491 98.4009 43.3628 98.4546 43.4687 98.5217C43.5642 98.5822 43.6469 98.6607 43.7123 98.7528C43.7742 98.8458 43.8118 98.9528 43.8217 99.064C43.8309 99.2001 43.8115 99.3367 43.7648 99.4649L43.2936 100.867C43.2554 100.983 43.25 101.063 43.2794 101.109C43.3087 101.154 43.3923 101.174 43.5301 101.167L43.4519 101.401H43.3425C43.2972 101.4 43.2522 101.392 43.2092 101.378C43.1652 101.363 43.1232 101.344 43.0838 101.319C43.0429 101.3 43.0086 101.269 42.9851 101.23C42.9644 101.196 42.9508 101.157 42.9451 101.118C42.938 101.075 42.938 101.033 42.9451 100.99C42.9536 100.944 42.9661 100.899 42.9825 100.855C42.8216 100.951 42.6427 101.011 42.4571 101.033C42.2728 101.053 42.0864 101.031 41.9112 100.971C41.8046 100.936 41.7037 100.885 41.6116 100.821C41.5235 100.76 41.4485 100.682 41.3912 100.592C41.3357 100.503 41.2999 100.404 41.2863 100.3C41.2734 100.182 41.288 100.063 41.3289 99.9512C41.4753 99.5138 41.852 99.3526 42.4588 99.4676L42.8793 99.5494ZM43.3149 99.8614C43.1796 99.8738 43.0431 99.8672 42.9096 99.8418C42.7789 99.8161 42.65 99.7876 42.5211 99.7529C42.3368 99.696 42.1406 99.6896 41.953 99.7343C41.8435 99.7761 41.7508 99.8528 41.6892 99.9526C41.6277 100.052 41.6007 100.17 41.6125 100.286C41.6228 100.352 41.6474 100.416 41.6845 100.471C41.7231 100.528 41.7724 100.576 41.8294 100.613C41.8882 100.653 41.9522 100.685 42.0197 100.708C42.1331 100.746 42.2513 100.769 42.3708 100.775C42.4843 100.783 42.5982 100.77 42.7069 100.736C42.8126 100.704 42.9094 100.648 42.9896 100.572C43.078 100.486 43.1435 100.379 43.1798 100.261L43.3149 99.8614Z" fill="white"/>
<path d="M46.1522 100.209C46.1591 100.021 46.1075 99.8343 46.0047 99.6759C45.8981 99.5263 45.7397 99.4217 45.5602 99.3826C45.4258 99.3429 45.2832 99.3407 45.1477 99.3763C45.0239 99.4116 44.9101 99.4752 44.8152 99.5621C44.7159 99.6543 44.6324 99.7621 44.568 99.8813C44.5009 100.005 44.4487 100.136 44.4125 100.272C44.3764 100.408 44.3558 100.548 44.3511 100.689C44.3468 100.823 44.3654 100.957 44.4062 101.084C44.4462 101.205 44.5142 101.315 44.6045 101.405C44.707 101.503 44.8338 101.571 44.9716 101.603C45.1625 101.664 45.3695 101.646 45.5477 101.555C45.7241 101.453 45.8611 101.294 45.9371 101.105L46.2509 101.188C46.1907 101.319 46.1133 101.442 46.0207 101.553C45.936 101.654 45.8335 101.739 45.7184 101.803C45.6027 101.867 45.4754 101.906 45.3441 101.919C45.0055 101.943 44.67 101.84 44.4027 101.631C44.2782 101.526 44.1807 101.393 44.1182 101.243C44.0545 101.086 44.0224 100.918 44.024 100.749C44.0237 100.56 44.0488 100.371 44.0987 100.189C44.1451 100.011 44.2176 99.8407 44.3138 99.6839C44.4036 99.5365 44.5189 99.4061 44.6543 99.299C44.7854 99.1976 44.9371 99.126 45.0988 99.0892C45.2755 99.0519 45.4587 99.0586 45.6322 99.1087C45.8911 99.1645 46.1227 99.3084 46.2874 99.5159C46.4296 99.7091 46.4829 99.9657 46.4474 100.286L46.1522 100.209Z" fill="white"/>
<path d="M46.5732 102.224L47.3022 98.5186L47.6009 98.5772L47.3236 99.9872C47.4567 99.8868 47.6022 99.804 47.7565 99.7409C47.9112 99.6825 48.0798 99.6711 48.241 99.708C48.393 99.7362 48.5378 99.7945 48.6668 99.8796C48.7963 99.9692 48.8955 100.096 48.9513 100.243C48.9943 100.344 49.0129 100.453 49.0055 100.561C48.9965 100.669 48.9813 100.776 48.9602 100.882L48.617 102.626L48.3192 102.567L48.6615 100.827C48.7083 100.59 48.6923 100.4 48.6135 100.257C48.5344 100.117 48.3752 100.023 48.1361 99.9756C48.0483 99.9574 47.9579 99.9556 47.8694 99.9703C47.754 99.9893 47.6443 100.034 47.5483 100.1C47.4522 100.167 47.3721 100.254 47.3138 100.355C47.2694 100.429 47.2348 100.508 47.2107 100.591C47.1884 100.669 47.168 100.753 47.1493 100.847L46.8675 102.283L46.5732 102.224Z" fill="white"/>
<path d="M51.083 101.995C50.9466 101.892 50.8301 101.764 50.739 101.619C50.659 101.479 50.6278 101.317 50.6501 101.157C50.6628 100.99 50.7343 100.832 50.8519 100.713C50.9665 100.596 51.1078 100.509 51.2635 100.458C51.1989 100.368 51.1438 100.271 51.099 100.169C51.0559 100.062 51.0409 99.9458 51.0555 99.8316C51.0659 99.7321 51.0962 99.6357 51.1444 99.548C51.1927 99.4589 51.2604 99.3817 51.3426 99.3222C51.4335 99.257 51.5366 99.2107 51.6458 99.1862C51.777 99.157 51.9122 99.1498 52.0458 99.1649C52.3273 99.1921 52.5347 99.297 52.6681 99.4796C52.8079 99.6865 52.8632 99.939 52.8228 100.185L52.5499 100.158C52.5748 99.9819 52.5367 99.8027 52.4423 99.652C52.3552 99.5335 52.204 99.4642 51.9889 99.444C51.8452 99.4248 51.6991 99.4539 51.5737 99.5267C51.5134 99.5675 51.4638 99.6223 51.4292 99.6864C51.3945 99.7504 51.3758 99.8219 51.3746 99.8947C51.3626 100.014 51.3973 100.133 51.4715 100.226C51.557 100.338 51.6558 100.438 51.7658 100.526C51.8843 100.625 52.0138 100.722 52.1543 100.818C52.2896 100.911 52.419 101.012 52.5419 101.122C52.6553 101.222 52.7528 101.339 52.8308 101.469C52.9045 101.593 52.9358 101.738 52.9197 101.881C52.9127 101.973 52.8882 102.064 52.8477 102.147C52.8103 102.221 52.7624 102.289 52.7054 102.349C52.6478 102.41 52.5826 102.463 52.5116 102.507C52.4396 102.553 52.3641 102.596 52.2849 102.643C52.3001 102.661 52.3223 102.69 52.3534 102.725C52.387 102.766 52.4168 102.809 52.4423 102.855C52.4719 102.911 52.4943 102.971 52.509 103.033C52.5264 103.103 52.5312 103.175 52.5232 103.247C52.514 103.368 52.4782 103.485 52.4183 103.59C52.3644 103.683 52.2906 103.763 52.2023 103.824C52.1123 103.885 52.0111 103.928 51.9044 103.95C51.7901 103.975 51.6724 103.982 51.556 103.969C51.4314 103.964 51.3094 103.932 51.1977 103.877C51.0861 103.822 50.9873 103.743 50.9079 103.647C50.7559 103.44 50.6859 103.183 50.7114 102.927L51.0137 102.956C50.9842 103.135 51.0239 103.318 51.1248 103.469C51.182 103.536 51.2527 103.59 51.3324 103.628C51.4121 103.665 51.4989 103.686 51.5871 103.687C51.6574 103.694 51.7285 103.691 51.7978 103.677C51.8648 103.663 51.9288 103.637 51.9862 103.6C52.0431 103.564 52.0916 103.515 52.1285 103.459C52.1675 103.396 52.191 103.326 52.1969 103.252C52.2057 103.174 52.1953 103.094 52.1667 103.02C52.1372 102.947 52.0974 102.88 52.0485 102.819C51.9988 102.754 51.9432 102.695 51.8822 102.641C51.823 102.588 51.7637 102.537 51.7044 102.489L51.083 101.995ZM51.4199 100.642C51.2938 100.681 51.1768 100.745 51.0759 100.83C50.9862 100.91 50.9314 101.022 50.923 101.142C50.9163 101.205 50.9239 101.269 50.9452 101.329C50.9671 101.387 50.997 101.442 51.0341 101.492C51.0701 101.544 51.1112 101.593 51.1568 101.636C51.2039 101.682 51.2502 101.725 51.2973 101.763L52.1365 102.452C52.1934 102.427 52.2503 102.396 52.3081 102.363C52.3651 102.331 52.4184 102.292 52.4672 102.248C52.5133 102.205 52.5526 102.155 52.5836 102.1C52.6155 102.041 52.6348 101.976 52.6405 101.908C52.6476 101.842 52.6394 101.776 52.6165 101.714C52.5935 101.653 52.5611 101.597 52.5205 101.547C52.4796 101.495 52.4341 101.447 52.3845 101.403C52.3347 101.36 52.2858 101.32 52.2387 101.283L51.4199 100.642Z" fill="white"/>
<path d="M54.8062 102.261C54.8145 102.37 54.8446 102.476 54.8947 102.572C54.9448 102.669 55.0139 102.755 55.0978 102.825C55.2676 102.952 55.4758 103.018 55.6881 103.011C55.8106 103.013 55.9319 102.987 56.0437 102.937C56.146 102.89 56.237 102.822 56.3104 102.737C56.3859 102.649 56.4435 102.547 56.4802 102.437C56.5203 102.318 56.5402 102.193 56.5389 102.067C56.54 101.939 56.5187 101.811 56.4758 101.689C56.4362 101.579 56.3758 101.478 56.298 101.391C56.2209 101.306 56.1258 101.24 56.0197 101.197C55.9031 101.15 55.7783 101.127 55.6526 101.128C55.5022 101.125 55.3531 101.155 55.2161 101.217C55.0808 101.285 54.9642 101.385 54.8765 101.508L54.6098 101.472L54.8996 99.5566H56.6731V99.8402H55.1778L54.9538 101.085C55.0249 101.039 55.0898 101.001 55.1494 100.969C55.2064 100.939 55.2659 100.914 55.3272 100.894C55.3892 100.875 55.4529 100.862 55.5174 100.855C55.5907 100.848 55.6643 100.844 55.7379 100.845C55.8922 100.843 56.0453 100.872 56.1886 100.929C56.3228 100.984 56.4439 101.066 56.5442 101.17C56.6487 101.281 56.7289 101.412 56.7798 101.556C56.8377 101.72 56.866 101.894 56.8634 102.068C56.8663 102.246 56.8343 102.423 56.7691 102.589C56.7121 102.733 56.6269 102.864 56.5184 102.975C56.4155 103.079 56.292 103.16 56.1557 103.213C56.0212 103.267 55.8775 103.295 55.7326 103.294C55.5731 103.295 55.414 103.278 55.2587 103.242C55.1186 103.21 54.9866 103.149 54.8711 103.064C54.7589 102.979 54.6676 102.869 54.6044 102.744C54.5296 102.593 54.4872 102.428 54.48 102.259L54.8062 102.261Z" fill="white"/>
<path d="M59.1198 100.291C59.0808 100.123 58.9929 99.9707 58.8673 99.8528C58.8032 99.7989 58.7287 99.7587 58.6484 99.7347C58.5681 99.7107 58.4838 99.7034 58.4006 99.7132C58.2131 99.7155 58.0328 99.7856 57.893 99.9106C57.7702 100.03 57.6787 100.178 57.6263 100.341C57.5682 100.519 57.5344 100.704 57.5258 100.891C57.5152 101.089 57.5089 101.274 57.5072 101.45C57.5534 101.377 57.6014 101.304 57.653 101.23C57.7035 101.156 57.7633 101.09 57.8308 101.032C57.9021 100.97 57.9829 100.92 58.0699 100.884C58.1768 100.841 58.2901 100.817 58.405 100.811C58.766 100.787 59.0522 100.874 59.2638 101.072C59.4754 101.269 59.5939 101.553 59.6194 101.923C59.6443 102.297 59.5646 102.597 59.3803 102.823C59.196 103.049 58.9216 103.175 58.5571 103.199C58.3874 103.212 58.2169 103.192 58.0548 103.14C57.895 103.087 57.7521 102.992 57.6405 102.866C57.5066 102.711 57.4047 102.531 57.3409 102.337C57.2534 102.072 57.2025 101.797 57.1898 101.519C57.1749 101.29 57.1782 101.06 57.1996 100.832C57.2184 100.605 57.2711 100.383 57.356 100.172C57.4345 99.9764 57.5586 99.8023 57.7179 99.6643C57.8972 99.5196 58.1195 99.4383 58.3499 99.4332C58.6046 99.4054 58.8608 99.4683 59.0736 99.611C59.177 99.689 59.2639 99.7869 59.3289 99.899C59.394 100.011 59.4359 100.135 59.4523 100.264L59.1198 100.291ZM58.4166 101.091C58.3002 101.097 58.1867 101.13 58.085 101.187C57.9905 101.241 57.9088 101.315 57.8459 101.403C57.7813 101.494 57.7339 101.596 57.7063 101.704C57.6759 101.82 57.6651 101.94 57.6743 102.059C57.6819 102.166 57.7034 102.272 57.7383 102.373C57.7735 102.476 57.8281 102.572 57.8992 102.654C57.9731 102.738 58.064 102.805 58.1659 102.851C58.2852 102.904 58.416 102.924 58.5455 102.91C58.6777 102.906 58.807 102.869 58.9216 102.803C59.0174 102.746 59.0985 102.667 59.158 102.572C59.2164 102.478 59.2568 102.374 59.2771 102.265C59.2985 102.154 59.3054 102.042 59.2976 101.929C59.2789 101.643 59.1971 101.427 59.054 101.281C58.9109 101.134 58.6966 101.076 58.4166 101.095V101.091Z" fill="white"/>
<path d="M61.6168 102.82L60.9634 99.1006L61.303 99.041L61.6417 100.967L63.145 98.7219L63.529 98.6543L62.3733 100.386L64.434 102.329L64.0197 102.402L62.1671 100.646L61.7057 101.328L61.9582 102.765L61.6168 102.82Z" fill="white"/>
<path d="M64.604 102.289L65.0298 98.2715L65.4077 98.1729L67.719 101.468L67.3759 101.557L66.6647 100.518L65.0618 100.945L64.9472 102.2L64.604 102.289ZM65.0974 100.618L66.4798 100.255L65.2841 98.5196L65.0974 100.618Z" fill="white"/>
<path d="M67.4183 98.0926H67.4086L68.5216 101.193L68.1971 101.309L66.9214 97.753L67.2885 97.6205L70.3876 100.014H70.3974L69.2826 96.9084L69.607 96.792L70.8828 100.348L70.5058 100.483L67.4183 98.0926Z" fill="white"/>
<path d="M72.3784 97.8778L72.2495 97.6031L73.6621 96.939L74.4915 98.7046L74.2248 98.8299L73.9501 98.2458C73.9407 98.3718 73.9178 98.4964 73.8817 98.6174C73.846 98.7366 73.7924 98.8496 73.7226 98.9526C73.6457 99.064 73.5528 99.1634 73.447 99.2477C73.3196 99.3478 73.1808 99.4326 73.0336 99.5002C72.8359 99.5954 72.6208 99.649 72.4015 99.6576C72.1887 99.6649 71.977 99.6223 71.7837 99.5331C71.5676 99.4312 71.3746 99.2863 71.2165 99.1073C71.0187 98.8842 70.8559 98.6324 70.7337 98.3605C70.6209 98.1248 70.5411 97.8748 70.4964 97.6173C70.4558 97.3859 70.4616 97.1487 70.5133 96.9195C70.5663 96.699 70.6687 96.4935 70.8129 96.3185C70.9801 96.1223 71.1895 95.9664 71.4254 95.8624C71.5898 95.7837 71.7646 95.729 71.9446 95.6998C72.1115 95.6727 72.282 95.676 72.4477 95.7095C72.6134 95.7439 72.7709 95.8097 72.9118 95.9033C73.068 96.0097 73.2043 96.1427 73.3145 96.2963L72.9936 96.4474C72.911 96.3378 72.8092 96.2441 72.6931 96.1709C72.5839 96.1028 72.4635 96.0543 72.3375 96.0278C72.2119 96.003 72.083 95.9991 71.9561 96.0162C71.8248 96.0333 71.6971 96.0708 71.5774 96.1274C71.3818 96.2133 71.2092 96.3439 71.0733 96.5087C70.9559 96.6591 70.8777 96.8363 70.8458 97.0244C70.8126 97.2312 70.8195 97.4425 70.8662 97.6467C70.9191 97.8869 70.9997 98.1201 71.1062 98.3418C71.1913 98.5259 71.3041 98.6959 71.4405 98.8459C71.5664 98.9858 71.7171 99.1013 71.885 99.1864C72.0469 99.268 72.2247 99.3132 72.4059 99.3188C72.5999 99.3228 72.792 99.2801 72.966 99.1944C73.0585 99.1504 73.1461 99.0968 73.2274 99.0344C73.3133 98.9683 73.3896 98.8905 73.4541 98.8032C73.5221 98.7108 73.5763 98.609 73.615 98.501C73.6575 98.3813 73.6797 98.2554 73.6808 98.1285C73.6827 97.9975 73.6656 97.867 73.6301 97.7409C73.5926 97.6089 73.546 97.4797 73.4905 97.3542L72.3784 97.8778Z" fill="white"/>
</g>
<path d="M54.3618 106.724C83.2805 106.724 106.724 83.2805 106.724 54.3618C106.724 25.4432 83.2805 2 54.3618 2C25.4432 2 2 25.4432 2 54.3618C2 83.2805 25.4432 106.724 54.3618 106.724Z" stroke="#0C3985" stroke-width="4" stroke-miterlimit="10"/>
<path d="M106.68 54.3174C106.68 25.4233 83.2564 2 54.3623 2C25.4682 2 2.04492 25.4233 2.04492 54.3174V134.683C2.04492 163.577 25.4682 187 54.3623 187C83.2564 187 106.68 163.577 106.68 134.683V54.3174Z" stroke="#0C3985" stroke-width="4" stroke-miterlimit="10"/>
</svg>
