<svg width="25" height="25" viewBox="0 0 25 25" fill="none" xmlns="http://www.w3.org/2000/svg">
<path d="M9.5 21.4998H7.5C6.43913 21.4998 5.42172 21.0784 4.67157 20.3282C3.92143 19.5781 3.5 18.5607 3.5 17.4998V11.2078C3.49999 10.52 3.67732 9.84386 4.01487 9.24461C4.35242 8.64536 4.83879 8.14326 5.427 7.78682L10.427 4.75682C11.0521 4.37801 11.7691 4.17773 12.5 4.17773C13.2309 4.17773 13.9479 4.37801 14.573 4.75682L19.573 7.78682C20.1611 8.14317 20.6473 8.64511 20.9849 9.24417C21.3224 9.84324 21.4998 10.5192 21.5 11.2068V17.4998C21.5 18.5607 21.0786 19.5781 20.3284 20.3282C19.5783 21.0784 18.5609 21.4998 17.5 21.4998H15.5M9.5 21.4998V17.4998C9.5 16.7042 9.81607 15.9411 10.3787 15.3785C10.9413 14.8159 11.7044 14.4998 12.5 14.4998C13.2956 14.4998 14.0587 14.8159 14.6213 15.3785C15.1839 15.9411 15.5 16.7042 15.5 17.4998V21.4998M9.5 21.4998H15.5" stroke="black" stroke-width="1.5" stroke-linecap="round" stroke-linejoin="round"/>
</svg>
