<svg width="25" height="25" viewBox="0 0 25 25" fill="none" xmlns="http://www.w3.org/2000/svg">
<path d="M7 10.4997V6.95974C7.00003 6.61598 7.08866 6.27803 7.25734 5.9785C7.42602 5.67897 7.66906 5.42797 7.963 5.24974L11.463 3.12774C11.7757 2.93814 12.1343 2.83789 12.5 2.83789C12.8657 2.83789 13.2243 2.93814 13.537 3.12774L17.037 5.24874C17.3309 5.42697 17.574 5.67797 17.7427 5.9775C17.9113 6.27703 18 6.61498 18 6.95874V10.4997M16.5 21.4997H20.5C21.0304 21.4997 21.5391 21.289 21.9142 20.9139C22.2893 20.5389 22.5 20.0302 22.5 19.4997V14.9597C22.5 14.616 22.4113 14.278 22.2427 13.9785C22.074 13.679 21.8309 13.428 21.537 13.2497L18.031 11.1247C17.7198 10.9361 17.3631 10.836 16.9992 10.8351C16.6353 10.8342 16.2781 10.9326 15.966 11.1197L15.333 11.4997M11.5 21.4997H4.5C3.96957 21.4997 3.46086 21.289 3.08579 20.9139C2.71071 20.5389 2.5 20.0302 2.5 19.4997V14.9597C2.50003 14.616 2.58866 14.278 2.75734 13.9785C2.92602 13.679 3.16906 13.428 3.463 13.2497L6.963 11.1277C7.27567 10.9381 7.63434 10.8379 8 10.8379C8.36566 10.8379 8.72433 10.9381 9.037 11.1277L12.537 13.2487C12.8311 13.4271 13.0742 13.6782 13.2429 13.9779C13.4116 14.2777 13.5001 14.6158 13.5 14.9597V19.4997C13.5 20.0302 13.2893 20.5389 12.9142 20.9139C12.5391 21.289 12.0304 21.4997 11.5 21.4997Z" stroke="black" stroke-width="1.5" stroke-linecap="round" stroke-linejoin="round"/>
<path d="M9.5 21.5V18.1C9.5 17.9409 9.43679 17.7883 9.32426 17.6757C9.21174 17.5632 9.05913 17.5 8.9 17.5H7.1C6.94087 17.5 6.78826 17.5632 6.67574 17.6757C6.56321 17.7883 6.5 17.9409 6.5 18.1V21.5M18.5 21.5V18.1C18.5 17.9409 18.4368 17.7883 18.3243 17.6757C18.2117 17.5632 18.0591 17.5 17.9 17.5H16.5" stroke="black" stroke-width="1.5" stroke-linecap="round" stroke-linejoin="round"/>
</svg>
