<svg width="64" height="79" viewBox="0 0 64 79" fill="none" xmlns="http://www.w3.org/2000/svg">
<rect width="64" height="79" fill="#FF7E00" fill-opacity="0.7"/>
<g clip-path="url(#clip0_716_18426)">
<path d="M29.2089 36.0113C28.8846 36.7341 28.4189 37.3842 27.8397 37.9229C26.7025 38.9626 25.2157 39.5315 23.6779 39.5154H23.6054C22.712 39.5022 21.8318 39.2968 21.024 38.9133C20.2162 38.5297 19.4997 37.9768 18.9225 37.2919C17.7761 35.9456 17.257 34.2361 17.4982 32.5953C17.8915 29.6463 20.4981 27.4237 23.5614 27.4237C25.2219 27.4237 26.8577 28.1564 28.0502 29.4329C28.6411 30.063 29.0989 30.8069 29.3959 31.6195H31.935C31.4587 29.5449 30.2206 27.727 28.4681 26.529L27.7406 26.0487L28.3352 25.4731L28.3659 25.4413C29.8598 23.7205 30.5311 22.1269 30.5311 20.2727C30.5311 16.7624 27.9766 13.7302 24.5965 13.21C24.0922 13.1309 23.5801 13.1158 23.072 13.1649C19.8513 13.3875 17.1824 15.9631 16.7196 19.299V19.3421C16.5877 21.8211 17.3214 23.9965 18.7917 25.4731L19.3936 26.0549L18.708 26.5218C17.7292 27.1649 16.8965 28.008 16.2642 28.9962C15.632 29.9844 15.2144 31.0954 15.0387 32.2567V32.2834C14.9289 33.5292 15.0795 34.7842 15.4809 35.9681C15.8823 37.152 16.5255 38.2386 17.3694 39.1583C19.0043 40.9366 21.1878 41.9135 23.539 41.9135H23.6085C25.9586 41.894 28.137 41.0679 29.729 39.5873C30.035 39.3025 30.3179 38.9937 30.575 38.6638C30.377 38.3734 30.1945 38.0727 30.0283 37.7628C29.7047 37.2041 29.4305 36.618 29.2089 36.0113ZM18.9491 19.9588V19.9393C19.1279 17.6254 21.0203 15.6737 23.2692 15.4839C23.7525 15.4839 23.9467 15.4941 24.0223 15.5003L24.0386 15.5085L24.1265 15.5198C26.4766 15.802 28.2525 17.845 28.2525 20.2727C28.2525 22.7005 26.354 24.7876 23.9252 25.0616H23.2478C20.635 24.6563 18.9491 22.6564 18.9491 19.9588Z" fill="white"/>
<path d="M39.3236 22.0871C37.983 22.0871 36.7446 22.4144 34.4936 23.3984L34.5263 16.6364H46.1348V14.0352H31.9023L31.8594 26.3711H34.7449L34.8962 26.248C36.2744 25.1362 38.0172 24.5829 39.7813 24.6968C41.5455 24.8108 43.2033 25.5838 44.4284 26.8636C45.799 28.2601 46.5656 30.1432 46.5619 32.104C46.5619 36.1971 43.3147 39.5279 39.3236 39.5279C37.5825 39.5247 35.9034 38.8786 34.606 37.7127C33.3053 36.5394 32.4522 34.9476 32.1935 33.2112L32.123 32.7402H29.6523L29.728 33.361C29.728 33.3805 29.7331 33.3989 29.7361 33.4195C29.9226 34.8922 30.428 36.3062 31.2167 37.5619C32.9537 40.3272 35.965 42.1281 39.3236 42.1281C44.6583 42.1281 48.9999 37.6316 48.9999 32.104C48.9999 26.5763 44.6583 22.0871 39.3236 22.0871Z" fill="white"/>
</g>
<path d="M20.6663 50.7578V55.7963C20.6855 56.1332 20.6334 56.4705 20.514 56.7821C20.3947 57.0937 20.2114 57.3713 19.9781 57.5935C19.4485 58.0363 18.7902 58.2563 18.1238 58.2132C17.4198 58.2538 16.7258 58.0186 16.1671 57.5501C15.921 57.3229 15.7263 57.037 15.5981 56.7146C15.4699 56.3922 15.4115 56.0419 15.4277 55.6909H17.299C17.2826 55.9433 17.3536 56.1932 17.4981 56.3912C17.5717 56.4728 17.6607 56.5361 17.7588 56.5768C17.857 56.6174 17.9621 56.6345 18.0669 56.6267C18.1628 56.6333 18.2589 56.618 18.349 56.5817C18.4392 56.5454 18.5213 56.489 18.5902 56.416C18.6586 56.3321 18.7105 56.2338 18.7427 56.1272C18.775 56.0207 18.787 55.908 18.7779 55.7963V50.7578H20.6663Z" fill="white"/>
<path d="M22.222 53.4692C22.4672 53.0134 22.8311 52.6382 23.272 52.3866C23.7274 52.1287 24.2392 51.9971 24.758 52.0045C25.1809 51.9959 25.6004 52.0851 25.986 52.2656C26.3106 52.4155 26.592 52.6503 26.8027 52.947V52.0936H28.829V58.1374H26.8027V57.2776C26.5845 57.5719 26.2998 57.8059 25.9737 57.9591C25.5891 58.1425 25.1689 58.2319 24.7457 58.2202C24.2309 58.2268 23.7233 58.0951 23.272 57.8381C22.8304 57.5816 22.4667 57.2022 22.222 56.7427C21.9681 56.2373 21.8354 55.6758 21.8354 55.1059C21.8354 54.5361 21.9681 53.9746 22.222 53.4692ZM26.379 54.0233C26.0933 53.767 25.7282 53.6259 25.3505 53.6259C24.9728 53.6259 24.6077 53.767 24.322 54.0233C24.1786 54.1614 24.0663 54.3306 23.9931 54.5188C23.9199 54.707 23.8875 54.9097 23.8983 55.1123C23.8887 55.3158 23.9216 55.519 23.9947 55.7081C24.0678 55.8971 24.1795 56.0676 24.322 56.2077C24.599 56.4778 24.9673 56.6242 25.3474 56.6153C25.7284 56.6249 26.0981 56.4811 26.379 56.2141C26.6503 55.9201 26.8018 55.5288 26.8018 55.1219C26.8018 54.7149 26.6503 54.3236 26.379 54.0297V54.0233Z" fill="white"/>
<path d="M35.7316 52.7433C35.9631 52.9948 36.1424 53.2961 36.2577 53.6272C36.3729 53.9584 36.4215 54.3119 36.4002 54.6647V58.2192H34.4421V54.9145C34.4515 54.7405 34.426 54.5665 34.3672 54.4041C34.3085 54.2417 34.218 54.0946 34.1018 53.973C33.8476 53.7547 33.5318 53.6358 33.2063 53.6358C32.8807 53.6358 32.5649 53.7547 32.3108 53.973C32.1953 54.095 32.1056 54.2422 32.048 54.4046C31.9903 54.5671 31.9659 54.741 31.9764 54.9145V58.2192H29.9944V50.1367H31.9705V52.9291C32.1902 52.6471 32.471 52.4272 32.7884 52.2886C33.1664 52.1205 33.5733 52.0398 33.9824 52.0517C34.6275 52.0271 35.2557 52.2755 35.7316 52.7433Z" fill="white"/>
<path d="M40.049 52.2959C40.364 52.0985 40.713 51.9984 41.0661 52.0041V53.9944H40.589C40.246 53.9645 39.9043 54.0713 39.6139 54.2991C39.496 54.4323 39.4052 54.598 39.3487 54.7827C39.2923 54.9674 39.2718 55.1659 39.2889 55.3623V58.2212H37.5693V52.069H39.3046V53.0933C39.5009 52.7614 39.7554 52.4887 40.049 52.2959Z" fill="white"/>
<path d="M48.0339 55.5611H43.6019C43.6072 55.7251 43.644 55.8862 43.7103 56.0341C43.7765 56.1819 43.8706 56.3134 43.9866 56.4201C44.2212 56.6218 44.5147 56.7277 44.815 56.7191C45.0193 56.7395 45.2247 56.6948 45.4056 56.5908C45.5865 56.4867 45.7351 56.3278 45.8327 56.1337H47.9274C47.8155 56.5372 47.6121 56.9045 47.3357 57.2026C47.0407 57.5308 46.6835 57.7868 46.2884 57.9534C45.8387 58.1369 45.3609 58.2276 44.8801 58.2206C44.3029 58.2307 43.7308 58.1025 43.2055 57.8452C42.7375 57.6079 42.3415 57.2329 42.0635 56.7636C41.7801 56.269 41.6362 55.6966 41.6493 55.1158C41.6379 54.538 41.7795 53.9687 42.0575 53.4742C42.3284 52.9977 42.7234 52.6171 43.1937 52.3799C43.7187 52.1319 44.2859 52.0039 44.8593 52.0039C45.4328 52.0039 46 52.1319 46.525 52.3799C46.9958 52.6062 47.3931 52.9783 47.6661 53.4486C47.9391 53.919 48.0754 54.4662 48.0576 55.0203C48.0635 55.2048 48.0517 55.383 48.0339 55.5611ZM46.0635 54.5304C46.0673 54.3838 46.0381 54.2384 45.9783 54.1066C45.9185 53.9747 45.83 53.8604 45.7203 53.7733C45.4707 53.5811 45.1692 53.4827 44.8623 53.4933C44.5652 53.4801 44.2729 53.5767 44.0339 53.7669C43.9194 53.857 43.8232 53.9711 43.751 54.1023C43.6788 54.2335 43.6321 54.3792 43.6138 54.5304H46.0635Z" fill="white"/>
<path d="M15.6757 63.8065V64.3225H16.5814V64.8023H15.6757V65.3607H16.7V65.8586H15V63.3086H16.7V63.8065H15.6757Z" fill="white"/>
<path d="M18.5101 65.851L17.9453 64.8916H17.7844V65.851H17.125V63.3091H18.2277C18.4148 63.3036 18.6008 63.3396 18.7742 63.4147C18.9108 63.473 19.0283 63.5733 19.1116 63.7029C19.1857 63.8239 19.2245 63.9656 19.2232 64.1102C19.2243 64.2756 19.1703 64.4361 19.0707 64.5627C18.9551 64.7075 18.7993 64.809 18.6259 64.8524L19.25 65.8586L18.5101 65.851ZM17.7886 64.4541H18.1981C18.295 64.4617 18.3913 64.4318 18.4692 64.3697C18.5003 64.3405 18.5247 64.3041 18.5406 64.2634C18.5565 64.2226 18.5635 64.1784 18.561 64.1343C18.5627 64.0914 18.5554 64.0486 18.5395 64.0092C18.5236 63.9698 18.4996 63.9347 18.4692 63.9065C18.3911 63.845 18.2949 63.8155 18.1981 63.8236H17.7886V64.4541Z" fill="white"/>
<path d="M21.5219 63.4688C21.734 63.5657 21.9143 63.7226 22.0414 63.9207C22.1613 64.1203 22.2248 64.3497 22.2248 64.5836C22.2248 64.8176 22.1613 65.047 22.0414 65.2465C21.9138 65.4454 21.7324 65.6024 21.5189 65.6985C21.2731 65.8096 21.0063 65.8641 20.7375 65.8582H19.6748V63.3091H20.7375C21.0073 63.3027 21.2752 63.3573 21.5219 63.4688ZM21.3028 65.126C21.3771 65.0582 21.4353 64.9742 21.4732 64.8803C21.5112 64.7864 21.5278 64.685 21.5219 64.5836C21.5276 64.4816 21.5109 64.3796 21.473 64.285C21.4351 64.1904 21.377 64.1056 21.3028 64.0368C21.1303 63.8972 20.913 63.8279 20.6931 63.8424H20.366V65.3173H20.6931C20.9129 65.3295 21.1297 65.2599 21.3028 65.1215V65.126Z" fill="white"/>
<path d="M22.7692 65.7408C22.7322 65.7054 22.7022 65.6599 22.6815 65.6079C22.6608 65.5559 22.65 65.4986 22.6499 65.4406C22.6496 65.382 22.6601 65.324 22.6808 65.2712C22.7015 65.2185 22.7317 65.1724 22.7692 65.1367C22.8577 65.0555 22.9649 65.0117 23.0749 65.0117C23.1849 65.0117 23.2921 65.0555 23.3807 65.1367C23.4181 65.1724 23.4483 65.2185 23.469 65.2712C23.4897 65.324 23.5003 65.382 23.4999 65.4406C23.4998 65.4986 23.489 65.5559 23.4683 65.6079C23.4476 65.6599 23.4177 65.7054 23.3807 65.7408C23.2913 65.8195 23.1844 65.8617 23.0749 65.8617C22.9654 65.8617 22.8585 65.8195 22.7692 65.7408Z" fill="white"/>
<path d="M25.0818 63.3086V64.8187C25.0772 64.8826 25.0869 64.9466 25.1103 65.0068C25.1336 65.0669 25.1702 65.1217 25.2175 65.1678C25.3271 65.2559 25.4693 65.3 25.6133 65.2907C25.7591 65.2992 25.9029 65.2553 26.0154 65.1678C26.0638 65.1223 26.1012 65.0676 26.1252 65.0074C26.1491 64.9472 26.159 64.8829 26.1543 64.8187V63.3086H26.8995V64.8157C26.9067 65.0184 26.8458 65.2181 26.7256 65.3866C26.6078 65.5436 26.4452 65.6661 26.2564 65.7401C26.0485 65.8206 25.8254 65.8609 25.6005 65.8585C25.3814 65.8611 25.1641 65.8213 24.9621 65.7416C24.7779 65.6687 24.6207 65.5462 24.5105 65.3895C24.3981 65.2173 24.3426 65.0176 24.3509 64.8157V63.3086H25.0818Z" fill="white"/>
<path d="M29.4502 65.8586H28.8716L27.9038 64.2862V65.8586H27.3252V63.3086H27.9038L28.8716 64.8885V63.3086H29.4502V65.8586Z" fill="white"/>
<path d="M31.8397 63.4689C32.0163 63.5657 32.1664 63.7226 32.2721 63.9208C32.372 64.1203 32.4248 64.3497 32.4248 64.5837C32.4248 64.8176 32.372 65.047 32.2721 65.2465C32.166 65.4454 32.0149 65.6024 31.8373 65.6985C31.6327 65.8096 31.4106 65.8641 31.1868 65.8582H30.2998V63.3092H31.1843C31.4098 63.3023 31.6336 63.3569 31.8397 63.4689ZM31.6574 65.126C31.7192 65.0582 31.7677 64.9742 31.7992 64.8803C31.8308 64.7864 31.8446 64.685 31.8397 64.5837C31.8445 64.4817 31.8306 64.3797 31.7991 64.285C31.7675 64.1904 31.7191 64.1056 31.6574 64.0368C31.5135 63.8979 31.3328 63.8287 31.1498 63.8425H30.8776V65.3173H31.1498C31.332 65.3285 31.5113 65.259 31.6549 65.1215L31.6574 65.126Z" fill="white"/>
<path d="M35.8252 63.3086V63.8065H35.0973V65.8586H34.4281V63.8065H33.7002V63.3086H35.8252Z" fill="white"/>
<path d="M36.6752 63.3086V65.8586H35.8252V63.3086H36.6752Z" fill="white"/>
<path d="M37.7758 63.8065V64.3225H38.68V64.8023H37.7758V65.3607H38.8001V65.8586H37.1001V63.3086H38.8001V63.8065H37.7758Z" fill="white"/>
<path d="M40.9251 63.3086V63.8065H39.8612V64.3437H40.6567V64.8265H39.8612V65.8586H39.2251V63.3086H40.9251Z" fill="white"/>
<path d="M43.3361 64.7701C43.4268 64.8776 43.4764 65.0186 43.475 65.1645C43.4768 65.2629 43.4565 65.3604 43.4159 65.4483C43.3752 65.5363 43.3154 65.6121 43.2417 65.6692C43.0485 65.8057 42.8203 65.8714 42.5903 65.8565H41.3501V63.3105H42.5459C42.7698 63.2965 42.9921 63.3588 43.1819 63.4888C43.2545 63.5415 43.3136 63.6133 43.3537 63.6976C43.3938 63.782 43.4135 63.876 43.4111 63.9708C43.4152 64.1078 43.371 64.2414 43.2875 64.344C43.2007 64.4475 43.0876 64.5206 42.9625 64.5541C43.1061 64.5774 43.238 64.6536 43.3361 64.7701ZM42.0015 64.341H42.4264C42.5124 64.3464 42.5978 64.3226 42.6709 64.273C42.6992 64.2508 42.722 64.2211 42.737 64.1868C42.752 64.1525 42.7589 64.1146 42.757 64.0766C42.7589 64.0382 42.752 63.9999 42.737 63.9651C42.722 63.9303 42.6992 63.9001 42.6709 63.8771C42.5984 63.8259 42.5127 63.8015 42.4264 63.8076H42.0015V64.341ZM42.732 65.2854C42.7615 65.262 42.7851 65.231 42.8007 65.195C42.8162 65.1591 42.8231 65.1195 42.8209 65.0799C42.8224 65.0393 42.8147 64.9988 42.7984 64.9622C42.7822 64.9256 42.758 64.8939 42.7278 64.8699C42.6524 64.8151 42.5627 64.7886 42.4723 64.7943H42.0015V65.3564H42.4792C42.5682 65.362 42.6566 65.3371 42.732 65.2854Z" fill="white"/>
<path d="M45.5104 65.4046H44.4071L44.2296 65.8586H43.4751L44.546 63.3086H45.3792L46.4501 65.8586H45.6878L45.5104 65.4046ZM45.3252 64.9264L44.958 63.9926L44.5954 64.9264H45.3252Z" fill="white"/>
<path d="M47.4856 63.3086V64.8187C47.4819 64.8824 47.4898 64.9463 47.509 65.0064C47.5282 65.0664 47.5581 65.1214 47.597 65.1677C47.6887 65.2556 47.8071 65.2997 47.9271 65.2906C48.0478 65.2994 48.167 65.2554 48.2599 65.1677C48.3003 65.1224 48.3316 65.0678 48.3518 65.0075C48.3719 64.9473 48.3803 64.8829 48.3765 64.8187V63.3086H48.9996V64.8157C49.0051 65.0185 48.9541 65.2182 48.8538 65.3865C48.7568 65.5438 48.622 65.6664 48.4653 65.74C48.2926 65.8206 48.1073 65.8608 47.9205 65.8584C47.7358 65.8619 47.5526 65.8221 47.3822 65.7415C47.2298 65.6681 47.0998 65.5457 47.0084 65.3895C46.9144 65.2175 46.8683 65.0176 46.8758 64.8157V63.3086H47.4856Z" fill="white"/>
<defs>
<clipPath id="clip0_716_18426">
<rect width="34" height="29" fill="white" transform="translate(15 13.1367)"/>
</clipPath>
</defs>
</svg>
