<svg width="20" height="17" viewBox="0 0 20 17" fill="none" xmlns="http://www.w3.org/2000/svg">
<path d="M10 15.5L10 8.5M10 8.5L7 11.5M10 8.5L13 11.5M16 15.5L17 15.5C17.5304 15.5 18.0391 15.2893 18.4142 14.9142C18.7893 14.5391 19 14.0304 19 13.5L19 3.5C19 2.96957 18.7893 2.46086 18.4142 2.08579C18.0391 1.71071 17.5304 1.5 17 1.5L3 1.5C2.46957 1.5 1.96086 1.71071 1.58579 2.08579C1.21071 2.46086 1 2.96957 1 3.5L0.999999 13.5C0.999999 14.0304 1.21071 14.5391 1.58579 14.9142C1.96086 15.2893 2.46957 15.5 3 15.5L4 15.5" stroke="#323232" stroke-width="1.5" stroke-linecap="round" stroke-linejoin="round"/>
</svg>
