<svg width="207" height="47" viewBox="0 0 207 47" fill="none" xmlns="http://www.w3.org/2000/svg">
<path d="M204.449 11.3688C194.98 11.3688 185.514 11.3688 176.049 11.3476C175.236 11.3476 174.881 11.6103 174.58 12.3471C171.21 20.6329 167.786 28.9005 164.428 37.1924C164.037 38.1586 163.598 38.524 162.509 38.524C122.088 38.5401 81.6689 38.5804 41.252 38.6448C33.0649 38.6448 24.8748 38.6448 16.5403 38.6448C16.7238 38.1737 16.8411 37.8265 16.9916 37.4853C21.9923 25.3133 27.312 12.1992 32.3367 0.0422743L19.0496 0C19.0496 0 6.44556 30.8512 0.301487 45.8012C-0.17993 46.9728 -0.176921 46.9758 1.04768 46.9758C57.3975 46.9758 113.748 46.9839 170.1 47C171.045 47 171.46 46.698 171.8 45.8405C174.791 38.3489 177.824 30.8452 180.851 23.3475C181.052 22.8463 181.191 22.4416 181.907 22.4416C185.701 22.4839 189.495 22.4718 193.289 22.4416C193.918 22.4416 194.099 22.5685 193.807 23.2056C193.364 24.1809 193.003 25.1955 192.513 26.4275C195.6 26.4275 198.489 26.4275 201.377 26.4275C201.922 26.4275 202.078 26.1255 202.241 25.7239C203.745 22.0732 205.265 18.4316 206.754 14.7719C207.515 12.8876 206.48 11.3718 204.449 11.3688ZM74.3885 45.4902C74.2092 45.6703 73.9962 45.8132 73.7618 45.9106C73.5274 46.008 73.2761 46.0581 73.0224 46.0579H66.9897C66.4774 46.0579 65.986 45.8536 65.6238 45.4901C65.2615 45.1265 65.058 44.6335 65.058 44.1193H67.5102C67.5102 44.2795 67.5736 44.4331 67.6865 44.5463C67.7993 44.6596 67.9524 44.7232 68.112 44.7232H71.9423C72.073 44.7178 72.1984 44.6697 72.2994 44.5863C72.4005 44.5029 72.4717 44.3888 72.5023 44.2611C72.533 44.1335 72.5213 43.9993 72.4691 43.8789C72.4169 43.7585 72.327 43.6584 72.2131 43.5939H66.7369C66.5702 43.5951 66.4041 43.5728 66.2435 43.5275C65.9215 43.4442 65.6268 43.2776 65.389 43.0443C65.1157 42.775 64.9284 42.4301 64.8509 42.0537C64.7734 41.6772 64.8091 41.2862 64.9536 40.9301C65.0981 40.5741 65.3448 40.2693 65.6623 40.0543C65.9799 39.8393 66.3539 39.7239 66.7369 39.7228H72.7547C73.2559 39.7225 73.7376 39.9181 74.0976 40.2682C74.4576 40.6182 74.6677 41.0951 74.6833 41.5979H72.2281C72.2281 41.4378 72.1647 41.2842 72.0518 41.1709C71.939 41.0577 71.7859 40.994 71.6263 40.994H67.8081C67.6485 40.994 67.4954 41.0577 67.3826 41.1709C67.2697 41.2842 67.2063 41.4378 67.2063 41.5979C67.2063 41.7581 67.2697 41.9117 67.3826 42.025C67.4954 42.1382 67.6485 42.2019 67.8081 42.2019H73.0224C73.407 42.1994 73.7836 42.3122 74.1039 42.5258C74.4242 42.7394 74.6737 43.0441 74.8204 43.4008C74.9671 43.7576 75.0044 44.1502 74.9275 44.5283C74.8505 44.9065 74.6628 45.253 74.3885 45.5234V45.4902ZM93.4375 43.6784V46.0428H91.2049V43.6784L86.4479 39.7016H89.6644L92.2159 42.3377H92.4295L95.0563 39.7016H97.9899L93.4375 43.6784ZM116.202 46.0428L112.914 43.6271H111.497V46.0428H109.017V39.7016H111.497V42.066H112.914L115.841 39.7016H119.299L114.867 42.7212V42.99L119.825 46.0428H116.202ZM140.288 41.0665H133.621V42.2381H139.738V43.5728H133.621V44.7444H140.141V46.076H131.283V39.7349H140.288V41.0665Z" fill="#FF7E00"/>
<path d="M75.9498 35.2364C72.3061 35.2364 68.6624 35.2152 65.0187 35.2364C64.1822 35.2364 64.098 35.0522 64.4169 34.3063C68.9924 23.1962 73.5518 12.073 78.0952 0.936769C78.3419 0.33285 78.6277 0.0731652 79.3198 0.0792044C83.3316 0.127518 87.3504 0.140603 91.3762 0.118459C92.1345 0.118459 92.2789 0.2634 91.978 0.988103C90.6752 4.06809 89.4205 7.16922 88.1477 10.2643C87.5851 11.6322 87.5851 11.6322 89.0053 11.6322C92.7212 11.6322 96.4401 11.6594 100.159 11.6141C101.044 11.6141 101.149 11.8043 100.821 12.5984C98.3989 18.4685 96.0249 24.3749 93.5998 30.2359C92.1766 33.6994 89.6461 35.3118 85.867 35.2364H75.9378H75.9498ZM90.266 17.6623C88.6051 17.6623 87.1067 17.6623 85.6053 17.6623C85.4577 17.6404 85.3071 17.6705 85.1793 17.7476C85.0514 17.8247 84.9542 17.944 84.9042 18.0851C84.0015 20.3407 83.0718 22.5933 82.109 24.9546C83.4539 24.9546 84.6845 25.0331 85.9001 24.9275C86.3368 24.8922 86.7555 24.738 87.1113 24.4815C87.4671 24.2251 87.7464 23.876 87.9191 23.472C88.7164 21.6089 89.4355 19.7156 90.266 17.6623Z" fill="#FF7E00"/>
<path d="M96.0996 35.2245L102.19 20.3711C104.825 13.9394 107.459 7.5056 110.091 1.06984C110.31 0.529329 110.476 0.0975265 111.237 0.106585C115.45 0.160938 119.662 0.154899 123.856 0.173016C124 0.192884 124.142 0.225214 124.281 0.269643L121.079 8.08436C120.709 8.99024 120.381 9.91423 119.957 10.802C119.59 11.5569 119.845 11.6898 120.559 11.6837C124.353 11.6626 128.147 11.6837 131.938 11.6837C133.199 11.6837 133.199 11.6837 132.723 12.8553C130.394 18.5624 128.066 24.2684 125.737 29.9734C124.172 33.7962 121.858 35.3 117.763 35.2879C110.816 35.2668 103.868 35.2879 96.918 35.2879C96.7044 35.2607 96.4847 35.2426 96.0996 35.2245ZM122.337 17.6625C120.673 17.6625 119.15 17.6625 117.625 17.6625C117.479 17.6493 117.334 17.6877 117.213 17.771C117.093 17.8542 117.005 17.9772 116.966 18.1185C116.117 20.202 115.257 22.2825 114.402 24.363C114.243 24.7525 114.27 25.0092 114.794 25.0001C115.805 24.976 116.819 25.0333 117.824 24.9518C118.263 24.9376 118.691 24.8045 119.062 24.5663C119.433 24.3282 119.733 23.994 119.93 23.599C120.775 21.6997 121.5 19.737 122.337 17.6625Z" fill="#FF7E00"/>
<path d="M143.883 26.6759H163.54C164.816 26.6759 164.816 26.6759 164.335 27.8626C163.57 29.7438 162.791 31.619 162.045 33.5062C161.554 34.7442 160.697 35.2938 159.355 35.2908C150.115 35.2697 140.872 35.2908 131.631 35.2908C129.649 35.2908 128.695 33.9078 129.462 32.0357C132.17 25.4258 134.911 18.831 137.622 12.2241C137.681 12.0116 137.814 11.8278 137.998 11.7072C138.182 11.5865 138.404 11.5374 138.621 11.5689C148.428 11.5809 158.234 11.5809 168.039 11.5689C168.352 11.5735 168.659 11.6543 168.934 11.8041C169.209 11.954 169.444 12.1686 169.619 12.4295C169.793 12.6904 169.902 12.9898 169.936 13.3022C169.97 13.6146 169.928 13.9305 169.814 14.2231C168.803 17.0132 167.629 19.7429 166.546 22.5058C166.299 23.1339 165.803 22.9074 165.403 22.9074C159.126 22.9074 152.853 22.9074 146.579 22.8591C145.743 22.8591 145.28 23.0494 145.018 23.8828C144.726 24.7977 144.296 25.6673 143.883 26.6759ZM152.131 20.2321V20.2683H153.816H155.501C157.7 20.2683 157.673 20.2683 158.509 18.2663C158.81 17.5205 158.81 17.2578 157.872 17.2759C155.215 17.3242 152.558 17.2759 149.898 17.2759C147.584 17.2759 147.608 17.2759 146.787 19.4711C146.543 20.1173 146.691 20.2442 147.314 20.2351C148.911 20.2049 150.521 20.2321 152.131 20.2321Z" fill="#FF7E00"/>
<path d="M68.4608 11.6025C68.0065 12.7349 67.6093 13.7404 67.2001 14.7399C64.9756 20.1752 62.749 25.6004 60.5205 31.0155C59.4704 33.5701 56.9098 35.3486 54.2019 35.2611C48.118 35.0678 42.0341 35.2309 35.9502 35.1735C34.1449 35.1735 32.3395 35.1735 30.5342 35.1735C28.0941 35.1735 26.6227 33.093 27.5495 30.8011C30.0558 24.5989 32.7969 17.9648 35.3243 11.7777L47.8622 11.9045C46.3578 15.4676 44.6638 19.7554 43.1895 23.3216C42.5877 24.7831 42.7502 25.0277 44.3238 25.0307C45.8282 25.0307 47.3327 25.0307 48.8371 25.0307C50.4498 25.0518 51.1328 24.6291 51.7587 23.1102C53.2059 19.6014 54.912 15.3831 56.3141 11.8532L68.4608 11.6025Z" fill="#FF7E00"/>
<path d="M37.6865 5.70606L39.9251 0.228516H52.4389L50.3448 5.70606H37.6865Z" fill="#FF7E00"/>
<path d="M58.7275 5.70606L60.8819 0.228516H72.9353L70.9194 5.70606H58.7275Z" fill="#FF7E00"/>
</svg>
