<svg width="340" height="78" viewBox="0 0 340 78" fill="none" xmlns="http://www.w3.org/2000/svg">
<path d="M335.809 19.5014C320.257 19.5014 304.709 19.5014 289.161 19.4668C287.827 19.4668 287.243 19.8972 286.749 21.1042C281.214 34.6788 275.59 48.2237 270.075 61.8081C269.432 63.3912 268.711 63.9898 266.922 63.9898C200.53 64.0161 134.141 64.0821 67.756 64.1876C54.3086 64.1876 40.8562 64.1876 27.1667 64.1876C27.4681 63.4159 27.6609 62.847 27.908 62.288C36.1217 42.3466 44.8593 20.8618 53.1126 0.945235L31.2884 0.875977C31.2884 0.875977 10.586 51.4194 0.49429 75.912C-0.296442 77.8315 -0.2915 77.8364 1.71992 77.8364C94.2751 77.8364 186.832 77.8496 279.391 77.876C280.942 77.876 281.624 77.3813 282.183 75.9763C287.095 63.7028 292.077 51.4095 297.049 39.1262C297.38 38.305 297.607 37.6421 298.783 37.6421C305.015 37.7113 311.247 37.6915 317.479 37.6421C318.512 37.6421 318.808 37.8498 318.329 38.8936C317.603 40.4915 317.01 42.1537 316.204 44.1721C321.275 44.1721 326.019 44.1721 330.763 44.1721C331.658 44.1721 331.915 43.6774 332.182 43.0194C334.653 37.0385 337.149 31.0724 339.595 25.0767C340.845 21.9898 339.145 19.5064 335.809 19.5014ZM122.183 75.4025C121.889 75.6976 121.539 75.9317 121.154 76.0913C120.769 76.2508 120.356 76.3328 119.939 76.3325H110.03C109.189 76.3325 108.382 75.9979 107.787 75.4023C107.192 74.8067 106.858 73.9989 106.858 73.1565H110.885C110.885 73.4189 110.99 73.6706 111.175 73.8562C111.36 74.0417 111.612 74.1459 111.874 74.1459H118.165C118.38 74.137 118.586 74.0583 118.752 73.9217C118.918 73.7851 119.035 73.598 119.085 73.3889C119.135 73.1797 119.116 72.9599 119.03 72.7626C118.945 72.5654 118.797 72.4015 118.61 72.2958H109.615C109.341 72.2978 109.069 72.2611 108.805 72.1869C108.276 72.0505 107.792 71.7776 107.401 71.3954C106.952 70.9541 106.645 70.3892 106.518 69.7724C106.39 69.1557 106.449 68.515 106.686 67.9317C106.924 67.3485 107.329 66.849 107.85 66.4968C108.372 66.1446 108.986 65.9556 109.615 65.9537H119.499C120.323 65.9533 121.114 66.2738 121.705 66.8472C122.297 67.4207 122.642 68.2021 122.667 69.0258H118.635C118.635 68.7634 118.53 68.5117 118.345 68.3262C118.16 68.1406 117.908 68.0364 117.646 68.0364H111.375C111.113 68.0364 110.861 68.1406 110.676 68.3262C110.49 68.5117 110.386 68.7634 110.386 69.0258C110.386 69.2882 110.49 69.5399 110.676 69.7254C110.861 69.911 111.113 70.0152 111.375 70.0152H119.939C120.571 70.0111 121.19 70.1959 121.716 70.5458C122.242 70.8958 122.652 71.395 122.893 71.9794C123.134 72.5639 123.195 73.2071 123.068 73.8266C122.942 74.4462 122.634 75.0138 122.183 75.4569V75.4025ZM153.471 72.4343V76.3078H149.804V72.4343L141.991 65.9191H147.274L151.465 70.2378H151.816L156.13 65.9191H160.949L153.471 72.4343ZM190.863 76.3078L185.461 72.3502H183.134V76.3078H179.061V65.9191H183.134V69.7926H185.461L190.27 65.9191H195.948L188.669 70.8661V71.3064L196.813 76.3078H190.863ZM230.424 68.1551H219.473V70.0746H229.52V72.2611H219.473V74.1806H230.182V76.3622H215.633V65.9735H230.424V68.1551Z" fill="#0C3985" fill-opacity="0.7"/>
<path d="M124.748 58.6029C118.763 58.6029 112.778 58.5683 106.793 58.6029C105.419 58.6029 105.281 58.3012 105.805 57.0793C113.32 38.8776 120.809 20.6545 128.271 2.41C128.677 1.4206 129.146 0.995157 130.283 1.00505C136.872 1.0842 143.473 1.10564 150.086 1.06936C151.331 1.06936 151.568 1.30682 151.074 2.4941C148.934 7.54003 146.873 12.6206 144.783 17.6913C143.859 19.9323 143.859 19.9323 146.191 19.9323C152.295 19.9323 158.403 19.9768 164.512 19.9026C165.965 19.9026 166.138 20.2142 165.599 21.5153C161.62 31.1323 157.721 40.8086 153.738 50.4107C151.4 56.0849 147.244 58.7266 141.037 58.6029H124.728H124.748ZM148.262 29.8114C145.534 29.8114 143.073 29.8114 140.607 29.8114C140.364 29.7755 140.117 29.8249 139.907 29.9512C139.697 30.0775 139.537 30.2729 139.455 30.504C137.973 34.1994 136.446 37.8899 134.864 41.7584C137.073 41.7584 139.094 41.887 141.091 41.7139C141.808 41.6561 142.496 41.4035 143.08 40.9833C143.665 40.5631 144.124 39.9913 144.407 39.3294C145.717 36.2771 146.898 33.1754 148.262 29.8114Z" fill="#0C3985" fill-opacity="0.7"/>
<path d="M157.845 58.5826L167.847 34.2484C172.177 23.7113 176.503 13.1708 180.825 2.62715C181.186 1.74164 181.458 1.03422 182.708 1.04906C189.627 1.1381 196.546 1.12821 203.435 1.15789C203.672 1.19044 203.905 1.24341 204.132 1.3162L198.874 14.119C198.266 15.6031 197.727 17.1169 197.03 18.5713C196.428 19.8081 196.848 20.0257 198.019 20.0158C204.251 19.9812 210.483 20.0158 216.71 20.0158C218.781 20.0158 218.781 20.0158 218 21.9353C214.174 31.2851 210.349 40.6333 206.524 49.9798C203.954 56.2427 200.154 58.7063 193.428 58.6865C182.016 58.6519 170.605 58.6865 159.189 58.6865C158.838 58.642 158.477 58.6123 157.845 58.5826ZM200.94 29.8109C198.207 29.8109 195.706 29.8109 193.2 29.8109C192.961 29.7893 192.722 29.8521 192.524 29.9886C192.327 30.125 192.183 30.3264 192.118 30.5579C190.724 33.9713 189.311 37.3798 187.907 40.7883C187.645 41.4264 187.69 41.8469 188.55 41.8321C190.21 41.7925 191.876 41.8865 193.527 41.7529C194.249 41.7297 194.952 41.5115 195.561 41.1214C196.17 40.7313 196.662 40.1838 196.986 39.5367C198.375 36.425 199.566 33.2095 200.94 29.8109Z" fill="#0C3985" fill-opacity="0.7"/>
<path d="M236.33 44.5775H268.617C270.712 44.5775 270.712 44.5775 269.922 46.5217C268.666 49.6037 267.386 52.6758 266.161 55.7676C265.355 57.7959 263.947 58.6963 261.742 58.6913C246.565 58.6567 231.383 58.6913 216.206 58.6913C212.949 58.6913 211.383 56.4256 212.643 53.3585C217.091 42.5295 221.593 31.7252 226.046 20.9012C226.142 20.5531 226.362 20.2519 226.664 20.0543C226.966 19.8567 227.329 19.7761 227.687 19.8277C243.794 19.8475 259.901 19.8475 276.005 19.8277C276.519 19.8354 277.024 19.9676 277.476 20.2132C277.928 20.4587 278.314 20.8103 278.601 21.2377C278.887 21.6651 279.066 22.1557 279.122 22.6675C279.178 23.1792 279.109 23.6969 278.921 24.1761C277.261 28.7471 275.333 33.2192 273.554 37.7457C273.149 38.7747 272.333 38.4037 271.676 38.4037C261.367 38.4037 251.063 38.4037 240.758 38.3245C239.384 38.3245 238.623 38.6362 238.193 40.0016C237.714 41.5005 237.007 42.9252 236.33 44.5775ZM249.876 34.0206V34.08H252.644H255.412C259.024 34.08 258.98 34.08 260.354 30.8002C260.848 29.5782 260.848 29.1479 259.306 29.1775C254.942 29.2567 250.578 29.1775 246.209 29.1775C242.409 29.1775 242.449 29.1775 241.099 32.774C240.699 33.8327 240.941 34.0404 241.964 34.0256C244.588 33.9761 247.232 34.0206 249.876 34.0206Z" fill="#0C3985" fill-opacity="0.7"/>
<path d="M112.447 19.8828C111.701 21.7379 111.049 23.3853 110.376 25.0227C106.723 33.9273 103.066 42.8154 99.4051 51.6871C97.6803 55.8722 93.4746 58.786 89.0267 58.6425C79.0338 58.3259 69.041 58.5931 59.0481 58.4991C56.0828 58.4991 53.1176 58.4991 50.1524 58.4991C46.1443 58.4991 43.7277 55.0906 45.2498 51.3358C49.3666 41.1747 53.8688 30.3061 58.0201 20.1697L78.6138 20.3775C76.1427 26.215 73.3603 33.2397 70.9387 39.0821C69.9503 41.4765 70.2172 41.8772 72.8019 41.8821C75.2729 41.8821 77.744 41.8821 80.215 41.8821C82.864 41.9167 83.9858 41.2242 85.0138 38.7358C87.3909 32.9874 90.1931 26.0765 92.4961 20.2934L112.447 19.8828Z" fill="#0C3985" fill-opacity="0.7"/>
<path d="M61.8994 10.2258L65.5763 1.25195H86.1304L82.6907 10.2258H61.8994Z" fill="#0C3985" fill-opacity="0.7"/>
<path d="M96.459 10.2258L99.9975 1.25195H119.795L116.484 10.2258H96.459Z" fill="#0C3985" fill-opacity="0.7"/>
</svg>
