<svg width="516" height="117" viewBox="0 0 516 117" fill="none" xmlns="http://www.w3.org/2000/svg">
<path d="M509.64 28.301C486.036 28.301 462.44 28.301 438.844 28.2484C436.819 28.2484 435.934 28.9023 435.184 30.7365C426.783 51.3627 418.248 71.9439 409.878 92.5852C408.903 94.9906 407.808 95.9002 405.092 95.9002C304.333 95.9403 203.579 96.0405 102.829 96.2008C82.4209 96.2008 62.005 96.2008 41.2291 96.2008C41.6866 95.0282 41.9791 94.1638 42.3542 93.3144C54.8197 63.0139 68.0803 30.3681 80.6058 0.105236L47.4844 0C47.4844 0 16.0655 76.7998 0.749845 114.016C-0.450208 116.932 -0.442708 116.94 2.60993 116.94C143.076 116.94 283.545 116.96 424.016 117C426.371 117 427.406 116.248 428.254 114.114C435.709 95.4642 443.269 76.7848 450.815 58.1204C451.317 56.8726 451.662 55.8653 453.447 55.8653C462.905 55.9706 472.363 55.9405 481.821 55.8653C483.388 55.8653 483.838 56.181 483.111 57.7671C482.008 60.1951 481.108 62.7207 479.886 65.7876C487.581 65.7876 494.781 65.7876 501.982 65.7876C503.339 65.7876 503.729 65.0359 504.134 64.0362C507.885 54.9483 511.672 45.8829 515.385 36.7725C517.282 32.082 514.702 28.3085 509.64 28.301ZM185.43 113.242C184.983 113.69 184.453 114.046 183.868 114.288C183.284 114.531 182.658 114.655 182.025 114.655H166.987C165.71 114.655 164.485 114.146 163.582 113.241C162.679 112.336 162.172 111.109 162.172 109.829H168.285C168.285 110.228 168.443 110.61 168.724 110.892C169.005 111.174 169.387 111.332 169.785 111.332H179.333C179.659 111.319 179.971 111.199 180.223 110.992C180.475 110.784 180.652 110.5 180.729 110.182C180.805 109.864 180.776 109.53 180.646 109.23C180.516 108.931 180.292 108.682 180.008 108.521H166.357C165.941 108.524 165.527 108.468 165.127 108.356C164.324 108.148 163.59 107.734 162.997 107.153C162.316 106.482 161.849 105.624 161.656 104.687C161.462 103.75 161.552 102.776 161.912 101.89C162.272 101.004 162.887 100.245 163.678 99.7096C164.47 99.1744 165.402 98.8872 166.357 98.8844H181.358C182.607 98.8838 183.808 99.3707 184.705 100.242C185.603 101.113 186.126 102.301 186.165 103.552H180.045C180.045 103.154 179.887 102.771 179.606 102.489C179.325 102.207 178.943 102.049 178.545 102.049H169.027C168.629 102.049 168.248 102.207 167.966 102.489C167.685 102.771 167.527 103.154 167.527 103.552C167.527 103.951 167.685 104.333 167.966 104.615C168.248 104.897 168.629 105.056 169.027 105.056H182.025C182.984 105.05 183.923 105.33 184.721 105.862C185.52 106.394 186.141 107.152 186.507 108.04C186.873 108.928 186.966 109.906 186.774 110.847C186.582 111.788 186.114 112.651 185.43 113.324V113.242ZM232.915 108.731V114.617H227.35V108.731L215.492 98.8317H223.51L229.87 105.394H230.402L236.95 98.8317H244.263L232.915 108.731ZM289.662 114.617L281.465 108.604H277.932V114.617H271.752V98.8317H277.932V104.717H281.465L288.762 98.8317H297.38L286.332 106.349V107.018L298.693 114.617H289.662ZM349.703 102.229H333.082V105.146H348.33V108.468H333.082V111.385H349.335V114.7H327.254V98.9144H349.703V102.229Z" fill="#0C3985" fill-opacity="0.7"/>
<path d="M189.323 87.7154C180.24 87.7154 171.157 87.6628 162.075 87.7154C159.989 87.7154 159.779 87.2569 160.575 85.4002C171.98 57.7432 183.345 30.0535 194.671 2.33133C195.286 0.827962 195.999 0.181511 197.724 0.196545C207.724 0.316815 217.742 0.349388 227.777 0.294264C229.668 0.294264 230.028 0.655074 229.277 2.45912C226.03 10.1263 222.902 17.8461 219.73 25.5509C218.327 28.9561 218.327 28.9561 221.867 28.9561C231.13 28.9561 240.4 29.0237 249.671 28.911C251.876 28.911 252.138 29.3845 251.321 31.3615C245.283 45.9743 239.365 60.6772 233.32 75.2675C229.773 83.8893 223.465 87.9033 214.044 87.7154H189.293H189.323ZM225.01 43.9673C220.87 43.9673 217.134 43.9673 213.392 43.9673C213.024 43.9126 212.649 43.9877 212.33 44.1796C212.011 44.3716 211.769 44.6685 211.644 45.0196C209.394 50.6347 207.077 56.2423 204.676 62.1205C208.029 62.1205 211.097 62.3159 214.127 62.0528C215.215 61.965 216.259 61.5812 217.146 60.9427C218.033 60.3043 218.729 59.4354 219.16 58.4297C221.147 53.7918 222.94 49.0787 225.01 43.9673Z" fill="#0C3985" fill-opacity="0.7"/>
<path d="M239.553 87.6842L254.733 50.7087C261.304 34.6978 267.869 18.6819 274.429 2.66092C274.977 1.3154 275.389 0.240493 277.287 0.263044C287.787 0.398347 298.288 0.383314 308.743 0.428415C309.102 0.477873 309.456 0.558353 309.801 0.668954L301.82 20.1226C300.898 22.3777 300.08 24.6778 299.023 26.8878C298.108 28.767 298.745 29.0977 300.523 29.0827C309.981 29.0301 319.439 29.0827 328.889 29.0827C332.032 29.0827 332.032 29.0827 330.847 31.9992C325.041 46.2061 319.236 60.4105 313.431 74.6124C309.531 84.1287 303.763 87.8721 293.555 87.842C276.237 87.7894 258.919 87.842 241.593 87.842C241.06 87.7744 240.513 87.7293 239.553 87.6842ZM304.956 43.9661C300.808 43.9661 297.013 43.9661 293.21 43.9661C292.847 43.9332 292.484 44.0287 292.184 44.2361C291.884 44.4434 291.666 44.7495 291.567 45.1011C289.452 50.2878 287.307 55.4669 285.177 60.646C284.78 61.6157 284.847 62.2546 286.152 62.2321C288.672 62.1719 291.2 62.3148 293.705 62.1118C294.802 62.0765 295.869 61.745 296.793 61.1522C297.717 60.5595 298.464 59.7275 298.955 58.7443C301.063 54.0161 302.87 49.1302 304.956 43.9661Z" fill="#0C3985" fill-opacity="0.7"/>
<path d="M358.666 66.4044H407.665C410.846 66.4044 410.845 66.4044 409.645 69.3585C407.74 74.0415 405.798 78.7095 403.938 83.4076C402.715 86.4895 400.578 87.8575 397.232 87.85C374.199 87.7974 351.158 87.85 328.124 87.85C323.182 87.85 320.804 84.4073 322.717 79.7468C329.467 63.2924 336.3 46.8756 343.058 30.4287C343.203 29.8997 343.537 29.4421 343.995 29.1419C344.454 28.8416 345.006 28.7192 345.548 28.7975C369.994 28.8276 394.437 28.8276 418.878 28.7975C419.659 28.8092 420.425 29.0101 421.111 29.3832C421.797 29.7564 422.382 30.2905 422.817 30.94C423.252 31.5894 423.524 32.3349 423.608 33.1125C423.693 33.89 423.588 34.6766 423.304 35.4049C420.783 42.3504 417.858 49.1457 415.158 56.0236C414.543 57.5871 413.306 57.0234 412.308 57.0234C396.662 57.0234 381.024 57.0234 365.386 56.9031C363.301 56.9031 362.146 57.3767 361.493 59.4513C360.766 61.7289 359.693 63.8938 358.666 66.4044ZM379.224 50.3634V50.4536H383.424H387.624C393.107 50.4536 393.04 50.4536 395.125 45.4699C395.875 43.6133 395.875 42.9593 393.535 43.0044C386.912 43.1247 380.289 43.0044 373.659 43.0044C367.891 43.0044 367.951 43.0044 365.904 48.4692C365.296 50.0778 365.664 50.3935 367.216 50.3709C371.199 50.2958 375.211 50.3634 379.224 50.3634Z" fill="#0C3985" fill-opacity="0.7"/>
<path d="M170.655 28.8809C169.522 31.6997 168.532 34.2028 167.512 36.6909C161.967 50.2212 156.417 63.7265 150.861 77.2068C148.244 83.5661 141.861 87.9935 135.111 87.7755C119.945 87.2944 104.779 87.7003 89.6138 87.5575C85.1136 87.5575 80.6134 87.5575 76.1132 87.5575C70.0304 87.5575 66.3628 82.3784 68.6729 76.6731C74.9206 61.2334 81.7534 44.7189 88.0537 29.3168L119.308 29.6325C115.557 38.5024 111.335 49.1764 107.66 58.0538C106.16 61.692 106.565 62.3008 110.487 62.3084C114.237 62.3084 117.988 62.3084 121.738 62.3084C125.758 62.361 127.46 61.3086 129.021 57.5276C132.628 48.793 136.881 38.292 140.376 29.5048L170.655 28.8809Z" fill="#0C3985" fill-opacity="0.7"/>
<path d="M93.9414 14.2069L99.5217 0.571289H130.716L125.495 14.2069H93.9414Z" fill="#0C3985" fill-opacity="0.7"/>
<path d="M146.391 14.2069L151.762 0.571289H181.808L176.783 14.2069H146.391Z" fill="#0C3985" fill-opacity="0.7"/>
</svg>
