<svg width="146" height="238" viewBox="0 0 146 238" fill="none" xmlns="http://www.w3.org/2000/svg">
<path d="M137.722 72.5093V72.6227C137.722 108.449 108.68 137.492 72.8534 137.492C37.027 137.492 7.98462 108.449 7.98462 72.6227C7.98462 36.7963 37.027 7.75391 72.8534 7.75391H72.9101V37.2397C53.3055 37.2397 37.4137 53.1315 37.4137 72.7361C37.4137 92.3408 53.3055 108.233 72.9101 108.233C92.5148 108.233 108.407 92.3408 108.407 72.7361C108.407 72.6601 108.407 72.5853 108.407 72.5093H137.722Z" fill="white"/>
<path d="M90.0482 36.183C90.0141 36.1699 89.9829 36.1501 89.9566 36.1247C89.9304 36.0993 89.9095 36.0688 89.8953 36.0351C89.8811 36.0014 89.8739 35.9652 89.874 35.9286C89.8742 35.8921 89.8818 35.8559 89.8963 35.8224C91.4112 32.4378 93.8749 29.565 96.9891 27.552C100.103 25.539 103.734 24.4721 107.443 24.4805C118.028 24.4805 126.608 32.986 126.608 43.4762C126.612 48.1928 124.846 52.7392 121.659 56.2163C121.641 56.2363 121.619 56.2524 121.595 56.2638C121.57 56.2751 121.544 56.2815 121.517 56.2826C121.49 56.2836 121.463 56.2793 121.438 56.2699C121.413 56.2605 121.39 56.2461 121.37 56.2277C121.332 56.1921 121.31 56.1434 121.307 56.0917C121.304 56.04 121.322 55.9892 121.355 55.9498C124.169 52.643 125.712 48.4418 125.708 44.0999C125.708 33.9217 117.383 25.6713 107.109 25.6713C103.63 25.6645 100.219 26.6332 97.2623 28.4674C94.306 30.3016 91.923 32.9278 90.3839 36.048C90.3547 36.1093 90.3034 36.1573 90.2403 36.1824C90.1772 36.2074 90.1069 36.2076 90.0437 36.183H90.0482Z" fill="white"/>
<path d="M53.1206 50.5642L53.9145 47.2754H65.0283L64.2345 50.5642H59.358L57.5435 58.1625H53.9145L55.6723 50.6209L53.1206 50.5642Z" fill="white"/>
<path d="M66.1623 47.2754H71.8327L72.2863 53.286L74.7812 47.2754H78.6371L73.307 58.1625H69.7913L68.6006 50.6209H65.5386L66.1623 47.2754Z" fill="white"/>
<path d="M82.2662 47.2754L79.5444 58.1625H82.8332L84.1941 52.7189L85.7818 58.1625H89.0706L91.7924 47.3888L88.2201 47.3321L87.1994 52.7756L85.7251 47.3321L82.2662 47.2754Z" fill="white"/>
<path d="M115.891 50.1673C115.551 48.693 115.097 47.6723 112.262 47.3321H108.86L106.478 56.7449L105.118 54.0231H105.458C105.458 54.0231 107.272 53.3427 107.499 51.4147C107.726 49.4868 106.478 47.5589 104.777 47.4455L100.411 47.2754L97.6895 58.1625H101.205L101.999 54.3066L103.36 58.1625H110.334C110.334 58.1625 114.757 58.1058 115.551 53.5695C115.551 53.5695 116.232 51.6416 115.891 50.1673ZM104.21 50.9611C103.812 52.0226 102.623 51.755 102.623 51.755C102.849 51.1879 102.963 50.2807 102.963 50.2807C102.963 50.2807 104.551 50.0539 104.21 50.9611ZM112.602 52.6622C112.035 55.0438 111.015 55.1572 111.015 55.1572H110.221L111.468 50.1673C111.468 50.1673 113.17 50.2807 112.602 52.6622Z" fill="white"/>
<path d="M97.1792 47.5586C95.3647 46.6514 91.8706 47.4452 90.2909 50.4619C88.9005 53.1167 88.8291 56.8025 91.0121 57.9025C92.9832 58.9005 96.3423 57.9331 97.9005 54.9993C99.4474 52.0961 99.2205 48.5804 97.1792 47.5586ZM95.35 53.0884C94.8691 54.692 93.9278 55.826 93.2485 55.623C92.5692 55.42 92.407 53.9537 92.889 52.3501C93.371 50.7465 94.31 49.6125 94.9905 49.8155C95.6709 50.0185 95.8285 51.4848 95.3477 53.0884H95.35Z" fill="white"/>
<path d="M60.9456 51.1328H64.121L63.1956 54.7403C63.1709 54.8368 63.1685 54.9376 63.1888 55.0351C63.209 55.1327 63.2513 55.2243 63.3123 55.303C63.3734 55.3816 63.4516 55.4453 63.5411 55.4891C63.6305 55.5329 63.7288 55.5557 63.8284 55.5557C63.976 55.5557 64.1192 55.5056 64.2348 55.4138C64.3503 55.3219 64.4313 55.1937 64.4646 55.0499L65.3719 51.1328H68.4339L67.4801 55.6623C67.3003 56.5099 66.8321 57.2688 66.1551 57.8096C65.4782 58.3505 64.6346 58.6396 63.7683 58.6279L62.4664 58.6075C62.0894 58.6019 61.7184 58.5128 61.3799 58.3466C61.0415 58.1804 60.7441 57.9413 60.5092 57.6464C60.2743 57.3515 60.1077 57.0082 60.0214 56.6412C59.935 56.2742 59.9312 55.8926 60.01 55.5239L60.9456 51.1328Z" fill="white"/>
<path d="M21.7136 157.775L25.0523 153.553H21.7975V152.396H26.7455V153.491L23.3648 157.775H26.7534V158.926H21.7136V157.775Z" fill="white"/>
<path d="M30.7341 154.196C31.0744 154.35 31.3636 154.598 31.5676 154.911C31.7706 155.21 31.9025 155.551 31.9532 155.909C31.9919 156.227 32.0056 156.547 31.994 156.867H28.4784C28.4981 157.351 28.6663 157.691 28.9831 157.888C29.1931 158.013 29.4347 158.076 29.6794 158.069C29.8768 158.085 30.0742 158.04 30.2458 157.941C30.4173 157.842 30.5551 157.694 30.6411 157.516H31.9294C31.8954 157.803 31.74 158.093 31.461 158.389C31.0286 158.859 30.4237 159.093 29.6465 159.093C29.0272 159.102 28.4249 158.891 27.9454 158.499C27.454 158.103 27.2083 157.46 27.2083 156.571C27.2083 155.735 27.4302 155.092 27.874 154.643C28.3178 154.194 28.8931 153.971 29.6 153.973C29.9896 153.966 30.3761 154.043 30.7341 154.196ZM28.8447 155.286C28.6544 155.493 28.5352 155.755 28.5045 156.034H30.6796C30.6776 155.89 30.6463 155.749 30.5878 155.618C30.5294 155.487 30.4448 155.369 30.3394 155.272C30.1307 155.095 29.8641 155.002 29.5909 155.011C29.4543 155.003 29.3177 155.024 29.1893 155.071C29.061 155.119 28.9437 155.192 28.8447 155.286Z" fill="white"/>
<path d="M35.2873 153.984L35.4007 153.991V155.284C35.3213 155.275 35.2499 155.269 35.1887 155.267C35.1274 155.265 35.0753 155.267 35.0378 155.267C34.5298 155.267 34.1895 155.432 34.0172 155.763C33.9196 155.949 33.8709 156.235 33.8709 156.622V158.93H32.5928V154.101H33.7972V154.944C33.9315 154.699 34.1033 154.476 34.3064 154.284C34.5679 154.077 34.8953 153.972 35.2284 153.987L35.2873 153.984Z" fill="white"/>
<path d="M35.6128 155.04V154.141H36.2864V152.795H37.5339V154.141H38.321V155.04H37.5362V157.592C37.5362 157.791 37.5611 157.914 37.6122 157.963C37.6632 158.012 37.8163 158.035 38.0726 158.035H38.1939C38.237 158.035 38.279 158.035 38.321 158.029V158.972L37.7222 158.995C37.1256 159.015 36.7181 158.912 36.4996 158.684C36.3579 158.54 36.2876 158.317 36.2876 158.016V155.043L35.6128 155.04Z" fill="white"/>
<path d="M40.401 153.521H39.1206V152.355H40.401V153.521ZM39.1206 154.096H40.401V158.925H39.1206V154.096Z" fill="white"/>
<path d="M43.5944 152.337L43.8598 152.357V153.384C43.7895 153.376 43.6704 153.369 43.5037 153.365C43.4412 153.356 43.3775 153.362 43.3175 153.381C43.2575 153.401 43.2029 153.434 43.1578 153.478C43.0965 153.551 43.0628 153.642 43.0625 153.737V154.144H43.8915V155.035H43.0625V158.929H41.8094V155.035H41.1006V154.144H41.7912V153.834C41.7912 153.317 41.8786 152.962 42.0532 152.767C42.2354 152.478 42.6769 152.333 43.3778 152.333C43.4572 152.331 43.5298 152.333 43.5944 152.337Z" fill="white"/>
<path d="M45.8888 153.521H44.6084V152.355H45.8888V153.521ZM44.6084 154.096H45.8888V158.925H44.6084V154.096Z" fill="white"/>
<path d="M46.8096 155.126V154.098H50.628V155.148L48.2589 157.89H50.7119V158.927H46.6406V157.943L49.0346 155.126H46.8096Z" fill="white"/>
<path d="M52.8915 153.521H51.6111V152.355H52.8915V153.521ZM51.6111 154.096H52.8915V158.925H51.6111V154.096Z" fill="white"/>
<path d="M57.2327 154.196C57.5731 154.351 57.8626 154.598 58.0674 154.911C58.2695 155.21 58.401 155.551 58.4518 155.909C58.4905 156.227 58.5045 156.547 58.4938 156.867H54.9782C54.9971 157.351 55.1653 157.691 55.4828 157.888C55.6928 158.014 55.9345 158.077 56.1791 158.069C56.3764 158.085 56.5739 158.041 56.7453 157.942C56.9168 157.843 57.0543 157.694 57.1397 157.516H58.428C58.394 157.803 58.2375 158.093 57.9596 158.389C57.5279 158.859 56.9231 159.093 56.1451 159.093C55.5259 159.101 54.9237 158.891 54.444 158.499C53.9526 158.103 53.7073 157.46 53.708 156.571C53.708 155.735 53.9295 155.092 54.3726 154.643C54.8156 154.194 55.3913 153.971 56.0998 153.973C56.489 153.966 56.8751 154.043 57.2327 154.196ZM55.3445 155.286C55.1542 155.493 55.035 155.755 55.0043 156.034H57.1794C57.1777 155.89 57.1466 155.749 57.0881 155.617C57.0296 155.486 56.9449 155.369 56.8392 155.272C56.63 155.095 56.3631 155.002 56.0896 155.011C55.9531 155.003 55.8167 155.024 55.6885 155.071C55.5604 155.119 55.4433 155.192 55.3445 155.286Z" fill="white"/>
<path d="M61.7872 153.984L61.9006 153.991V155.284C61.8201 155.275 61.7498 155.269 61.6874 155.267C61.6251 155.265 61.574 155.267 61.5366 155.267C61.0293 155.267 60.6891 155.432 60.5159 155.763C60.4184 155.949 60.3697 156.235 60.3697 156.622V158.93H59.0916V154.101H60.2971V154.944C60.431 154.698 60.6028 154.476 60.8063 154.284C61.0674 154.077 61.3944 153.972 61.7271 153.987L61.7872 153.984Z" fill="white"/>
<path d="M62.1125 155.04V154.141H62.7851V152.795H64.0325V154.141H64.8162V155.04H64.0325V157.592C64.0325 157.791 64.0575 157.915 64.1074 157.963C64.1584 158.012 64.3115 158.035 64.5689 158.035H64.6903C64.7334 158.035 64.7753 158.033 64.8162 158.029V158.972L64.2185 158.995C63.622 159.015 63.2145 158.912 62.996 158.684C62.8542 158.54 62.7828 158.317 62.7828 158.016V155.043L62.1125 155.04Z" fill="white"/>
<path d="M68.7493 154.196C69.0897 154.351 69.3792 154.598 69.584 154.911C69.7861 155.21 69.9176 155.551 69.9684 155.909C70.0071 156.227 70.0208 156.547 70.0093 156.867H66.4936C66.514 157.351 66.6826 157.691 66.9994 157.888C67.209 158.014 67.4503 158.077 67.6946 158.069C67.8921 158.085 68.0897 158.041 68.2613 157.942C68.433 157.843 68.5707 157.695 68.6563 157.516H69.9446C69.9106 157.803 69.7552 158.093 69.4774 158.389C69.0442 158.859 68.4393 159.093 67.6629 159.093C67.0436 159.101 66.4413 158.891 65.9618 158.499C65.4703 158.103 65.2246 157.46 65.2246 156.571C65.2246 155.735 65.4465 155.092 65.8903 154.643C66.3341 154.194 66.9095 153.971 67.6164 153.973C68.0056 153.967 68.3917 154.043 68.7493 154.196ZM66.8599 155.286C66.6696 155.493 66.5504 155.755 66.5197 156.034H68.6949C68.6931 155.89 68.6619 155.749 68.6034 155.617C68.5449 155.486 68.4603 155.369 68.3546 155.272C68.146 155.095 67.8793 155.002 67.6062 155.011C67.4696 155.003 67.3329 155.024 67.2046 155.071C67.0763 155.119 66.959 155.192 66.8599 155.286Z" fill="white"/>
<path d="M77.9613 152.396V153.553H76.0073V158.926H74.634V153.553H72.6709V152.396H77.9613Z" fill="white"/>
<path d="M80.5413 155.989C80.7137 155.973 80.8834 155.935 81.046 155.876C81.1238 155.853 81.1922 155.805 81.2412 155.741C81.2901 155.676 81.3171 155.597 81.3181 155.516C81.3265 155.435 81.3113 155.353 81.2742 155.281C81.2372 155.208 81.18 155.148 81.1095 155.107C80.9169 155.021 80.7066 154.982 80.4959 154.993C80.1943 154.993 79.9799 155.068 79.8541 155.22C79.7559 155.349 79.6941 155.502 79.6749 155.663H78.4569C78.467 155.288 78.5908 154.925 78.8118 154.621C79.1475 154.197 79.7233 153.984 80.539 153.984C81.0287 153.975 81.5136 154.082 81.9532 154.298C82.366 154.508 82.572 154.903 82.5713 155.486V157.7C82.5713 157.855 82.5713 158.041 82.5804 158.258C82.5764 158.376 82.6025 158.494 82.6563 158.599C82.7043 158.663 82.7685 158.713 82.8423 158.745V158.931H81.469C81.4328 158.842 81.4058 158.75 81.3885 158.656C81.3737 158.571 81.3624 158.474 81.3533 158.364C81.1768 158.554 80.9726 158.717 80.7477 158.847C80.4651 159.006 80.1453 159.087 79.8212 159.082C79.424 159.097 79.0355 158.963 78.7313 158.708C78.444 158.458 78.3008 158.104 78.3015 157.646C78.3015 157.053 78.5321 156.623 78.9933 156.358C79.2466 156.213 79.6186 156.109 80.1092 156.047L80.5413 155.989ZM79.1249 152.312H80.2816V153.363H79.1249V152.312ZM81.3136 156.579C81.2362 156.627 81.1542 156.668 81.0687 156.7C80.9581 156.739 80.8442 156.768 80.7284 156.786L80.4415 156.84C80.2399 156.866 80.0439 156.925 79.8609 157.013C79.7658 157.065 79.6874 157.143 79.6347 157.238C79.5819 157.333 79.5569 157.44 79.5626 157.548C79.5545 157.635 79.5667 157.723 79.5984 157.804C79.6301 157.885 79.6804 157.958 79.7452 158.016C79.8714 158.114 80.0278 158.165 80.1875 158.16C80.4605 158.161 80.7273 158.077 80.9507 157.92C81.1832 157.762 81.3034 157.467 81.3125 157.048L81.3136 156.579ZM80.8974 152.312H82.053V153.363H80.8974V152.312Z" fill="white"/>
<path d="M83.1519 155.04V154.141H83.8244V152.795H85.0718V154.141H85.8555V155.04H85.0718V157.592C85.0718 157.791 85.0968 157.915 85.1467 157.963C85.1977 158.012 85.3508 158.035 85.6082 158.035H85.7296C85.7727 158.035 85.8147 158.033 85.8555 158.029V158.972L85.2578 158.995C84.6613 159.015 84.2538 158.912 84.0353 158.684C83.8935 158.54 83.8221 158.317 83.8221 158.016V155.043L83.1519 155.04Z" fill="white"/>
<path d="M87.94 153.521H86.6597V152.355H87.94V153.521ZM86.6597 154.096H87.94V158.925H86.6597V154.096Z" fill="white"/>
<path d="M91.5237 154.092C91.8447 154.233 92.1071 154.481 92.2665 154.793V154.097H93.4981V158.677C93.4981 159.301 93.3934 159.771 93.1839 160.087C92.8233 160.63 92.1323 160.901 91.1109 160.901C90.4939 160.901 89.9904 160.78 89.6003 160.538C89.4115 160.424 89.2537 160.266 89.1409 160.077C89.0282 159.887 88.9639 159.673 88.9539 159.453H90.3272C90.3483 159.575 90.4088 159.687 90.4996 159.771C90.6357 159.885 90.8636 159.945 91.18 159.945C91.6337 159.945 91.938 159.794 92.093 159.491C92.1928 159.296 92.2438 158.969 92.2438 158.508V158.199C92.1456 158.378 92.0131 158.536 91.8537 158.663C91.5687 158.866 91.2242 158.967 90.875 158.952C90.5938 158.963 90.3139 158.91 90.0563 158.796C89.7987 158.683 89.5702 158.513 89.3882 158.298C89.0177 157.863 88.8325 157.273 88.8325 156.528C88.8325 155.811 89.0109 155.206 89.3678 154.714C89.7247 154.221 90.2304 153.977 90.8852 153.981C91.1032 153.976 91.3202 154.014 91.5237 154.092ZM91.9535 157.554C92.1565 157.328 92.2585 156.976 92.2585 156.489C92.2585 156.031 92.1621 155.683 91.9694 155.444C91.8775 155.327 91.7596 155.234 91.625 155.172C91.4904 155.109 91.3431 155.079 91.1948 155.084C90.995 155.073 90.7972 155.129 90.6321 155.242C90.4669 155.355 90.3438 155.519 90.2819 155.709C90.1866 155.972 90.1415 156.25 90.1492 156.529C90.1448 156.786 90.193 157.04 90.2909 157.278C90.3573 157.465 90.4825 157.626 90.6479 157.736C90.8133 157.846 91.01 157.9 91.2084 157.889C91.3495 157.891 91.4893 157.862 91.618 157.804C91.7467 157.746 91.8612 157.661 91.9535 157.554Z" fill="white"/>
<path d="M94.6367 152.418H95.8774V155.94L97.4651 154.119H99.0392L97.3086 155.92L99.1072 158.925H97.5694L96.4002 156.862L95.8774 157.406V158.925H94.6367V152.418Z" fill="white"/>
<path d="M102.814 154.196C103.155 154.35 103.445 154.598 103.649 154.911C103.851 155.21 103.983 155.551 104.033 155.909C104.072 156.226 104.086 156.547 104.075 156.867H100.56C100.579 157.351 100.748 157.691 101.064 157.887C101.274 158.013 101.516 158.076 101.761 158.069C102.014 158.079 102.262 157.998 102.462 157.842C102.57 157.75 102.658 157.637 102.721 157.51H104.011C103.977 157.797 103.82 158.087 103.542 158.383C103.11 158.853 102.505 159.087 101.728 159.087C101.109 159.095 100.506 158.885 100.027 158.493C99.5354 158.097 99.29 157.454 99.2908 156.565C99.2908 155.729 99.5123 155.086 99.9553 154.637C100.398 154.188 100.974 153.965 101.683 153.967C102.072 153.962 102.458 154.04 102.814 154.196ZM100.922 155.286C100.731 155.492 100.612 155.754 100.581 156.033H102.756C102.755 155.89 102.724 155.748 102.665 155.617C102.607 155.486 102.522 155.368 102.416 155.271C102.207 155.095 101.94 155.002 101.667 155.01C101.53 155.003 101.394 155.024 101.266 155.071C101.137 155.118 101.02 155.192 100.922 155.286Z" fill="white"/>
<path d="M105.984 153.521H104.705V152.355H105.984V153.521ZM104.705 154.096H105.984V158.925H104.705V154.096Z" fill="white"/>
<path d="M106.684 155.04V154.141H107.357V152.795H108.605V154.141H109.39V155.04H108.605V157.592C108.605 157.791 108.63 157.914 108.681 157.963C108.732 158.012 108.884 158.035 109.141 158.035H109.263C109.306 158.035 109.348 158.035 109.39 158.029V158.972L108.791 158.995C108.194 159.015 107.787 158.912 107.568 158.684C107.427 158.54 107.356 158.317 107.356 158.016V155.043L106.684 155.04Z" fill="white"/>
<path d="M113.32 154.196C113.661 154.35 113.95 154.598 114.155 154.911C114.357 155.21 114.489 155.551 114.54 155.909C114.578 156.226 114.592 156.547 114.582 156.867H111.066C111.085 157.351 111.253 157.691 111.571 157.887C111.781 158.013 112.022 158.076 112.267 158.069C112.52 158.078 112.768 157.998 112.968 157.842C113.076 157.75 113.164 157.637 113.227 157.51H114.517C114.483 157.797 114.326 158.087 114.049 158.383C113.616 158.853 113.011 159.087 112.234 159.087C111.615 159.095 111.012 158.885 110.533 158.493C110.041 158.097 109.796 157.454 109.797 156.565C109.797 155.729 110.018 155.086 110.461 154.637C110.904 154.188 111.48 153.965 112.189 153.967C112.578 153.962 112.964 154.04 113.32 154.196ZM111.432 155.286C111.242 155.492 111.123 155.754 111.092 156.033H113.267C113.266 155.89 113.235 155.748 113.176 155.617C113.118 155.486 113.033 155.368 112.927 155.271C112.718 155.095 112.452 155.002 112.178 155.01C112.042 155.003 111.905 155.023 111.777 155.071C111.648 155.118 111.531 155.191 111.432 155.286Z" fill="white"/>
<path d="M119.086 154.375C119.403 154.636 119.561 155.069 119.56 155.674V158.926H118.273V155.988C118.283 155.789 118.248 155.589 118.172 155.404C118.049 155.156 117.814 155.032 117.468 155.032C117.043 155.032 116.751 155.214 116.593 155.577C116.503 155.811 116.461 156.062 116.47 156.313V158.921H115.202V154.106H116.424V154.81C116.545 154.608 116.698 154.427 116.878 154.275C117.165 154.071 117.511 153.968 117.862 153.982C118.304 153.962 118.738 154.102 119.086 154.375Z" fill="white"/>
<path d="M121.146 154.283H122.488V155.608H121.146V154.283ZM121.146 157.601H122.488V158.926H121.146V157.601Z" fill="white"/>
<path d="M52.675 168.543C52.69 168.8 52.7563 169.051 52.8701 169.282C52.9676 169.475 53.1071 169.644 53.2783 169.777C53.4499 169.907 53.6458 170.001 53.8544 170.053C54.0826 170.112 54.3174 170.141 54.553 170.14C54.8085 170.143 55.063 170.105 55.306 170.026C55.4975 169.966 55.6738 169.865 55.8232 169.731C55.953 169.612 56.0538 169.465 56.118 169.3C56.1818 169.136 56.2142 168.96 56.2133 168.783C56.2235 168.564 56.1631 168.348 56.0409 168.166C55.9208 168.005 55.7657 167.873 55.5873 167.781C55.3862 167.675 55.1729 167.594 54.9522 167.54C54.7125 167.48 54.4676 167.421 54.2173 167.363C53.9671 167.306 53.7221 167.238 53.4825 167.159C53.2555 167.087 53.0412 166.98 52.8474 166.842C52.6592 166.708 52.5041 166.532 52.3937 166.329C52.2705 166.083 52.2112 165.81 52.2214 165.535C52.2216 165.31 52.2695 165.087 52.362 164.882C52.4583 164.665 52.6007 164.472 52.7793 164.315C52.9832 164.141 53.219 164.009 53.4734 163.925C53.7836 163.823 54.1087 163.774 54.4351 163.78C54.7637 163.774 55.0909 163.826 55.4013 163.934C55.6551 164.025 55.8869 164.169 56.0817 164.356C56.2609 164.531 56.4002 164.743 56.49 164.977C56.5815 165.218 56.6276 165.473 56.6261 165.73H56.0364C56.0416 165.509 55.9966 165.288 55.9048 165.086C55.8245 164.917 55.7061 164.769 55.5589 164.653C55.4042 164.536 55.2287 164.45 55.0418 164.399C54.8469 164.344 54.6454 164.317 54.443 164.317C54.1724 164.31 53.9029 164.355 53.6492 164.449C53.4554 164.523 53.2804 164.64 53.1366 164.789C53.0142 164.921 52.9241 165.079 52.8735 165.252C52.825 165.417 52.8157 165.591 52.8462 165.76C52.8729 165.952 52.9622 166.131 53.1003 166.268C53.243 166.401 53.4091 166.508 53.5902 166.581C53.7969 166.667 54.011 166.734 54.2298 166.781C54.4566 166.833 54.7004 166.887 54.942 166.944C55.1836 167.001 55.4183 167.07 55.6451 167.148C55.8615 167.222 56.0651 167.329 56.2485 167.466C56.4266 167.602 56.5709 167.777 56.6703 167.978C56.7838 168.224 56.8382 168.492 56.8291 168.763C56.8291 169.368 56.6204 169.836 56.2031 170.169C55.7858 170.502 55.1991 170.668 54.443 170.668C54.1238 170.671 53.8058 170.626 53.4995 170.537C53.2236 170.457 52.9672 170.321 52.7464 170.137C52.5332 169.957 52.364 169.731 52.252 169.475C52.1279 169.181 52.0676 168.864 52.0751 168.545L52.675 168.543Z" fill="white"/>
<path d="M60.0419 167.754C60.144 167.743 60.2665 167.725 60.4094 167.7C60.5298 167.682 60.6473 167.649 60.7587 167.6C60.8019 167.581 60.8399 167.551 60.8691 167.514C60.8984 167.477 60.9181 167.433 60.9265 167.387C60.9463 167.296 60.957 167.203 60.9583 167.11C60.9619 166.984 60.94 166.859 60.894 166.742C60.848 166.625 60.7788 166.519 60.6906 166.429C60.5114 166.251 60.209 166.162 59.7834 166.162C59.6097 166.161 59.4364 166.177 59.2662 166.212C59.1185 166.241 58.9782 166.3 58.8534 166.384C58.7324 166.469 58.633 166.581 58.5631 166.711C58.4802 166.87 58.4293 167.044 58.4134 167.223H57.86C57.8702 166.975 57.9352 166.732 58.0505 166.511C58.1537 166.322 58.2978 166.157 58.4724 166.03C58.6532 165.903 58.8563 165.81 59.0712 165.758C59.3071 165.7 59.5494 165.671 59.7924 165.672C60.017 165.671 60.2409 165.697 60.4593 165.749C60.6547 165.795 60.8395 165.878 61.0036 165.994C61.1614 166.112 61.2864 166.268 61.3665 166.448C61.4599 166.665 61.5048 166.9 61.4981 167.137V169.696C61.4981 169.908 61.5355 170.043 61.6115 170.099C61.6875 170.156 61.8383 170.144 62.0651 170.059V170.485L61.8791 170.539C61.8012 170.563 61.7202 170.576 61.6387 170.576C61.5563 170.576 61.4741 170.567 61.3937 170.548C61.3145 170.541 61.239 170.511 61.176 170.462C61.1216 170.417 61.0769 170.362 61.0444 170.299C61.0103 170.234 60.9873 170.163 60.9764 170.09C60.9638 170.011 60.9577 169.93 60.9583 169.85C60.7372 170.097 60.4668 170.295 60.1644 170.43C59.8619 170.565 59.5339 170.633 59.2027 170.63C59.0018 170.631 58.8018 170.603 58.6085 170.548C58.4254 170.498 58.2542 170.412 58.1049 170.294C57.962 170.18 57.8458 170.036 57.7647 169.873C57.6756 169.687 57.632 169.484 57.6377 169.278C57.6377 168.48 58.1851 168.008 59.2798 167.863L60.0419 167.754ZM60.9583 168.026C60.7354 168.122 60.5002 168.186 60.2597 168.217C60.0238 168.247 59.7879 168.271 59.552 168.289C59.2082 168.298 58.8723 168.395 58.5767 168.571C58.4613 168.649 58.3684 168.757 58.3071 168.883C58.2459 169.008 58.2184 169.148 58.2274 169.287C58.2236 169.411 58.2501 169.534 58.3046 169.646C58.3592 169.757 58.4401 169.854 58.5404 169.927C58.6384 169.999 58.7493 170.051 58.867 170.081C58.9897 170.115 59.1164 170.131 59.2435 170.131C59.4579 170.131 59.6714 170.104 59.8786 170.049C60.0748 169.999 60.2607 169.915 60.4275 169.8C60.5868 169.689 60.7186 169.543 60.8131 169.374C60.9136 169.185 60.9636 168.974 60.9583 168.761V168.026Z" fill="white"/>
<path d="M63.3986 170.492H62.8542V165.793H63.3986V166.5H63.4167C63.5482 166.237 63.7572 166.02 64.0155 165.879C64.2771 165.736 64.5706 165.663 64.8684 165.666C65.0554 165.662 65.242 165.686 65.4218 165.738C65.5606 165.781 65.6911 165.847 65.8074 165.933C65.911 166.013 66 166.109 66.0705 166.219C66.1411 166.331 66.2004 166.449 66.2474 166.573C66.3848 166.288 66.6044 166.051 66.8779 165.892C67.1553 165.739 67.4681 165.661 67.7852 165.666C68.05 165.654 68.3135 165.708 68.5518 165.824C68.733 165.922 68.8849 166.066 68.9918 166.242C69.0985 166.424 69.1679 166.626 69.196 166.836C69.2294 167.064 69.246 167.295 69.2459 167.526V170.492H68.7015V167.244C68.7161 166.964 68.6415 166.686 68.4883 166.45C68.3454 166.258 68.0812 166.16 67.6945 166.16C67.4879 166.16 67.2842 166.208 67.0997 166.301C66.9153 166.394 66.7554 166.529 66.633 166.695C66.5696 166.78 66.5191 166.873 66.4833 166.972C66.4432 167.08 66.4113 167.191 66.388 167.303C66.3644 167.416 66.3478 167.529 66.3381 167.643C66.329 167.757 66.3245 167.865 66.3245 167.961V170.492H65.7802V167.244C65.7947 166.964 65.7201 166.686 65.5669 166.45C65.4252 166.258 65.1598 166.16 64.7731 166.16C64.5665 166.16 64.3628 166.208 64.1784 166.301C63.9939 166.394 63.834 166.529 63.7116 166.695C63.6482 166.78 63.5977 166.873 63.5619 166.972C63.5218 167.08 63.49 167.191 63.4666 167.303C63.4431 167.416 63.4264 167.529 63.4167 167.643C63.4077 167.757 63.4031 167.865 63.4031 167.961L63.3986 170.492Z" fill="white"/>
<path d="M70.9562 170.492H70.4153V165.793H70.9596V166.5H70.9778C71.1092 166.237 71.3182 166.02 71.5766 165.879C71.8381 165.736 72.1316 165.663 72.4294 165.666C72.6165 165.662 72.803 165.686 72.9828 165.738C73.1216 165.781 73.2521 165.847 73.3684 165.933C73.4718 166.013 73.5607 166.11 73.6315 166.219C73.7021 166.331 73.7614 166.449 73.8084 166.573C73.9458 166.288 74.1655 166.051 74.439 165.892C74.7164 165.739 75.0292 165.661 75.3462 165.666C75.611 165.654 75.8746 165.708 76.1129 165.824C76.294 165.922 76.4459 166.066 76.5529 166.242C76.6591 166.425 76.7284 166.627 76.757 166.836C76.7904 167.064 76.8071 167.295 76.8069 167.526V170.492H76.2625V167.244C76.2771 166.964 76.2025 166.686 76.0493 166.45C75.9065 166.258 75.6422 166.16 75.2555 166.16C75.0489 166.16 74.8452 166.208 74.6608 166.301C74.4763 166.394 74.3164 166.529 74.194 166.695C74.1301 166.779 74.0796 166.873 74.0443 166.972C74.0042 167.08 73.9724 167.191 73.949 167.303C73.9249 167.415 73.9083 167.529 73.8991 167.643C73.8901 167.757 73.8855 167.865 73.8855 167.961V170.492H73.3412V167.244C73.3558 166.964 73.2811 166.686 73.128 166.45C72.9851 166.258 72.7208 166.16 72.3341 166.16C72.1276 166.16 71.9238 166.208 71.7394 166.301C71.555 166.394 71.3951 166.529 71.2726 166.695C71.2092 166.78 71.1588 166.873 71.1229 166.972C71.0828 167.08 71.051 167.191 71.0277 167.303C71.0041 167.416 70.9874 167.529 70.9778 167.643C70.9687 167.757 70.9642 167.865 70.9642 167.961L70.9562 170.492Z" fill="white"/>
<path d="M78.3776 168.27C78.376 168.514 78.4097 168.757 78.4774 168.991C78.5366 169.205 78.6368 169.405 78.7723 169.581C78.9047 169.75 79.0738 169.886 79.2667 169.98C79.4817 170.084 79.7179 170.135 79.9563 170.13C80.2843 170.139 80.6062 170.04 80.8726 169.849C81.1311 169.653 81.3113 169.372 81.3806 169.055H81.9885C81.925 169.271 81.8367 169.48 81.7254 169.676C81.6186 169.865 81.4805 170.033 81.3171 170.175C81.1467 170.322 80.9495 170.435 80.7365 170.507C80.4847 170.588 80.2209 170.627 79.9563 170.62C79.6226 170.628 79.2912 170.563 78.9855 170.429C78.7237 170.311 78.4936 170.132 78.3141 169.908C78.1328 169.677 78.0001 169.411 77.924 169.127C77.8371 168.813 77.7944 168.488 77.797 168.161C77.7946 167.832 77.8452 167.504 77.9467 167.191C78.039 166.902 78.1835 166.633 78.3731 166.397C78.5575 166.17 78.7899 165.987 79.0535 165.861C79.337 165.728 79.6474 165.661 79.9608 165.666C80.6072 165.666 81.1153 165.889 81.485 166.333C81.8547 166.778 82.0361 167.423 82.0293 168.27H78.3776ZM81.4396 167.817C81.441 167.597 81.4089 167.378 81.3444 167.168C81.286 166.976 81.1904 166.797 81.0631 166.642C80.9348 166.491 80.7754 166.371 80.5959 166.288C80.3934 166.197 80.1735 166.152 79.9517 166.156C79.7309 166.152 79.5119 166.198 79.3121 166.292C79.1317 166.38 78.9711 166.503 78.8403 166.655C78.7069 166.812 78.6011 166.99 78.5273 167.181C78.4472 167.385 78.3953 167.599 78.3731 167.817H81.4396Z" fill="white"/>
<path d="M83.1677 170.493V163.961H83.7121V170.493H83.1677Z" fill="white"/>
<path d="M85.6447 170.494H85.1003V165.794H85.6447V166.448C85.8463 166.23 86.075 166.04 86.3251 165.88C86.5785 165.73 86.8696 165.654 87.1644 165.663C87.4406 165.66 87.7148 165.711 87.9718 165.812C88.2279 165.92 88.4459 166.102 88.5978 166.334C88.7066 166.489 88.7766 166.668 88.8019 166.856C88.8231 167.041 88.8337 167.227 88.8337 167.414V170.489H88.2893V167.427C88.2893 167.004 88.1956 166.686 88.0081 166.475C87.8198 166.264 87.5091 166.157 87.0736 166.157C86.916 166.155 86.7594 166.181 86.6109 166.234C86.4762 166.284 86.3494 166.353 86.2344 166.438C86.1251 166.52 86.0288 166.618 85.9486 166.729C85.8719 166.833 85.8107 166.947 85.7672 167.069C85.715 167.209 85.6815 167.356 85.6674 167.504C85.6549 167.644 85.6492 167.795 85.6492 167.958L85.6447 170.494Z" fill="white"/>
<path d="M51.1553 181.721V175.188H53.5175C53.8478 175.181 54.1776 175.219 54.4974 175.302C54.741 175.367 54.9681 175.483 55.1642 175.642C55.3321 175.781 55.4617 175.961 55.5407 176.164C55.6194 176.377 55.6579 176.603 55.6541 176.831C55.6585 177.032 55.6278 177.233 55.5634 177.425C55.5112 177.577 55.4312 177.719 55.3275 177.842C55.2353 177.951 55.1228 178.04 54.9964 178.105C54.8751 178.168 54.7451 178.212 54.6108 178.237V178.255C55.0644 178.322 55.4016 178.5 55.6224 178.79C55.8514 179.106 55.968 179.489 55.9535 179.879C55.9617 180.174 55.9076 180.468 55.7948 180.741C55.6973 180.963 55.5461 181.158 55.3547 181.308C55.153 181.46 54.9209 181.567 54.6743 181.621C54.3933 181.686 54.1055 181.718 53.8169 181.716L51.1553 181.721ZM51.7722 178.074H53.3327C53.6041 178.079 53.8752 178.051 54.1401 177.992C54.3308 177.95 54.5102 177.868 54.6664 177.751C54.7958 177.65 54.8947 177.515 54.9521 177.361C55.0125 177.191 55.0417 177.011 55.0383 176.831C55.0437 176.651 55.0096 176.473 54.9385 176.309C54.869 176.166 54.7584 176.048 54.621 175.969C54.4453 175.871 54.2531 175.806 54.054 175.778C53.7702 175.736 53.4835 175.716 53.1966 175.719H51.7722V178.074ZM51.7722 181.194H53.3418C53.6373 181.197 53.9326 181.182 54.2263 181.149C54.4439 181.13 54.6553 181.066 54.8478 180.963C55.0091 180.872 55.1377 180.732 55.2152 180.564C55.3047 180.349 55.3465 180.117 55.3377 179.884C55.3475 179.656 55.3007 179.43 55.2016 179.226C55.1125 179.062 54.9767 178.927 54.8115 178.84C54.6213 178.743 54.4156 178.68 54.2037 178.654C53.9405 178.619 53.6753 178.603 53.4098 178.604H51.7722V181.194Z" fill="white"/>
<path d="M57.4606 179.497C57.4591 179.741 57.4927 179.984 57.5604 180.218C57.6201 180.432 57.7202 180.632 57.8553 180.808C57.988 180.976 58.157 181.113 58.3498 181.207C58.5647 181.31 58.8009 181.361 59.0393 181.357C59.3673 181.366 59.6892 181.267 59.9556 181.075C60.2141 180.88 60.3943 180.598 60.4637 180.281H61.0715C61.008 180.498 60.9197 180.707 60.8084 180.903C60.7016 181.091 60.5635 181.26 60.4002 181.402C60.2297 181.549 60.0325 181.661 59.8195 181.733C59.5677 181.815 59.3039 181.853 59.0393 181.846C58.7056 181.855 58.3742 181.79 58.0685 181.656C57.8067 181.537 57.5766 181.359 57.3971 181.134C57.2158 180.903 57.0831 180.638 57.007 180.354C56.9201 180.039 56.8774 179.714 56.88 179.388C56.8776 179.058 56.9282 178.731 57.0297 178.417C57.122 178.129 57.2665 177.859 57.4561 177.623C57.6408 177.397 57.8731 177.214 58.1365 177.088C58.4201 176.954 58.7305 176.888 59.0438 176.893C59.691 176.893 60.199 177.115 60.568 177.56C60.9369 178.004 61.1184 178.65 61.1123 179.497H57.4606ZM60.5226 179.043C60.524 178.823 60.4919 178.605 60.4274 178.394C60.369 178.202 60.2734 178.023 60.1461 177.868C60.0179 177.718 59.8585 177.597 59.6789 177.514C59.4764 177.424 59.2565 177.379 59.0347 177.383C58.8139 177.378 58.5949 177.425 58.3951 177.519C58.2148 177.607 58.0543 177.73 57.9233 177.882C57.79 178.038 57.6841 178.216 57.6103 178.408C57.5307 178.612 57.4789 178.825 57.4561 179.043H60.5226Z" fill="white"/>
<path d="M61.6975 177.474V177.02H62.3961V176.276C62.3796 175.964 62.4587 175.654 62.6229 175.387C62.7741 175.169 63.0312 175.061 63.3941 175.061C63.4791 175.061 63.5574 175.061 63.63 175.07C63.7025 175.079 63.7751 175.085 63.8477 175.097V175.596C63.741 175.568 63.6314 175.553 63.5211 175.55C63.4071 175.544 63.2937 175.571 63.1945 175.628C63.1182 175.677 63.0582 175.748 63.0221 175.832C62.9844 175.923 62.9614 176.019 62.9541 176.117C62.945 176.224 62.9404 176.331 62.9404 176.44V177.02H63.8477V177.474H62.9404V181.72H62.3961V177.474H61.6975Z" fill="white"/>
<path d="M66.5594 181.847C66.2692 181.844 65.9819 181.788 65.7111 181.684C65.4497 181.583 65.2141 181.425 65.0216 181.221C64.8143 180.999 64.6553 180.736 64.5544 180.45C64.4328 180.103 64.3744 179.737 64.382 179.37C64.3795 179.043 64.4253 178.717 64.5181 178.404C64.6019 178.118 64.7405 177.852 64.9264 177.619C65.1106 177.393 65.3431 177.212 65.6068 177.088C65.9058 176.953 66.2313 176.886 66.5594 176.893C66.8905 176.886 67.2191 176.952 67.5211 177.088C67.7838 177.212 68.0162 177.391 68.2016 177.615C68.3879 177.846 68.5253 178.113 68.6053 178.399C68.6946 178.715 68.7389 179.042 68.7368 179.37C68.7417 179.716 68.6896 180.061 68.5826 180.391C68.4887 180.677 68.3392 180.942 68.1426 181.171C67.953 181.388 67.7174 181.56 67.4531 181.675C67.1704 181.793 66.8661 181.852 66.5594 181.847ZM68.1562 179.37C68.1578 179.107 68.1273 178.845 68.0655 178.59C68.0116 178.364 67.9162 178.15 67.7842 177.959C67.6572 177.781 67.4891 177.637 67.2943 177.537C67.065 177.428 66.8132 177.376 66.5594 177.383C66.3057 177.376 66.0543 177.434 65.8291 177.551C65.6318 177.659 65.4624 177.811 65.3346 177.996C65.2038 178.189 65.1085 178.404 65.0534 178.631C64.9922 178.872 64.9617 179.121 64.9627 179.37C64.9597 179.641 64.9949 179.912 65.067 180.173C65.1274 180.401 65.2305 180.615 65.3709 180.804C65.502 180.978 65.6731 181.118 65.8699 181.212C66.0855 181.313 66.3215 181.362 66.5594 181.357C66.8132 181.364 67.0646 181.306 67.2898 181.189C67.4888 181.08 67.6585 180.924 67.7842 180.735C67.9138 180.542 68.009 180.327 68.0655 180.1C68.1263 179.862 68.1572 179.616 68.1573 179.37H68.1562ZM65.5977 175.496H66.1875V176.421H65.5977V175.496ZM67.0403 175.496H67.63V176.421H67.0403V175.496Z" fill="white"/>
<path d="M70.3075 181.721H69.7632V177.022H70.3075V177.902H70.3257C70.4769 177.524 70.672 177.262 70.9109 177.117C71.1998 176.955 71.528 176.877 71.8589 176.89V177.48C71.5969 177.465 71.3352 177.515 71.0969 177.625C70.9052 177.721 70.7413 177.865 70.6205 178.042C70.4976 178.231 70.4143 178.442 70.3756 178.664C70.3295 178.911 70.3067 179.161 70.3075 179.412V181.721Z" fill="white"/>
<path d="M76.386 175.188H76.9304V181.72H76.386V180.894H76.3679C76.2911 181.048 76.1883 181.188 76.0639 181.307C75.9418 181.423 75.8044 181.522 75.6557 181.602C75.5118 181.679 75.3596 181.74 75.202 181.783C75.0513 181.825 74.8957 181.846 74.7393 181.847C74.4056 181.856 74.0739 181.791 73.7686 181.656C73.5113 181.537 73.2859 181.358 73.1108 181.135C72.9322 180.902 72.804 180.635 72.7343 180.35C72.655 180.032 72.6168 179.706 72.6209 179.379C72.6197 179.06 72.6624 178.743 72.7479 178.435C72.8252 178.149 72.9561 177.88 73.1335 177.642C73.3076 177.413 73.5308 177.227 73.7867 177.097C74.0757 176.955 74.3948 176.885 74.7167 176.893C75.0488 176.895 75.3762 176.972 75.6738 177.12C75.9736 177.264 76.2245 177.492 76.3951 177.778L76.386 175.188ZM76.386 179.352C76.3858 179.095 76.3476 178.84 76.2726 178.594C76.2063 178.369 76.1003 178.157 75.9596 177.968C75.8255 177.792 75.6554 177.647 75.4606 177.542C75.255 177.434 75.0258 177.38 74.7938 177.383C74.5386 177.377 74.2859 177.434 74.0589 177.551C73.8559 177.66 73.6818 177.815 73.5508 178.005C73.4119 178.211 73.3134 178.442 73.2605 178.685C73.1981 178.957 73.1737 179.236 73.1879 179.515C73.1831 179.782 73.2246 180.047 73.3104 180.3C73.3837 180.513 73.4994 180.709 73.6506 180.876C73.792 181.031 73.9654 181.153 74.1587 181.234C74.36 181.318 74.576 181.359 74.7938 181.357C75.0297 181.361 75.2632 181.308 75.4742 181.203C75.671 181.103 75.8418 180.958 75.9732 180.781C76.1126 180.589 76.2157 180.374 76.2771 180.146C76.3499 179.887 76.3865 179.62 76.386 179.352Z" fill="white"/>
<path d="M78.6359 179.497C78.6343 179.741 78.668 179.984 78.7357 180.218C78.7949 180.432 78.8951 180.632 79.0306 180.808C79.163 180.976 79.3321 181.113 79.525 181.207C79.74 181.31 79.9762 181.361 80.2146 181.357C80.5426 181.366 80.8645 181.267 81.1309 181.075C81.3894 180.88 81.5696 180.598 81.6389 180.281H82.2468C82.1833 180.498 82.095 180.707 81.9837 180.903C81.8769 181.091 81.7388 181.26 81.5754 181.402C81.405 181.549 81.2078 181.661 80.9948 181.733C80.743 181.815 80.4792 181.853 80.2146 181.846C79.8809 181.855 79.5495 181.79 79.2438 181.656C78.982 181.538 78.7519 181.359 78.5724 181.134C78.3911 180.903 78.2584 180.638 78.1823 180.354C78.0954 180.039 78.0527 179.714 78.0553 179.388C78.0529 179.058 78.1035 178.731 78.205 178.417C78.2973 178.129 78.4418 177.859 78.6314 177.623C78.8158 177.397 79.0482 177.214 79.3118 177.088C79.5953 176.954 79.9057 176.888 80.2191 176.893C80.8655 176.893 81.3736 177.115 81.7433 177.56C82.113 178.004 82.2944 178.65 82.2876 179.497H78.6359ZM81.6979 179.043C81.6993 178.823 81.6672 178.605 81.6027 178.394C81.5443 178.202 81.4487 178.023 81.3214 177.868C81.1931 177.718 81.0337 177.597 80.8542 177.514C80.6517 177.424 80.4318 177.379 80.21 177.383C79.9892 177.378 79.7702 177.425 79.5704 177.519C79.39 177.606 79.2294 177.73 79.0986 177.882C78.9652 178.038 78.8594 178.216 78.7856 178.408C78.7055 178.612 78.6536 178.825 78.6314 179.043H81.6979Z" fill="white"/>
<path d="M83.9164 181.721H83.3721V177.022H83.9164V177.902H83.9346C84.0858 177.524 84.2808 177.262 84.5197 177.117C84.8086 176.955 85.1369 176.876 85.4678 176.89V177.48C85.2057 177.465 84.944 177.515 84.7057 177.625C84.5141 177.722 84.3502 177.865 84.2294 178.042C84.1065 178.231 84.0232 178.442 83.9845 178.664C83.9384 178.911 83.9156 179.161 83.9164 179.412V181.721Z" fill="white"/>
<path d="M86.9103 181.72H86.366V177.021H86.9103V177.674C87.1119 177.457 87.3406 177.266 87.5908 177.107C87.8442 176.956 88.1352 176.881 88.43 176.889C88.7063 176.887 88.9804 176.938 89.2374 177.039C89.4935 177.146 89.7116 177.328 89.8634 177.561C89.9722 177.716 90.0422 177.895 90.0676 178.082C90.0887 178.268 90.0993 178.454 90.0993 178.64V181.716H89.555V178.654C89.555 178.231 89.4612 177.913 89.2737 177.701C89.0855 177.49 88.7747 177.384 88.3392 177.384C88.1817 177.382 88.025 177.408 87.8765 177.461C87.7418 177.51 87.615 177.579 87.5 177.665C87.3907 177.747 87.2944 177.845 87.2142 177.955C87.1375 178.059 87.0764 178.174 87.0328 178.296C86.9807 178.436 86.9471 178.582 86.933 178.731C86.9205 178.871 86.9149 179.021 86.9149 179.185L86.9103 181.72Z" fill="white"/>
<path d="M52.1726 80.603V83.7194C52.1613 84.0368 52.2324 84.3517 52.379 84.6335C52.5824 85.0002 52.9257 85.1831 53.4088 85.1824C53.9872 85.1824 54.3818 84.9851 54.5893 84.5881C54.7138 84.3161 54.7717 84.0183 54.7583 83.7194V80.603H55.4512V83.4382C55.4512 84.0581 55.3677 84.5356 55.2006 84.8705C54.8944 85.4754 54.3153 85.7778 53.4632 85.7778C52.6111 85.7778 52.0335 85.4754 51.7303 84.8705C51.561 84.5303 51.4763 84.0517 51.4763 83.4348V80.5996L52.1726 80.603Z" fill="white"/>
<path d="M56.4661 81.969H57.0773V82.4906C57.1909 82.3411 57.3249 82.2082 57.4754 82.096C57.679 81.9557 57.9211 81.8824 58.1683 81.8862C58.4223 81.8732 58.6727 81.9499 58.876 82.1028C58.9916 82.2034 59.085 82.327 59.1504 82.4657C59.2735 82.2823 59.4398 82.132 59.6347 82.0279C59.8287 81.9316 60.0429 81.883 60.2595 81.8862C60.754 81.8862 61.0904 82.0646 61.2689 82.4214C61.3753 82.6657 61.4245 82.931 61.4129 83.1972V85.6456H60.771V83.0906C60.771 82.8467 60.7098 82.6778 60.5873 82.5859C60.4571 82.4922 60.2997 82.444 60.1393 82.4487C59.9068 82.445 59.6821 82.5325 59.5133 82.6925C59.3379 82.8558 59.2502 83.1272 59.2502 83.5068V85.6456H58.6208V83.2459C58.6323 83.0593 58.6017 82.8725 58.5312 82.6993C58.4382 82.5281 58.2624 82.4419 58.0061 82.4419C57.7666 82.4447 57.5379 82.5421 57.3699 82.7129C57.1783 82.8944 57.083 83.221 57.083 83.695V85.6456H56.4661V81.969Z" fill="white"/>
<path d="M62.6388 81.9707L63.3465 84.8683L64.0643 81.9707H64.7584L65.4785 84.8501L66.2315 81.9707H66.8485L65.7813 85.6474H65.1394L64.3909 82.8008L63.6663 85.6474H63.0244L61.9629 81.9707H62.6388Z" fill="white"/>
<path d="M69.7563 82.0718C69.9819 82.1777 70.1753 82.3417 70.3166 82.547C70.4439 82.7433 70.5282 82.9644 70.5638 83.1957C70.6075 83.4636 70.6257 83.7351 70.6182 84.0065H67.9203C67.9146 84.3255 68.0069 84.6386 68.1845 84.9036C68.3486 85.1304 68.6037 85.2438 68.95 85.2438C69.0943 85.2501 69.2382 85.2248 69.3716 85.1695C69.505 85.1143 69.6247 85.0305 69.7223 84.924C69.8318 84.8007 69.9117 84.6541 69.9559 84.4953H70.5638C70.5397 84.6553 70.4854 84.8092 70.4039 84.9489C70.3249 85.0996 70.2223 85.2367 70.0999 85.3549C69.9073 85.5415 69.666 85.6701 69.4036 85.7258C69.2379 85.7649 69.0681 85.7835 68.8978 85.7813C68.6796 85.7847 68.4631 85.7418 68.2626 85.6556C68.0621 85.5694 67.882 85.4418 67.7343 85.2812C67.4167 84.9486 67.2576 84.4825 67.2568 83.8829C67.2561 83.2834 67.4164 82.8037 67.7377 82.4438C67.8925 82.2636 68.0857 82.1204 68.3032 82.0248C68.5207 81.9292 68.7568 81.8837 68.9942 81.8915C69.2589 81.8906 69.5201 81.9524 69.7563 82.0718ZM69.9831 83.5155C69.9703 83.2917 69.9108 83.0731 69.8085 82.8736C69.6384 82.575 69.3556 82.426 68.9602 82.4268C68.8261 82.4241 68.6929 82.4501 68.5697 82.5031C68.4465 82.5561 68.336 82.6349 68.2457 82.7341C68.0504 82.9476 67.9417 83.2261 67.9407 83.5155H69.9831Z" fill="white"/>
<path d="M71.429 80.6035H72.047V85.6467H71.429V80.6035Z" fill="white"/>
<path d="M73.137 80.9414H73.7619V81.9689H74.3482V82.4735H73.7619V84.8732C73.7557 84.9242 73.7648 84.9759 73.788 85.0217C73.8113 85.0675 73.8475 85.1055 73.8923 85.1307C73.9687 85.1607 74.0508 85.1735 74.1327 85.1681H74.228C74.2631 85.1681 74.3028 85.1681 74.3482 85.1601V85.6478C74.2758 85.6686 74.2019 85.6834 74.1271 85.692C74.0446 85.7014 73.9617 85.7059 73.8787 85.7056C73.5895 85.7056 73.3945 85.6319 73.2913 85.4788C73.1815 85.3078 73.1276 85.1069 73.137 84.9038V82.4735H72.6392V81.9689H73.137V80.9414Z" fill="white"/>
<path d="M75.3655 84.4927C75.3714 84.6617 75.4248 84.8257 75.5197 84.9657C75.6762 85.1653 75.9465 85.265 76.3305 85.265C76.5417 85.2694 76.7503 85.2178 76.935 85.1153C77.0176 85.0709 77.086 85.004 77.1322 84.9223C77.1783 84.8406 77.2004 84.7475 77.1958 84.6538C77.1978 84.5801 77.1792 84.5074 77.1421 84.4437C77.1051 84.38 77.051 84.3279 76.986 84.2931C76.8169 84.2154 76.6397 84.1568 76.4576 84.1185L75.9722 83.9949C75.7289 83.9438 75.4949 83.8558 75.2781 83.7341C75.1555 83.6649 75.0538 83.5639 74.9837 83.4418C74.9136 83.3196 74.8778 83.1808 74.8801 83.04C74.8749 82.8799 74.9061 82.7207 74.9713 82.5743C75.0366 82.428 75.1341 82.2984 75.2566 82.1951C75.5076 81.9812 75.8444 81.8738 76.267 81.873C76.822 81.873 77.2215 82.0356 77.4658 82.3607C77.6151 82.5502 77.6952 82.7851 77.6926 83.0264H77.1085C77.0971 82.8878 77.0459 82.7555 76.9611 82.6453C76.8197 82.4836 76.5736 82.4023 76.2228 82.4015C76.0362 82.3887 75.8503 82.4355 75.6921 82.5353C75.6352 82.5749 75.589 82.6279 75.5575 82.6896C75.5261 82.7514 75.5104 82.8199 75.5118 82.8892C75.5125 82.9688 75.5349 83.0467 75.5767 83.1144C75.6185 83.1822 75.678 83.2372 75.7488 83.2736C75.8753 83.344 76.0118 83.3949 76.1536 83.4245L76.563 83.5243C77.0065 83.6377 77.3047 83.7363 77.4555 83.8361C77.696 83.9949 77.8162 84.2433 77.8162 84.5812C77.8172 84.7409 77.7845 84.899 77.7202 85.0452C77.6559 85.1914 77.5615 85.3223 77.4431 85.4295C77.1951 85.6676 76.8171 85.7867 76.309 85.7867C75.7609 85.7867 75.3734 85.6623 75.1466 85.4136C74.9167 85.1613 74.7865 84.834 74.7803 84.4927H75.3655Z" fill="white"/>
<path d="M80.978 82.1645C81.2373 82.3664 81.3935 82.713 81.4464 83.2045H80.8487C80.8209 82.9957 80.7344 82.799 80.5992 82.6374C80.4692 82.4862 80.2594 82.4106 79.9698 82.4106C79.5759 82.4106 79.2947 82.603 79.1261 82.9879C79.0077 83.2808 78.9513 83.5952 78.9605 83.911C78.9497 84.2367 79.0306 84.559 79.1941 84.8409C79.2687 84.9446 79.3643 85.0313 79.4747 85.0954C79.585 85.1596 79.7077 85.1997 79.8347 85.2132C79.9616 85.2267 80.09 85.2132 80.2114 85.1737C80.3328 85.1342 80.4445 85.0695 80.5391 84.9838C80.7011 84.8027 80.8085 84.5793 80.8487 84.3397H81.4498C81.3817 84.8273 81.2101 85.1838 80.9349 85.4091C80.6352 85.6439 80.2618 85.7645 79.8814 85.7493C79.6618 85.7575 79.4434 85.714 79.2437 85.6224C79.044 85.5308 78.8685 85.3937 78.7314 85.222C78.436 84.8485 78.2826 84.3824 78.2982 83.9065C78.2982 83.2616 78.4551 82.7592 78.7688 82.3993C78.9159 82.2264 79.0998 82.0887 79.307 81.9963C79.5143 81.9038 79.7396 81.859 79.9664 81.8651C80.3278 81.8477 80.6844 81.9533 80.978 82.1645Z" fill="white"/>
<path d="M82.0962 80.5859H82.7143V82.4674C82.8248 82.3173 82.9579 82.1853 83.1089 82.0761C83.3327 81.9393 83.5919 81.8714 83.854 81.881C84.387 81.881 84.7488 82.0674 84.9393 82.4401C85.0548 82.7074 85.1075 82.9976 85.0935 83.2884V85.6473H84.4585V83.3293C84.4715 83.1262 84.4361 82.9229 84.3553 82.7361C84.2419 82.5343 84.0332 82.4333 83.7236 82.4333C83.467 82.4335 83.2194 82.5275 83.0273 82.6976C82.8186 82.8745 82.7143 83.2068 82.7143 83.6967V85.6473H82.0962V80.5859Z" fill="white"/>
<path d="M86.663 81.9707V84.4112C86.6574 84.5695 86.6881 84.727 86.7526 84.8717C86.866 85.0905 87.0667 85.2005 87.3673 85.2005C87.7967 85.2005 88.0897 85.0085 88.2462 84.6244C88.3412 84.3521 88.3843 84.0644 88.3732 83.7761V81.9707H88.9913V85.6474H88.4072L88.414 85.1041C88.3383 85.2402 88.237 85.3603 88.1158 85.458C87.873 85.6532 87.5687 85.7557 87.2573 85.7472C86.7333 85.7472 86.3761 85.5718 86.1856 85.221C86.0738 84.9886 86.0208 84.7324 86.0313 84.4747V81.9798L86.663 81.9707Z" fill="white"/>
<path d="M90.1152 80.9414H90.7389V81.9689H91.3264V82.4735H90.7389V84.8732C90.733 84.9243 90.7424 84.976 90.7658 85.0218C90.7892 85.0676 90.8256 85.1055 90.8705 85.1307C90.9465 85.1607 91.0282 85.1735 91.1098 85.1681H91.2062C91.2402 85.1681 91.281 85.1681 91.3264 85.1601V85.6478C91.254 85.6686 91.1801 85.6834 91.1052 85.692C91.0224 85.7014 90.9391 85.706 90.8557 85.7056C90.5677 85.7056 90.3715 85.6319 90.2694 85.4788C90.1597 85.3078 90.1058 85.1069 90.1152 84.9038V82.4735H89.6162V81.9689H90.1152V80.9414Z" fill="white"/>
<path d="M91.7051 85.1552L93.8904 82.523H91.8718V81.9707H94.7217V82.4754L92.5556 85.0939H94.7864V85.6474H91.7051V85.1552Z" fill="white"/>
<path d="M60.5058 72.793V73.394H58.8047V77.8373H58.1117V73.3918H56.4106V72.793H60.5058Z" fill="white"/>
<path d="M61.4435 72.7918V75.9094C61.4326 76.2244 61.5034 76.537 61.6488 76.8166C61.8529 77.1833 62.1965 77.3667 62.6796 77.3667C63.258 77.3667 63.6515 77.1686 63.8602 76.7724C63.9841 76.5002 64.0416 76.2025 64.028 75.9037V72.7918H64.7221V75.627C64.7221 76.247 64.6385 76.724 64.4715 77.0582C64.1638 77.6668 63.5846 77.9715 62.7341 77.9723C61.8835 77.973 61.3063 77.6668 61.0023 77.0537C60.8353 76.7203 60.7517 76.2432 60.7517 75.6225V72.7918H61.4435ZM61.9277 71.5977H62.5696V72.3121H61.9277V71.5977ZM63.0618 71.5977H63.7037V72.3121H63.0618V71.5977Z" fill="white"/>
<path d="M65.7485 72.793L67.1978 77.0888L68.629 72.793H69.3945L67.555 77.8373H66.8304L64.9932 72.793H65.7485Z" fill="white"/>
<path d="M71.1365 72.793H71.9428L74.4899 76.8756V72.793H75.1386V77.8373H74.3731L71.7886 73.7547V77.8373H71.1365V72.793Z" fill="white"/>
<path d="M79.9414 73.512C80.2749 73.9588 80.4419 74.53 80.4427 75.2255C80.4427 75.9816 80.2514 76.6076 79.8689 77.1036C79.4205 77.6887 78.7809 77.9817 77.95 77.9825C77.1743 77.9825 76.5642 77.7262 76.1196 77.2136C75.7234 76.7191 75.5257 76.0942 75.5265 75.339C75.5077 74.7164 75.6846 74.1036 76.0323 73.5868C76.467 72.9638 77.1097 72.6523 77.9602 72.6523C78.8516 72.6531 79.512 72.9396 79.9414 73.512ZM79.3392 76.7237C79.6123 76.2761 79.752 75.7599 79.7418 75.2358C79.7418 74.6423 79.5869 74.1648 79.2769 73.8034C78.9669 73.442 78.5427 73.2613 78.0044 73.2613C77.7654 73.2535 77.5275 73.2974 77.3071 73.3902C77.0866 73.483 76.8889 73.6224 76.7275 73.7989C76.3986 74.1573 76.2338 74.6865 76.233 75.3866C76.216 75.8896 76.3633 76.3844 76.6526 76.7962C76.9354 77.1795 77.3939 77.3712 78.0283 77.3712C78.6308 77.3712 79.0671 77.1554 79.337 76.7237H79.3392Z" fill="white"/>
<path d="M80.9077 72.7923H83.2416C83.5671 72.7815 83.8913 72.839 84.1931 72.9613C84.6672 73.1756 84.9042 73.5737 84.9042 74.1521C84.9207 74.4012 84.8617 74.6496 84.7349 74.8647C84.608 75.0797 84.4192 75.2515 84.1931 75.3576C84.3669 75.4209 84.5204 75.5298 84.6377 75.6728C84.7375 75.8036 84.793 76.0153 84.8044 76.3079L84.8282 76.9884C84.8293 77.1325 84.8453 77.2762 84.8758 77.417C84.8859 77.4822 84.911 77.5441 84.9492 77.5978C84.9874 77.6516 85.0376 77.6957 85.0958 77.7266V77.8401H84.2578C84.2319 77.7865 84.2136 77.7296 84.2033 77.6711C84.1838 77.5392 84.1724 77.4063 84.1693 77.273L84.1273 76.4315C84.1115 76.1027 83.989 75.8819 83.7599 75.7692C83.5639 75.6965 83.3551 75.6648 83.1464 75.6762H81.5904V77.8401H80.91L80.9077 72.7923ZM83.1759 75.1035C83.4428 75.1176 83.7077 75.0503 83.9357 74.9107C84.1232 74.7822 84.2166 74.5512 84.2158 74.2178C84.2158 73.8587 84.0854 73.6138 83.8245 73.483C83.648 73.4067 83.4564 73.3714 83.2643 73.3798H81.5904V75.1035H83.1759Z" fill="white"/>
<path d="M85.5051 72.793H87.5464C88.239 72.793 88.7769 73.0391 89.1602 73.5312C89.5004 73.9758 89.6709 74.5428 89.6717 75.2324C89.6791 75.7326 89.5757 76.2284 89.3689 76.684C89.015 77.4498 88.4053 77.8324 87.5396 77.8316H85.4983L85.5051 72.793ZM87.4103 77.2533C87.602 77.2585 87.7932 77.234 87.9774 77.1807C88.2473 77.0884 88.4777 76.9067 88.6306 76.6658C88.7788 76.427 88.8779 76.1609 88.922 75.8833C88.9546 75.709 88.9717 75.5322 88.9731 75.3548C88.9731 74.7296 88.8491 74.2442 88.6011 73.8987C88.3531 73.5532 87.9532 73.3804 87.4013 73.3804H86.1912V77.2533H87.4103Z" fill="white"/>
<path d="M51.9513 88.5228C52.4367 88.7768 52.7334 89.2229 52.8415 89.861H52.1872C52.1607 89.7048 52.1033 89.5554 52.0184 89.4216C51.9335 89.2878 51.8228 89.1723 51.6927 89.0819C51.4075 88.9102 51.0784 88.8254 50.7458 88.838C50.5296 88.8351 50.3154 88.8795 50.1181 88.9681C49.9208 89.0566 49.7453 89.1872 49.6038 89.3506C49.2953 89.6901 49.1411 90.1951 49.1411 90.8657C49.1411 91.4464 49.2681 91.9189 49.5221 92.2833C49.7761 92.6477 50.192 92.83 50.7696 92.83C51.1698 92.8444 51.5607 92.7071 51.864 92.4455C52.1528 92.1907 52.301 91.7772 52.3085 91.2048H50.7787V90.6571H52.9221V93.2654H52.4968L52.3369 92.6394C52.1665 92.8401 51.9656 93.0127 51.7415 93.1509C51.4002 93.3267 51.0194 93.4114 50.6358 93.397C50.084 93.4061 49.5499 93.2031 49.1433 92.83C48.6897 92.3605 48.4629 91.7159 48.4629 90.8964C48.4629 90.0768 48.6844 89.427 49.1275 88.9469C49.3332 88.7197 49.586 88.5402 49.8682 88.4207C50.1505 88.3012 50.4553 88.2447 50.7617 88.2551C51.1742 88.2446 51.583 88.3365 51.9513 88.5228Z" fill="white"/>
<path d="M53.9712 89.7046H54.562V90.2093C54.6724 90.0648 54.8021 89.9362 54.9476 89.8271C55.1451 89.6919 55.3796 89.621 55.619 89.6241C55.8633 89.6131 56.1038 89.6872 56.2994 89.8339C56.411 89.9321 56.5016 90.0516 56.5659 90.1855C56.6843 90.0076 56.8453 89.8622 57.0343 89.7625C57.2218 89.6685 57.4291 89.6211 57.6388 89.6241C58.1174 89.6241 58.4428 89.7969 58.6152 90.1424C58.718 90.3788 58.7657 90.6356 58.7547 90.8932V93.2622H58.1332V90.7911C58.1332 90.5541 58.0743 90.3908 57.9563 90.3023C57.8301 90.2115 57.6774 90.1648 57.522 90.1696C57.2969 90.1656 57.0794 90.2503 56.9164 90.4055C56.7463 90.562 56.6623 90.8251 56.6623 91.1925V93.2622H56.0533V90.9374C56.0646 90.7574 56.0352 90.5771 55.9672 90.41C55.8764 90.243 55.7071 90.1598 55.4591 90.1605C55.2273 90.163 55.0058 90.2572 54.8433 90.4225C54.6573 90.5983 54.5654 90.9147 54.5654 91.3729V93.2622H53.9712V89.7046Z" fill="white"/>
<path d="M59.7051 88.3652H60.2857V90.1355C60.4084 89.9705 60.5685 89.837 60.7528 89.7459C60.9372 89.6549 61.1405 89.6088 61.3461 89.6116C61.548 89.6043 61.7491 89.6411 61.9354 89.7194C62.1216 89.7978 62.2886 89.9158 62.4246 90.0652C62.7005 90.3676 62.8381 90.8167 62.8374 91.4125C62.8563 91.9119 62.7131 92.4041 62.4291 92.8153C62.3015 92.9955 62.131 93.1408 61.9329 93.2383C61.7349 93.3357 61.5156 93.3821 61.295 93.3733C61.0534 93.3801 60.8156 93.3115 60.6146 93.1771C60.4777 93.0723 60.3579 92.9468 60.2596 92.8051V93.2587H59.7085L59.7051 88.3652ZM61.9857 92.4615C62.16 92.1505 62.2433 91.7969 62.2261 91.4408C62.2386 91.1137 62.155 90.79 61.9857 90.5098C61.9106 90.391 61.8053 90.2943 61.6805 90.2295C61.5558 90.1648 61.4161 90.1343 61.2758 90.1412C61.1422 90.1407 61.01 90.1673 60.887 90.2194C60.764 90.2714 60.6528 90.3478 60.5602 90.444C60.3545 90.6459 60.2521 90.9781 60.2528 91.4408C60.2433 91.7174 60.286 91.9932 60.3787 92.254C60.4407 92.4351 60.5606 92.5908 60.7198 92.6972C60.879 92.8035 61.0688 92.8546 61.2599 92.8425C61.4041 92.8511 61.5479 92.8201 61.6758 92.753C61.8037 92.6858 61.9108 92.585 61.9857 92.4615Z" fill="white"/>
<path d="M63.74 88.3828H64.4045V90.3992H66.9437V88.3828H67.6106V93.2593H66.9437V90.981H64.4045V93.2627H63.7366L63.74 88.3828Z" fill="white"/>
<path d="M71.2089 89.9501C71.1426 89.8027 71.1071 89.6433 71.1046 89.4817C71.1006 89.3363 71.1269 89.1917 71.1818 89.057C71.2366 88.9223 71.3189 88.8005 71.4233 88.6992C71.5379 88.5934 71.6724 88.5114 71.819 88.458C71.9656 88.4047 72.1214 88.381 72.2772 88.3885C72.4222 88.3802 72.5674 88.4015 72.7039 88.4512C72.8404 88.501 72.9654 88.578 73.0711 88.6777C73.1627 88.7678 73.2352 88.8755 73.2841 88.9944C73.3331 89.1133 73.3574 89.2409 73.3557 89.3694C73.3603 89.6695 73.2555 89.961 73.0609 90.1894C72.8902 90.3729 72.6956 90.5327 72.4825 90.6645L73.3727 91.7283C73.4328 91.5502 73.4737 91.4187 73.4975 91.3314C73.5213 91.244 73.544 91.1216 73.5689 90.9639H74.136C74.0988 91.2718 74.0226 91.5736 73.9091 91.8621C73.7957 92.1487 73.739 92.2647 73.739 92.2103L74.6111 93.2627H73.84L73.3863 92.7047C73.241 92.8709 73.0734 93.0163 72.8885 93.1368C72.614 93.299 72.3 93.3819 71.9812 93.3761C71.4739 93.3761 71.105 93.2393 70.8744 92.9656C70.6524 92.7086 70.5314 92.3797 70.5341 92.0402C70.5231 91.6999 70.6428 91.3683 70.8687 91.1136C71.0988 90.892 71.3569 90.7013 71.6365 90.5466C71.4658 90.3695 71.3218 90.1686 71.2089 89.9501ZM72.6492 92.6821C72.8099 92.5848 72.9492 92.456 73.0586 92.3033L71.9551 90.9571C71.7337 91.0926 71.5286 91.2532 71.3439 91.4357C71.197 91.6035 71.1188 91.8206 71.125 92.0436C71.119 92.1589 71.1418 92.2739 71.1913 92.3782C71.2407 92.4825 71.3154 92.5729 71.4085 92.6412C71.5824 92.7756 71.7955 92.8493 72.0152 92.851C72.2396 92.8577 72.461 92.799 72.6526 92.6821H72.6492ZM72.6061 89.9172C72.7319 89.7805 72.8019 89.6017 72.8023 89.4159C72.8048 89.2781 72.7535 89.1447 72.6594 89.044C72.6103 88.9915 72.5504 88.9503 72.4838 88.9233C72.4172 88.8962 72.3456 88.884 72.2738 88.8875C72.0289 88.8875 71.8576 88.9691 71.7623 89.1336C71.7139 89.2172 71.6888 89.3124 71.6898 89.4091C71.6914 89.5467 71.7306 89.6812 71.8032 89.7981C71.9125 89.9689 72.0366 90.1298 72.174 90.279C72.3313 90.1751 72.4763 90.0538 72.6061 89.9172Z" fill="white"/>
<path d="M80.8883 88.7386C81.2094 89.0248 81.4117 89.4209 81.4554 89.8489H80.8101C80.7516 89.5578 80.598 89.2945 80.3735 89.1004C80.1557 88.9166 79.8495 88.8248 79.4549 88.8248C79.2352 88.8171 79.0166 88.8587 78.8151 88.9464C78.6136 89.0341 78.4342 89.1658 78.2902 89.3317C77.9946 89.6697 77.8468 90.1876 77.8468 90.8854C77.8468 91.4555 77.9802 91.9189 78.2471 92.2758C78.5136 92.6307 78.9128 92.8088 79.4413 92.8088C79.6601 92.8189 79.8779 92.772 80.0731 92.6726C80.2684 92.5732 80.4344 92.4247 80.5549 92.2417C80.7057 92.0048 80.8082 91.7404 80.8566 91.4638H81.5019C81.4594 91.9452 81.2602 92.3993 80.9348 92.7566C80.547 93.1747 80.0242 93.3841 79.3664 93.3849C78.8419 93.4002 78.3312 93.2158 77.9375 92.8689C77.4309 92.4153 77.1773 91.7144 77.1765 90.7663C77.1765 90.0458 77.3655 89.4553 77.7435 88.9949C78.1564 88.4951 78.7234 88.2449 79.4447 88.2441C80.0661 88.2479 80.5473 88.4127 80.8883 88.7386Z" fill="white"/>
<path d="M84.9314 90.061C85.2489 90.3672 85.4073 90.8167 85.4065 91.4094C85.4065 91.9833 85.2671 92.4573 84.9881 92.8316C84.7091 93.2058 84.2763 93.3948 83.6896 93.3986C83.4703 93.4083 83.2516 93.3688 83.0497 93.2828C82.8477 93.1968 82.6676 93.0667 82.5226 92.9019C82.2383 92.5677 82.0962 92.1212 82.0962 91.5625C82.0962 90.9653 82.2474 90.4889 82.5498 90.1336C82.7004 89.9586 82.8885 89.82 83.1002 89.7281C83.312 89.6362 83.5417 89.5934 83.7724 89.6029C83.9863 89.5983 84.199 89.6364 84.398 89.7151C84.5971 89.7938 84.7784 89.9114 84.9314 90.061ZM84.5617 92.4278C84.7138 92.1161 84.7915 91.7733 84.7885 91.4264C84.7995 91.1474 84.7447 90.8696 84.6286 90.6156C84.4607 90.2882 84.1704 90.1245 83.7576 90.1245C83.3924 90.1245 83.1278 90.264 82.9638 90.543C82.7909 90.8507 82.7051 91.1996 82.7154 91.5523C82.703 91.8856 82.7894 92.215 82.9638 92.4993C83.1305 92.7522 83.3936 92.878 83.7576 92.878C84.147 92.878 84.4157 92.728 84.5639 92.4278H84.5617Z" fill="white"/>
<path d="M86.3716 92.5391H87.0668V93.2626H86.3716V92.5391Z" fill="white"/>
<path d="M88.3086 88.3828H88.9527V90.7644L91.3343 88.3828H92.2415L90.2116 90.3493L92.3028 93.2627H91.4409L89.733 90.8143L88.9527 91.5616V93.2627H88.3086V88.3828Z" fill="white"/>
<path d="M96.255 88.5216C96.7389 88.7757 97.0356 89.2217 97.1452 89.8598H96.4909C96.4642 89.7036 96.4066 89.5542 96.3215 89.4204C96.2364 89.2866 96.1255 89.1711 95.9953 89.0807C95.7102 88.9088 95.381 88.8241 95.0484 88.8369C94.8323 88.834 94.6183 88.8784 94.4212 88.967C94.2241 89.0555 94.0488 89.1861 93.9075 89.3495C93.5975 89.689 93.4429 90.194 93.4436 90.8646C93.4436 91.4453 93.571 91.9178 93.8258 92.2822C94.0806 92.6466 94.4964 92.8288 95.0733 92.8288C95.4735 92.8433 95.8644 92.706 96.1677 92.4444C96.4565 92.1896 96.6043 91.776 96.6111 91.2037H95.0824V90.656H97.2246V93.2643H96.7994L96.6406 92.6372C96.4699 92.8376 96.2691 93.0102 96.0452 93.1486C95.7039 93.3242 95.3231 93.409 94.9395 93.3947C94.3877 93.4038 93.8536 93.2008 93.447 92.8277C92.9934 92.3582 92.7666 91.7137 92.7666 90.8941C92.7666 90.0746 92.99 89.4255 93.4368 88.9469C93.6426 88.7197 93.8954 88.5402 94.1776 88.4207C94.4598 88.3012 94.7647 88.2447 95.071 88.2551C95.4816 88.2452 95.8883 88.3367 96.255 88.5216Z" fill="white"/>
<path d="M26.7185 74.7203L31.2899 77.6088L30.9747 74.5298L31.6302 74.4629L32.0418 78.4854L31.4011 78.5512L26.8523 75.6401L27.1925 78.981L26.537 79.0479L26.1016 74.7816L26.7185 74.7203Z" fill="#10519D"/>
<path d="M31.1119 81.9488C31.0478 82.212 30.9142 82.4533 30.7252 82.6474C30.5428 82.8272 30.3245 82.9663 30.0845 83.0557C29.8069 83.1626 29.5198 83.2431 29.2271 83.2961L28.6272 80.4484C28.283 80.5145 27.9668 80.6829 27.7199 80.9315C27.5147 81.1584 27.4512 81.451 27.5271 81.8161C27.5529 81.9704 27.6123 82.1171 27.7013 82.2457C27.7904 82.3743 27.9067 82.4817 28.042 82.5601C28.1992 82.6485 28.3745 82.6997 28.5546 82.7098L28.6896 83.3517C28.5138 83.3622 28.3377 83.3399 28.1702 83.2859C27.9913 83.2366 27.8211 83.1601 27.6655 83.0591C27.4236 82.8973 27.2319 82.671 27.1121 82.4058C27.0344 82.2398 26.9769 82.065 26.9408 81.8853C26.889 81.6546 26.887 81.4155 26.9349 81.184C26.9828 80.9524 27.0795 80.7337 27.2187 80.5426C27.506 80.1313 27.9709 79.858 28.6136 79.7226C29.2562 79.5873 29.8081 79.6474 30.2693 79.9029C30.4965 80.0243 30.6931 80.1957 30.8444 80.4041C30.9956 80.6126 31.0976 80.8526 31.1426 81.1062C31.1992 81.3855 31.1887 81.6743 31.1119 81.9488ZM29.6127 82.5158C29.8496 82.4515 30.0708 82.3392 30.2625 82.1858C30.5438 81.9401 30.6405 81.6078 30.5528 81.189C30.5251 81.0471 30.4671 80.9128 30.3828 80.7954C30.2984 80.678 30.1897 80.5801 30.0641 80.5085C29.7904 80.3487 29.4669 80.2965 29.1568 80.3622L29.6127 82.5158Z" fill="#10519D"/>
<path d="M31.7163 83.8633L31.8966 84.47L31.2298 84.6696C31.4381 84.7041 31.6369 84.7814 31.8139 84.8964C31.9287 84.9577 32.0302 85.0413 32.1126 85.1421C32.1949 85.2429 32.2564 85.3591 32.2936 85.4839C32.2936 85.4952 32.3015 85.5168 32.3083 85.5451C32.3151 85.5735 32.3231 85.6245 32.3367 85.6948L31.6562 85.9001C31.6517 85.8592 31.646 85.8214 31.6392 85.7867C31.6313 85.7538 31.6222 85.7186 31.6109 85.6801C31.5778 85.5379 31.5121 85.4054 31.419 85.2931C31.3259 85.1807 31.2079 85.0915 31.0744 85.0325C30.8197 84.9227 30.5342 84.9074 30.2693 84.9894L28.0465 85.6528L27.856 85.0132L31.7163 83.8633Z" fill="#10519D"/>
<path d="M33.6476 86.2312L33.8744 86.8652L32.8164 87.2508L33.033 87.8461L32.5124 88.0355L32.2958 87.4401L29.8224 88.3395C29.768 88.352 29.7184 88.3801 29.6797 88.4204C29.641 88.4607 29.615 88.5114 29.6047 88.5663C29.6022 88.6547 29.6192 88.7426 29.6546 88.8237L29.692 88.9212C29.7056 88.9553 29.7238 88.995 29.7453 89.0346L29.2486 89.2252C29.2004 89.1591 29.1575 89.0894 29.1204 89.0165C29.0803 88.9363 29.0451 88.8537 29.015 88.7693C28.9084 88.4767 28.9121 88.2499 29.0263 88.0888C29.1627 87.913 29.3494 87.7828 29.5616 87.7157L32.0713 86.8085L31.8876 86.3027L32.407 86.1133L32.5907 86.6191L33.6476 86.2312Z" fill="#10519D"/>
<path d="M33.3684 88.7058L33.6315 89.3306L29.9288 90.8877L29.668 90.2572L33.3684 88.7058ZM34.7667 88.1172L35.0299 88.7421L34.3222 89.0403L34.0591 88.4154L34.7667 88.1172Z" fill="#10519D"/>
<path d="M35.4054 90.2239C35.6813 90.2647 35.9153 90.4855 36.1074 90.8862C36.1255 90.9248 36.1437 90.9633 36.1607 91.0053C36.1777 91.0473 36.1958 91.0938 36.2162 91.1471L35.6594 91.4147C35.6333 91.35 35.6152 91.3013 35.6027 91.2752C35.5902 91.2491 35.5789 91.2196 35.5664 91.1958C35.4791 91.0132 35.3782 90.927 35.2648 90.9372C35.1513 90.9475 34.8985 91.0507 34.5049 91.2366L34.7907 91.8309L34.3087 92.0577L34.0195 91.4555L30.8827 92.9616L30.5969 92.3673L33.7338 90.8613L33.4945 90.3713L33.9765 90.1445L34.2157 90.6424L34.7828 90.3679C34.974 90.2658 35.1888 90.2161 35.4054 90.2239Z" fill="#10519D"/>
<path d="M35.199 92.6005L35.5233 93.197L31.9941 95.1102L31.6709 94.5137L35.199 92.6005ZM36.5327 91.877L36.857 92.4723L36.1766 92.8386L35.8533 92.2433L36.5327 91.877Z" fill="#10519D"/>
<path d="M33.0284 95.91L36.7334 96.3477L35.5653 94.5071L36.0767 94.1816L37.7257 96.7798L37.2584 97.0769L33.5784 96.6414L34.8701 98.676L34.3586 99.0003L32.5781 96.1958L33.0284 95.91Z" fill="#10519D"/>
<path d="M38.354 97.6599L38.7555 98.2065L35.5211 100.588L35.1196 100.041L38.354 97.6599ZM39.5765 96.7617L39.978 97.3083L39.3588 97.762L38.9573 97.2153L39.5765 96.7617Z" fill="#10519D"/>
<path d="M41.0292 101.154C41.0995 101.414 41.0995 101.688 41.0292 101.948C40.955 102.196 40.8281 102.425 40.6572 102.619C40.4647 102.845 40.2517 103.053 40.021 103.241L38.1294 101.031C37.8588 101.253 37.6612 101.552 37.5624 101.888C37.4868 102.183 37.5718 102.473 37.8175 102.757C37.9141 102.881 38.0366 102.981 38.1764 103.051C38.3162 103.121 38.4698 103.16 38.6261 103.163C38.8064 103.166 38.9848 103.127 39.1478 103.05L39.5731 103.548C39.424 103.642 39.2586 103.707 39.0854 103.74C38.9045 103.781 38.7182 103.795 38.5331 103.779C38.2449 103.753 37.9697 103.647 37.7393 103.472C37.5911 103.364 37.4566 103.237 37.3389 103.097C37.1829 102.919 37.0666 102.71 36.9978 102.484C36.9289 102.258 36.9092 102.02 36.9398 101.786C36.9942 101.287 37.2713 100.823 37.771 100.396C38.2708 99.9692 38.783 99.759 39.3077 99.7658C39.5652 99.7636 39.8199 99.82 40.0525 99.9306C40.2851 100.041 40.4896 100.203 40.6504 100.404C40.8343 100.621 40.9641 100.878 41.0292 101.154ZM39.9847 102.368C40.1622 102.199 40.3024 101.994 40.3964 101.767C40.5257 101.417 40.4501 101.079 40.1696 100.754C40.0773 100.641 39.9618 100.55 39.831 100.487C39.7002 100.424 39.5573 100.389 39.412 100.386C39.0963 100.378 38.7888 100.487 38.5479 100.691L39.9847 102.368Z" fill="#10519D"/>
<path d="M42.4764 102.543L42.93 102.989L42.4401 103.484C42.6385 103.414 42.8493 103.385 43.0593 103.4C43.1897 103.399 43.3192 103.424 43.4401 103.473C43.561 103.522 43.6709 103.594 43.7635 103.686L43.8055 103.734C43.8248 103.755 43.8565 103.795 43.903 103.847L43.3995 104.356C43.3788 104.325 43.356 104.296 43.3314 104.268C43.3099 104.243 43.285 104.217 43.2566 104.189C43.1591 104.08 43.0377 103.995 42.9019 103.941C42.7661 103.887 42.6197 103.866 42.4741 103.878C42.1983 103.903 41.9409 104.027 41.7483 104.226L40.113 105.877L39.6389 105.408L42.4764 102.543Z" fill="#10519D"/>
<path d="M45.3091 103.695L45.8161 104.141L45.0721 104.986L45.5484 105.404L45.1832 105.821L44.7069 105.402L42.9707 107.382C42.9287 107.419 42.8986 107.468 42.8841 107.522C42.8696 107.577 42.8713 107.634 42.889 107.687C42.9294 107.766 42.9867 107.836 43.0569 107.89L43.1362 107.957C43.1646 107.981 43.1998 108.007 43.2406 108.035L42.8867 108.437C42.8126 108.403 42.7416 108.362 42.6747 108.316C42.6012 108.265 42.5307 108.209 42.4637 108.15C42.229 107.945 42.1235 107.744 42.1473 107.549C42.1827 107.329 42.2844 107.125 42.4388 106.965L44.2011 104.96L43.7974 104.605L44.1637 104.19L44.5674 104.545L45.3091 103.695Z" fill="#10519D"/>
<path d="M48.1421 107.564C48.2675 107.804 48.327 108.073 48.3145 108.343C48.2955 108.599 48.2228 108.848 48.1013 109.074C47.9636 109.337 47.8014 109.588 47.617 109.821L45.2865 108.078C45.0728 108.355 44.9468 108.689 44.9248 109.037C44.9191 109.343 45.0665 109.604 45.3648 109.831C45.4857 109.931 45.6272 110.002 45.7789 110.04C45.9307 110.078 46.0891 110.082 46.2425 110.051C46.4191 110.014 46.5847 109.936 46.7268 109.824L47.2519 110.218C47.1265 110.342 46.9793 110.442 46.8175 110.512C46.6507 110.593 46.4718 110.647 46.2879 110.672C45.9994 110.71 45.7058 110.667 45.4408 110.547C45.2727 110.474 45.1143 110.381 44.969 110.269C44.777 110.131 44.6169 109.952 44.4995 109.747C44.3822 109.541 44.3102 109.313 44.2885 109.077C44.2318 108.58 44.4004 108.067 44.7943 107.54C45.1882 107.014 45.6419 106.696 46.1552 106.588C46.4058 106.529 46.6664 106.528 46.9174 106.585C47.1685 106.641 47.4034 106.754 47.6046 106.914C47.8328 107.085 48.017 107.308 48.1421 107.564ZM47.3936 108.978C47.5302 108.773 47.6221 108.541 47.6635 108.298C47.7119 107.928 47.5652 107.614 47.2235 107.358C47.1089 107.269 46.9764 107.205 46.8351 107.172C46.6938 107.139 46.5469 107.137 46.4047 107.166C46.0938 107.227 45.8167 107.401 45.6267 107.655L47.3936 108.978Z" fill="#10519D"/>
<path d="M49.8603 108.6L50.3979 108.94L50.0293 109.531C50.2077 109.419 50.4073 109.345 50.6156 109.313C50.7423 109.283 50.8738 109.278 51.0023 109.299C51.1308 109.32 51.2538 109.367 51.3641 109.437C51.3743 109.443 51.3913 109.455 51.4151 109.473L51.5365 109.566L51.1577 110.173C51.1306 110.148 51.1022 110.124 51.0726 110.102C51.0465 110.083 51.0159 110.063 50.9819 110.041C50.8628 109.957 50.7258 109.901 50.5816 109.878C50.4374 109.856 50.2898 109.867 50.1506 109.911C49.887 109.997 49.663 110.175 49.5189 110.412L48.2919 112.372L47.7249 112.019L49.8603 108.6Z" fill="#10519D"/>
<path d="M55.0079 109.834L58.6539 111.406L58.3863 112.032L55.4003 110.741L54.7357 112.284L57.4971 113.473L57.2431 114.062L54.4828 112.872L53.7445 114.594L56.7804 115.902L56.5207 116.507L52.8225 114.919L55.0079 109.834Z" fill="#10519D"/>
<path d="M59.1483 113.148L59.7562 113.33L59.5918 113.879C59.8046 113.721 60.0498 113.613 60.3096 113.562C60.5487 113.525 60.7933 113.543 61.0241 113.616C61.5651 113.777 61.8712 114.077 61.9472 114.516C61.98 114.836 61.9412 115.159 61.8338 115.462L61.0921 117.94L60.4423 117.745L61.1715 115.31C61.2377 115.117 61.2605 114.913 61.2384 114.71C61.1976 114.436 61.0279 114.253 60.7292 114.163C60.604 114.122 60.4732 114.101 60.3414 114.099C60.1638 114.106 59.9907 114.157 59.837 114.246C59.6833 114.336 59.5536 114.461 59.4591 114.611C59.3632 114.792 59.2872 114.982 59.2323 115.178L58.6267 117.202L57.9871 117.011L59.1483 113.148Z" fill="#10519D"/>
<path d="M63.8037 113.264L64.4626 113.404L64.229 114.505L64.8493 114.637L64.7359 115.178L64.1156 115.046L63.5678 117.621C63.5499 117.674 63.5479 117.731 63.5619 117.786C63.576 117.84 63.6057 117.889 63.6472 117.927C63.7209 117.976 63.8045 118.008 63.8922 118.021C63.9239 118.028 63.958 118.035 63.9942 118.04C64.0305 118.046 64.0736 118.053 64.1235 118.059L64.0101 118.581C63.929 118.588 63.8474 118.588 63.7663 118.581C63.6767 118.573 63.5877 118.559 63.4998 118.539C63.1974 118.474 63.0084 118.351 62.9328 118.171C62.8553 117.962 62.8442 117.734 62.901 117.519L63.4556 114.91L62.9305 114.797L63.0439 114.255L63.5701 114.368L63.8037 113.264Z" fill="#10519D"/>
<path d="M65.7655 117.607C65.7466 117.791 65.7796 117.977 65.8608 118.144C65.9991 118.382 66.2736 118.529 66.6841 118.585C66.9099 118.621 67.1411 118.595 67.3532 118.509C67.448 118.471 67.5301 118.407 67.5903 118.325C67.6504 118.242 67.6862 118.144 67.6934 118.042C67.7066 117.963 67.6975 117.881 67.667 117.807C67.6366 117.732 67.5861 117.668 67.5211 117.62C67.3521 117.511 67.1709 117.421 66.9812 117.354L66.4743 117.149C66.2208 117.059 65.9831 116.929 65.7701 116.765C65.6481 116.672 65.5536 116.547 65.4966 116.404C65.4395 116.262 65.4219 116.106 65.4457 115.954C65.4627 115.78 65.5188 115.612 65.6097 115.462C65.7006 115.313 65.824 115.186 65.9708 115.09C66.2732 114.892 66.6512 114.824 67.1049 114.885C67.6968 114.961 68.1002 115.195 68.3149 115.587C68.4463 115.816 68.4963 116.082 68.4567 116.343L67.8329 116.259C67.8416 116.107 67.8057 115.956 67.7297 115.824C67.6016 115.627 67.3509 115.503 66.9756 115.452C66.7773 115.412 66.5713 115.436 66.3881 115.522C66.3213 115.558 66.2642 115.609 66.2217 115.671C66.1792 115.734 66.1526 115.806 66.1443 115.881C66.1325 115.967 66.1447 116.055 66.1795 116.135C66.2142 116.215 66.2704 116.284 66.3416 116.334C66.466 116.431 66.605 116.508 66.7533 116.561L67.1752 116.729C67.6348 116.91 67.9373 117.065 68.0824 117.196C68.3176 117.403 68.4098 117.69 68.3591 118.058C68.3375 118.231 68.2799 118.398 68.19 118.548C68.1002 118.697 67.9801 118.826 67.8375 118.927C67.535 119.149 67.1128 119.225 66.5707 119.154C65.9855 119.075 65.5886 118.884 65.3822 118.587C65.1728 118.277 65.0815 117.903 65.1248 117.532L65.7655 117.607Z" fill="#10519D"/>
<path d="M72.5951 115.797C72.9361 116.156 73.0953 116.671 73.0726 117.343C73.0514 117.993 72.8775 118.525 72.5509 118.938C72.2243 119.35 71.7329 119.546 71.0766 119.524C70.831 119.526 70.5881 119.473 70.3662 119.368C70.1442 119.263 69.949 119.109 69.7951 118.917C69.4867 118.53 69.3415 118.022 69.3653 117.39C69.388 116.709 69.577 116.175 69.9323 115.788C70.1061 115.595 70.3218 115.445 70.5629 115.349C70.804 115.253 71.064 115.213 71.3227 115.234C71.5618 115.237 71.7977 115.289 72.0163 115.386C72.2349 115.483 72.4318 115.623 72.5951 115.797ZM72.0905 118.465C72.2701 118.115 72.3678 117.73 72.3763 117.337C72.3989 117.022 72.3489 116.706 72.23 116.413C72.0546 116.035 71.737 115.839 71.2774 115.823C70.8698 115.81 70.5674 115.958 70.3701 116.267C70.1647 116.61 70.055 117.001 70.0526 117.401C70.0276 117.779 70.1144 118.155 70.3021 118.484C70.4775 118.777 70.7666 118.93 71.1696 118.943C71.6066 118.958 71.9136 118.799 72.0905 118.465Z" fill="#10519D"/>
<path d="M74.1499 115.362L74.7827 115.332L74.8179 116.027C74.9005 115.833 75.0217 115.658 75.174 115.513C75.2603 115.417 75.3649 115.338 75.4817 115.282C75.5984 115.226 75.7251 115.194 75.8544 115.188C75.8669 115.187 75.8873 115.188 75.9168 115.188L76.0699 115.195L76.105 115.91C76.0675 115.904 76.0296 115.901 75.9916 115.901C75.9587 115.901 75.9213 115.901 75.8782 115.901C75.7322 115.899 75.5878 115.932 75.4564 115.996C75.3249 116.059 75.21 116.153 75.1207 116.268C74.9532 116.489 74.8703 116.763 74.887 117.039L75.0005 119.356L74.3336 119.389L74.1499 115.362Z" fill="#10519D"/>
<path d="M79.1044 115.074C79.2641 115.162 79.4101 115.272 79.5376 115.403L79.4696 114.899L80.0786 114.816L80.5719 118.445C80.6407 118.953 80.6218 119.364 80.5152 119.677C80.3148 120.256 79.8336 120.596 79.0715 120.698C78.6961 120.762 78.3099 120.712 77.9635 120.554C77.6482 120.402 77.4456 120.123 77.3557 119.716L78.0282 119.624C78.0689 119.775 78.1552 119.911 78.2754 120.012C78.4444 120.141 78.6905 120.184 79.0103 120.14C79.5183 120.072 79.8245 119.845 79.9323 119.459C79.9973 119.232 79.9882 118.845 79.905 118.296C79.8143 118.506 79.6705 118.688 79.4877 118.825C79.2009 119.005 78.8672 119.095 78.529 119.084C78.1908 119.074 77.8633 118.963 77.5881 118.766C77.2268 118.502 76.9999 118.015 76.9077 117.307C76.817 116.638 76.9069 116.093 77.1776 115.674C77.2931 115.479 77.4511 115.313 77.6399 115.188C77.8286 115.063 78.0432 114.983 78.2674 114.952C78.5523 114.908 78.8439 114.95 79.1044 115.074ZM79.2824 115.783C79.1747 115.681 79.0451 115.605 78.9036 115.561C78.7621 115.517 78.6124 115.506 78.4659 115.529C78.0009 115.592 77.7125 115.857 77.6006 116.322C77.5414 116.635 77.5383 116.956 77.5915 117.271C77.6528 117.724 77.7893 118.055 78.0009 118.262C78.0996 118.364 78.2215 118.44 78.3563 118.484C78.491 118.528 78.6345 118.539 78.7744 118.516C78.9912 118.497 79.1966 118.411 79.3609 118.268C79.5252 118.125 79.6399 117.934 79.6884 117.722C79.7641 117.434 79.7792 117.133 79.7327 116.838C79.6661 116.346 79.5161 115.994 79.2824 115.783Z" fill="#10519D"/>
<path d="M81.9225 114.392L82.5622 116.992C82.5971 117.162 82.6704 117.321 82.7765 117.458C82.9489 117.664 83.1923 117.729 83.5068 117.651C83.7098 117.615 83.8954 117.513 84.0346 117.362C84.1738 117.21 84.259 117.016 84.2769 116.811C84.306 116.496 84.276 116.179 84.1884 115.875L83.7155 113.947L84.3631 113.787L85.3259 117.704L84.7146 117.854L84.5797 117.274C84.5351 117.438 84.46 117.592 84.3585 117.728C84.1562 117.998 83.8635 118.185 83.5341 118.256C82.9844 118.392 82.5644 118.297 82.2741 117.973C82.0938 117.753 81.9703 117.491 81.9146 117.212L81.2603 114.55L81.9225 114.392Z" fill="#10519D"/>
<path d="M85.5688 113.431L86.1654 113.215L86.3593 113.754C86.4369 113.501 86.5698 113.269 86.7483 113.073C86.9179 112.901 87.1251 112.769 87.3539 112.69C87.8831 112.499 88.3091 112.557 88.632 112.865C88.8483 113.102 89.0095 113.384 89.1037 113.691L89.9838 116.124L89.3453 116.351L88.4811 113.96C88.4195 113.766 88.3157 113.587 88.1772 113.437C87.981 113.241 87.7361 113.197 87.4435 113.302C87.3186 113.343 87.2007 113.404 87.0942 113.481C86.9557 113.592 86.8465 113.736 86.776 113.899C86.7055 114.062 86.6757 114.24 86.6893 114.417C86.7212 114.619 86.7748 114.817 86.8492 115.007L87.5682 116.993L86.9411 117.22L85.5688 113.431Z" fill="#10519D"/>
<path d="M91.7835 111.038C91.9645 111.07 92.1396 111.13 92.3029 111.215L92.0761 110.761L92.6295 110.492L94.2308 113.787C94.4576 114.247 94.5676 114.643 94.5608 114.975C94.5517 115.588 94.2013 116.062 93.5095 116.398C93.1728 116.576 92.7904 116.65 92.4118 116.608C92.0647 116.561 91.785 116.358 91.5725 116L92.1827 115.704C92.2691 115.835 92.3933 115.937 92.5388 115.996C92.7406 116.065 92.9871 116.027 93.2782 115.882C93.7386 115.656 93.9586 115.347 93.9416 114.948C93.9318 114.714 93.8021 114.348 93.5526 113.851C93.5312 114.075 93.4531 114.29 93.3258 114.476C93.1089 114.736 92.8199 114.925 92.4953 115.021C92.1708 115.116 91.8252 115.113 91.5022 115.013C91.0773 114.874 90.7084 114.483 90.3954 113.84C90.1005 113.235 90.0162 112.69 90.1425 112.205C90.1915 111.984 90.2898 111.778 90.4301 111.601C90.5703 111.424 90.7489 111.282 90.9522 111.184C91.2081 111.052 91.498 111.001 91.7835 111.038ZM92.1736 111.656C92.0397 111.592 91.8931 111.561 91.745 111.563C91.597 111.565 91.4514 111.602 91.3196 111.669C90.8963 111.875 90.705 112.215 90.7458 112.69C90.7856 113.007 90.8825 113.315 91.0316 113.597C91.2312 114.006 91.464 114.277 91.7302 114.41C91.8557 114.477 91.9954 114.511 92.1373 114.511C92.2792 114.511 92.419 114.477 92.5444 114.41C92.744 114.326 92.9116 114.18 93.0234 113.994C93.1352 113.808 93.1855 113.592 93.167 113.376C93.1484 113.078 93.0689 112.788 92.9334 112.522C92.7149 112.073 92.4616 111.784 92.1736 111.656Z" fill="#10519D"/>
<path d="M95.4783 112.004C95.5807 112.159 95.7245 112.282 95.8933 112.359C96.1504 112.456 96.4558 112.396 96.8096 112.179C97.0063 112.063 97.1684 111.896 97.2792 111.697C97.3295 111.608 97.3538 111.506 97.3492 111.404C97.3446 111.301 97.3113 111.203 97.2531 111.118C97.2131 111.048 97.1544 110.991 97.0838 110.953C97.0131 110.914 96.9331 110.896 96.8527 110.901C96.6528 110.924 96.4561 110.969 96.2664 111.037L95.7436 111.199C95.4907 111.289 95.2251 111.34 94.9566 111.349C94.8028 111.353 94.6505 111.316 94.5158 111.242C94.3811 111.168 94.269 111.058 94.1911 110.925C94.0942 110.78 94.0314 110.614 94.0073 110.441C93.9831 110.267 93.9983 110.091 94.0516 109.924C94.1582 109.582 94.4058 109.29 94.7944 109.05C95.304 108.737 95.7648 108.661 96.1768 108.823C96.4234 108.917 96.6308 109.092 96.7654 109.319L96.2233 109.65C96.1331 109.527 96.0101 109.433 95.8684 109.377C95.6416 109.306 95.3716 109.37 95.0496 109.568C94.8704 109.662 94.7263 109.811 94.639 109.993C94.6095 110.063 94.5975 110.139 94.604 110.214C94.6105 110.289 94.6354 110.362 94.6765 110.425C94.7219 110.5 94.7868 110.56 94.8642 110.6C94.9416 110.64 95.0284 110.658 95.1153 110.652C95.2721 110.647 95.427 110.618 95.5746 110.565L96.0079 110.427C96.4774 110.275 96.8108 110.2 97.0081 110.212C97.3204 110.224 97.5736 110.387 97.7679 110.703C97.8607 110.851 97.9215 111.017 97.9465 111.19C97.9715 111.363 97.9601 111.539 97.9131 111.707C97.8224 112.07 97.543 112.395 97.075 112.682C96.5723 112.993 96.1451 113.096 95.7935 112.993C95.4355 112.886 95.1278 112.654 94.926 112.34L95.4783 112.004Z" fill="#10519D"/>
<path d="M96.6043 106.497C96.5953 106.218 96.771 105.948 97.1317 105.688C97.1646 105.663 97.2009 105.639 97.2383 105.615L97.3687 105.535L97.7305 106.035C97.6715 106.072 97.6284 106.099 97.6035 106.116C97.5785 106.133 97.5536 106.149 97.532 106.165C97.3672 106.283 97.3003 106.397 97.3313 106.505C97.3619 106.618 97.5048 106.845 97.7611 107.2L98.2952 106.812L98.6094 107.245L98.0684 107.637L100.11 110.455L99.5745 110.841L97.5331 108.023L97.0863 108.348L96.7722 107.914L97.2258 107.591L96.8538 107.079C96.7214 106.91 96.6353 106.709 96.6043 106.497Z" fill="#10519D"/>
<path d="M101.621 106.125C101.668 106.082 101.702 106.027 101.721 105.966C101.74 105.905 101.742 105.84 101.727 105.777C101.7 105.693 101.654 105.615 101.593 105.55C101.536 105.471 101.458 105.408 101.368 105.368C101.278 105.328 101.18 105.313 101.082 105.324C100.845 105.373 100.626 105.489 100.451 105.656C100.186 105.883 100.06 106.115 100.073 106.354C100.092 106.522 100.156 106.681 100.257 106.816L99.7879 107.221C99.4749 106.835 99.3713 106.469 99.4771 106.123C99.5918 105.767 99.8069 105.452 100.096 105.216C100.388 104.945 100.749 104.761 101.139 104.684C101.304 104.659 101.473 104.68 101.627 104.744C101.781 104.807 101.916 104.912 102.015 105.046L103.518 106.815C103.554 106.862 103.603 106.897 103.66 106.916C103.709 106.931 103.773 106.908 103.839 106.848C103.864 106.826 103.888 106.803 103.911 106.779C103.936 106.753 103.964 106.722 103.991 106.689L104.315 107.07C104.235 107.205 104.132 107.324 104.009 107.421C103.939 107.49 103.852 107.539 103.756 107.562C103.661 107.586 103.561 107.584 103.467 107.555C103.344 107.509 103.232 107.438 103.138 107.347C103.147 107.6 103.099 107.852 102.997 108.084C102.886 108.355 102.711 108.595 102.486 108.783C102.364 108.895 102.221 108.981 102.065 109.037C101.909 109.093 101.744 109.117 101.579 109.108C101.42 109.099 101.265 109.056 101.124 108.984C100.983 108.911 100.858 108.81 100.759 108.686C100.647 108.57 100.562 108.43 100.509 108.277C100.457 108.124 100.439 107.961 100.457 107.8C100.51 107.47 100.664 107.164 100.898 106.925L101.621 106.125ZM101.74 108.432C101.921 108.427 102.095 108.358 102.231 108.237C102.411 108.084 102.552 107.889 102.642 107.67C102.724 107.5 102.753 107.309 102.725 107.122C102.696 106.936 102.612 106.762 102.482 106.624L102.129 106.208C102.093 106.317 102.041 106.42 101.974 106.513C101.902 106.62 101.822 106.721 101.735 106.816L101.462 107.118C101.329 107.254 101.222 107.414 101.146 107.588C101.107 107.695 101.098 107.811 101.122 107.922C101.145 108.034 101.2 108.136 101.279 108.218C101.333 108.287 101.404 108.343 101.484 108.38C101.564 108.418 101.651 108.435 101.74 108.432Z" fill="#10519D"/>
<path d="M104.281 101.624C104.635 101.577 105.027 101.719 105.458 102.052L105.005 102.518C104.82 102.382 104.6 102.3 104.371 102.283C104.155 102.271 103.939 102.376 103.722 102.599C103.427 102.902 103.368 103.267 103.544 103.695C103.687 104.011 103.893 104.293 104.149 104.526C104.397 104.783 104.711 104.965 105.057 105.054C105.193 105.076 105.333 105.068 105.467 105.032C105.6 104.995 105.724 104.93 105.83 104.841C105.937 104.753 106.023 104.642 106.082 104.517C106.142 104.393 106.175 104.256 106.177 104.118C106.155 103.853 106.06 103.6 105.902 103.387L106.355 102.919C106.689 103.345 106.84 103.75 106.809 104.134C106.77 104.544 106.584 104.926 106.286 105.21C106.127 105.387 105.928 105.524 105.706 105.61C105.484 105.696 105.245 105.728 105.008 105.703C104.49 105.646 104.009 105.409 103.647 105.033C103.137 104.543 102.858 104.038 102.81 103.52C102.782 103.276 102.811 103.028 102.892 102.795C102.974 102.563 103.108 102.352 103.283 102.179C103.542 101.885 103.895 101.689 104.281 101.624Z" fill="#10519D"/>
<path d="M103.87 99.4953L104.285 98.9725L105.903 100.254C105.848 100.059 105.823 99.8558 105.83 99.6529C105.862 99.3711 105.978 99.1053 106.162 98.8897C106.519 98.4361 106.922 98.2573 107.371 98.3533C107.679 98.4377 107.963 98.5904 108.204 98.8001L110.23 100.407L109.804 100.945L107.812 99.366C107.647 99.2161 107.448 99.1073 107.233 99.0485C106.985 99.0054 106.757 99.1154 106.552 99.3762C106.381 99.5949 106.296 99.8689 106.313 100.146C106.324 100.443 106.54 100.758 106.962 101.092L108.633 102.42L108.218 102.943L103.87 99.4953Z" fill="#10519D"/>
<path d="M106.464 96.1555L106.813 95.6077L108.504 96.6885C108.421 96.4719 108.39 96.2389 108.413 96.0081C108.437 95.7802 108.515 95.5613 108.64 95.3696C108.755 95.1749 108.912 95.008 109.099 94.881C109.287 94.7539 109.5 94.6699 109.723 94.6347C110.177 94.5591 110.689 94.7035 111.259 95.0679C111.796 95.4112 112.161 95.8244 112.352 96.3075C112.447 96.5355 112.484 96.7837 112.458 97.0294C112.432 97.2751 112.345 97.5104 112.205 97.7137C112.066 97.9472 111.857 98.1307 111.607 98.2377C111.425 98.3023 111.233 98.3383 111.04 98.3443L111.475 98.6221L111.143 99.1404L106.464 96.1555ZM111.746 96.5093C111.595 96.2016 111.32 95.9196 110.92 95.6633C110.616 95.4519 110.257 95.3336 109.886 95.3231C109.729 95.3207 109.574 95.3605 109.437 95.4383C109.3 95.5161 109.187 95.629 109.109 95.7654C109.028 95.8911 108.974 96.032 108.949 96.1795C108.925 96.327 108.931 96.4778 108.968 96.6227C109.037 96.938 109.292 97.237 109.735 97.5198C109.993 97.6976 110.283 97.8256 110.588 97.8974C110.796 97.9506 111.016 97.9335 111.213 97.8488C111.41 97.7641 111.574 97.6165 111.678 97.4291C111.774 97.296 111.831 97.1392 111.843 96.9759C111.855 96.8127 111.821 96.6492 111.746 96.5037V96.5093Z" fill="#10519D"/>
<path d="M111.322 90.9882C111.536 90.8223 111.791 90.7169 112.06 90.6832C112.314 90.6573 112.572 90.6852 112.815 90.7648C113.099 90.855 113.374 90.9711 113.636 91.1119L112.326 93.7112C112.636 93.8728 112.987 93.938 113.334 93.8983C113.637 93.8506 113.871 93.6616 114.037 93.3312C114.114 93.1949 114.159 93.0433 114.17 92.8874C114.18 92.7316 114.157 92.5752 114.1 92.4297C114.032 92.2624 113.927 92.1128 113.792 91.9919L114.088 91.4067C114.232 91.5085 114.356 91.6362 114.452 91.7832C114.562 91.9333 114.647 92.0998 114.704 92.2766C114.792 92.5538 114.8 92.85 114.728 93.1316C114.686 93.31 114.622 93.4826 114.538 93.6454C114.434 93.8581 114.287 94.0463 114.105 94.1975C113.923 94.3487 113.711 94.4593 113.483 94.522C113.002 94.6641 112.468 94.5885 111.88 94.2952C111.293 94.0018 110.901 93.6106 110.704 93.1214C110.603 92.8849 110.556 92.6284 110.568 92.3712C110.58 92.1141 110.65 91.863 110.774 91.6369C110.902 91.3797 111.09 91.1572 111.322 90.9882ZM112.847 91.4816C112.621 91.3838 112.378 91.3336 112.132 91.3341C111.754 91.3508 111.471 91.55 111.283 91.9318C111.215 92.0603 111.176 92.202 111.168 92.347C111.16 92.492 111.184 92.6371 111.237 92.7721C111.352 93.0671 111.572 93.3094 111.854 93.4526L112.847 91.4816Z" fill="#10519D"/>
<path d="M111.043 88.5797L111.299 87.9548L112.341 88.3812L112.58 87.7949L113.093 88.0047L112.852 88.591L115.288 89.5879C115.337 89.6155 115.393 89.6281 115.449 89.6241C115.505 89.6201 115.559 89.5996 115.604 89.5652C115.666 89.5011 115.712 89.4235 115.74 89.3384C115.752 89.3089 115.765 89.276 115.777 89.242C115.79 89.208 115.804 89.166 115.818 89.1184L116.312 89.3202C116.304 89.4016 116.289 89.482 116.267 89.5607C116.243 89.6471 116.214 89.7319 116.18 89.8147C116.062 90.1028 115.907 90.2676 115.715 90.3092C115.496 90.3477 115.27 90.3184 115.068 90.2252L112.603 89.2159L112.399 89.7126L111.887 89.5028L112.09 89.0061L111.043 88.5797Z" fill="#10519D"/>
<path d="M112.906 86.9188L113.111 86.3189L113.77 86.5457C113.622 86.3967 113.506 86.2192 113.429 86.0241C113.372 85.9075 113.337 85.7806 113.329 85.6508C113.321 85.5209 113.338 85.3906 113.381 85.2676C113.387 85.2474 113.395 85.2277 113.405 85.2087C113.416 85.1814 113.437 85.135 113.468 85.0703L114.148 85.2971C114.13 85.3291 114.113 85.362 114.099 85.3958C114.085 85.4264 114.072 85.4604 114.06 85.4979C114.004 85.6329 113.981 85.7789 113.991 85.9245C114.002 86.0702 114.046 86.2114 114.12 86.3371C114.263 86.5745 114.487 86.7528 114.751 86.8395L116.945 87.5902L116.73 88.2219L112.906 86.9188Z" fill="#10519D"/>
<path d="M112.315 83.8856L112.5 83.2324L113.239 83.4411L113.056 84.0943L112.315 83.8856ZM113.775 84.2985L113.96 83.6452L117.819 84.7373L117.635 85.3906L113.775 84.2985Z" fill="#10519D"/>
<path d="M114.889 80.0427C115.053 79.8266 115.271 79.6586 115.522 79.5562C115.761 79.4659 116.017 79.4272 116.273 79.4428C116.57 79.4558 116.865 79.4964 117.155 79.5642L116.572 82.4084C116.913 82.4838 117.268 82.4558 117.593 82.3279C117.87 82.2031 118.047 81.9578 118.122 81.5919C118.161 81.4403 118.165 81.2822 118.135 81.1289C118.104 80.9755 118.041 80.8308 117.948 80.705C117.839 80.5617 117.698 80.4453 117.537 80.3648L117.67 79.7218C117.837 79.782 117.991 79.8732 118.124 79.9906C118.268 80.1067 118.394 80.2453 118.494 80.4011C118.652 80.6454 118.738 80.9292 118.742 81.2199C118.747 81.4035 118.73 81.5871 118.691 81.7665C118.646 81.9991 118.552 82.2194 118.415 82.4126C118.278 82.6058 118.101 82.7676 117.897 82.887C117.47 83.1501 116.934 83.2151 116.29 83.082C115.646 82.949 115.165 82.6738 114.848 82.2564C114.689 82.0543 114.578 81.8186 114.523 81.5671C114.468 81.3157 114.47 81.055 114.531 80.8048C114.588 80.5258 114.711 80.2645 114.889 80.0427ZM116.489 80.1221C116.246 80.0859 115.998 80.1006 115.761 80.1652C115.405 80.2786 115.184 80.5432 115.098 80.9591C115.066 81.1008 115.065 81.2477 115.095 81.3898C115.125 81.5319 115.186 81.6658 115.272 81.7824C115.46 82.0372 115.735 82.2137 116.045 82.278L116.489 80.1221Z" fill="#10519D"/>
<path d="M113.602 77.9773L113.669 77.332L115.665 77.5372C115.494 77.381 115.361 77.1868 115.278 76.9702C115.197 76.7559 115.168 76.5254 115.194 76.2977C115.21 76.0718 115.275 75.8521 115.385 75.6543C115.495 75.4565 115.648 75.2855 115.832 75.1534C116.206 74.8835 116.728 74.7826 117.398 74.8506C118.031 74.9156 118.543 75.1209 118.932 75.4664C119.12 75.6273 119.264 75.8327 119.351 76.0637C119.438 76.2948 119.466 76.5441 119.432 76.7888C119.414 77.0597 119.309 77.3176 119.133 77.5248C118.999 77.6655 118.844 77.7841 118.674 77.8763L119.186 77.9296L119.124 78.542L113.602 77.9773ZM118.479 75.9201C118.208 75.7114 117.835 75.5829 117.359 75.5345C116.993 75.4827 116.619 75.5383 116.283 75.6944C116.141 75.7631 116.021 75.8684 115.933 75.9994C115.846 76.1304 115.795 76.2823 115.786 76.4395C115.771 76.5881 115.786 76.7383 115.83 76.8808C115.875 77.0234 115.948 77.1553 116.046 77.2685C116.25 77.5202 116.613 77.6714 117.135 77.7221C117.446 77.7644 117.762 77.7486 118.067 77.6756C118.276 77.6296 118.465 77.5157 118.603 77.3516C118.741 77.1876 118.821 76.9825 118.83 76.7683C118.855 76.6085 118.835 76.445 118.774 76.2955C118.712 76.1459 118.611 76.0161 118.481 75.9201H118.479Z" fill="#10519D"/>
<g opacity="0.8">
<path d="M53.108 130.694L52.7485 130.548L54.0595 127.342L54.419 127.488L54.2364 127.935C54.4281 127.842 54.6308 127.774 54.8398 127.732C55.0475 127.698 55.2607 127.725 55.4533 127.81C55.6366 127.883 55.8035 127.992 55.9443 128.13C56.0847 128.274 56.1781 128.457 56.212 128.655C56.2409 128.791 56.237 128.932 56.2006 129.066C56.1635 129.198 56.1188 129.328 56.0668 129.456L55.2083 131.555L54.8488 131.409L55.7051 129.315C55.8185 129.026 55.8491 128.784 55.7856 128.589C55.7221 128.394 55.544 128.238 55.2571 128.12C55.1535 128.076 55.0428 128.052 54.9305 128.048C54.8275 128.046 54.7247 128.058 54.6254 128.086C54.53 128.113 54.4391 128.154 54.3555 128.207C54.2755 128.259 54.203 128.321 54.14 128.393C54.0664 128.475 54.0032 128.566 53.9518 128.664C53.9053 128.756 53.8599 128.857 53.8134 128.969L53.108 130.694Z" fill="#10519D"/>
<path d="M58.1489 130.439C58.2214 130.454 58.3076 130.469 58.4097 130.484C58.4954 130.499 58.5828 130.503 58.6694 130.494C58.7039 130.49 58.7368 130.477 58.7653 130.457C58.7938 130.438 58.817 130.411 58.8327 130.38C58.8678 130.321 58.8966 130.259 58.9189 130.194C58.9518 130.107 58.967 130.015 58.9635 129.922C58.96 129.829 58.9379 129.738 58.8985 129.654C58.8202 129.49 58.6376 129.358 58.3519 129.263C58.235 129.222 58.1141 129.195 57.9912 129.18C57.8839 129.167 57.775 129.176 57.6714 129.207C57.5693 129.24 57.4762 129.295 57.3992 129.37C57.3035 129.462 57.2265 129.572 57.1724 129.694L56.7993 129.569C56.8638 129.399 56.9644 129.244 57.0942 129.116C57.2073 129.007 57.3433 128.925 57.4922 128.875C57.6434 128.827 57.8024 128.808 57.9606 128.82C58.1337 128.833 58.3045 128.868 58.4687 128.924C58.6205 128.974 58.7657 129.043 58.9007 129.128C59.0225 129.205 59.1281 129.305 59.2115 129.423C59.2904 129.542 59.3384 129.678 59.351 129.82C59.3627 129.994 59.338 130.168 59.2784 130.331L58.6773 132.12C58.6286 132.268 58.6218 132.37 58.6592 132.428C58.6966 132.486 58.8032 132.511 58.979 132.503L58.8792 132.801H58.7397C58.6819 132.8 58.6246 132.79 58.5696 132.772C58.5136 132.753 58.4599 132.728 58.4097 132.697C58.3575 132.672 58.3137 132.633 58.2838 132.584C58.2573 132.54 58.24 132.491 58.2328 132.44C58.2237 132.386 58.2237 132.331 58.2328 132.277C58.2436 132.219 58.2596 132.161 58.2804 132.105C58.0752 132.227 57.8469 132.304 57.6102 132.332C57.3751 132.357 57.1374 132.33 56.9139 132.252C56.7778 132.208 56.6491 132.143 56.5317 132.061C56.4192 131.984 56.3235 131.885 56.2504 131.769C56.1796 131.656 56.134 131.529 56.1166 131.396C56.1002 131.246 56.1189 131.094 56.171 130.952C56.3578 130.394 56.8382 130.188 57.6124 130.335L58.1489 130.439ZM58.7046 130.837C58.5319 130.853 58.3578 130.845 58.1874 130.812C58.0207 130.779 57.8563 130.743 57.6918 130.699C57.4567 130.626 57.2065 130.618 56.9672 130.675C56.8274 130.728 56.7092 130.826 56.6306 130.954C56.5521 131.081 56.5177 131.23 56.5328 131.379C56.5459 131.464 56.5773 131.544 56.6247 131.615C56.6739 131.687 56.7367 131.749 56.8095 131.797C56.8845 131.848 56.9662 131.888 57.0522 131.917C57.197 131.966 57.3476 131.995 57.5002 132.003C57.6449 132.013 57.7902 131.996 57.9288 131.953C58.0637 131.912 58.1872 131.84 58.2895 131.743C58.4023 131.634 58.4858 131.498 58.5322 131.347L58.7046 130.837Z" fill="#10519D"/>
<path d="M62.3234 131.28C62.3321 131.039 62.2664 130.801 62.1352 130.599C61.9993 130.408 61.7971 130.275 61.5681 130.225C61.3968 130.174 61.2148 130.171 61.0419 130.217C60.884 130.262 60.7388 130.343 60.6178 130.454C60.4912 130.572 60.3847 130.709 60.3025 130.861C60.2168 131.019 60.1502 131.186 60.1041 131.359C60.058 131.533 60.0317 131.712 60.0258 131.892C60.0203 132.063 60.044 132.233 60.0961 132.395C60.1471 132.55 60.2338 132.69 60.349 132.805C60.4798 132.929 60.6415 133.017 60.8174 133.058C61.0609 133.135 61.3249 133.113 61.5523 132.997C61.7772 132.866 61.952 132.663 62.049 132.422L62.4493 132.528C62.3725 132.696 62.2737 132.852 62.1556 132.993C62.0475 133.122 61.9169 133.231 61.77 133.313C61.6224 133.394 61.46 133.444 61.2926 133.46C60.8605 133.491 60.4326 133.36 60.0916 133.093C59.9328 132.96 59.8083 132.79 59.7287 132.598C59.6473 132.398 59.6065 132.184 59.6085 131.968C59.6081 131.727 59.6401 131.486 59.7037 131.253C59.763 131.026 59.8555 130.809 59.9782 130.609C60.0927 130.421 60.2398 130.255 60.4125 130.118C60.5798 129.989 60.7733 129.898 60.9796 129.851C61.205 129.803 61.4387 129.812 61.66 129.876C61.9904 129.947 62.2858 130.13 62.4958 130.395C62.6773 130.641 62.7453 130.969 62.6999 131.377L62.3234 131.28Z" fill="#10519D"/>
<path d="M62.8611 133.85L63.791 129.123L64.1721 129.198L63.8182 130.997C63.988 130.868 64.1737 130.763 64.3705 130.682C64.5679 130.608 64.7829 130.593 64.9886 130.64C65.1825 130.676 65.3672 130.751 65.5318 130.859C65.697 130.974 65.8235 131.135 65.8947 131.323C65.9495 131.451 65.9732 131.59 65.9639 131.729C65.9523 131.866 65.933 132.003 65.9061 132.137L65.4683 134.362L65.0884 134.288L65.525 132.068C65.5847 131.766 65.5643 131.523 65.4638 131.34C65.3628 131.162 65.1598 131.042 64.8548 130.982C64.7428 130.959 64.6274 130.956 64.5146 130.975C64.3674 130.999 64.2275 131.056 64.1049 131.141C63.9823 131.226 63.8801 131.337 63.8058 131.466C63.7492 131.56 63.705 131.661 63.6742 131.767C63.6459 131.866 63.6198 131.974 63.596 132.093L63.2365 133.925L62.8611 133.85Z" fill="#10519D"/>
<path d="M68.6142 133.558C68.4402 133.426 68.2915 133.263 68.1753 133.078C68.0734 132.9 68.0335 132.692 68.0619 132.489C68.0781 132.275 68.1693 132.074 68.3194 131.922C68.4656 131.773 68.6458 131.661 68.8444 131.597C68.7621 131.482 68.6918 131.358 68.6346 131.228C68.5796 131.091 68.5605 130.943 68.5791 130.798C68.5924 130.671 68.631 130.548 68.6925 130.436C68.7541 130.322 68.8406 130.224 68.9454 130.148C69.0613 130.065 69.1928 130.006 69.3321 129.974C69.4995 129.937 69.672 129.928 69.8424 129.947C70.2015 129.982 70.4662 130.116 70.6363 130.349C70.8146 130.613 70.8852 130.935 70.8336 131.249L70.4854 131.214C70.5172 130.989 70.4686 130.761 70.3482 130.569C70.2371 130.418 70.0443 130.329 69.7698 130.303C69.5865 130.279 69.4002 130.316 69.2402 130.409C69.1633 130.461 69.1 130.531 69.0558 130.613C69.0116 130.694 68.9877 130.785 68.9862 130.878C68.9708 131.03 69.0152 131.182 69.1098 131.301C69.2189 131.444 69.3449 131.572 69.4852 131.684C69.6364 131.81 69.8016 131.934 69.9808 132.055C70.1534 132.175 70.3185 132.304 70.4752 132.443C70.62 132.571 70.7443 132.721 70.8438 132.887C70.9379 133.045 70.9777 133.229 70.9572 133.412C70.9483 133.53 70.9171 133.645 70.8653 133.752C70.8177 133.846 70.7565 133.933 70.6839 134.01C70.6103 134.087 70.5272 134.154 70.4367 134.21C70.3448 134.269 70.2484 134.324 70.1475 134.384C70.1668 134.408 70.1951 134.444 70.2348 134.489C70.2777 134.541 70.3156 134.596 70.3482 134.655C70.386 134.727 70.4145 134.803 70.4333 134.882C70.4555 134.971 70.4616 135.063 70.4514 135.155C70.4397 135.309 70.394 135.458 70.3176 135.593C70.2489 135.711 70.1547 135.813 70.042 135.891C69.9272 135.969 69.7981 136.024 69.6621 136.052C69.5162 136.084 69.366 136.092 69.2175 136.076C69.0587 136.069 68.9029 136.029 68.7605 135.958C68.6181 135.888 68.4921 135.788 68.3908 135.665C68.1969 135.4 68.1076 135.073 68.1402 134.747L68.5258 134.784C68.4882 135.012 68.5389 135.246 68.6675 135.437C68.7404 135.523 68.8307 135.592 68.9324 135.64C69.0341 135.688 69.1448 135.714 69.2572 135.716C69.347 135.725 69.4376 135.721 69.526 135.703C69.6116 135.686 69.6931 135.653 69.7664 135.605C69.839 135.559 69.9008 135.497 69.9479 135.425C69.9977 135.345 70.0276 135.255 70.0352 135.162C70.0464 135.061 70.0331 134.959 69.9966 134.865C69.959 134.772 69.9082 134.686 69.8458 134.608C69.7825 134.526 69.7115 134.45 69.6337 134.381C69.5581 134.313 69.4825 134.249 69.4069 134.188L68.6142 133.558ZM69.044 131.832C68.8831 131.881 68.7338 131.963 68.6051 132.071C68.4907 132.174 68.4207 132.316 68.4101 132.469C68.4016 132.55 68.4112 132.631 68.4384 132.708C68.4663 132.782 68.5045 132.852 68.5518 132.916C68.5977 132.983 68.6501 133.044 68.7083 133.1C68.7684 133.158 68.8274 133.213 68.8875 133.262L69.9581 134.141C70.0307 134.108 70.1033 134.07 70.177 134.028C70.2497 133.986 70.3178 133.936 70.38 133.88C70.4388 133.825 70.4889 133.762 70.5285 133.692C70.5691 133.616 70.5938 133.533 70.6011 133.447C70.6102 133.363 70.5997 133.278 70.5705 133.199C70.5411 133.122 70.4998 133.05 70.448 132.985C70.3958 132.919 70.3377 132.858 70.2745 132.803C70.211 132.747 70.1486 132.696 70.0885 132.65L69.044 131.832Z" fill="#10519D"/>
<path d="M73.3637 133.899C73.3743 134.038 73.4127 134.173 73.4766 134.296C73.5405 134.42 73.6286 134.529 73.7357 134.618C73.9523 134.781 74.2179 134.865 74.4887 134.856C74.6449 134.858 74.7997 134.826 74.9423 134.762C75.0728 134.702 75.1889 134.615 75.2826 134.506C75.3788 134.394 75.4524 134.264 75.4992 134.124C75.5503 133.972 75.5756 133.812 75.574 133.652C75.5754 133.488 75.5482 133.325 75.4935 133.17C75.443 133.029 75.366 132.9 75.2667 132.789C75.1683 132.681 75.047 132.596 74.9117 132.542C74.7629 132.482 74.6037 132.452 74.4433 132.454C74.2516 132.45 74.0613 132.489 73.8865 132.568C73.7139 132.654 73.5652 132.781 73.4533 132.938L73.1131 132.892L73.4828 130.449H75.7453V130.811H73.8378L73.552 132.399C73.6427 132.341 73.7255 132.292 73.8015 132.251C73.8741 132.213 73.95 132.18 74.0283 132.155C74.1073 132.13 74.1886 132.114 74.271 132.106C74.3644 132.097 74.4583 132.092 74.5522 132.092C74.7491 132.091 74.9444 132.127 75.1272 132.2C75.2983 132.27 75.4529 132.374 75.5808 132.508C75.7141 132.649 75.8165 132.817 75.8813 133C75.9553 133.209 75.9913 133.431 75.988 133.653C75.9916 133.88 75.9508 134.106 75.8677 134.318C75.795 134.501 75.6862 134.669 75.5479 134.81C75.4166 134.942 75.259 135.046 75.0852 135.114C74.9136 135.183 74.7303 135.218 74.5454 135.217C74.342 135.219 74.1391 135.196 73.941 135.15C73.7622 135.109 73.5938 135.032 73.4465 134.923C73.3033 134.815 73.1869 134.675 73.1063 134.515C73.0108 134.322 72.9567 134.112 72.9475 133.897L73.3637 133.899Z" fill="#10519D"/>
<path d="M78.866 131.384C78.8163 131.17 78.7042 130.975 78.544 130.825C78.4621 130.756 78.3671 130.705 78.2647 130.674C78.1623 130.643 78.0547 130.634 77.9486 130.647C77.7094 130.65 77.4794 130.739 77.301 130.898C77.1444 131.051 77.0276 131.239 76.9608 131.447C76.8867 131.675 76.8436 131.911 76.8327 132.149C76.819 132.401 76.8111 132.638 76.8088 132.863C76.8678 132.769 76.9291 132.676 76.9948 132.581C77.0593 132.488 77.1355 132.403 77.2216 132.329C77.3127 132.25 77.4157 132.186 77.5267 132.14C77.6631 132.086 77.8076 132.054 77.9542 132.047C78.4147 132.017 78.7799 132.128 79.0498 132.38C79.3197 132.631 79.4709 132.993 79.5034 133.466C79.5351 133.942 79.4335 134.325 79.1983 134.614C78.9632 134.902 78.6131 135.062 78.1482 135.093C77.9318 135.11 77.7143 135.084 77.5074 135.019C77.3035 134.95 77.1213 134.829 76.9789 134.668C76.8081 134.471 76.6782 134.241 76.5968 133.993C76.4851 133.656 76.4202 133.305 76.404 132.95C76.385 132.658 76.3892 132.365 76.4164 132.073C76.4404 131.784 76.5077 131.501 76.616 131.232C76.7162 130.982 76.8744 130.76 77.0776 130.584C77.3065 130.4 77.59 130.296 77.8839 130.289C78.2088 130.254 78.5357 130.334 78.8071 130.516C78.9391 130.616 79.0498 130.741 79.1328 130.884C79.2158 131.027 79.2693 131.185 79.2902 131.349L78.866 131.384ZM77.969 132.405C77.8205 132.412 77.6757 132.454 77.546 132.527C77.4254 132.595 77.3212 132.689 77.2409 132.803C77.1585 132.918 77.0981 133.048 77.0629 133.186C77.0241 133.334 77.0104 133.487 77.022 133.64C77.0317 133.776 77.0592 133.911 77.1037 134.04C77.1485 134.171 77.2182 134.293 77.309 134.398C77.4032 134.505 77.5192 134.591 77.6492 134.65C77.8014 134.716 77.9683 134.742 78.1334 134.725C78.3021 134.72 78.4669 134.673 78.6131 134.589C78.7355 134.516 78.8388 134.414 78.9148 134.294C78.9893 134.174 79.0408 134.041 79.0668 133.901C79.0941 133.761 79.1028 133.617 79.0929 133.474C79.069 133.109 78.9647 132.833 78.7821 132.646C78.5995 132.459 78.3262 132.385 77.969 132.409V132.405Z" fill="#10519D"/>
<path d="M82.0518 134.611L81.2183 129.866L81.6515 129.79L82.0836 132.248L84.0013 129.383L84.4912 129.297L83.0169 131.506L85.6457 133.985L85.1172 134.078L82.7538 131.837L82.1652 132.708L82.4873 134.541L82.0518 134.611Z" fill="#10519D"/>
<path d="M85.8623 133.932L86.4055 128.808L86.8875 128.682L89.8361 132.886L89.3983 132.999L88.4911 131.673L86.4463 132.218L86.3001 133.819L85.8623 133.932ZM86.4917 131.801L88.2552 131.338L86.7299 129.124L86.4917 131.801Z" fill="#10519D"/>
<path d="M89.4528 128.579H89.4403L90.8602 132.534L90.4462 132.682L88.8188 128.146L89.2872 127.977L93.2406 131.03H93.2531L91.8309 127.068L92.2449 126.92L93.8723 131.456L93.3914 131.629L89.4528 128.579Z" fill="#10519D"/>
<path d="M95.7798 128.305L95.6154 127.955L97.4174 127.108L98.4755 129.36L98.1353 129.52L97.7848 128.775C97.7728 128.936 97.7436 129.095 97.6975 129.249C97.652 129.401 97.5836 129.545 97.4945 129.677C97.3965 129.819 97.278 129.946 97.143 130.053C96.9804 130.181 96.8034 130.289 96.6156 130.375C96.3635 130.497 96.089 130.565 95.8093 130.576C95.5378 130.585 95.2678 130.531 95.0211 130.417C94.7455 130.287 94.4993 130.102 94.2976 129.874C94.0453 129.589 93.8376 129.268 93.6818 128.921C93.5379 128.621 93.436 128.302 93.379 127.973C93.3273 127.678 93.3346 127.375 93.4005 127.083C93.4682 126.802 93.5988 126.54 93.7827 126.316C93.996 126.066 94.2632 125.867 94.5641 125.735C94.7738 125.634 94.9969 125.564 95.2264 125.527C95.4394 125.492 95.6568 125.497 95.8683 125.539C96.0796 125.583 96.2805 125.667 96.4602 125.787C96.6595 125.922 96.8334 126.092 96.974 126.288L96.5646 126.481C96.4593 126.341 96.3294 126.221 96.1813 126.128C96.0419 126.041 95.8884 125.979 95.7276 125.945C95.5674 125.914 95.403 125.909 95.2411 125.931C95.0737 125.952 94.9107 126 94.758 126.073C94.5085 126.182 94.2883 126.349 94.115 126.559C93.9651 126.751 93.8654 126.977 93.8247 127.217C93.7823 127.481 93.7912 127.75 93.8508 128.011C93.9183 128.317 94.021 128.615 94.157 128.897C94.2655 129.132 94.4093 129.349 94.5834 129.54C94.744 129.719 94.9362 129.866 95.1504 129.975C95.357 130.079 95.5838 130.137 95.815 130.144C96.0624 130.149 96.3074 130.094 96.5294 129.985C96.6474 129.929 96.7592 129.861 96.8628 129.781C96.9725 129.697 97.0698 129.597 97.152 129.486C97.2388 129.368 97.3079 129.238 97.3573 129.1C97.4115 128.948 97.4398 128.787 97.4412 128.625C97.4436 128.458 97.4219 128.292 97.3766 128.131C97.3288 127.962 97.2693 127.798 97.1985 127.638L95.7798 128.305Z" fill="#10519D"/>
</g>
<path d="M72.7967 139.59C109.688 139.59 139.593 109.684 139.593 72.7928C139.593 35.902 109.688 5.99609 72.7967 5.99609C35.9059 5.99609 6 35.902 6 72.7928C6 109.684 35.9059 139.59 72.7967 139.59Z" stroke="white" stroke-miterlimit="10"/>
<path d="M145 67.7361C145 30.8766 112.765 0.996094 73 0.996094C33.2355 0.996094 1 30.8766 1 67.7361V170.256C1 207.116 33.2355 236.996 73 236.996C112.765 236.996 145 207.116 145 170.256V67.7361Z" stroke="white" stroke-miterlimit="10"/>
</svg>
