<svg width="176" height="40" viewBox="0 0 176 40" fill="none" xmlns="http://www.w3.org/2000/svg">
<g clip-path="url(#clip0_631_3)">
<path d="M173.445 9.67555C165.412 9.67555 157.382 9.67555 149.351 9.65757C148.662 9.65757 148.361 9.88114 148.106 10.5082C145.247 17.5599 142.342 24.5962 139.493 31.6531C139.162 32.4754 138.789 32.7864 137.865 32.7864C103.574 32.8001 69.2839 32.8344 34.996 32.8892C28.0504 32.8892 21.1023 32.8892 14.0316 32.8892C14.1873 32.4883 14.2869 32.1927 14.4145 31.9023C18.6569 21.5432 23.1699 10.3823 27.4327 0.0359782L16.1605 0C16.1605 0 5.46772 26.2563 0.255358 38.9798C-0.153055 39.9769 -0.150502 39.9794 0.888398 39.9794C48.6931 39.9794 96.4986 39.9863 144.305 40C145.107 40 145.459 39.743 145.747 39.0132C148.285 32.6373 150.858 26.2512 153.425 19.8702C153.596 19.4436 153.714 19.0993 154.321 19.0993C157.54 19.1352 160.759 19.125 163.978 19.0993C164.511 19.0993 164.664 19.2072 164.417 19.7494C164.042 20.5795 163.735 21.443 163.319 22.4915C165.938 22.4915 168.389 22.4915 170.839 22.4915C171.301 22.4915 171.434 22.2345 171.572 21.8927C172.848 18.7857 174.137 15.6865 175.401 12.5718C176.046 10.9682 175.168 9.67812 173.445 9.67555ZM63.1075 38.7151C62.9554 38.8684 62.7747 38.99 62.5759 39.0729C62.377 39.1558 62.1639 39.1984 61.9486 39.1982H56.8307C56.3961 39.1982 55.9793 39.0244 55.6719 38.715C55.3646 38.4056 55.192 37.9859 55.192 37.5483H57.2723C57.2723 37.6847 57.3261 37.8154 57.4218 37.9118C57.5176 38.0082 57.6474 38.0623 57.7828 38.0623H61.0323C61.1432 38.0577 61.2495 38.0168 61.3353 37.9458C61.421 37.8748 61.4814 37.7777 61.5074 37.669C61.5334 37.5604 61.5235 37.4462 61.4792 37.3437C61.4349 37.2413 61.3587 37.1561 61.262 37.1012H56.6163C56.4748 37.1022 56.3339 37.0832 56.1977 37.0447C55.9245 36.9738 55.6745 36.832 55.4728 36.6335C55.2409 36.4042 55.082 36.1107 55.0163 35.7904C54.9505 35.47 54.9808 35.1371 55.1034 34.8342C55.226 34.5312 55.4352 34.2717 55.7046 34.0887C55.974 33.9058 56.2914 33.8076 56.6163 33.8066H61.7215C62.1467 33.8064 62.5553 33.9729 62.8608 34.2708C63.1662 34.5687 63.3444 34.9746 63.3577 35.4025H61.2748C61.2748 35.2662 61.221 35.1355 61.1252 35.0391C61.0295 34.9427 60.8996 34.8885 60.7642 34.8885H57.525C57.3896 34.8885 57.2598 34.9427 57.164 35.0391C57.0683 35.1355 57.0145 35.2662 57.0145 35.4025C57.0145 35.5388 57.0683 35.6695 57.164 35.7659C57.2598 35.8623 57.3896 35.9165 57.525 35.9165H61.9486C62.2749 35.9144 62.5944 36.0104 62.8661 36.1921C63.1378 36.3739 63.3495 36.6332 63.474 36.9369C63.5984 37.2405 63.6301 37.5746 63.5648 37.8964C63.4995 38.2183 63.3403 38.5132 63.1075 38.7433V38.7151ZM79.2679 37.1731V39.1853H77.3739V37.1731L73.3382 33.7886H76.067L78.2315 36.0321H78.4128L80.6412 33.7886H83.1299L79.2679 37.1731ZM98.5807 39.1853L95.7907 37.1295H94.5885V39.1853H92.4851V33.7886H94.5885V35.8008H95.7907L98.2744 33.7886H101.207L97.4474 36.3585V36.5872L101.654 39.1853H98.5807ZM119.014 34.9502H113.358V35.9473H118.547V37.0832H113.358V38.0803H118.889V39.2136H111.374V33.8169H119.014V34.9502Z" fill="white" fill-opacity="0.4"/>
<path d="M64.4322 29.9875C61.3411 29.9875 58.2499 29.9695 55.1587 29.9875C54.4491 29.9875 54.3776 29.8307 54.6482 29.196C58.5298 19.7405 62.3978 10.274 66.2522 0.796336C66.4615 0.282363 66.704 0.061354 67.2911 0.0664938C70.6946 0.107612 74.1039 0.118748 77.5193 0.099902C78.1625 0.099902 78.2851 0.223256 78.0298 0.840024C76.9245 3.46129 75.8601 6.10054 74.7804 8.73466C74.303 9.89881 74.303 9.89881 75.5079 9.89881C78.6603 9.89881 81.8153 9.92194 84.9703 9.88339C85.7207 9.88339 85.8101 10.0453 85.5318 10.7212C83.477 15.717 81.463 20.7437 79.4057 25.7318C78.1983 28.6794 76.0516 30.0517 72.8455 29.9875H64.422H64.4322ZM76.5774 15.0308C75.1684 15.0308 73.8972 15.0308 72.6235 15.0308C72.4983 15.0122 72.3705 15.0378 72.2621 15.1034C72.1536 15.1691 72.0711 15.2706 72.0287 15.3906C71.2629 17.3103 70.4742 19.2274 69.6574 21.2371C70.7984 21.2371 71.8424 21.3039 72.8736 21.2139C73.244 21.1839 73.5993 21.0527 73.9011 20.8344C74.2029 20.6161 74.4399 20.3191 74.5864 19.9753C75.2628 18.3897 75.8729 16.7783 76.5774 15.0308Z" fill="white" fill-opacity="0.4"/>
<path d="M81.5269 29.9775L86.6933 17.3363C88.9293 11.8625 91.1637 6.387 93.3963 0.909751C93.5827 0.449744 93.7231 0.0822533 94.3689 0.0899629C97.9425 0.13622 101.516 0.131081 105.074 0.1465C105.196 0.163409 105.317 0.190923 105.434 0.228736L102.718 6.87955C102.404 7.65052 102.126 8.4369 101.766 9.19244C101.455 9.8349 101.672 9.94798 102.277 9.94284C105.496 9.92485 108.714 9.94284 111.931 9.94284C113 9.94284 113 9.94284 112.597 10.9399C110.621 15.797 108.645 20.6532 106.67 25.5085C105.342 28.762 103.379 30.0418 99.9054 30.0315C94.0115 30.0135 88.1176 30.0315 82.2211 30.0315C82.0399 30.0084 81.8536 29.993 81.5269 29.9775ZM103.785 15.0312C102.374 15.0312 101.082 15.0312 99.788 15.0312C99.6645 15.0199 99.5409 15.0526 99.4388 15.1235C99.3367 15.1944 99.2625 15.299 99.229 15.4192C98.5092 17.1924 97.7791 18.9631 97.0542 20.7337C96.9189 21.0652 96.9419 21.2837 97.386 21.276C98.2437 21.2554 99.1039 21.3042 99.9565 21.2348C100.33 21.2228 100.693 21.1094 101.007 20.9068C101.322 20.7041 101.576 20.4197 101.743 20.0835C102.461 18.4671 103.076 16.7967 103.785 15.0312Z" fill="white" fill-opacity="0.4"/>
<path d="M122.064 22.7019H138.74C139.823 22.7019 139.823 22.7019 139.414 23.7118C138.766 25.3129 138.105 26.9087 137.472 28.5149C137.056 29.5686 136.328 30.0363 135.19 30.0337C127.351 30.0157 119.509 30.0337 111.67 30.0337C109.988 30.0337 109.179 28.8567 109.83 27.2634C112.127 21.6379 114.453 16.0254 116.752 10.4025C116.802 10.2216 116.916 10.0652 117.072 9.96254C117.228 9.85988 117.415 9.81802 117.6 9.84482C125.92 9.8551 134.238 9.8551 142.556 9.84482C142.822 9.84879 143.083 9.9175 143.316 10.0451C143.55 10.1726 143.749 10.3552 143.897 10.5773C144.045 10.7993 144.137 11.0542 144.166 11.32C144.195 11.5858 144.159 11.8548 144.062 12.1037C143.205 14.4783 142.209 16.8015 141.29 19.1529C141.081 19.6874 140.66 19.4947 140.32 19.4947C134.996 19.4947 129.674 19.4947 124.351 19.4536C123.642 19.4536 123.249 19.6155 123.027 20.3247C122.779 21.1034 122.414 21.8435 122.064 22.7019ZM129.061 17.2178V17.2486H130.49H131.92C133.786 17.2486 133.763 17.2486 134.472 15.5448C134.728 14.91 134.728 14.6864 133.931 14.7019C131.677 14.743 129.423 14.7019 127.167 14.7019C125.204 14.7019 125.224 14.7019 124.528 16.5702C124.321 17.1201 124.446 17.2281 124.974 17.2203C126.33 17.1946 127.695 17.2178 129.061 17.2178Z" fill="white" fill-opacity="0.4"/>
<path d="M58.0788 9.87305C57.6934 10.8367 57.3564 11.6925 57.0093 12.5431C55.1221 17.1689 53.2332 21.7861 51.3425 26.3947C50.4517 28.5688 48.2794 30.0825 45.9821 30.008C40.8208 29.8435 35.6595 29.9823 30.4982 29.9334C28.9666 29.9334 27.4351 29.9334 25.9035 29.9334C23.8334 29.9334 22.5852 28.1628 23.3714 26.2123C25.4977 20.9338 27.8231 15.2878 29.9672 10.0221L40.6038 10.13C39.3276 13.1625 37.8904 16.8117 36.6397 19.8467C36.1292 21.0905 36.267 21.2987 37.602 21.3013C38.8783 21.3013 40.1546 21.3013 41.4309 21.3013C42.7991 21.3192 43.3785 20.9595 43.9094 19.6668C45.1372 16.6806 46.5845 13.0905 47.774 10.0863L58.0788 9.87305Z" fill="white" fill-opacity="0.4"/>
<path d="M31.9711 4.85705L33.8702 0.195312H44.4864L42.7098 4.85705H31.9711Z" fill="white" fill-opacity="0.4"/>
<path d="M49.8213 4.85705L51.6489 0.195312H61.8746L60.1643 4.85705H49.8213Z" fill="white" fill-opacity="0.4"/>
</g>
<defs>
<clipPath id="clip0_631_3">
<rect width="175.61" height="40" fill="white"/>
</clipPath>
</defs>
</svg>
