<svg width="341" height="75" viewBox="0 0 341 75" fill="none" xmlns="http://www.w3.org/2000/svg">
<path d="M335.805 18.5171C320.253 18.5171 304.705 18.5171 289.157 18.4836C287.823 18.4836 287.24 18.9 286.745 20.0678C281.21 33.2011 275.586 46.3057 270.071 59.4486C269.428 60.9802 268.707 61.5593 266.918 61.5593C200.526 61.5849 134.137 61.6487 67.7521 61.7508C54.3047 61.7508 40.8523 61.7508 27.1628 61.7508C27.4642 61.0041 27.657 60.4537 27.9041 59.9129C36.1178 40.6197 44.8554 19.8333 53.1087 0.564077L31.2845 0.49707C31.2845 0.49707 10.5821 49.3976 0.490384 73.0941C-0.300349 74.9511 -0.295407 74.9559 1.71602 74.9559C94.2712 74.9559 186.828 74.9687 279.387 74.9942C280.938 74.9942 281.62 74.5156 282.179 73.1563C287.091 61.2817 292.073 49.388 297.045 37.5039C297.376 36.7094 297.603 36.0681 298.779 36.0681C305.011 36.1351 311.243 36.1159 317.475 36.0681C318.508 36.0681 318.805 36.2691 318.325 37.279C317.599 38.8249 317.006 40.4331 316.2 42.3858C321.271 42.3858 326.015 42.3858 330.759 42.3858C331.654 42.3858 331.911 41.9072 332.178 41.2707C334.649 35.4841 337.145 29.712 339.591 23.9111C340.841 20.9245 339.141 18.5219 335.805 18.5171ZM122.179 72.6011C121.885 72.8866 121.535 73.1131 121.15 73.2675C120.765 73.4219 120.352 73.5012 119.935 73.5009H110.027C109.185 73.5009 108.378 73.1772 107.783 72.6009C107.188 72.0247 106.854 71.2431 106.854 70.4282H110.882C110.882 70.682 110.986 70.9255 111.171 71.105C111.356 71.2845 111.608 71.3854 111.87 71.3854H118.161C118.376 71.3767 118.582 71.3006 118.748 71.1684C118.914 71.0362 119.031 70.8553 119.081 70.6529C119.131 70.4506 119.112 70.2379 119.027 70.0471C118.941 69.8562 118.793 69.6976 118.606 69.5954H109.611C109.338 69.5973 109.065 69.5619 108.801 69.4901C108.272 69.358 107.788 69.094 107.397 68.7243C106.949 68.2973 106.641 67.7507 106.514 67.154C106.386 66.5573 106.445 65.9375 106.682 65.3732C106.92 64.8089 107.325 64.3256 107.846 63.9849C108.368 63.6441 108.982 63.4612 109.611 63.4595H119.496C120.319 63.4591 121.11 63.7691 121.701 64.3239C122.293 64.8787 122.638 65.6347 122.663 66.4317H118.631C118.631 66.1778 118.527 65.9343 118.341 65.7548C118.156 65.5753 117.904 65.4744 117.642 65.4744H111.371C111.109 65.4744 110.857 65.5753 110.672 65.7548C110.487 65.9343 110.382 66.1778 110.382 66.4317C110.382 66.6856 110.487 66.929 110.672 67.1085C110.857 67.2881 111.109 67.3889 111.371 67.3889H119.935C120.567 67.385 121.186 67.5638 121.712 67.9023C122.238 68.2409 122.648 68.7238 122.889 69.2893C123.13 69.8548 123.191 70.4771 123.064 71.0765C122.938 71.6758 122.63 72.225 122.179 72.6537V72.6011ZM153.467 69.7294V73.477H149.8V69.7294L141.987 63.4259H147.27L151.461 67.6043H151.812L156.126 63.4259H160.945L153.467 69.7294ZM190.859 73.477L185.457 69.648H183.13V73.477H179.057V63.4259H183.13V67.1735H185.457L190.266 63.4259H195.945L188.665 68.2121V68.6381L196.809 73.477H190.859ZM230.42 65.5893H219.469V67.4464H229.516V69.5619H219.469V71.4189H230.178V73.5296H215.629V63.4786H230.42V65.5893Z" fill="white"/>
<path d="M124.744 56.3479C118.759 56.3479 112.774 56.3144 106.79 56.3479C105.416 56.3479 105.277 56.0559 105.801 54.8738C113.316 37.2637 120.805 19.633 128.268 1.98151C128.673 1.02427 129.143 0.612661 130.279 0.622233C136.869 0.698812 143.47 0.719553 150.082 0.684454C151.328 0.684454 151.565 0.914191 151.071 2.06288C148.931 6.9448 146.87 11.8602 144.779 16.7661C143.855 18.9342 143.855 18.9342 146.188 18.9342C152.291 18.9342 158.4 18.9773 164.508 18.9055C165.961 18.9055 166.134 19.207 165.595 20.4658C161.617 29.7702 157.718 39.132 153.734 48.422C151.397 53.9117 147.24 56.4676 141.033 56.3479H124.724H124.744ZM148.258 28.4922C145.53 28.4922 143.069 28.4922 140.603 28.4922C140.361 28.4575 140.114 28.5053 139.903 28.6275C139.693 28.7497 139.534 28.9387 139.452 29.1623C137.969 32.7376 136.442 36.3081 134.861 40.0509C137.07 40.0509 139.091 40.1754 141.088 40.0078C141.805 39.9519 142.493 39.7075 143.077 39.301C143.661 38.8945 144.12 38.3412 144.404 37.7009C145.713 34.7478 146.894 31.7469 148.258 28.4922Z" fill="white"/>
<path d="M157.841 56.3277L167.844 32.7844C172.173 22.5898 176.499 12.3921 180.822 2.19108C181.183 1.33435 181.455 0.649926 182.705 0.664284C189.624 0.750436 196.543 0.740863 203.432 0.769581C203.668 0.801072 203.901 0.852316 204.129 0.922739L198.87 13.3094C198.263 14.7453 197.724 16.2098 197.027 17.617C196.424 18.8135 196.844 19.0241 198.015 19.0146C204.247 18.9811 210.479 19.0146 216.706 19.0146C218.777 19.0146 218.777 19.0146 217.996 20.8716C214.171 29.9175 210.346 38.9618 206.521 48.0045C203.951 54.0639 200.15 56.4474 193.424 56.4282C182.013 56.3947 170.602 56.4282 159.186 56.4282C158.835 56.3852 158.474 56.3564 157.841 56.3277ZM200.936 28.4912C198.203 28.4912 195.703 28.4912 193.197 28.4912C192.958 28.4703 192.719 28.5311 192.521 28.6631C192.323 28.7951 192.179 28.99 192.115 29.2139C190.721 32.5164 189.307 35.8141 187.904 39.1118C187.642 39.7292 187.686 40.136 188.546 40.1217C190.207 40.0834 191.872 40.1743 193.523 40.0451C194.246 40.0226 194.949 39.8115 195.558 39.4341C196.166 39.0567 196.659 38.5269 196.983 37.9009C198.371 34.8904 199.562 31.7793 200.936 28.4912Z" fill="white"/>
<path d="M236.326 42.7784H268.613C270.708 42.7784 270.708 42.7784 269.918 44.6594C268.662 47.6412 267.382 50.6134 266.157 53.6048C265.351 55.5671 263.943 56.4382 261.739 56.4334C246.561 56.3999 231.379 56.4334 216.202 56.4334C212.945 56.4334 211.379 54.2413 212.639 51.2739C217.087 40.7969 221.589 30.3439 226.042 19.8717C226.138 19.5348 226.358 19.2435 226.66 19.0523C226.962 18.8611 227.326 18.7832 227.683 18.8331C243.791 18.8522 259.897 18.8522 276.001 18.8331C276.516 18.8405 277.02 18.9684 277.472 19.206C277.924 19.4436 278.31 19.7837 278.597 20.1972C278.883 20.6108 279.062 21.0854 279.118 21.5805C279.174 22.0756 279.105 22.5765 278.917 23.0401C277.257 27.4626 275.329 31.7893 273.55 36.1687C273.145 37.1642 272.329 36.8052 271.672 36.8052C261.363 36.8052 251.059 36.8052 240.754 36.7287C239.381 36.7287 238.619 37.0302 238.19 38.3512C237.71 39.8014 237.003 41.1798 236.326 42.7784ZM249.873 32.5647V32.6221H252.64H255.408C259.02 32.6221 258.976 32.6221 260.35 29.4489C260.844 28.2667 260.844 27.8503 259.302 27.879C254.938 27.9556 250.574 27.879 246.206 27.879C242.405 27.879 242.445 27.879 241.095 31.3586C240.695 32.3828 240.937 32.5838 241.96 32.5695C244.585 32.5216 247.229 32.5647 249.873 32.5647Z" fill="white"/>
<path d="M112.443 18.8857C111.697 20.6806 111.045 22.2744 110.373 23.8586C106.719 32.4737 103.062 41.0729 99.4012 49.6562C97.6764 53.7053 93.4707 56.5244 89.0228 56.3856C79.0299 56.0793 69.0371 56.3377 59.0442 56.2468C56.0789 56.2468 53.1137 56.2468 50.1484 56.2468C46.1404 56.2468 43.7237 52.9491 45.2459 49.3164C49.3627 39.4855 53.8649 28.9703 58.0162 19.1633L78.6099 19.3644C76.1388 25.0121 73.3564 31.8085 70.9348 37.461C69.9464 39.7775 70.2133 40.1652 72.798 40.1699C75.269 40.1699 77.7401 40.1699 80.2111 40.1699C82.8601 40.2035 83.9819 39.5334 85.0099 37.1259C87.387 31.5644 90.1892 24.8781 92.4922 19.283L112.443 18.8857Z" fill="white"/>
<path d="M61.8958 9.54251L65.5727 0.860352H86.1268L82.6871 9.54251H61.8958Z" fill="white"/>
<path d="M96.4557 9.54251L99.9942 0.860352H119.792L116.481 9.54251H96.4557Z" fill="white"/>
</svg>
